<svg
  xmlns="http://www.w3.org/2000/svg"
  width="48"
  height="48"
  viewBox="0 0 48 48"
>
  <path
    fill-rule="evenodd"
    d="M38.58 37.248c-.283-.282-.523-.448-.734-.508a.532.532 0 00-.552.132l-.139.138a15.775 15.775 0 01-11.191 4.636 15.771 15.771 0 01-11.191-4.636c-1.515-1.514-2.656-3.207-3.392-5.03-.718-1.779-.953-3.116-1.03-3.555a7.26 7.26 0 00-.017-.098c-.1-.517-.575-.553-1.26-.449-.285.044-1.151.176-1.068.8l.002.014a18.117 18.117 0 005.1 9.983 18.115 18.115 0 0012.856 5.326 18.118 18.118 0 0012.856-5.327c.004-.004.095-.094.145-.149.184-.2.344-.55-.386-1.277zM25.94 8.286c-2.345 0-4.84.473-6.673 1.266a.524.524 0 00-.339.455c-.024.209.033.484.173.842.113.29.415 1.062 1 .84 1.876-.716 3.95-1.11 5.84-1.11 2.14 0 4.217.419 6.171 1.245 1.553.657 3.019 1.606 4.612 2.987.116.1.24.151.366.151.31 0 .609-.305.863-.59.426-.478.718-.874.299-1.271-1.522-1.442-3.189-2.518-5.246-3.388a18.036 18.036 0 00-7.066-1.427zm-3.197 19.83c.003.265.245.497.39.636l.046.044c.248.245.485.369.703.369.18 0 .292-.086.332-.123.109-.101 1.347-1.356 1.465-1.476l1.381 1.377c.128.144.267.216.429.22.22 0 .46-.13.714-.39.596-.608.298-.936.154-1.094l-1.4-1.4 1.46-1.47c.32-.345.037-.713-.245-.995-.41-.41-.804-.515-1.057-.282l-1.45 1.453-1.468-1.467a.402.402 0 00-.283-.114c-.196 0-.427.132-.688.393-.451.451-.548.763-.313 1.012l1.467 1.463-1.459 1.461a.532.532 0 00-.178.383zm-9.304 2.167c.01.024.216.597.336.881a13.044 13.044 0 002.806 4.161 13.047 13.047 0 009.258 3.834 13.045 13.045 0 009.258-3.835 13.047 13.047 0 003.836-9.258 13.047 13.047 0 00-3.835-9.258 13.048 13.048 0 00-9.259-3.835c-1.788 0-3.575.356-5.167 1.03-1.272.537-3.427 1.924-4.688 3.224l-.007.008V6.459h18.1c.66-.007.66-.927.66-1.23 0-.302 0-1.221-.661-1.229H14.505a.86.86 0 00-.863.854V20.02c0 .49.61.843 1.176.964 1.106.236 1.362-.117 1.632-.491l.036-.05c.414-.614 1.706-1.915 1.72-1.928 2.016-2.016 4.712-3.127 7.592-3.127a10.63 10.63 0 017.571 3.127 10.613 10.613 0 013.138 7.55c0 2.856-1.109 5.537-3.122 7.55-1.987 1.987-4.764 3.127-7.617 3.127a10.35 10.35 0 01-5.397-1.49l.007-9.222c0-1.23.534-2.566 1.427-3.576a5.233 5.233 0 013.966-1.79c1.487 0 2.876.565 3.91 1.59a5.338 5.338 0 011.594 3.819c0 3.081-2.424 5.496-5.517 5.496-.597 0-1.68-.264-1.725-.275-.625-.186-.89.681-.978.967-.337 1.1.169 1.317.273 1.35.996.309 1.649.367 2.505.367 4.368 0 7.92-3.554 7.92-7.924 0-4.334-3.55-7.86-7.915-7.86a8.01 8.01 0 00-5.654 2.3c-1.436 1.413-2.26 3.297-2.26 5.168l-.001.047c-.007.233-.012 5.762-.013 7.576l-.008-.009c-.821-.909-1.633-2.3-2.17-3.722-.211-.557-.688-.458-1.338-.258-.284.087-1.147.354-.956.978l.002.008z"
    clip-rule="evenodd"
  />
</svg>
