<svg
  xmlns="http://www.w3.org/2000/svg"
  width="48"
  height="48"
  viewBox="0 0 48 48"
>
  <rect width="48" height="48" fill="#fff" rx="8" />
  <path
    fill="#009BDF"
    d="M34.02 12.055c-1.408 0-2.816.302-3.621.604 0 0 1.207-1.006 3.42-1.308C33.116 6.622 28.89 3 23.747 3A10.155 10.155 0 0013.57 13.175c0 1.106.302 2.817.704 3.924 0 0-1.006-1.006-1.509-3.421C7.736 13.98 4 18.105 4 23.148c0 5.245 4.226 9.47 9.37 9.47h.201c0-.704 0-1.408.201-2.113.201-.905.503-1.81 1.006-2.615.403-.705.805-1.308 1.308-1.912l7.257-10.175a3.498 3.498 0 012.214-1.207c.704-.1 1.408.1 2.012.503l.1.1.101.101a3.497 3.497 0 011.208 2.214c.1.704-.101 1.408-.504 2.012v.1l-2.603 3.623c.805.2 1.51.503 2.214.905a10.739 10.739 0 014.024 3.924 9.48 9.48 0 011.107 3.723v1.107h.604c5.634 0 10.174-4.54 10.174-10.175.189-6.137-4.339-10.678-9.973-10.678z"
  />
  <path
    fill="#3B3A3C"
    d="M30.157 36.63h-3.01v-4.915c0-1.906-1.605-3.511-3.51-3.511-1.907 0-3.512 1.605-3.512 3.51v4.916h-3.009c-.401 0-.702.2-.702.502 0 .3.2.501.802 1.203 1.906 1.906 4.615 4.715 4.815 5.016.402.401.803.903 1.505.903.702 0 1.104-.502 1.505-.903.3-.3 3.01-3.122 4.815-5.016.602-.602.802-.902.802-1.203.1-.414-.2-.502-.501-.502z"
  />
</svg>
