<svg
  xmlns="http://www.w3.org/2000/svg"
  width="48"
  height="48"
  viewBox="0 0 48 48"
>
  <rect width="40" height="39" x="4" y="4.5" fill="#FB0F01" rx="7" />
  <path
    fill="#fff"
    d="M20.494 13.45a1 1 0 01.924-.617h5.164a1 1 0 01.924.617l8.091 19.503a.667.667 0 01-.615.922h-4.876a.833.833 0 01-.771-.517c-1.66-4.048-3.325-8.093-5.027-12.123a.333.333 0 00-.616 0l-3.107 7.428c-.092.22.07.462.307.462h3.706l1.858 4.041a.5.5 0 01-.454.709H13.018a.667.667 0 01-.615-.922l8.091-19.503z"
  />
</svg>
