<svg
  xmlns="http://www.w3.org/2000/svg"
  width="48"
  height="48"
  viewBox="0 0 48 48"
>
  <path
    fill="#0C131F"
    d="M3 36.98V11.02c0-.495.027-.989.135-1.455.109-.467.244-.96.434-1.4.19-.439.406-.878.677-1.317.271-.439.597-.796.922-1.153a7.383 7.383 0 011.138-.933c.406-.274.84-.521 1.3-.686a9.016 9.016 0 011.382-.439c.488-.11.949-.137 1.437-.137h27.15c.488 0 .976.027 1.437.137a7.4 7.4 0 011.382.44c.433.191.867.41 1.3.685.434.275.786.604 1.138.933.352.357.65.741.922 1.153.27.412.514.85.677 1.317.19.467.325.933.434 1.4.108.494.135.96.135 1.454v25.962c0 .494-.027.987-.136 1.454-.108.494-.243.96-.433 1.4-.19.466-.406.878-.677 1.317-.271.439-.597.796-.922 1.153a7.389 7.389 0 01-1.138.933c-.406.274-.84.521-1.3.686a9.016 9.016 0 01-1.382.439c-.488.11-.949.137-1.437.137H10.452c-.488 0-.976-.027-1.437-.137a7.406 7.406 0 01-1.381-.44 8.444 8.444 0 01-1.301-.685c-.434-.275-.786-.604-1.138-.933a7.442 7.442 0 01-.921-1.153 6.042 6.042 0 01-.678-1.317 9.233 9.233 0 01-.433-1.4A6.124 6.124 0 013 36.981z"
  />
  <path
    fill="#fff"
    d="M17.876 33.578c-1.03 0-1.978-.11-2.818-.275a9.407 9.407 0 01-2.14-.686c-.163-.082-.217-.247-.217-.466v-3.348c0-.083.027-.11.081-.165.027-.028.108-.028.163.027a9.42 9.42 0 002.465 1.098 9.197 9.197 0 002.547.357c1.057 0 1.816-.165 2.277-.494.46-.33.677-.741.677-1.235 0-.33-.081-.604-.217-.85-.162-.248-.406-.495-.786-.742-.379-.247-.867-.494-1.517-.74l-1.382-.604c-1.138-.494-2.005-1.016-2.655-1.565-.65-.549-1.084-1.152-1.301-1.784a5.669 5.669 0 01-.38-2.058c0-1.015.245-1.948.732-2.744a5.043 5.043 0 012.222-1.948c.976-.467 2.222-.714 3.685-.714.867 0 1.707.055 2.493.165.759.11 1.382.301 1.843.521.135.082.19.192.19.357v3.183c0 .028-.028.083-.082.11-.027.027-.108.027-.162-.027-.542-.302-1.22-.522-1.924-.714a15.647 15.647 0 00-2.304-.192c-.514 0-1.002.027-1.354.137-.38.11-.678.22-.895.357-.216.137-.406.33-.514.521-.109.22-.163.44-.163.659 0 .302.081.576.244.796.162.247.46.466.84.713.38.247.921.522 1.599.824l1.03.384c1.219.521 2.167 1.043 2.845 1.619.677.576 1.165 1.18 1.436 1.866a5.71 5.71 0 01.406 2.168c0 1.098-.298 2.086-.867 2.91a5.656 5.656 0 01-2.412 1.92c-1.03.44-2.276.659-3.685.659zm16.339-3.046v2.305c0 .192-.08.329-.216.356-.353.11-.732.193-1.111.275-.38.082-.84.11-1.328.11-1.22 0-2.14-.33-2.845-.96-.678-.632-1.03-1.675-1.03-3.075V22.6h-1.653c-.162 0-.217-.082-.217-.247v-2.799c0-.164.082-.22.244-.22h1.653c.027-.329.027-.685.082-1.097.027-.412.054-.85.108-1.262.027-.412.081-.769.108-1.043.027-.055.027-.11.082-.165.027-.027.08-.082.135-.11l3.306-.411c.054-.028.108-.028.135 0 .027.027.055.082.055.164-.028.44-.055 1.016-.082 1.757-.027.74-.027 1.454-.054 2.168h2.574c.109 0 .163.082.163.22v2.853c0 .11-.027.165-.136.192H31.56v6.01c0 .632.108 1.098.325 1.373.217.274.596.411 1.165.411.163 0 .325 0 .46-.027.163 0 .299-.028.462-.028.054-.027.108-.027.162.028.054.027.081.082.081.165z"
  />
</svg>
