<svg
  xmlns="http://www.w3.org/2000/svg"
  width="48"
  height="48"
  viewBox="0 0 48 48"
>
  <rect width="48" height="48" fill="#0C131F" rx="8" />
  <path
    fill="#fff"
    d="M17.001 34.974c-1.176 0-2.26-.125-3.22-.313-.96-.188-1.766-.47-2.447-.784-.186-.094-.248-.283-.248-.533v-3.827c0-.094.031-.125.093-.188.031-.031.124-.031.186.031.898.565 1.827.973 2.818 1.255a10.51 10.51 0 002.911.408c1.208 0 2.075-.189 2.601-.565.527-.376.775-.847.775-1.411 0-.377-.093-.69-.248-.973-.186-.282-.465-.564-.898-.846-.434-.283-.991-.565-1.734-.847l-1.58-.69c-1.3-.565-2.291-1.16-3.035-1.788-.743-.627-1.238-1.317-1.486-2.038a6.478 6.478 0 01-.434-2.353c0-1.16.28-2.227.837-3.136.588-.941 1.393-1.694 2.539-2.227 1.115-.533 2.54-.815 4.212-.815.99 0 1.95.062 2.849.188.867.125 1.579.345 2.105.596.155.094.217.22.217.407v3.639c0 .031-.03.094-.093.125-.03.031-.123.031-.186-.031-.619-.345-1.393-.596-2.198-.816a17.894 17.894 0 00-2.632-.22c-.589 0-1.146.032-1.549.158-.433.125-.774.25-1.022.407a1.79 1.79 0 00-.588.596 1.687 1.687 0 00-.186.753c0 .345.093.659.279.91.186.282.526.533.96.815.433.282 1.053.596 1.827.94l1.177.44c1.393.596 2.477 1.192 3.251 1.85.774.659 1.332 1.349 1.642 2.133a6.52 6.52 0 01.464 2.478c0 1.254-.34 2.383-.99 3.324a6.465 6.465 0 01-2.757 2.196c-1.177.502-2.601.752-4.212.752zm18.674-3.481v2.635c0 .22-.093.376-.248.407-.402.126-.836.22-1.27.314-.433.094-.96.126-1.517.126-1.394 0-2.447-.377-3.252-1.098-.774-.722-1.176-1.913-1.176-3.513V22.43h-1.89c-.185 0-.247-.094-.247-.282v-3.2c0-.188.093-.25.279-.25h1.889c.03-.377.03-.784.092-1.255.031-.47.062-.972.124-1.443.031-.47.093-.878.124-1.191.031-.063.031-.126.093-.188a.653.653 0 01.155-.126l3.778-.47c.062-.032.124-.032.155 0a.27.27 0 01.062.188c-.031.502-.062 1.16-.093 2.007-.031.847-.031 1.662-.062 2.478h2.942c.124 0 .186.094.186.25v3.262c0 .126-.031.189-.155.22H32.64v6.869c0 .721.124 1.254.372 1.568.247.314.68.47 1.331.47.186 0 .372 0 .527-.031.185 0 .34-.031.526-.031.062-.032.124-.032.186.031.062.031.093.094.093.188z"
  />
</svg>
