<svg
  xmlns="http://www.w3.org/2000/svg"
  width="48"
  height="48"
  viewBox="0 0 48 48"
>
  <path
    fill="#0C131F"
    d="M4 36.347V11.653c0-.47.026-.94.129-1.384.103-.444.232-.914.413-1.331.18-.418.387-.836.645-1.253.258-.418.568-.757.878-1.097a7.03 7.03 0 011.083-.887c.387-.261.8-.496 1.24-.653a8.527 8.527 0 011.315-.417c.465-.105.904-.131 1.368-.131h25.858c.465 0 .93.026 1.368.13.464.105.903.235 1.316.418a9.44 9.44 0 011.239.653c.413.26.748.574 1.084.887.335.34.619.705.877 1.097.258.391.49.809.645 1.253.18.444.31.887.413 1.331.103.47.129.914.129 1.384v24.694c0 .47-.026.94-.129 1.384-.103.47-.232.914-.413 1.331-.18.444-.387.836-.645 1.253-.258.418-.568.757-.878 1.097-.335.339-.696.626-1.083.887s-.8.496-1.24.653a8.528 8.528 0 01-1.315.418c-.465.104-.903.13-1.368.13H11.097c-.465 0-.93-.026-1.368-.13a7.058 7.058 0 01-1.316-.418 8.052 8.052 0 01-1.239-.653c-.413-.26-.748-.574-1.084-.887a7.08 7.08 0 01-.877-1.097 5.747 5.747 0 01-.645-1.253 8.767 8.767 0 01-.413-1.331A5.817 5.817 0 014 36.347z"
  />
  <path
    fill="#fff"
    d="M18.168 33.145c-.98 0-1.884-.104-2.684-.26a8.964 8.964 0 01-2.039-.654c-.155-.079-.206-.236-.206-.445v-3.188c0-.079.026-.105.077-.157.026-.026.103-.026.155.026.748.47 1.523.81 2.348 1.046a8.76 8.76 0 002.426.34c1.007 0 1.73-.158 2.168-.471.439-.314.645-.706.645-1.176a1.64 1.64 0 00-.206-.81c-.155-.236-.387-.471-.749-.706-.361-.236-.826-.47-1.445-.706l-1.316-.575c-1.084-.47-1.91-.967-2.529-1.49-.62-.522-1.032-1.097-1.239-1.698a5.4 5.4 0 01-.361-1.96c0-.968.232-1.856.697-2.614a4.801 4.801 0 012.116-1.856c.929-.444 2.116-.68 3.51-.68.825 0 1.625.053 2.374.157.722.105 1.316.288 1.755.497.129.078.18.183.18.34v3.031c0 .027-.026.079-.077.105-.026.026-.103.026-.155-.026-.516-.288-1.161-.497-1.832-.68a14.913 14.913 0 00-2.194-.183c-.49 0-.955.026-1.29.131-.361.104-.645.21-.852.34-.206.13-.387.313-.49.496-.103.21-.155.419-.155.628 0 .287.078.549.232.758.155.235.439.444.8.68.362.234.878.496 1.523.783l.98.366c1.162.497 2.065.993 2.71 1.542s1.11 1.124 1.368 1.777a5.44 5.44 0 01.387 2.065c0 1.046-.284 1.986-.826 2.77a5.387 5.387 0 01-2.297 1.83c-.98.418-2.167.627-3.51.627zM33.729 30.244v2.196c0 .183-.077.313-.206.34-.336.104-.697.182-1.059.26-.36.08-.8.105-1.264.105-1.161 0-2.039-.313-2.71-.914-.645-.602-.98-1.595-.98-2.928v-6.612h-1.575c-.154 0-.206-.078-.206-.235V19.79c0-.157.077-.21.232-.21h1.575c.025-.313.025-.653.077-1.045.026-.392.052-.81.103-1.202.026-.392.078-.732.103-.993.026-.052.026-.105.078-.157.026-.026.077-.078.129-.105l3.148-.392c.052-.026.103-.026.13 0 .025.027.05.079.05.157-.025.418-.05.967-.077 1.673-.025.706-.025 1.385-.051 2.065h2.451c.104 0 .155.078.155.209v2.718c0 .105-.026.157-.129.183H31.2v5.724c0 .6.103 1.045.31 1.306.206.262.567.393 1.11.393.154 0 .309 0 .438-.027.155 0 .284-.026.439-.026.051-.026.103-.026.155.026.051.027.077.079.077.157z"
  />
</svg>
