<svg
  xmlns="http://www.w3.org/2000/svg"
  width="48"
  height="48"
  viewBox="0 0 48 48"
>
  <path
    fill="#00005B"
    d="M10.438 3.5h27.124C41.675 3.5 45 6.833 45 10.956v26.138c0 4.123-3.325 7.456-7.438 7.456H10.439C6.324 44.55 3 41.217 3 37.094V10.956C3 6.833 6.325 3.5 10.438 3.5z"
  />
  <path
    fill="#99F"
    d="M19.87 28.03h-6.51l-1.33 4.135a.306.306 0 01-.332.245h-3.29c-.193 0-.246-.105-.193-.315l5.635-16.172c.053-.176.105-.333.175-.543.07-.369.105-.754.105-1.14-.018-.087.052-.175.14-.192h4.533c.122 0 .21.052.227.14l6.387 17.96c.053.192 0 .28-.175.28h-3.657a.264.264 0 01-.28-.193L19.87 28.03zm-5.495-3.487h4.445a24.916 24.916 0 00-.402-1.261 52.889 52.889 0 01-.473-1.507c-.175-.543-.332-1.069-.508-1.612a37.943 37.943 0 01-.472-1.56c-.14-.49-.262-.946-.385-1.366h-.035c-.158.753-.35 1.507-.595 2.26-.262.841-.525 1.717-.805 2.593a27.299 27.299 0 01-.77 2.453zm21.42 1.875h-5.548c.07.543.245 1.086.543 1.56.315.472.753.84 1.278 1.05.7.299 1.47.456 2.24.439.612-.018 1.224-.07 1.82-.193a6.563 6.563 0 001.557-.403c.087-.07.14-.035.14.14v2.68c0 .07-.018.141-.035.211a.41.41 0 01-.123.123 7.48 7.48 0 01-1.75.525c-.822.158-1.645.228-2.485.21-1.33 0-2.45-.21-3.36-.613a5.892 5.892 0 01-2.204-1.664 6.432 6.432 0 01-1.208-2.295 8.953 8.953 0 01-.367-2.558c0-.947.14-1.875.437-2.786a7.153 7.153 0 011.313-2.4 6.344 6.344 0 012.117-1.665c.823-.403 1.802-.544 2.923-.544a6.315 6.315 0 012.712.544 4.821 4.821 0 011.837 1.401 6.417 6.417 0 011.05 1.998 6.9 6.9 0 01.333 2.137c0 .42-.017.789-.035 1.122-.035.333-.052.578-.07.736-.017.122-.122.227-.245.227-.105 0-.297.018-.578.035a8.26 8.26 0 01-1.015.053c-.402 0-.822-.07-1.277-.07zm-5.548-2.558h3.693c.455 0 .788 0 .998-.018a.855.855 0 00.402-.14v-.175c0-.228-.035-.438-.105-.648a2.316 2.316 0 00-2.275-1.612 2.464 2.464 0 00-2.328 1.331c-.21.403-.332.824-.385 1.262z"
  />
</svg>
