<svg
  xmlns="http://www.w3.org/2000/svg"
  width="48"
  height="48"
  viewBox="0 0 48 48"
>
  <rect width="48" height="48" fill="#00005B" rx="8" />
  <path
    fill="#99F"
    d="M19.28 28.634h-7.44l-1.52 4.726c-.04.18-.2.3-.38.28H6.18c-.22 0-.28-.12-.22-.36l6.44-18.483c.06-.2.12-.38.2-.62a7 7 0 00.12-1.302c-.02-.1.06-.2.16-.22h5.18c.14 0 .24.06.26.16l7.3 20.525c.06.22 0 .32-.2.32h-4.18c-.14.02-.28-.08-.32-.22l-1.64-4.806zM13 24.65h5.08c-.12-.42-.28-.92-.46-1.441-.18-.541-.36-1.122-.54-1.723-.2-.62-.38-1.221-.58-1.842-.2-.62-.38-1.201-.54-1.782-.16-.56-.3-1.081-.44-1.562h-.04c-.18.861-.4 1.722-.68 2.583-.3.961-.6 1.963-.92 2.964A31.203 31.203 0 0113 24.65zm24.48 2.142h-6.34c.08.62.28 1.241.62 1.782.36.54.86.961 1.46 1.202.8.34 1.68.52 2.56.5.7-.02 1.4-.08 2.08-.22a7.51 7.51 0 001.78-.46c.1-.08.16-.04.16.16v3.063c0 .08-.02.16-.04.24-.04.06-.08.1-.14.14a8.56 8.56 0 01-2 .602c-.94.18-1.88.26-2.84.24-1.52 0-2.8-.24-3.84-.701a6.735 6.735 0 01-2.52-1.902 7.351 7.351 0 01-1.38-2.624c-.28-.94-.42-1.922-.42-2.923 0-1.081.16-2.143.5-3.184a8.175 8.175 0 011.5-2.743 7.249 7.249 0 012.42-1.903c.94-.46 2.06-.62 3.34-.62 1.06-.02 2.12.18 3.1.62.82.36 1.54.901 2.1 1.602.52.681.94 1.442 1.2 2.283.26.801.38 1.622.38 2.443 0 .48-.02.901-.04 1.282-.04.38-.06.66-.08.84-.02.14-.14.26-.28.26-.12 0-.34.02-.66.04-.32.041-.7.061-1.16.061-.46 0-.94-.08-1.46-.08zm-6.34-2.924h4.22c.52 0 .9 0 1.14-.02.16-.02.32-.06.46-.16v-.2c0-.26-.04-.5-.12-.741a2.647 2.647 0 00-2.6-1.842c-1.1-.06-2.14.52-2.66 1.522-.24.46-.38.94-.44 1.441z"
  />
</svg>
