<svg
  xmlns="http://www.w3.org/2000/svg"
  width="48"
  height="48"
  viewBox="0 0 48 48"
>
  <path
    fill="#00005B"
    d="M11.083 4.5h25.834A7.077 7.077 0 0144 11.583v24.834a7.077 7.077 0 01-7.083 7.083H11.083A7.077 7.077 0 014 36.417V11.583A7.077 7.077 0 0111.083 4.5z"
  />
  <path
    fill="#99F"
    d="M20.067 27.862h-6.2L12.6 31.8a.292.292 0 01-.317.234H9.15c-.183 0-.233-.1-.183-.3l5.366-15.403c.05-.167.1-.317.167-.517.067-.35.1-.718.1-1.085-.017-.083.05-.167.133-.183h4.317c.117 0 .2.05.217.133l6.083 17.104c.05.184 0 .267-.167.267H21.7c-.117.017-.233-.066-.267-.183l-1.366-4.005zm-5.234-3.32h4.234a23.34 23.34 0 00-.384-1.202c-.15-.45-.3-.935-.45-1.435-.166-.518-.316-1.018-.483-1.536a36.02 36.02 0 01-.45-1.485c-.133-.467-.25-.9-.367-1.301H16.9c-.15.717-.333 1.435-.567 2.152-.25.801-.5 1.636-.766 2.47a25.998 25.998 0 01-.734 2.336zm20.4 1.785H29.95a3.68 3.68 0 00.517 1.485c.3.45.716.8 1.216 1 .667.285 1.4.435 2.134.418a10.017 10.017 0 001.733-.183 6.258 6.258 0 001.483-.384c.084-.067.134-.034.134.133v2.553a.836.836 0 01-.034.2.389.389 0 01-.116.117c-.534.234-1.084.4-1.667.501-.783.15-1.567.217-2.367.2-1.266 0-2.333-.2-3.2-.584a5.613 5.613 0 01-2.1-1.585 6.128 6.128 0 01-1.15-2.186 8.528 8.528 0 01-.35-2.436c0-.901.134-1.786.417-2.654a6.813 6.813 0 011.25-2.286 6.04 6.04 0 012.017-1.585c.783-.384 1.716-.517 2.783-.517a6.015 6.015 0 012.583.517c.684.3 1.284.75 1.75 1.335a6.112 6.112 0 011 1.902 6.57 6.57 0 01.317 2.036c0 .4-.017.751-.033 1.068-.034.317-.05.55-.067.701-.017.117-.117.217-.233.217-.1 0-.284.017-.55.033-.267.034-.584.05-.967.05s-.783-.066-1.217-.066zM29.95 23.89h3.517c.433 0 .75 0 .95-.016a.815.815 0 00.383-.134v-.167c0-.217-.033-.417-.1-.617a2.206 2.206 0 00-2.167-1.535 2.346 2.346 0 00-2.216 1.268c-.2.384-.317.784-.367 1.201z"
  />
</svg>
