<svg
  xmlns="http://www.w3.org/2000/svg"
  width="48"
  height="48"
  viewBox="0 0 48 48"
>
  <rect width="48" height="48" fill="#fff" rx="8" />
  <path
    fill="#FCB400"
    d="M22.075 9.273L8.653 14.827c-.746.309-.738 1.37.013 1.667l13.478 5.345c1.184.47 2.503.47 3.687 0l13.478-5.345c.751-.298.759-1.358.012-1.667L25.9 9.273a5.001 5.001 0 00-3.825 0"
  />
  <path
    fill="#18BFFF"
    d="M25.183 24.757v13.352a.9.9 0 001.23.836l15.02-5.83A.899.899 0 0042 32.28V18.928a.9.9 0 00-1.23-.836l-15.02 5.83a.9.9 0 00-.567.835"
  />
  <path
    fill="#F82B60"
    d="M21.676 25.446l-4.457 2.152-.453.219-9.408 4.508C6.76 32.613 6 32.178 6 31.515v-12.53c0-.24.123-.447.288-.603a.975.975 0 01.228-.17.959.959 0 01.818-.064L21.6 23.801c.726.287.783 1.304.075 1.645"
  />
  <path
    fill-opacity=".25"
    d="M21.676 25.446l-4.457 2.152-10.931-9.217a.975.975 0 01.228-.17.959.959 0 01.818-.064L21.6 23.801c.726.287.783 1.304.075 1.645"
  />
</svg>
