<svg
  xmlns="http://www.w3.org/2000/svg"
  width="48"
  height="48"
  viewBox="0 0 48 48"
>
  <path
    fill="#FCB400"
    d="M21.861 7.642L6.948 13.813c-.829.343-.82 1.521.014 1.852l14.976 5.939a5.557 5.557 0 004.096 0l14.976-5.939c.834-.33.843-1.508.014-1.852L26.11 7.643a5.557 5.557 0 00-4.25 0z"
  />
  <path
    fill="#18BFFF"
    d="M25.314 24.846v14.836a1 1 0 001.368.93l16.687-6.478a.999.999 0 00.631-.929V18.37a1 1 0 00-1.367-.93l-16.688 6.478a1 1 0 00-.63.929"
  />
  <path
    fill="#F82B60"
    d="M21.418 25.612l-4.952 2.391-.503.243-10.454 5.01c-.663.32-1.509-.164-1.509-.9V18.432c0-.267.137-.496.32-.67a1.18 1.18 0 01.253-.19c.25-.15.606-.19.909-.07l15.853 6.282c.806.32.869 1.449.083 1.828"
  />
  <path
    fill-opacity=".25"
    d="M21.418 25.612l-4.952 2.391L4.32 17.763c.075-.075.16-.14.253-.19.25-.15.606-.19.909-.07l15.853 6.28c.806.32.869 1.45.083 1.83"
  />
</svg>
