<svg
  xmlns="http://www.w3.org/2000/svg"
  width="48"
  height="48"
  viewBox="0 0 48 48"
>
  <path
    fill="#5FCAF4"
    fill-rule="evenodd"
    d="M24 4C12.954 4 4 12.954 4 24c0 10.142 7.549 18.52 17.334 19.823v-4.03a2.65 2.65 0 00-1.794-2.52c-5.646-1.896-9.685-7.292-9.536-13.61A13.95 13.95 0 0124.144 10C31.81 10.078 38 16.316 38 24c0 .175-.004.35-.01.523l-.005.117c-.007.16-.017.322-.03.481l-.013.152a12.422 12.422 0 01-.082.708l-.024.17c-1.714 11.291-16.42 17.638-16.5 17.672.871.116 1.76.177 2.664.177 11.046 0 20-8.954 20-20S35.046 4 24 4z"
    clip-rule="evenodd"
  />
</svg>
