<svg
  xmlns="http://www.w3.org/2000/svg"
  width="48"
  height="48"
  viewBox="0 0 48 48"
>
  <path
    fill="#F90"
    d="M38.709 36.928c-16.589 7.857-26.884 1.283-33.474-2.71-.408-.251-1.101.06-.5.747C6.931 37.615 14.126 44 23.518 44c9.398 0 14.989-5.104 15.688-5.994.695-.883.204-1.37-.498-1.078zm4.658-2.56c-.445-.578-2.709-.686-4.133-.512-1.426.17-3.568 1.037-3.382 1.558.096.195.291.108 1.271.02.983-.097 3.736-.443 4.31.303.575.752-.879 4.331-1.144 4.909-.257.577.098.726.58.341.475-.384 1.336-1.38 1.913-2.788.574-1.416.924-3.392.585-3.832z"
  />
  <path
    fill="#000"
    fill-rule="evenodd"
    d="M27.555 20.895c0 2.062.052 3.781-.995 5.612-.845 1.489-2.184 2.404-3.68 2.404-2.041 0-3.23-1.548-3.23-3.833 0-4.51 4.06-5.329 7.905-5.329v1.146zm5.361 12.899c-.351.312-.86.335-1.256.126-1.765-1.459-2.079-2.136-3.051-3.528-2.917 2.963-4.98 3.848-8.765 3.848-4.472 0-7.957-2.746-7.957-8.247 0-4.294 2.341-7.22 5.669-8.648 2.887-1.265 6.918-1.489 9.999-1.838v-.685c0-1.258.097-2.746-.644-3.833-.65-.975-1.892-1.377-2.984-1.377-2.026 0-3.836 1.034-4.277 3.178-.09.476-.441.945-.92.968l-5.16-.551c-.434-.097-.912-.447-.793-1.11C13.967 5.877 19.612 4 24.667 4c2.588 0 5.968.685 8.01 2.635 2.588 2.404 2.34 5.612 2.34 9.102v8.247c0 2.478 1.033 3.565 2.005 4.905.344.476.419 1.05-.015 1.406-1.084.9-3.014 2.576-4.076 3.514l-.015-.015"
    clip-rule="evenodd"
  />
  <path
    fill="#F90"
    d="M38.709 36.928c-16.589 7.857-26.884 1.283-33.474-2.71-.408-.251-1.101.06-.5.747C6.931 37.615 14.126 44 23.518 44c9.398 0 14.989-5.104 15.688-5.994.695-.883.204-1.37-.498-1.078zm4.658-2.56c-.445-.578-2.709-.686-4.133-.512-1.426.17-3.568 1.037-3.382 1.558.096.195.291.108 1.271.02.983-.097 3.736-.443 4.31.303.575.752-.879 4.331-1.144 4.909-.257.577.098.726.58.341.475-.384 1.336-1.38 1.913-2.788.574-1.416.924-3.392.585-3.832z"
  />
  <path
    fill="#000"
    fill-rule="evenodd"
    d="M27.555 20.895c0 2.062.052 3.781-.995 5.612-.845 1.489-2.184 2.404-3.68 2.404-2.041 0-3.23-1.548-3.23-3.833 0-4.51 4.06-5.329 7.905-5.329v1.146zm5.361 12.899c-.351.312-.86.335-1.256.126-1.765-1.459-2.079-2.136-3.051-3.528-2.917 2.963-4.98 3.848-8.765 3.848-4.472 0-7.957-2.746-7.957-8.247 0-4.294 2.341-7.22 5.669-8.648 2.887-1.265 6.918-1.489 9.999-1.838v-.685c0-1.258.097-2.746-.644-3.833-.65-.975-1.892-1.377-2.984-1.377-2.026 0-3.836 1.034-4.277 3.178-.09.476-.441.945-.92.968l-5.16-.551c-.434-.097-.912-.447-.793-1.11C13.967 5.877 19.612 4 24.667 4c2.588 0 5.968.685 8.01 2.635 2.588 2.404 2.34 5.612 2.34 9.102v8.247c0 2.478 1.033 3.565 2.005 4.905.344.476.419 1.05-.015 1.406-1.084.9-3.014 2.576-4.076 3.514l-.015-.015"
    clip-rule="evenodd"
  />
</svg>
