<svg
  xmlns="http://www.w3.org/2000/svg"
  width="48"
  height="48"
  viewBox="0 0 48 48"
>
  <rect width="48" height="48" fill="#fff" rx="8" />
  <path
    fill="#F90"
    d="M36.502 34.989c-14.1 6.678-22.85 1.09-28.452-2.303-.347-.214-.936.05-.425.634C9.491 35.572 15.607 41 23.59 41c7.988 0 12.741-4.338 13.335-5.095.59-.75.174-1.164-.423-.916zm3.96-2.177c-.379-.49-2.302-.582-3.513-.434-1.213.144-3.033.881-2.874 1.324.08.166.246.092 1.08.017.835-.083 3.175-.377 3.662.258.49.638-.746 3.681-.972 4.172-.218.49.084.617.493.29.404-.326 1.136-1.172 1.627-2.37.487-1.204.785-2.883.497-3.257z"
  />
  <path
    fill-rule="evenodd"
    d="M27.021 21.36c0 1.753.045 3.215-.845 4.77-.718 1.266-1.856 2.044-3.127 2.044-1.736 0-2.747-1.316-2.747-3.258 0-3.834 3.452-4.53 6.72-4.53v.975zm4.558 10.965c-.299.265-.731.284-1.068.107-1.5-1.24-1.767-1.816-2.593-2.999-2.48 2.518-4.234 3.271-7.45 3.271-3.801 0-6.764-2.334-6.764-7.01 0-3.65 1.99-6.136 4.819-7.35 2.453-1.076 5.88-1.266 8.498-1.563v-.582c0-1.07.083-2.335-.546-3.259-.553-.828-1.609-1.17-2.537-1.17-1.722 0-3.26.88-3.636 2.701-.076.405-.375.804-.781.823l-4.387-.468c-.368-.083-.775-.38-.673-.943C15.47 8.594 20.27 7 24.568 7c2.199 0 5.072.582 6.807 2.24 2.2 2.043 1.99 4.77 1.99 7.737v7.01c0 2.106.877 3.03 1.704 4.168.292.405.356.893-.013 1.196-.922.765-2.562 2.189-3.464 2.986l-.013-.013"
    clip-rule="evenodd"
  />
  <path
    fill="#F90"
    d="M36.502 34.989c-14.1 6.678-22.85 1.09-28.452-2.303-.347-.214-.936.05-.425.634C9.491 35.572 15.607 41 23.59 41c7.988 0 12.741-4.338 13.335-5.095.59-.75.174-1.164-.423-.916zm3.96-2.177c-.379-.49-2.302-.582-3.513-.434-1.213.144-3.033.881-2.874 1.324.08.166.246.092 1.08.017.835-.083 3.175-.377 3.662.258.49.638-.746 3.681-.972 4.172-.218.49.084.617.493.29.404-.326 1.136-1.172 1.627-2.37.487-1.204.785-2.883.497-3.257z"
  />
  <path
    fill-rule="evenodd"
    d="M27.021 21.36c0 1.753.045 3.215-.845 4.77-.718 1.266-1.856 2.044-3.127 2.044-1.736 0-2.747-1.316-2.747-3.258 0-3.834 3.452-4.53 6.72-4.53v.975zm4.558 10.965c-.299.265-.731.284-1.068.107-1.5-1.24-1.767-1.816-2.593-2.999-2.48 2.518-4.234 3.271-7.45 3.271-3.801 0-6.764-2.334-6.764-7.01 0-3.65 1.99-6.136 4.819-7.35 2.453-1.076 5.88-1.266 8.498-1.563v-.582c0-1.07.083-2.335-.546-3.259-.553-.828-1.609-1.17-2.537-1.17-1.722 0-3.26.88-3.636 2.701-.076.405-.375.804-.781.823l-4.387-.468c-.368-.083-.775-.38-.673-.943C15.47 8.594 20.27 7 24.568 7c2.199 0 5.072.582 6.807 2.24 2.2 2.043 1.99 4.77 1.99 7.737v7.01c0 2.106.877 3.03 1.704 4.168.292.405.356.893-.013 1.196-.922.765-2.562 2.189-3.464 2.986l-.013-.013"
    clip-rule="evenodd"
  />
</svg>
