<svg
  xmlns="http://www.w3.org/2000/svg"
  width="48"
  height="48"
  viewBox="0 0 48 48"
>
  <rect width="48" height="48" fill="#00005B" rx="8" />
  <path
    fill="#99F"
    d="M19.411 29.013h-7.426l-1.521 4.704c-.04.18-.2.3-.38.28H6.28c-.22 0-.28-.12-.22-.36l6.465-18.475c.06-.2.12-.36.2-.62.08-.421.12-.861.12-1.302-.02-.1.06-.2.16-.22h5.205c.16 0 .24.06.26.16l7.287 20.477c.06.22 0 .32-.2.32h-4.184c-.14.02-.28-.08-.32-.22l-1.642-4.744zm-6.265-3.983h5.084c-.12-.42-.28-.92-.46-1.441-.18-.54-.36-1.121-.54-1.722-.2-.62-.381-1.22-.581-1.841-.2-.62-.38-1.201-.54-1.782-.16-.56-.3-1.08-.441-1.56h-.04c-.18.86-.4 1.72-.68 2.581-.3.961-.601 1.962-.921 2.963-.28 1.02-.58 1.961-.881 2.802zm14.872 8.667v-11.89c0-.36 0-.78-.02-1.22-.02-.461-.02-.881-.04-1.282-.02-.4-.04-.78-.06-1.02a.191.191 0 01.04-.2c.06-.04.12-.06.2-.06h3.223c.12 0 .22.02.32.06.08.04.14.12.16.22.04.12.1.28.14.44.06.22.1.44.12.66a6.659 6.659 0 012.123-1.24c.78-.261 1.6-.401 2.422-.401.64 0 1.28.1 1.881.3a4.813 4.813 0 013.043 2.963c.32.82.44 1.901.44 3.202v9.468c0 .2-.08.28-.26.28l-3.763.04c-.16.02-.3-.08-.32-.24V24.73c-.02-.6-.14-1.201-.381-1.742-.18-.4-.46-.76-.82-1a2.366 2.366 0 00-1.362-.36c-.52 0-1.04.08-1.521.28-.44.18-.84.44-1.201.76v11.05c0 .2-.08.28-.26.28h-3.803a.25.25 0 01-.28-.22c-.04-.04-.04-.06-.02-.08z"
  />
</svg>
