<svg
  xmlns="http://www.w3.org/2000/svg"
  width="48"
  height="48"
  viewBox="0 0 48 48"
>
  <path
    fill="#00005B"
    d="M11.083 4.476h25.834A7.077 7.077 0 0144 11.56v24.834a7.077 7.077 0 01-7.083 7.083H11.083A7.077 7.077 0 014 36.393V11.559a7.077 7.077 0 017.083-7.083z"
  />
  <path
    fill="#99F"
    d="M20.167 27.81h-6.184l-1.266 3.916a.292.292 0 01-.317.233H9.233c-.183 0-.233-.1-.183-.3l5.383-15.383c.05-.166.1-.3.167-.517.067-.35.1-.716.1-1.083-.017-.083.05-.167.133-.183h4.334c.133 0 .2.05.216.133l6.067 17.05c.05.184 0 .267-.167.267H21.8c-.117.016-.233-.067-.267-.184l-1.366-3.95zm-5.217-3.317h4.233c-.1-.35-.233-.767-.383-1.2-.15-.45-.3-.933-.45-1.433-.167-.517-.317-1.017-.483-1.534-.167-.517-.317-1-.45-1.483-.134-.467-.25-.9-.367-1.3h-.033c-.15.716-.334 1.433-.567 2.15-.25.8-.5 1.633-.767 2.466a32.57 32.57 0 01-.733 2.334zm12.383 7.217v-9.9c0-.3 0-.65-.016-1.017-.017-.383-.017-.733-.034-1.067a30.45 30.45 0 00-.05-.85.159.159 0 01.034-.167c.05-.033.1-.05.166-.05h2.684c.1 0 .183.017.266.05a.26.26 0 01.134.184c.033.1.083.233.116.366.05.184.084.367.1.55a5.54 5.54 0 011.767-1.033 6.396 6.396 0 012.017-.333 4.97 4.97 0 011.566.25 4.007 4.007 0 012.534 2.466c.266.684.366 1.584.366 2.667v7.883c0 .167-.066.234-.216.234l-3.134.033c-.133.017-.25-.066-.266-.2v-7.533c-.017-.5-.117-1-.317-1.45a1.968 1.968 0 00-.683-.834 1.966 1.966 0 00-1.134-.3c-.433 0-.866.067-1.266.234-.367.15-.7.366-1 .633v9.2c0 .167-.067.233-.217.233h-3.167a.207.207 0 01-.233-.183c-.033-.033-.033-.05-.017-.067z"
  />
</svg>
