<svg
  xmlns="http://www.w3.org/2000/svg"
  width="48"
  height="48"
  viewBox="0 0 48 48"
>
  <path
    fill="#00005B"
    d="M10.438 3.5h27.124A7.436 7.436 0 0145 10.947v26.106a7.436 7.436 0 01-7.438 7.447H10.439A7.436 7.436 0 013 37.053V10.947A7.436 7.436 0 0110.438 3.5z"
  />
  <path
    fill="#99F"
    d="M19.975 28.03h-6.493l-1.33 4.117a.306.306 0 01-.332.246H8.495c-.192 0-.245-.105-.192-.316l5.652-16.172c.053-.175.105-.315.175-.543.07-.368.105-.754.105-1.139-.018-.088.053-.175.14-.193h4.55c.14 0 .21.053.227.14l6.37 17.925c.053.193 0 .28-.174.28H21.69c-.123.018-.245-.07-.28-.193l-1.435-4.152zm-5.478-3.487h4.445a24.916 24.916 0 00-.402-1.261 52.889 52.889 0 01-.473-1.507c-.175-.543-.332-1.069-.507-1.612a37.943 37.943 0 01-.473-1.56c-.14-.49-.262-.946-.384-1.366h-.035c-.158.753-.35 1.507-.595 2.26-.263.841-.526 1.717-.806 2.593a34.417 34.417 0 01-.77 2.453zM27.5 32.13V21.722c0-.315 0-.683-.017-1.069-.018-.403-.018-.77-.035-1.121a32.06 32.06 0 00-.053-.894.167.167 0 01.035-.175.296.296 0 01.175-.052h2.817c.105 0 .193.017.28.052a.27.27 0 01.14.193c.036.105.088.245.123.385.052.193.087.386.105.579a5.812 5.812 0 011.855-1.087c.683-.228 1.4-.35 2.117-.35.56 0 1.12.087 1.645.263a4.21 4.21 0 012.66 2.593c.28.718.386 1.664.386 2.803v8.288c0 .175-.07.245-.228.245l-3.29.035c-.14.018-.263-.07-.28-.21v-7.92a4.11 4.11 0 00-.333-1.524 2.068 2.068 0 00-.717-.876 2.063 2.063 0 00-1.19-.316c-.455 0-.91.07-1.33.246a3.68 3.68 0 00-1.05.666v9.671c0 .176-.07.246-.228.246h-3.325c-.122.017-.227-.07-.245-.193-.034-.035-.034-.053-.017-.07z"
  />
</svg>
