<svg
  xmlns="http://www.w3.org/2000/svg"
  width="48"
  height="48"
  viewBox="0 0 48 48"
>
  <rect width="48" height="48" fill="#fff" rx="8" />
  <path
    fill="#1A1918"
    d="M43.864 23.932c0 11.009-8.923 19.932-19.932 19.932C12.924 43.864 4 34.941 4 23.932 4 12.924 12.924 4 23.932 4c11.009 0 19.932 8.924 19.932 19.932z"
  />
  <path
    fill="#fff"
    d="M24.268 16.176l5.158 12.73-7.791-6.136 2.633-6.594zM33.43 31.84l-7.934-19.094c-.227-.55-.68-.842-1.23-.842-.55 0-1.036.292-1.262.842L14.297 33.69h2.979l3.447-8.635 10.287 8.31c.414.335.712.487 1.1.487.778 0 1.457-.583 1.457-1.424 0-.137-.048-.354-.136-.588z"
  />
</svg>
