<svg
  xmlns="http://www.w3.org/2000/svg"
  width="48"
  height="48"
  viewBox="0 0 48 48"
>
  <rect width="48" height="48" fill="#fff" rx="8" />
  <g clip-path="url(#ant__a)">
    <path
      fill="url(#ant__b)"
      d="M22.52 7.604L7.601 22.509a2.045 2.045 0 000 2.897l14.917 14.906a2.049 2.049 0 002.9 0l6.254-6.25a1.837 1.837 0 000-2.599 1.84 1.84 0 00-2.6 0l-4.742 4.738c-.2.2-.503.2-.703 0L11.716 24.298c-.2-.2-.2-.502 0-.702l11.912-11.903c.2-.2.503-.2.703 0l4.741 4.738a1.84 1.84 0 002.601 0 1.837 1.837 0 000-2.599L25.42 7.583a2.068 2.068 0 00-2.9.02z"
    />
    <path
      fill="url(#ant__c)"
      d="M22.52 7.604L7.601 22.509a2.045 2.045 0 000 2.897l14.917 14.906a2.049 2.049 0 002.9 0l6.254-6.25a1.837 1.837 0 000-2.599 1.84 1.84 0 00-2.6 0l-4.742 4.738c-.2.2-.503.2-.703 0L11.716 24.298c-.2-.2-.2-.502 0-.702l11.912-11.903c.497-.428 1.308-1.296 2.5-1.5.884-.15 1.852.182 2.902.997l-3.61-3.607a2.069 2.069 0 00-2.9.02z"
    />
    <path
      fill="url(#ant__d)"
      d="M33.117 30.077a1.84 1.84 0 002.601 0l4.614-4.61a2.046 2.046 0 000-2.897l-4.654-4.634a1.844 1.844 0 00-2.603.003 1.837 1.837 0 000 2.598l3.143 3.141c.2.2.2.502 0 .702l-3.1 3.098a1.837 1.837 0 000 2.599z"
    />
    <path
      fill="url(#ant__e)"
      d="M24.043 28.057a4.026 4.026 0 004.028-4.025 4.026 4.026 0 00-4.028-4.024 4.026 4.026 0 00-4.027 4.024 4.026 4.026 0 004.027 4.025z"
    />
  </g>
  <defs>
    <linearGradient
      id="ant__b"
      x1="22.657"
      x2="36.833"
      y1="7"
      y2="15.657"
      gradientUnits="userSpaceOnUse"
    >
      <stop stop-color="#4285EB" />
      <stop offset="1" stop-color="#2EC7FF" />
    </linearGradient>
    <linearGradient
      id="ant__c"
      x1="24.559"
      x2="17.557"
      y1="7"
      y2="43.187"
      gradientUnits="userSpaceOnUse"
    >
      <stop stop-color="#29CDFF" />
      <stop offset=".379" stop-color="#148EFF" />
      <stop offset="1" stop-color="#0A60FF" />
    </linearGradient>
    <linearGradient
      id="ant__d"
      x1="38.388"
      x2="29.278"
      y1="15.685"
      y2="29.932"
      gradientUnits="userSpaceOnUse"
    >
      <stop stop-color="#FA816E" />
      <stop offset=".415" stop-color="#F74A5C" />
      <stop offset="1" stop-color="#F51D2C" />
    </linearGradient>
    <linearGradient
      id="ant__e"
      x1="25.504"
      x2="22.473"
      y1="17.135"
      y2="29.261"
      gradientUnits="userSpaceOnUse"
    >
      <stop stop-color="#FA8E7D" />
      <stop offset=".513" stop-color="#F74A5C" />
      <stop offset="1" stop-color="#F51D2C" />
    </linearGradient>
    <clipPath id="ant__a">
      <path fill="#fff" d="M0 0h34v34H0z" transform="translate(7 7)" />
    </clipPath>
  </defs>
</svg>
