<svg
  xmlns="http://www.w3.org/2000/svg"
  width="48"
  height="48"
  viewBox="0 0 48 48"
>
  <rect width="48" height="48" fill="#fff" rx="8" />
  <path
    fill="url(#apache__a)"
    d="M30.203 6.168c-.557.328-1.49 1.268-2.605 2.626v.084l.975 1.803.049.035c.717-1.024 1.441-1.95 2.18-2.737.055-.063.083-.09.083-.09-.028.027-.056.062-.083.09-.237.265-.961 1.1-2.048 2.772l.125.028s2.542-.251 3.768-.46l.07-.063c.39-2.186-.383-3.19-.383-3.19s-.975-1.573-2.131-.898z"
  />
  <path
    fill="url(#apache__b)"
    d="M25.613 15.695c.314-.578.627-1.149.94-1.699a42.15 42.15 0 011.003-1.664.442.442 0 00.056-.098c.334-.529.669-1.03 1.01-1.518l-1.024-1.929c-.076.09-.153.188-.23.286-.292.369-.599.759-.912 1.176a57.711 57.711 0 00-2.117 3.03c-.293.453-.592.912-.885 1.393-.014.02-.02.034-.034.055v.077l1.274 2.528.056.02a91.85 91.85 0 01.863-1.657z"
  />
  <path
    fill="url(#apache__c)"
    d="M20.063 28.07c.23-.598.474-1.204.717-1.817.237-.585.474-1.177.724-1.769.244-.592.502-1.184.76-1.783.264-.605.529-1.211.8-1.81.272-.592.544-1.184.822-1.77a26.4 26.4 0 01.307-.633c.174-.362.355-.724.529-1.08.007-.02.02-.034.028-.055l-1.33-2.626-.063.105c-.306.508-.62 1.024-.92 1.553a60.971 60.971 0 00-1.622 3.036c-.049.098-.09.188-.14.286-.292.599-.55 1.17-.786 1.727a39.7 39.7 0 00-.71 1.797c-.14.376-.258.73-.377 1.08-.09.291-.18.591-.264.884-.202.696-.37 1.385-.509 2.082l.021.083 1.275 2.535.041.021c.175-.473.356-.947.544-1.434.049-.14.104-.272.153-.411z"
  />
  <path
    fill="url(#apache__d)"
    d="M18.015 27.367a21.045 21.045 0 00-.348 2.521c0 .028-.007.056-.007.09-.418-.668-1.532-1.315-1.532-1.315.801 1.156 1.407 2.305 1.497 3.433-.424.09-1.01-.042-1.692-.286.704.648 1.233.83 1.442.878-.648.042-1.323.487-2.006.996.996-.404 1.797-.564 2.375-.439-.912 2.584-1.825 5.439-2.744 8.461.279-.083.446-.271.543-.529.16-.55 1.247-4.144 2.94-8.872l.145-.404c.014-.035.028-.077.042-.111.181-.495.362-1.003.557-1.519.042-.118.09-.236.133-.355v-.007l-1.33-2.632c0 .035-.008.062-.015.09z"
  />
  <path
    fill="url(#apache__e)"
    d="M28.754 10.758c-.3.46-.627.982-.982 1.574-.02.028-.035.062-.055.09a70.171 70.171 0 00-1.887 3.412c-.28.537-.565 1.101-.857 1.707l.062.028 3.239-.348.076-.056c.982-.453 1.42-.864 1.846-1.456.111-.16.23-.334.341-.508.348-.543.69-1.135.989-1.727.292-.571.55-1.142.752-1.65a7.324 7.324 0 00.446-1.56c-1.31.23-2.918.445-3.97.494z"
  />
  <path
    fill="url(#apache__f)"
    d="M24.847 17.812c-.111.237-.23.481-.348.725-.125.264-.258.543-.383.822l-.195.424c-.202.432-.397.878-.606 1.337a120.498 120.498 0 00-1.518 3.573 100.47 100.47 0 00-.731 1.832 91.942 91.942 0 00-.669 1.734c-.014.027-.02.055-.035.083-.222.592-.44 1.194-.67 1.814-.007.014-.019.05-.026.064l.048.01.969-.103.054-.023c-.02-.007-.033-.035-.054-.042 1.281-.16 2.987-1.12 4.095-2.305.508-.543.968-1.19 1.4-1.943.32-.564.612-1.184.898-1.873.25-.599.487-1.254.717-1.957a3.867 3.867 0 01-1.003.348c-.062.014-.132.028-.202.042-.07.014-.139.02-.202.035 1.198-.46 1.95-1.351 2.5-2.438a4.314 4.314 0 01-1.441.634 2.81 2.81 0 01-.258.049c-.02 0-.042.007-.062.007a4.89 4.89 0 001.072-.6 3.58 3.58 0 00.188-.152c.09-.084.181-.168.265-.251.055-.056.104-.111.16-.174.118-.14.23-.293.334-.46.035-.049.063-.104.098-.153.041-.077.076-.153.111-.23a11.295 11.295 0 00.543-1.267c.014-.042.028-.09.049-.133.042-.125.077-.236.104-.34.042-.147.063-.265.077-.35a1.195 1.195 0 01-.14.098c-.361.216-.981.411-1.483.502l.99-.112-.99.112c-.07.014-.118.02-.174.035.005-.005-1.112.113-3.35.354a2.589 2.589 0 00-.132.272z"
  />
  <path
    fill="url(#apache__g)"
    d="M19.562 30.48c-.175.48-.356.975-.53 1.477 0 .007-.007.014-.007.02-.027.07-.048.14-.076.216-.119.342-.223.641-.46 1.338.39.18.703.647 1.003 1.184a2.099 2.099 0 00-.697-1.47c1.93.084 3.594-.404 4.45-1.81.077-.126.147-.258.21-.398-.39.495-.878.704-1.783.655h-.007.007c1.344-.599 2.012-1.177 2.611-2.131.14-.23.279-.474.418-.745-1.177 1.205-2.535 1.546-3.963 1.288l-1.072.119c-.035.076-.07.167-.104.257z"
  />
  <defs>
    <linearGradient
      id="apache__a"
      x1="28.454"
      x2="35.84"
      y1="9.054"
      y2="6.595"
      gradientUnits="userSpaceOnUse"
    >
      <stop stop-color="#F69923" />
      <stop offset=".312" stop-color="#F79A23" />
      <stop offset=".838" stop-color="#E97826" />
    </linearGradient>
    <linearGradient
      id="apache__b"
      x1="12.097"
      x2="37.326"
      y1="42.594"
      y2="22.638"
      gradientUnits="userSpaceOnUse"
    >
      <stop offset=".323" stop-color="#9E2064" />
      <stop offset=".63" stop-color="#C92037" />
      <stop offset=".751" stop-color="#CD2335" />
      <stop offset="1" stop-color="#E97826" />
    </linearGradient>
    <linearGradient
      id="apache__c"
      x1="12.65"
      x2="37.219"
      y1="40.612"
      y2="30.297"
      gradientUnits="userSpaceOnUse"
    >
      <stop offset=".323" stop-color="#9E2064" />
      <stop offset=".63" stop-color="#C92037" />
      <stop offset=".751" stop-color="#CD2335" />
      <stop offset="1" stop-color="#E97826" />
    </linearGradient>
    <linearGradient
      id="apache__d"
      x1="14.201"
      x2="25.13"
      y1="38.44"
      y2="36.3"
      gradientUnits="userSpaceOnUse"
    >
      <stop stop-color="#282662" />
      <stop offset=".095" stop-color="#662E8D" />
      <stop offset=".788" stop-color="#9F2064" />
      <stop offset=".949" stop-color="#CD2032" />
    </linearGradient>
    <linearGradient
      id="apache__e"
      x1="14.913"
      x2="28.674"
      y1="44.139"
      y2="10.918"
      gradientUnits="userSpaceOnUse"
    >
      <stop offset=".323" stop-color="#9E2064" />
      <stop offset=".63" stop-color="#C92037" />
      <stop offset=".751" stop-color="#CD2335" />
      <stop offset="1" stop-color="#E97826" />
    </linearGradient>
    <linearGradient
      id="apache__f"
      x1="16.017"
      x2="37.846"
      y1="42.228"
      y2="14.829"
      gradientUnits="userSpaceOnUse"
    >
      <stop offset=".323" stop-color="#9E2064" />
      <stop offset=".63" stop-color="#C92037" />
      <stop offset=".751" stop-color="#CD2335" />
      <stop offset="1" stop-color="#E97826" />
    </linearGradient>
    <linearGradient
      id="apache__g"
      x1="17.208"
      x2="25.513"
      y1="40.174"
      y2="20.422"
      gradientUnits="userSpaceOnUse"
    >
      <stop stop-color="#282662" />
      <stop offset=".095" stop-color="#662E8D" />
      <stop offset=".788" stop-color="#9F2064" />
      <stop offset=".949" stop-color="#CD2032" />
    </linearGradient>
  </defs>
</svg>
