<svg
  xmlns="http://www.w3.org/2000/svg"
  width="48"
  height="48"
  viewBox="0 0 48 48"
>
  <rect width="48" height="48" fill="url(#apollo-server__a)" rx="8" />
  <path
    fill="#fff"
    d="M29.6 24.145c0-1.476 1.21-2.674 2.7-2.674h3.932c1.49 0 2.737 1.198 2.737 2.674 0 1.477-1.247 2.674-2.737 2.674H32.3a2.688 2.688 0 01-2.7-2.674zm-8.252.004a2.68 2.68 0 115.359.003 2.68 2.68 0 01-5.36-.003z"
  />
  <path
    fill="#fff"
    fill-rule="evenodd"
    d="M26.634 11.635a2.612 2.612 0 01-2.502 2.718c-6.224.26-10.023 5.136-9.838 9.768a2.593 2.593 0 01-2.483 2.714c-1.441.057-2.71-1.105-2.767-2.548-.3-7.547 6-15.007 14.87-15.152a2.613 2.613 0 012.72 2.5z"
    clip-rule="evenodd"
  />
  <path
    fill="url(#apollo-server__b)"
    fill-rule="evenodd"
    d="M9.036 24.008A14.848 14.848 0 0024.12 38.965c8.932-.319 15.384-8.077 14.848-15.003a2.748 2.748 0 00-2.841-2.484 2.615 2.615 0 00-2.485 2.735c.202 4.208-3.679 9.364-9.65 9.53-4.742.115-9.491-3.607-9.699-9.403a2.59 2.59 0 01-2.483 2.495c-1.441.057-2.71-1.105-2.767-2.548a12.945 12.945 0 01-.008-.279z"
    clip-rule="evenodd"
  />
  <defs>
    <linearGradient
      id="apollo-server__a"
      x1="11.625"
      x2="-1.443"
      y1="-3.47"
      y2="41.846"
      gradientUnits="userSpaceOnUse"
    >
      <stop stop-color="#00A672" />
      <stop offset="1" stop-color="#008B60" />
    </linearGradient>
    <linearGradient
      id="apollo-server__b"
      x1="24.682"
      x2="24.682"
      y1="40.479"
      y2="23.603"
      gradientUnits="userSpaceOnUse"
    >
      <stop stop-color="#fff" stop-opacity=".95" />
      <stop offset="1" stop-color="#fff" stop-opacity=".5" />
    </linearGradient>
  </defs>
</svg>
