<svg
  xmlns="http://www.w3.org/2000/svg"
  width="48"
  height="48"
  viewBox="0 0 48 48"
>
  <path
    fill="url(#apollo-server__a)"
    d="M44 24c0-11.046-8.954-20-20-20S4 12.954 4 24s8.954 20 20 20 20-8.954 20-20z"
  />
  <path
    fill="#fff"
    d="M29.029 24.135c0-1.325 1.085-2.4 2.422-2.4h3.53c1.338 0 2.456 1.075 2.456 2.4 0 1.326-1.118 2.4-2.456 2.4h-3.53a2.412 2.412 0 01-2.422-2.4zm-7.408.004a2.407 2.407 0 114.814.003 2.407 2.407 0 01-4.814-.003z"
  />
  <path
    fill="#fff"
    fill-rule="evenodd"
    d="M26.366 12.906a2.345 2.345 0 01-2.246 2.44c-5.586.233-8.996 4.61-8.83 8.768a2.329 2.329 0 01-2.229 2.436c-1.293.051-2.432-.992-2.483-2.288-.27-6.773 5.385-13.47 13.347-13.6a2.345 2.345 0 012.441 2.244z"
    clip-rule="evenodd"
  />
  <path
    fill="url(#apollo-server__b)"
    fill-rule="evenodd"
    d="M10.57 24.012a13.328 13.328 0 0013.54 13.425c8.017-.286 13.809-7.25 13.327-13.466a2.466 2.466 0 00-2.55-2.23 2.347 2.347 0 00-2.23 2.455c.182 3.778-3.302 8.405-8.662 8.554-4.256.104-8.519-3.238-8.705-8.44a2.325 2.325 0 01-2.229 2.24c-1.294.051-2.432-.992-2.484-2.288a13.039 13.039 0 01-.007-.25z"
    clip-rule="evenodd"
  />
  <defs>
    <linearGradient
      id="apollo-server__a"
      x1="13.688"
      x2="2.797"
      y1="1.109"
      y2="38.871"
      gradientUnits="userSpaceOnUse"
    >
      <stop stop-color="#00A672" />
      <stop offset="1" stop-color="#008B60" />
    </linearGradient>
    <linearGradient
      id="apollo-server__b"
      x1="24.614"
      x2="24.614"
      y1="38.796"
      y2="23.649"
      gradientUnits="userSpaceOnUse"
    >
      <stop stop-color="#fff" stop-opacity=".95" />
      <stop offset="1" stop-color="#fff" stop-opacity=".5" />
    </linearGradient>
  </defs>
</svg>
