<svg
  xmlns="http://www.w3.org/2000/svg"
  width="48"
  height="48"
  viewBox="0 0 48 48"
>
  <rect width="48" height="48" fill="url(#apollo-server__a)" rx="8" />
  <path
    fill="#fff"
    d="M29.973 24.151c0-1.575 1.29-2.852 2.88-2.852h4.195c1.59 0 2.919 1.277 2.919 2.852 0 1.576-1.33 2.852-2.92 2.852h-4.195a2.867 2.867 0 01-2.879-2.852zm-8.803.005a2.858 2.858 0 115.716.002 2.858 2.858 0 01-5.716-.003z"
  />
  <path
    fill="#fff"
    fill-rule="evenodd"
    d="M26.809 10.806a2.787 2.787 0 01-2.67 2.9c-6.639.276-10.691 5.479-10.494 10.42a2.768 2.768 0 01-2.649 2.895c-1.537.061-2.89-1.18-2.951-2.718-.321-8.05 6.4-16.009 15.863-16.164a2.787 2.787 0 012.901 2.667z"
    clip-rule="evenodd"
  />
  <path
    fill="url(#apollo-server__b)"
    fill-rule="evenodd"
    d="M8.036 24.005a15.839 15.839 0 0016.092 15.956c9.528-.34 16.41-8.617 15.839-16.005a2.931 2.931 0 00-3.03-2.65 2.787 2.787 0 00-2.651 2.918c.215 4.49-3.925 9.989-10.295 10.166-5.059.123-10.124-3.848-10.346-10.031a2.763 2.763 0 01-2.649 2.662c-1.537.061-2.89-1.18-2.951-2.719a13.768 13.768 0 01-.01-.297z"
    clip-rule="evenodd"
  />
  <defs>
    <linearGradient
      id="apollo-server__a"
      x1="11.625"
      x2="-1.443"
      y1="-3.47"
      y2="41.846"
      gradientUnits="userSpaceOnUse"
    >
      <stop stop-color="#00A672" />
      <stop offset="1" stop-color="#008B60" />
    </linearGradient>
    <linearGradient
      id="apollo-server__b"
      x1="24.726"
      x2="24.726"
      y1="41.575"
      y2="23.573"
      gradientUnits="userSpaceOnUse"
    >
      <stop stop-color="#fff" stop-opacity=".95" />
      <stop offset="1" stop-color="#fff" stop-opacity=".5" />
    </linearGradient>
  </defs>
</svg>
