<svg
  xmlns="http://www.w3.org/2000/svg"
  width="48"
  height="48"
  viewBox="0 0 48 48"
>
  <path
    fill="url(#app-store__a)"
    d="M35.92 4H12.08A8.077 8.077 0 004 12.08v23.845A8.076 8.076 0 0012.08 44h23.845a8.08 8.08 0 008.08-8.08V12.08A8.084 8.084 0 0035.92 4z"
  />
  <path
    fill="#fff"
    d="M23.83 13.19l.81-1.4a1.822 1.822 0 113.16 1.82l-7.805 13.51h5.645c1.83 0 2.855 2.15 2.06 3.64H11.15c-1.01 0-1.82-.81-1.82-1.82s.81-1.82 1.82-1.82h4.64l5.94-10.295-1.855-3.22c-.5-.875-.205-1.98.67-2.49.875-.5 1.98-.205 2.49.67l.795 1.405zm-7.02 19.445l-1.75 3.035a1.822 1.822 0 11-3.16-1.82l1.3-2.25c1.47-.455 2.665-.105 3.61 1.035zm15.07-5.505h4.735c1.01 0 1.82.81 1.82 1.82s-.81 1.82-1.82 1.82h-2.63l1.775 3.08c.5.875.205 1.98-.67 2.49-.875.5-1.98.205-2.49-.67-2.99-5.185-5.235-9.065-6.725-11.65-1.525-2.63-.435-5.27.64-6.165 1.195 2.05 2.98 5.145 5.365 9.275z"
  />
  <defs>
    <linearGradient
      id="app-store__a"
      x1="24"
      x2="24"
      y1="4"
      y2="44"
      gradientUnits="userSpaceOnUse"
    >
      <stop stop-color="#0ED4FC" />
      <stop offset="1" stop-color="#0C57EF" />
    </linearGradient>
  </defs>
</svg>
