<svg
  xmlns="http://www.w3.org/2000/svg"
  width="48"
  height="48"
  viewBox="0 0 48 48"
>
  <g clip-path="url(#app-store__a)">
    <rect width="48" height="48" fill="url(#app-store__b)" rx="8" />
    <path
      fill="#fff"
      d="M23.793 11.028l.972-1.68a2.186 2.186 0 012.988-.804c1.05.6 1.403 1.938.803 2.988l-9.364 16.212h6.773c2.195 0 3.425 2.58 2.471 4.368H8.58a2.176 2.176 0 01-2.184-2.184c0-1.212.972-2.184 2.184-2.184h5.567l7.127-12.354-2.225-3.864a2.19 2.19 0 01.804-2.988 2.19 2.19 0 012.987.804l.954 1.686zM15.37 34.362l-2.1 3.642a2.186 2.186 0 01-2.987.804 2.187 2.187 0 01-.804-2.988l1.56-2.7c1.764-.546 3.197-.126 4.331 1.242zm18.082-6.606h5.681c1.212 0 2.184.972 2.184 2.184a2.176 2.176 0 01-2.184 2.184h-3.155l2.13 3.696a2.19 2.19 0 01-.805 2.988 2.19 2.19 0 01-2.987-.804c-3.588-6.222-6.281-10.878-8.07-13.98-1.829-3.156-.521-6.324.769-7.398 1.433 2.46 3.575 6.174 6.437 11.13z"
    />
  </g>
  <defs>
    <linearGradient
      id="app-store__b"
      x1="23.997"
      x2="23.997"
      y1="0"
      y2="48"
      gradientUnits="userSpaceOnUse"
    >
      <stop stop-color="#0ED4FC" />
      <stop offset="1" stop-color="#0C57EF" />
    </linearGradient>
    <clipPath id="app-store__a">
      <path fill="#fff" d="M0 0h48v48H0z" />
    </clipPath>
  </defs>
</svg>
