<svg
  xmlns="http://www.w3.org/2000/svg"
  width="48"
  height="48"
  viewBox="0 0 48 48"
>
  <rect width="48" height="48" fill="#fff" rx="8" />
  <path
    fill="#737373"
    fill-rule="evenodd"
    d="M24.751 8.959C26.987 6.014 30.094 6 30.094 6s.463 2.768-1.758 5.435c-2.371 2.847-5.067 2.381-5.067 2.381s-.506-2.239 1.482-4.857zm-1.197 6.797c1.15 0 3.284-1.58 6.062-1.58 4.783 0 6.664 3.4 6.664 3.4s-3.68 1.88-3.68 6.442c0 5.146 4.584 6.92 4.584 6.92s-3.204 9.012-7.532 9.012c-1.988 0-3.533-1.339-5.628-1.339-2.134 0-4.252 1.389-5.632 1.389-3.952 0-8.945-8.55-8.945-15.421 0-6.762 4.227-10.309 8.19-10.309 2.577 0 4.577 1.486 5.917 1.486z"
    clip-rule="evenodd"
  />
</svg>
