<svg
  xmlns="http://www.w3.org/2000/svg"
  width="48"
  height="48"
  viewBox="0 0 48 48"
>
  <path
    fill="#737373"
    fill-rule="evenodd"
    d="M25.005 6.48C27.634 3.018 31.29 3 31.29 3s.544 3.257-2.07 6.394c-2.789 3.35-5.96 2.802-5.96 2.802s-.595-2.635 1.744-5.715zm-1.41 7.997c1.354 0 3.865-1.858 7.133-1.858 5.627 0 7.84 4 7.84 4s-4.33 2.212-4.33 7.579c0 6.054 5.394 8.14 5.394 8.14s-3.77 10.603-8.862 10.603c-2.338 0-4.157-1.575-6.62-1.575-2.512 0-5.003 1.634-6.627 1.634C12.874 43 7 32.942 7 24.857c0-7.954 4.972-12.127 9.635-12.127 3.032 0 5.385 1.747 6.96 1.747z"
    clip-rule="evenodd"
  />
</svg>
