<svg
  xmlns="http://www.w3.org/2000/svg"
  width="48"
  height="48"
  viewBox="0 0 48 48"
>
  <rect width="48" height="48" fill="#fff" rx="8" />
  <path
    fill="#0089D6"
    d="M22.505 35.328c5.14-.908 9.384-1.659 9.432-1.67l.09-.018-4.853-5.771c-2.668-3.174-4.851-5.784-4.851-5.799 0-.028 5.01-13.824 5.037-13.873.01-.017 3.42 5.87 8.265 14.268a165132.8 165132.8 0 018.312 14.407l.063.11-15.42-.001-15.419-.002 9.344-1.65zM4 33.568c0-.008 2.286-3.976 5.08-8.819l5.08-8.804 5.921-4.969c3.256-2.732 5.93-4.972 5.94-4.976.01-.004-.032.104-.095.24l-6.429 13.79-6.314 13.541-4.592.006c-2.525.003-4.591 0-4.591-.009z"
  />
</svg>
