<svg
  width="48"
  height="48"
  fill="none"
  xmlns="http://www.w3.org/2000/svg"
  viewBox="0 0 48 48"
>
  <path
    d="M44 24c0 10.971-9.028 20-20 20C13.03 44 4.002 34.97 4.002 24s9.028-20 20-20C34.97 4 44 13.03 44 24z"
    fill="#fff"
  />
  <path
    d="M30.096 24a6.096 6.096 0 1 0-12.191 0 6.096 6.096 0 0 0 12.191 0z"
    fill="#ED1C24"
  />
  <path
    d="M24 4c-1.905 0-3.745.273-5.491.77v10.81A10.004 10.004 0 0 1 24 13.948c5.552 0 10.054 4.5 10.054 10.053 0 5.552-4.502 10.053-10.054 10.053-5.552 0-10.053-4.501-10.053-10.053 0-.179.005-.356.014-.532l-.014.01V6.715C8 10.18 4 16.621 4 24c0 11.045 8.954 20 20 20 11.045 0 19.998-8.955 19.998-20S35.046 4 24.001 4"
    fill="#ED1C24"
  />
</svg>
