<svg
  width="48"
  height="48"
  fill="none"
  xmlns="http://www.w3.org/2000/svg"
  viewBox="0 0 48 48"
>
  <path
    d="M39.797 13.6l.937-2.302-2.656-2.756c-1.437-1.441-4.5-.595-4.5-.595L30.11 4H17.875l-3.484 3.962s-3.063-.83-4.5.58l-2.657 2.74.938 2.303L7 16.999l3.906 14.926c.813 3.195 1.36 4.432 3.656 6.06l7.141 4.856C22.391 43.264 23.234 44 24 44c.766 0 1.61-.736 2.297-1.159l7.14-4.855c2.297-1.629 2.844-2.866 3.657-6.061L41 16.999l-1.203-3.398z"
    fill="url(#brave__brave__brave__undefined__undefined__undefined__paint0_linear)"
  />
  <path
    d="M32.61 10.484s4.484 5.435 4.484 6.578c0 1.174-.563 1.472-1.125 2.083l-3.36 3.602c-.312.313-.984.846-.593 1.77.39.94.937 2.099.312 3.289-.625 1.206-1.719 2.005-2.422 1.88a12.8 12.8 0 01-2.968-1.41c-.594-.392-2.5-1.974-2.5-2.584 0-.611 1.968-1.723 2.343-1.943.36-.25 2.032-1.221 2.063-1.597.031-.376.031-.47-.469-1.41S27 18.55 27.125 17.735c.156-.814 1.563-1.253 2.61-1.644l3.234-1.222c.25-.125.187-.235-.563-.313-.75-.063-2.86-.345-3.812-.078-.953.266-2.547.673-2.703.892-.125.22-.25.22-.11.971l.907 4.934c.062.626.187 1.05-.47 1.206-.687.156-1.827.423-2.218.423-.39 0-1.547-.267-2.219-.423-.672-.157-.547-.58-.468-1.206.062-.627.75-4.197.89-4.934.156-.751.016-.751-.11-.97-.155-.22-1.765-.627-2.718-.893-.938-.267-3.063.015-3.813.094-.75.062-.812.156-.562.313l3.234 1.206c1.032.391 2.47.83 2.61 1.644.156.83-.735 2.068-1.25 3.007-.516.94-.5 1.034-.469 1.41.031.376 1.719 1.347 2.063 1.597.375.235 2.343 1.332 2.343 1.943 0 .61-1.86 2.192-2.484 2.584a12.804 12.804 0 01-2.969 1.41c-.703.125-1.797-.674-2.437-1.88-.625-1.19-.063-2.35.312-3.29.39-.939-.265-1.44-.594-1.769L12 19.145c-.547-.58-1.11-.893-1.11-2.052s4.485-6.578 4.485-6.578l4.266.69c.5 0 1.609-.424 2.625-.784 1.015-.313 1.718-.344 1.718-.344s.688 0 1.72.344c1.03.345 2.124.783 2.624.783.516 0 4.297-.736 4.297-.736l-.016.016zm-3.36 20.799c.281.156.11.5-.156.689l-3.969 3.1c-.313.314-.813.784-1.14.784-.329 0-.813-.47-1.141-.783a206.311 206.311 0 00-3.985-3.101c-.25-.188-.422-.517-.156-.69l2.344-1.252a13.567 13.567 0 012.937-1.143c.235 0 1.72.532 2.922 1.143l2.344 1.253z"
    fill="#fff"
  />
  <path
    d="M33.61 7.962L30.11 4H17.874L14.39 7.962s-3.063-.83-4.5.58c0 0 4.062-.36 5.468 1.926l4.313.736c.5 0 1.61-.423 2.625-.783 1.015-.313 1.719-.344 1.719-.344s.687 0 1.718.344c1.032.345 2.125.783 2.625.783.516 0 4.297-.736 4.297-.736 1.407-2.286 5.469-1.926 5.469-1.926-1.438-1.441-4.5-.595-4.5-.595"
    fill="url(#brave__brave__brave__undefined__undefined__undefined__paint1_linear)"
  />
  <defs>
    <linearGradient
      id="brave__brave__brave__undefined__undefined__undefined__paint0_linear"
      x1="7"
      y1="24.4"
      x2="41"
      y2="24.4"
      gradientUnits="userSpaceOnUse"
    >
      <stop offset=".4" stop-color="#F50" />
      <stop offset=".6" stop-color="#FF2000" />
    </linearGradient>
    <linearGradient
      id="brave__brave__brave__undefined__undefined__undefined__paint1_linear"
      x1="10.455"
      y1="7.674"
      x2="38.125"
      y2="7.674"
      gradientUnits="userSpaceOnUse"
    >
      <stop stop-color="#FF452A" />
      <stop offset="1" stop-color="#FF2000" />
    </linearGradient>
  </defs>
</svg>
