<svg
  xmlns="http://www.w3.org/2000/svg"
  width="48"
  height="48"
  viewBox="0 0 48 48"
>
  <path
    fill="#00005B"
    d="M11.083 4.5h25.834A7.077 7.077 0 0144 11.583v24.834a7.077 7.077 0 01-7.083 7.083H11.083A7.077 7.077 0 014 36.417V11.583A7.077 7.077 0 0111.083 4.5z"
  />
  <path
    fill="#99F"
    d="M23.133 28.717v2.766a.37.37 0 01-.216.384c-.517.183-1.034.3-1.584.366-.7.084-1.4.117-2.1.117-1 0-2-.117-2.966-.367-.9-.233-1.767-.6-2.567-1.1a7.633 7.633 0 01-1.983-1.816 7.913 7.913 0 01-1.284-2.5 10.567 10.567 0 01-.45-3.217c0-1.8.4-3.4 1.184-4.767a8.154 8.154 0 013.35-3.2 10.97 10.97 0 015.183-1.2c.7 0 1.383.034 2.083.1.484.05.95.167 1.417.317.1.083.15.2.133.317v3.016c0 .167-.066.217-.183.167a5.92 5.92 0 00-1.6-.483c-.65-.1-1.3-.15-1.967-.15a6.165 6.165 0 00-3.083.75 4.98 4.98 0 00-1.983 2 6.323 6.323 0 00-.7 3.016c-.017.75.1 1.484.333 2.2.2.6.517 1.15.933 1.634.367.45.834.816 1.334 1.1a6.6 6.6 0 001.6.6c.533.15 1.1.233 1.65.25.6 0 1.216-.017 1.816-.084a6.17 6.17 0 001.45-.366c.067-.05.117-.067.167-.034.033.05.05.117.033.184zm6.167-6.334v9.4c0 .15-.067.217-.183.217h-3.35c-.117.017-.217-.067-.234-.183V13.233c0-.116.067-.183.217-.183h3.383c.084-.017.184.05.184.133v.05l.016 6.334a7.52 7.52 0 011.55-.784c.567-.2 1.217-.25 1.967-.25a5.49 5.49 0 011.567.234c.533.15 1.033.416 1.466.783.45.4.767.95 1.034 1.633.266.684.4 1.584.4 2.667v7.9c0 .167-.067.233-.217.233h-3.15a.23.23 0 01-.267-.2v-7.566a3.439 3.439 0 00-.25-1.417 2.03 2.03 0 00-.7-.85 2.26 2.26 0 00-1.233-.3c-.4 0-.8.05-1.183.167a4.31 4.31 0 00-1.017.566z"
  />
</svg>
