<svg
  xmlns="http://www.w3.org/2000/svg"
  width="48"
  height="48"
  viewBox="0 0 48 48"
>
  <rect width="48" height="48" fill="#00005B" rx="8" />
  <path
    fill="#99F"
    d="M22.96 30.06v3.32c.02.2-.08.38-.26.46-.62.22-1.24.36-1.9.44-.84.1-1.68.14-2.52.14-1.2 0-2.4-.14-3.56-.44-1.08-.28-2.12-.72-3.08-1.32a9.16 9.16 0 01-2.38-2.18c-.68-.9-1.22-1.92-1.54-3-.38-1.26-.56-2.56-.54-3.86 0-2.16.48-4.08 1.42-5.72a9.783 9.783 0 014.02-3.84c1.92-.98 4.06-1.48 6.22-1.44.84 0 1.66.04 2.5.12.58.06 1.14.2 1.7.38.12.1.18.24.16.38v3.62c0 .2-.08.26-.22.2-.6-.28-1.26-.48-1.92-.58-.78-.12-1.56-.18-2.36-.18-1.3-.02-2.58.28-3.7.9-1 .56-1.84 1.38-2.38 2.4a7.587 7.587 0 00-.84 3.62c-.02.9.12 1.78.4 2.64.24.72.62 1.38 1.12 1.96.44.54 1 .98 1.6 1.32.6.32 1.24.56 1.92.72.64.18 1.32.28 1.98.3.72 0 1.46-.02 2.18-.1.6-.08 1.18-.22 1.74-.44.08-.06.14-.08.2-.04.04.06.06.14.04.22zm7.4-7.6v11.28c0 .18-.08.26-.22.26h-4.02c-.14.02-.26-.08-.28-.22v-22.3c0-.14.08-.22.26-.22h4.06c.1-.02.22.06.22.16v.06l.02 7.6c.58-.38 1.2-.7 1.86-.94.68-.24 1.46-.3 2.36-.3.64 0 1.28.1 1.88.28.64.18 1.24.5 1.76.94.54.48.92 1.14 1.24 1.96.32.82.48 1.9.48 3.2v9.48c0 .2-.08.28-.26.28h-3.78c-.16.02-.3-.08-.32-.24v-9.08c.02-.58-.08-1.16-.3-1.7-.18-.4-.46-.76-.84-1.02-.44-.26-.96-.38-1.48-.36-.48 0-.96.06-1.42.2-.44.18-.86.4-1.22.68z"
  />
</svg>
