<svg
  xmlns="http://www.w3.org/2000/svg"
  width="48"
  height="48"
  viewBox="0 0 48 48"
>
  <path
    fill="#00005B"
    d="M10.438 3.5h27.124A7.436 7.436 0 0145 10.947v26.106a7.436 7.436 0 01-7.438 7.447H10.439A7.436 7.436 0 013 37.053V10.947A7.436 7.436 0 0110.438 3.5z"
  />
  <path
    fill="#99F"
    d="M23.09 28.959v2.908a.388.388 0 01-.227.403 7.648 7.648 0 01-1.663.386 18.73 18.73 0 01-2.205.122c-1.05 0-2.1-.122-3.115-.385a9.641 9.641 0 01-2.695-1.157 8.018 8.018 0 01-2.082-1.91 8.323 8.323 0 01-1.348-2.628 11.122 11.122 0 01-.472-3.381c0-1.893.42-3.575 1.242-5.011a8.565 8.565 0 013.518-3.365 11.506 11.506 0 015.442-1.261c.735 0 1.453.035 2.188.105a7.31 7.31 0 011.487.333c.105.088.158.21.14.333v3.171c0 .175-.07.228-.192.175a6.212 6.212 0 00-1.68-.508 13.491 13.491 0 00-2.065-.157 6.468 6.468 0 00-3.238.788 5.232 5.232 0 00-2.082 2.103 6.653 6.653 0 00-.735 3.171c-.018.789.105 1.56.35 2.313.21.63.542 1.209.98 1.717.385.473.875.858 1.4 1.156.525.28 1.085.49 1.68.631.56.158 1.155.245 1.732.263.63 0 1.278-.018 1.908-.088a6.475 6.475 0 001.522-.385c.07-.053.123-.07.175-.035a.244.244 0 01.035.193zm6.475-6.659v9.882c0 .158-.07.228-.193.228h-3.517c-.122.018-.227-.07-.245-.192V12.68c0-.122.07-.192.227-.192h3.553c.087-.018.192.052.192.14v.052l.018 6.658a7.892 7.892 0 011.627-.823c.596-.21 1.278-.263 2.065-.263.56 0 1.12.088 1.645.245.56.158 1.086.438 1.54.824.473.42.806.998 1.086 1.717.28.718.42 1.664.42 2.803v8.305c0 .176-.07.246-.228.246h-3.308c-.14.017-.262-.07-.28-.21v-7.955a3.62 3.62 0 00-.262-1.49 2.133 2.133 0 00-.735-.893 2.37 2.37 0 00-1.295-.316c-.42 0-.84.053-1.242.176-.386.157-.753.35-1.068.595z"
  />
</svg>
