<svg
  xmlns="http://www.w3.org/2000/svg"
  width="48"
  height="48"
  viewBox="0 0 48 48"
>
  <rect width="48" height="48" fill="#fff" rx="8" />
  <path
    fill="#FC521F"
    d="M24 44c11.046 0 20-8.954 20-20S35.046 4 24 4 4 12.954 4 24s8.954 20 20 20z"
  />
  <path
    fill="#fff"
    d="M28.712 33.221l-3.186-1.839 9.585-5.528a7.182 7.182 0 001.036-.727 5.592 5.592 0 01.258 6.034 5.655 5.655 0 01-4.884 2.814 5.628 5.628 0 01-2.809-.754zm-.767 1.328c.366.212.75.39 1.148.535a5.6 5.6 0 01-5.102 3.237 5.635 5.635 0 01-5.63-5.626V21.637l4.862 2.807v6.939a.768.768 0 00.384.664l4.338 2.502zm-11.47-.575a5.653 5.653 0 01-4.88-2.812 5.585 5.585 0 01-.562-4.27 5.59 5.59 0 012.623-3.417l3.185-1.838v11.056c0 .424.037.846.11 1.262a6.067 6.067 0 01-.476.019zM28.87 20.309l-4.862 2.804-6.015-3.469a.77.77 0 00-.767 0l-4.338 2.502a7.06 7.06 0 00-1.037.726 5.596 5.596 0 01-.257-6.033 5.654 5.654 0 014.883-2.815c.981 0 1.953.261 2.81.755l9.583 5.53zm-4.88-10.63a5.635 5.635 0 015.632 5.627v3.676l-9.582-5.529a7.153 7.153 0 00-1.15-.535 5.6 5.6 0 015.1-3.24zm12.415 7.161a5.632 5.632 0 01-2.062 7.687l-9.584 5.528v-5.61l6.015-3.47a.767.767 0 00.384-.665v-5.004c0-.423-.038-.844-.11-1.259a5.654 5.654 0 015.357 2.793z"
  />
</svg>
