<svg
  xmlns="http://www.w3.org/2000/svg"
  width="48"
  height="48"
  viewBox="0 0 48 48"
>
  <rect width="40" height="40" x="4" y="4" fill="#24282A" rx="9.6" />
  <path
    fill="#B8B9BA"
    fill-rule="evenodd"
    d="M24 24.116v13.64c.237 0 .393-.05.606-.172l10.923-6.242c.431-.247.607-.63.607-1.127V17.56c0-.25-.052-.399-.174-.607L24.35 23.514a.694.694 0 00-.35.602zm6.068 7.833c0 .347-.13.52-.434.693l-3.64 2.08c-.26.174-.607.087-.607-.26v-9.275c0-.248.218-.57.433-.693l8.322-4.768c.231-.133.433.08.433.347v4.94c0 .257-.12.487-.346.608L30.5 27.615c-.226.12-.433.35-.433.606v3.728z"
    clip-rule="evenodd"
  />
  <path
    fill="#F2F2F2"
    fill-rule="evenodd"
    d="M11.863 30.215V17.56c0-.498.262-.967.694-1.214l10.576-5.981c.228-.12.607-.174.867-.174s.66.065.866.174l10.49 5.981c.207.123.489.405.606.607L24.346 23.54a.699.699 0 00-.346.607v13.61c-.238 0-.48-.052-.694-.173l-10.662-6.155c-.433-.247-.78-.716-.78-1.214zm1.56-10.142v4.94c0 .348.088.521.434.694l3.641 2.08c.347.174.434.434.434.694v3.468c0 .347.086.52.433.693l3.64 2.08c.348.174.608.088.608-.26v-9.275c0-.26-.087-.52-.434-.693l-8.148-4.681c-.26-.174-.607-.087-.607.26zm14.218-5.895l-3.208 1.82a.787.787 0 01-.867 0l-3.207-1.82a.718.718 0 00-.694 0l-3.987 2.254c-.347.173-.347.52 0 .693l7.975 4.595a.701.701 0 00.693 0l7.976-4.595c.26-.173.346-.52 0-.693l-3.988-2.254a.718.718 0 00-.693 0z"
    clip-rule="evenodd"
  />
</svg>
