<svg
  xmlns="http://www.w3.org/2000/svg"
  width="48"
  height="48"
  viewBox="0 0 48 48"
>
  <circle cx="24" cy="24" r="20" fill="#0C131F" />
  <path
    fill="#F2F2F2"
    d="M35.436 19.466l-10.713-7.244a1.276 1.276 0 00-.722-.222c-.27 0-.52.083-.728.226l.005-.003-10.714 7.244a1.28 1.28 0 00-.564 1.06v6.948c0 .438.222.826.56 1.057l.004.002 10.713 7.244a1.285 1.285 0 001.45-.003l-.005.002 10.714-7.244a1.28 1.28 0 00.564-1.06v-6.948a1.28 1.28 0 00-.56-1.057l-.004-.002zm-10.58-5.088l9.107 6.157-4.043 2.561-5.063-3.208v-5.51zm-1.714 0v5.51l-5.063 3.208-4.043-2.56 9.106-6.158zm-9.427 7.977l2.767 1.753-2.767 1.752v-3.505zm9.428 11.266l-8.94-6.046 3.876-2.456 5.067 3.21-.003 5.292zM24 26.846l-4.323-2.738L24 21.368l4.323 2.74L24 26.846zm.86 6.774l.002-5.295 5.059-3.205 3.876 2.456-8.938 6.044zm9.426-7.759l-2.767-1.752 2.767-1.753v3.505z"
  />
</svg>
