<svg
  xmlns="http://www.w3.org/2000/svg"
  width="48"
  height="48"
  viewBox="0 0 48 48"
>
  <rect width="48" height="48" fill="#0C131F" rx="8" />
  <path
    fill="#F2F2F2"
    d="M39.248 17.954L24.964 8.296A1.701 1.701 0 0024.001 8c-.36 0-.694.11-.97.3l.006-.002-14.285 9.658A1.706 1.706 0 008 19.368v9.265c0 .585.296 1.101.745 1.41l.007.003 14.284 9.658c.27.185.603.296.963.296s.694-.11.97-.3l-.006.002 14.285-9.658c.456-.311.752-.828.752-1.412V19.368v-.001c0-.585-.296-1.101-.745-1.41l-.007-.003zM25.143 11.17l12.14 8.21-5.39 3.415-6.75-4.277V11.17zm-2.287 0v7.348l-6.75 4.277-5.391-3.415 12.14-8.21zm-12.57 10.637l3.69 2.337-3.69 2.336v-4.673zm12.571 15.021l-11.92-8.061 5.168-3.275 6.757 4.28-.005 7.056zM24 27.795l-5.764-3.652L24 20.492l5.764 3.651L24 27.796zm1.145 9.032l.005-7.06 6.744-4.274 5.168 3.276-11.917 8.058zm12.57-10.345l-3.69-2.337 3.69-2.337v4.674z"
  />
</svg>
