<svg
  xmlns="http://www.w3.org/2000/svg"
  width="48"
  height="48"
  viewBox="0 0 48 48"
>
  <rect width="48" height="48" fill="#24282A" rx="8" />
  <path
    fill="#B8B9BA"
    fill-rule="evenodd"
    d="M24 24.14v16.368c.285 0 .472-.062.728-.208l13.107-7.49c.517-.296.728-.755.728-1.352V16.271c0-.3-.063-.479-.208-.729l-13.936 7.875a.832.832 0 00-.42.722zm7.281 9.399c0 .416-.156.624-.52.832l-4.369 2.496c-.312.209-.728.104-.728-.312v-11.13c0-.298.262-.684.52-.832l9.986-5.722c.278-.16.52.096.52.416v5.93a.8.8 0 01-.416.728l-4.473 2.392c-.27.145-.52.421-.52.729v4.473z"
    clip-rule="evenodd"
  />
  <path
    fill="#F2F2F2"
    fill-rule="evenodd"
    d="M9.436 31.458V16.271c0-.598.314-1.16.832-1.457L22.96 7.637c.274-.145.729-.208 1.04-.208.313 0 .794.077 1.04.208l12.588 7.177c.249.147.587.486.728.729l-13.94 7.905a.838.838 0 00-.415.729v16.331a1.68 1.68 0 01-.833-.208l-12.795-7.386c-.518-.296-.936-.858-.936-1.456zm1.873-12.17v5.929c0 .416.104.624.52.832l4.369 2.497c.416.207.52.52.52.832v4.16c0 .417.104.625.52.833l4.37 2.496c.415.208.727.105.727-.312v-11.13c0-.312-.104-.624-.52-.832l-9.778-5.618c-.312-.208-.728-.104-.728.312zm17.06-7.074l-3.85 2.184a.945.945 0 01-1.04 0l-3.848-2.184a.862.862 0 00-.833 0l-4.785 2.704c-.416.208-.416.625 0 .833l9.57 5.513a.842.842 0 00.833 0l9.57-5.513c.312-.208.416-.625 0-.833l-4.785-2.704a.861.861 0 00-.832 0z"
    clip-rule="evenodd"
  />
</svg>
