<svg
  xmlns="http://www.w3.org/2000/svg"
  width="48"
  height="48"
  viewBox="0 0 48 48"
>
  <rect width="42" height="42" x="3" y="3" fill="#24282A" rx="9.6" />
  <path
    fill="#B8B9BA"
    fill-rule="evenodd"
    d="M24 24.122v14.323c.249 0 .413-.054.637-.182l11.468-6.554c.453-.26.638-.661.638-1.183v-13.29c0-.261-.055-.418-.183-.636l-12.194 6.89a.727.727 0 00-.366.632zm6.371 8.224c0 .364-.136.546-.455.729l-3.823 2.184c-.273.182-.637.091-.637-.273v-9.74c0-.26.23-.598.455-.727l8.738-5.007c.243-.14.455.084.455.364v5.189a.7.7 0 01-.364.637l-3.914 2.093c-.237.127-.455.368-.455.637v3.914z"
    clip-rule="evenodd"
  />
  <path
    fill="#F2F2F2"
    fill-rule="evenodd"
    d="M11.257 30.526v-13.29c0-.522.274-1.014.728-1.274l11.104-6.28c.24-.127.638-.182.91-.182.274 0 .695.068.91.182l11.014 6.28c.218.13.514.426.637.638l-12.196 6.917a.734.734 0 00-.364.637v14.29c-.25 0-.505-.053-.729-.181L12.076 31.8c-.454-.26-.82-.752-.82-1.274zm1.638-10.65v5.189c0 .364.091.546.455.728l3.823 2.184c.364.182.455.455.455.729v3.64c0 .364.091.547.455.729l3.823 2.184c.364.182.637.091.637-.273v-9.74c0-.272-.09-.545-.455-.727l-8.556-4.916c-.273-.182-.637-.09-.637.273zm14.928-6.189l-3.368 1.911a.827.827 0 01-.91 0l-3.368-1.911a.754.754 0 00-.728 0l-4.187 2.367c-.364.182-.364.546 0 .728l8.374 4.824a.737.737 0 00.728 0l8.374-4.824c.273-.182.364-.546 0-.729l-4.187-2.366a.754.754 0 00-.728 0z"
    clip-rule="evenodd"
  />
</svg>
