<svg
  xmlns="http://www.w3.org/2000/svg"
  width="48"
  height="48"
  viewBox="0 0 48 48"
>
  <g clip-path="url(#creative-cloud__a)">
    <path
      fill="url(#creative-cloud__b)"
      d="M8.5 0h31C44.2 0 48 3.897 48 8.718v30.564C48 44.102 44.2 48 39.5 48h-31C3.8 48 0 44.103 0 39.282V8.718C0 3.898 3.8 0 8.5 0z"
    />
    <path
      fill="url(#creative-cloud__c)"
      d="M8.5 0h31C44.2 0 48 3.897 48 8.718v30.564C48 44.102 44.2 48 39.5 48h-31C3.8 48 0 44.103 0 39.282V8.718C0 3.898 3.8 0 8.5 0z"
    />
    <path
      fill="url(#creative-cloud__d)"
      d="M8.5 0h31C44.2 0 48 3.897 48 8.718v30.564C48 44.102 44.2 48 39.5 48h-31C3.8 48 0 44.103 0 39.282V8.718C0 3.898 3.8 0 8.5 0z"
    />
    <path
      fill="url(#creative-cloud__e)"
      d="M8.5 0h31C44.2 0 48 3.897 48 8.718v30.564C48 44.102 44.2 48 39.5 48h-31C3.8 48 0 44.103 0 39.282V8.718C0 3.898 3.8 0 8.5 0z"
    />
    <path
      fill="url(#creative-cloud__f)"
      d="M8.5 0h31C44.2 0 48 3.897 48 8.718v30.564C48 44.102 44.2 48 39.5 48h-31C3.8 48 0 44.103 0 39.282V8.718C0 3.898 3.8 0 8.5 0z"
    />
    <path
      fill="#fff"
      d="M37.81 15.178A13.046 13.046 0 0028.153 11c-3.572 0-7.205 1.534-9.53 4.012a11.436 11.436 0 00-1.282-.072C10.335 14.94 6 20.84 6 26.304a11.707 11.707 0 003.181 7.93 11.105 11.105 0 008.159 3.533h10.812c7.34 0 13.31-6.024 13.31-13.428a13.622 13.622 0 00-3.651-9.16zM17.139 35.83a9.399 9.399 0 01-6.636-2.753 9.42 9.42 0 01-.031-13.293 9.399 9.399 0 016.623-2.783 9.31 9.31 0 016.249 2.38l.046.039 3.896 4.002a1.679 1.679 0 01-1.228 2.845 1.675 1.675 0 01-1.177-.508l-3.866-3.972a5.997 5.997 0 00-9.913 4.54c0 3.297 2.806 6.083 6.127 6.083l.772.004.007.022c1.105 1.526 4.183 3.394 4.183 3.394h-5.052zm19.264-3.386a11.16 11.16 0 01-8.053 3.451c-2.884 0-5.83-1.29-8.082-3.542l-5.15-5.166a1.681 1.681 0 012.403-2.35l5.113 5.134c1.624 1.628 3.707 2.563 5.716 2.563a7.804 7.804 0 005.66-2.45 8.33 8.33 0 002.352-5.804 8.062 8.062 0 00-2.358-5.688 8.045 8.045 0 00-5.683-2.358c-1.691 0-3.089.327-4.454 1.3a18.513 18.513 0 00-1.56-.945 19.466 19.466 0 00-1.36-.65 6.823 6.823 0 00-.294-.111l.012-.007c2.12-1.983 4.757-2.949 7.656-2.949a11.404 11.404 0 018.056 3.345 11.43 11.43 0 013.343 8.063 11.683 11.683 0 01-3.317 8.164z"
    />
  </g>
  <defs>
    <linearGradient
      id="creative-cloud__b"
      x1="-1.714"
      x2="43.945"
      y1="2.927"
      y2="48.071"
      gradientUnits="userSpaceOnUse"
    >
      <stop stop-color="#F027D4" />
      <stop offset="1" stop-color="#FC17AC" stop-opacity=".02" />
    </linearGradient>
    <linearGradient
      id="creative-cloud__c"
      x1="40.571"
      x2="16.538"
      y1="5.854"
      y2="31.032"
      gradientUnits="userSpaceOnUse"
    >
      <stop stop-color="#FF3700" />
      <stop offset="1" stop-color="#F80800" stop-opacity="0" />
    </linearGradient>
    <linearGradient
      id="creative-cloud__d"
      x1="2.857"
      x2="19.387"
      y1="45.658"
      y2="22.03"
      gradientUnits="userSpaceOnUse"
    >
      <stop stop-color="#006FFF" />
      <stop offset="1" stop-color="#2F8FFF" stop-opacity="0" />
    </linearGradient>
    <linearGradient
      id="creative-cloud__e"
      x1="50.286"
      x2="22.225"
      y1="48"
      y2="21.749"
      gradientUnits="userSpaceOnUse"
    >
      <stop stop-color="#58E04A" />
      <stop offset="1" stop-color="#5CE04E" stop-opacity="0" />
    </linearGradient>
    <radialGradient
      id="creative-cloud__f"
      cx="0"
      cy="0"
      r="1"
      gradientTransform="matrix(-13.71434 -11.12192 11.45317 -14.1228 37.143 28.098)"
      gradientUnits="userSpaceOnUse"
    >
      <stop stop-color="#FFC20A" />
      <stop offset="1" stop-color="#FCC805" stop-opacity="0" />
    </radialGradient>
    <clipPath id="creative-cloud__a">
      <path fill="#fff" d="M0 0h48v48H0z" />
    </clipPath>
  </defs>
</svg>
