<svg
  xmlns="http://www.w3.org/2000/svg"
  width="48"
  height="48"
  viewBox="0 0 48 48"
>
  <path
    fill="url(#creative-cloud__a)"
    d="M10.438 3.5h27.124A7.436 7.436 0 0145 10.947v26.106a7.436 7.436 0 01-7.438 7.447H10.439A7.436 7.436 0 013 37.053V10.947A7.436 7.436 0 0110.438 3.5z"
  />
  <path
    fill="url(#creative-cloud__b)"
    d="M10.438 3.5h27.124A7.436 7.436 0 0145 10.947v26.106a7.436 7.436 0 01-7.438 7.447H10.439A7.436 7.436 0 013 37.053V10.947A7.436 7.436 0 0110.438 3.5z"
  />
  <path
    fill="url(#creative-cloud__c)"
    d="M10.438 3.5h27.124A7.436 7.436 0 0145 10.947v26.106a7.436 7.436 0 01-7.438 7.447H10.439A7.436 7.436 0 013 37.053V10.947A7.436 7.436 0 0110.438 3.5z"
  />
  <path
    fill="url(#creative-cloud__d)"
    d="M10.438 3.5h27.124A7.436 7.436 0 0145 10.947v26.106a7.436 7.436 0 01-7.438 7.447H10.439A7.436 7.436 0 013 37.053V10.947A7.436 7.436 0 0110.438 3.5z"
  />
  <path
    fill="url(#creative-cloud__e)"
    d="M10.438 3.5h27.124A7.436 7.436 0 0145 10.947v26.106a7.436 7.436 0 01-7.438 7.447H10.439A7.436 7.436 0 013 37.053V10.947A7.436 7.436 0 0110.438 3.5z"
  />
  <path
    fill="#fff"
    d="M36.117 16.143a11.144 11.144 0 00-8.25-3.57c-3.052 0-6.155 1.31-8.14 3.428a9.765 9.765 0 00-1.096-.062c-5.983 0-9.686 5.038-9.686 9.706a10 10 0 002.717 6.774 9.485 9.485 0 006.97 3.018h9.235c6.268 0 11.368-5.145 11.368-11.47a11.635 11.635 0 00-3.118-7.824zm-17.658 17.64a8.028 8.028 0 01-5.669-2.352 8.047 8.047 0 01-.026-11.354 8.028 8.028 0 015.658-2.378 7.952 7.952 0 015.337 2.032l.039.034 3.328 3.42a1.433 1.433 0 01-2.055 1.995l-3.302-3.393a5.122 5.122 0 00-8.467 3.878c0 2.817 2.397 5.196 5.234 5.196l.66.003.005.019c.944 1.304 3.573 2.9 3.573 2.9h-4.315zm16.455-2.893a9.534 9.534 0 01-6.88 2.948c-2.463 0-4.98-1.102-6.902-3.025L16.732 26.4a1.437 1.437 0 011.583-2.328c.176.074.336.183.469.32l4.367 4.386c1.387 1.39 3.167 2.189 4.883 2.189a6.667 6.667 0 004.835-2.093 7.115 7.115 0 002.008-4.957 6.886 6.886 0 00-2.014-4.858 6.87 6.87 0 00-4.854-2.015c-1.445 0-2.638.28-3.804 1.11a15.85 15.85 0 00-1.332-.807 16.662 16.662 0 00-1.163-.554 5.847 5.847 0 00-.25-.096l.01-.005c1.81-1.695 4.063-2.52 6.539-2.52a9.74 9.74 0 016.88 2.857 9.762 9.762 0 012.856 6.888 9.979 9.979 0 01-2.832 6.973z"
  />
  <defs>
    <linearGradient
      id="creative-cloud__a"
      x1="1.5"
      x2="40.5"
      y1="6"
      y2="45.5"
      gradientUnits="userSpaceOnUse"
    >
      <stop stop-color="#F027D4" />
      <stop offset="1" stop-color="#FC17AC" stop-opacity=".02" />
    </linearGradient>
    <linearGradient
      id="creative-cloud__b"
      x1="38.5"
      x2="18"
      y1="8.5"
      y2="30.5"
      gradientUnits="userSpaceOnUse"
    >
      <stop stop-color="#FF3700" />
      <stop offset="1" stop-color="#F80800" stop-opacity="0" />
    </linearGradient>
    <linearGradient
      id="creative-cloud__c"
      x1="5.5"
      x2="19.5"
      y1="42.5"
      y2="22"
      gradientUnits="userSpaceOnUse"
    >
      <stop stop-color="#006FFF" />
      <stop offset="1" stop-color="#2F8FFF" stop-opacity="0" />
    </linearGradient>
    <linearGradient
      id="creative-cloud__d"
      x1="47"
      x2="23"
      y1="44.5"
      y2="21.5"
      gradientUnits="userSpaceOnUse"
    >
      <stop stop-color="#58E04A" />
      <stop offset="1" stop-color="#5CE04E" stop-opacity="0" />
    </linearGradient>
    <radialGradient
      id="creative-cloud__e"
      cx="0"
      cy="0"
      r="1"
      gradientTransform="rotate(-141.633 22.534 7.575) scale(15.3052 15.6785)"
      gradientUnits="userSpaceOnUse"
    >
      <stop stop-color="#FFC20A" />
      <stop offset="1" stop-color="#FCC805" stop-opacity="0" />
    </radialGradient>
  </defs>
</svg>
