<svg
  xmlns="http://www.w3.org/2000/svg"
  width="48"
  height="48"
  viewBox="0 0 48 48"
>
  <rect width="48" height="48" fill="#fff" rx="8" />
  <g clip-path="url(#deno__a)">
    <path
      fill="#222"
      d="M22.426 4.01c.093-.01.905-.015 1.795-.005 1.166.01 1.796.035 2.229.094 4.004.536 7.467 2.05 10.512 4.599.57.472 1.869 1.77 2.341 2.341 2.558 3.055 4.054 6.484 4.605 10.542.123.9.123 3.94 0 4.84-.551 4.058-2.047 7.486-4.605 10.541-.472.57-1.77 1.87-2.341 2.341-3.055 2.558-6.484 4.054-10.542 4.605-.9.123-3.94.123-4.84 0-4.059-.551-7.487-2.047-10.542-4.605-.57-.472-1.87-1.77-2.342-2.341-2.558-3.055-4.053-6.483-4.604-10.541-.123-.9-.123-3.94 0-4.84.55-4.058 2.046-7.487 4.604-10.542.473-.57 1.771-1.869 2.342-2.341 3.089-2.588 6.877-4.216 10.724-4.619.27-.025.57-.059.664-.069zm1.107 14.457c-1.014-.153-2.352-.133-3.296.044-2.967.561-5.86 2.16-7.261 4.004-.315.413-.66 1.122-.782 1.609-.113.442-.138 1.23-.05 1.623.163.728.71 1.343 1.6 1.805.772.399 1.696.748 2.213.841.95.172 2.317.226 3.197.133 1.274-.133 3.483-.728 4.585-1.235.231-.103.482-.192.566-.192.482 0 .86.522.65.886-.119.192-.891.58-1.782.89-.487.168-.6.222-.575.286.118.295.33 1.633.438 2.735.191 1.918.221 5.376.073 8.116a40.95 40.95 0 00-.059 1.599l-.01.565 1.181-.005c1.623-.005 2.686-.133 4.329-.536 1.343-.33 2.361-.684 3.419-1.195.762-.37.698-.251.644-1.117a50.156 50.156 0 01-.078-1.476c-.055-1.392-.305-4.79-.497-6.665-.423-4.18-.758-5.74-1.619-7.501-.59-1.21-1.22-2.066-2.243-3.045-.688-.659-.984-.88-1.604-1.2a9.608 9.608 0 00-3.04-.97zm-7.099 20.35c-.192-.02-.187-.06-.083.954.059.56.098.747.157.792.202.152.216.098.182-.64a17.09 17.09 0 00-.064-.895c-.03-.177-.049-.197-.192-.211zm-2.282-3.158c-.108 0-.113.098-.02.959.04.349.084.87.103 1.156.02.285.065.747.099 1.033.04.28.059.526.05.546-.026.03.088.142.216.216.083.05.068-.207-.119-2.09a39.195 39.195 0 01-.123-1.481c0-.123-.024-.246-.059-.28a.232.232 0 00-.147-.06zm19.981-2.794c-.044-.005-.093.005-.113.024-.04.035.01 6.267.044 6.306.015.015.06-.02.109-.073.078-.089.083-.31.059-3.168-.02-2.725-.035-3.075-.099-3.09zm-16.128.875h-.169l.035.404c.132 1.682.24 2.774.275 2.808.02.025.089.03.148.01.108-.034.108-.05.078-.512a116.1 116.1 0 00-.206-2.454c-.025-.246-.035-.256-.177-.256h.016zm-7.611-3.104c-.05-.083-.168-.044-.168.06 0 .058.074.683.167 1.391.163 1.25.374 3.291.374 3.601 0 .113.035.177.128.241l.123.079-.024-.212a134.93 134.93 0 01-.153-1.392c-.231-2.15-.418-3.723-.447-3.768zm28.388.005c-.02 0-.118.084-.216.182l-.183.187-.01 2.11c-.014 2.303-.029 2.224.252 1.81l.123-.181.034-2.057c.015-1.126.015-2.05 0-2.05zm-19.14-.95c-.025-.073-.168-.117-.222-.058-.015.01.015.457.06.994.048.536.122 1.45.162 2.031.108 1.402.118 1.476.211 1.476.084 0 .079-.251-.059-2.238-.04-.541-.084-1.24-.098-1.55-.02-.31-.045-.605-.055-.654zm-11.408-4.18c-.034-.276-.079-.325-.211-.236-.064.04-.07.005.698 5.307.118.822.231 1.505.246 1.52.118.123.098-.167-.167-2.199a408.892 408.892 0 01-.566-4.392zm32.393-4.265c-.034 0-.048.518-.05 1.553v.13c-.004.929-.014 1.997-.024 2.375-.01.379-.034 2.007-.044 3.616-.03 3.217-.045 3.07.26 2.336.187-.448.192-.6.232-5.79l.034-4.072-.177-.074a1.123 1.123 0 00-.231-.074zM15.554 29.56c-.133 0-.133-.01-.064.87.065.818.064.85.238.852h.043c.19.002.18.057.107-.886-.044-.53-.078-.728-.132-.777a.402.402 0 00-.192-.059zm-4.152-2.287l.03.246c.013.123.06.571.111 1.025l.011.101c.05.482.114.9.138.925.079.079.256-.05.256-.187 0-.163-.143-1.495-.172-1.618a1.07 1.07 0 00-.202-.295l-.172-.197zM8.583 14.32c-.03-.03-.32.433-.354.566-.015.064.04.66.128 1.328A793.675 793.675 0 008.972 21c.096.763.194 1.525.295 2.288a2101 2101 0 00.566 4.377c.054.404.098.777.098.822 0 .103.05.113.167.024.079-.059.079-.098.01-.674-.04-.339-.108-.934-.147-1.328-.045-.393-.276-2.494-.522-4.673s-.531-4.756-.64-5.725a52.356 52.356 0 00-.216-1.79zm27.508-4.058l.03.708c.014.39.039 3.596.059 7.128.024 5.829.034 6.424.108 6.478a.321.321 0 00.172.064c.088 0 .088-.177.074-7-.015-5.942-.025-7.019-.084-7.088a1.524 1.524 0 00-.216-.187l-.143-.103zm-24.876 11.85c-.015-.01-.103.03-.187.088-.187.118-.187.153-.094.94l.06.492.157-.335c.143-.314.152-.354.123-.752-.015-.227-.044-.423-.059-.433zm-4.093-4.949c-.015 0-.078.148-.138.33l-.113.334.35 2.41c.196 1.324.378 2.588.408 2.805.03.216.069.413.088.432.02.02.08 0 .138-.049l.104-.088-.094-.689c-.054-.379-.172-1.289-.266-2.017l-.305-2.4c-.078-.586-.152-1.068-.172-1.068zm31.34 1.378c-.03 0-.05.875-.05 2.43v.208c.002 1.978.013 2.227.08 2.251.108.04.364.035.369-.01.024-.128.054-3.197.044-4.54 0-.167-.02-.187-.197-.26a1.244 1.244 0 00-.246-.08zm-4.393-1.033h-.157l.015 2.543c.019 2.71.015 2.722.288 2.72h.164v-2.626c0-2.191-.01-2.49-.079-2.559-.039-.044-.147-.078-.23-.078zm-15.864 3.787c.453-.275 1.073.089 1.073.63 0 .56-.606.93-1.073.65a.754.754 0 010-1.28zm-3.335-.472c.6-.26 1.16.389.817.95-.182.304-.537.388-.886.21-.482-.245-.443-.939.069-1.16zM12.297 13.7c-.034-.088-.054-.083-.226.08l-.192.176.138 1.417c.074.782.221 2.253.324 3.266.104 1.013.202 2.017.222 2.233l.034.389.187-.192.192-.192-.167-1.82c-.094-1.003-.236-2.597-.325-3.541-.084-.95-.167-1.766-.187-1.816zm19.426-2.243v8.367l.177.074c.098.04.187.064.197.054.024-.02.02-6.685-.005-7.772-.005-.32-.03-.6-.054-.62a.513.513 0 00-.177-.073l-.138-.03zm-9.051-5.706l-.133.005c-.079.005-.202.02-.276.03l-.137.02.03 1.092c.029.993.319 7.786.407 9.537.02.399.055.738.07.758a.8.8 0 00.255.054l.221.025-.024-.36a607.67 607.67 0 01-.241-5.922c-.015-.433-.05-1.264-.079-1.845a84.016 84.016 0 01-.093-3.01v-.384zm-12.46 6.366c-.05-.055-.429.442-.429.56 0 .197.492 4.55.517 4.575.04.04.418-.148.418-.207 0-.03-.069-.718-.152-1.53-.079-.808-.159-1.616-.241-2.424-.05-.527-.099-.965-.114-.974zm5.79-4.452c-.035-.064-.124-.05-.281.034-.128.07-.133.089-.108.305.014.128.113 1.304.221 2.617.187 2.233.453 5.322.521 5.962.015.157.045.285.06.285.02 0 .108-.044.196-.098.158-.099.162-.108.138-.36a193.68 193.68 0 01-.202-2.444c-.285-3.546-.516-6.257-.546-6.301zm13.36 5.858h-.113l.03 1.093c.019.604.034 1.288.034 1.524v.423l.152.054c.266.094.32.02.31-.423 0-.211-.01-.86-.015-1.44l-.005-1.063-.142-.084a.653.653 0 00-.251-.084zM18.377 11.61c-.118.01-.374.098-.398.133-.025.039.147 2.459.197 2.75.02.147.039.162.187.162.28 0 .29-.054.23-.92-.029-.428-.063-.98-.078-1.22a16.942 16.942 0 00-.054-.679c-.015-.128-.054-.231-.084-.226zm6.213-1.495v.364c0 .354.148 3.999.163 4.009.004.004.113.02.245.034l.232.034-.005-.728c-.005-1.21-.074-3.595-.104-3.625-.014-.015-.137-.04-.28-.059l-.25-.03zm-4.132-1.281c-.001-.18-.013-.18-.157-.175-.089 0-.227.024-.305.054-.133.049-.138.059-.108.305.013.13.058.712.096 1.323l.007.108c.04.65.098 1.5.123 1.894.03.393.054.821.064.959.01.246.01.246.172.241.33-.02.32.01.285-.846-.02-.423-.064-1.402-.103-2.174a77.91 77.91 0 01-.074-1.638v-.051zm6.655-2.876c-.206-.034-.26-.03-.28.025-.03.073.005 3.03.045 3.9.01.286.034 1.161.054 1.953l.034 1.431.226.02c.123.015.246.015.266 0 .025-.01.03-.167.015-.349-.015-.177-.04-1.805-.06-3.62-.014-1.81-.029-3.296-.034-3.301a3.661 3.661 0 00-.265-.059zm6.99 3.6c-.2-.083-.2-.083-.22-.01-.01.035-.015.798-.006 1.698l.015 1.633.207.098.206.104.015-1.073c.01-.585 0-1.362-.015-1.721l-.034-.66-.167-.068zm-4.56-.904c-.336-.114-.33-.205-.329 1.218v.221c0 .77.015 1.44.03 1.497.024.094.32.26.462.26.054 0 .069-2.35.02-2.842-.03-.28-.045-.305-.182-.354z"
    />
  </g>
  <defs>
    <clipPath id="deno__a">
      <path fill="#fff" d="M0 0h40v40H0z" transform="translate(4 4)" />
    </clipPath>
  </defs>
</svg>
