<svg
  xmlns="http://www.w3.org/2000/svg"
  width="48"
  height="48"
  viewBox="0 0 48 48"
>
  <path
    fill="#013301"
    d="M8.5 0h31C44.2 0 48 3.897 48 8.718v30.564C48 44.102 44.2 48 39.5 48h-31C3.8 48 0 44.103 0 39.282V8.718C0 3.898 3.8 0 8.5 0z"
  />
  <path
    fill="#3F6"
    d="M7 33.84V13.36c-.02-.12.08-.24.22-.26h.02c.32-.02.8-.04 1.42-.04.62-.02 1.36-.02 2.18-.04.84-.02 1.72-.02 2.68-.02 2.58 0 4.72.44 6.4 1.32 1.6.8 2.94 2.06 3.82 3.62.84 1.54 1.28 3.3 1.28 5.3.02 1.4-.2 2.78-.66 4.1a9.744 9.744 0 01-1.8 3.08c-.74.84-1.62 1.56-2.6 2.14-.96.56-2 1-3.1 1.26-1.06.26-2.16.4-3.26.4h-2.4c-.84 0-1.64 0-2.36-.02s-1.28-.02-1.64-.04c-.14 0-.2-.12-.2-.32zm4.44-16.88V30.3c.24 0 .46 0 .64.02.2.02.4.02.6.04.2.02.44.02.7.02.98.02 1.94-.14 2.86-.46.82-.28 1.58-.74 2.2-1.36.62-.62 1.12-1.38 1.42-2.22.34-.96.52-1.98.5-3 .02-.96-.14-1.92-.48-2.82-.3-.78-.78-1.48-1.4-2.02-.64-.56-1.38-.98-2.18-1.2-.9-.26-1.84-.4-2.78-.38-.42 0-.78 0-1.08.02-.3-.02-.64 0-1 .02zM26.96 33.86V21.88c0-.36 0-.78-.02-1.22-.02-.46-.02-.88-.04-1.28s-.04-.72-.06-.96a.191.191 0 01.04-.2c.06-.04.12-.06.2-.06h3.32c.12 0 .22.02.32.06.08.04.14.12.16.22.04.12.1.28.14.44.06.2.1.4.12.6.62-.54 1.34-.96 2.12-1.24.78-.26 1.6-.4 2.42-.4.64 0 1.28.1 1.88.3a4.81 4.81 0 013.04 2.96c.32.82.48 1.9.48 3.2v9.56c0 .2-.08.28-.26.28h-3.9c-.16.02-.3-.08-.32-.24v-9.22c.02-.56-.08-1.12-.28-1.64-.18-.4-.46-.76-.82-1a2.36 2.36 0 00-1.36-.36c-.52 0-1.04.08-1.52.28-.44.18-.84.44-1.2.76v11.14c0 .2-.08.28-.26.28h-3.92c-.14.02-.26-.08-.28-.22v-.06z"
  />
</svg>
