<svg
  xmlns="http://www.w3.org/2000/svg"
  width="48"
  height="48"
  viewBox="0 0 48 48"
>
  <path
    fill="#013301"
    d="M10.438 3.5h27.124A7.436 7.436 0 0145 10.947v26.106a7.436 7.436 0 01-7.438 7.447H10.439A7.436 7.436 0 013 37.053V10.947A7.436 7.436 0 0110.438 3.5z"
  />
  <path
    fill="#3F6"
    d="M9.125 32.2V14.258c-.018-.105.07-.21.192-.228h.018c.28-.017.7-.035 1.242-.035.543-.017 1.19-.017 1.908-.035.735-.017 1.505-.017 2.345-.017 2.257 0 4.13.385 5.6 1.156a7.895 7.895 0 013.342 3.171c.735 1.35 1.12 2.892 1.12 4.644a10.44 10.44 0 01-.577 3.592 8.539 8.539 0 01-1.575 2.698 9.424 9.424 0 01-2.275 1.875c-.84.49-1.75.876-2.713 1.103-.927.228-1.89.35-2.852.35h-2.1c-.735 0-1.435 0-2.065-.017-.63-.017-1.12-.017-1.435-.035-.123 0-.175-.105-.175-.28zm3.885-14.788v11.687c.21 0 .402 0 .56.017.175.018.35.018.525.035.175.018.385.018.612.018a7.137 7.137 0 002.503-.403 5.012 5.012 0 001.925-1.192 5.29 5.29 0 001.242-1.945 7.47 7.47 0 00.438-2.628 6.614 6.614 0 00-.42-2.47 4.478 4.478 0 00-1.225-1.77 4.877 4.877 0 00-1.908-1.051 8.159 8.159 0 00-2.432-.333c-.368 0-.683 0-.945.018-.263-.018-.56 0-.875.017zm13.58 14.806V21.721c0-.315 0-.683-.017-1.069-.018-.403-.018-.77-.035-1.121-.018-.35-.035-.63-.053-.841a.167.167 0 01.035-.175.296.296 0 01.175-.053H29.6c.105 0 .192.018.28.053a.27.27 0 01.14.193c.035.105.088.245.122.385.053.175.088.35.105.526a5.814 5.814 0 011.855-1.087c.683-.228 1.4-.35 2.118-.35.56 0 1.12.087 1.645.263a4.21 4.21 0 012.66 2.593c.28.718.42 1.664.42 2.803v8.376c0 .175-.07.245-.227.245h-3.413c-.14.017-.263-.07-.28-.21v-8.078a3.67 3.67 0 00-.245-1.437 2.068 2.068 0 00-.718-.876 2.063 2.063 0 00-1.19-.315c-.455 0-.91.07-1.33.245a3.68 3.68 0 00-1.05.666v9.76c0 .175-.07.245-.227.245h-3.43c-.123.017-.227-.07-.245-.193v-.053z"
  />
</svg>
