<svg
  xmlns="http://www.w3.org/2000/svg"
  width="48"
  height="48"
  viewBox="0 0 48 48"
>
  <path
    fill="#013301"
    d="M11.083 4.5h25.834A7.077 7.077 0 0144 11.583v24.834a7.077 7.077 0 01-7.083 7.083H11.083A7.077 7.077 0 014 36.417V11.583A7.077 7.077 0 0111.083 4.5z"
  />
  <path
    fill="#3F6"
    d="M9.833 31.8V14.733c-.016-.1.067-.2.184-.216h.016c.267-.017.667-.034 1.184-.034.516-.016 1.133-.016 1.816-.033.7-.017 1.434-.017 2.234-.017 2.15 0 3.933.367 5.333 1.1a7.513 7.513 0 013.183 3.017c.7 1.283 1.067 2.75 1.067 4.417a9.92 9.92 0 01-.55 3.416 8.118 8.118 0 01-1.5 2.567 8.97 8.97 0 01-2.167 1.783c-.8.467-1.666.834-2.583 1.05-.883.217-1.8.334-2.717.334h-2c-.7 0-1.366 0-1.966-.017-.6-.017-1.067-.017-1.367-.033-.117 0-.167-.1-.167-.267zm3.7-14.067V28.85c.2 0 .384 0 .534.017.166.016.333.016.5.033.166.017.366.017.583.017a6.806 6.806 0 002.383-.384 4.773 4.773 0 001.834-1.133 5.032 5.032 0 001.183-1.85 7.1 7.1 0 00.417-2.5c.016-.8-.117-1.6-.4-2.35a4.26 4.26 0 00-1.167-1.683 4.644 4.644 0 00-1.817-1 7.774 7.774 0 00-2.316-.317c-.35 0-.65 0-.9.017-.25-.017-.534 0-.834.016zm12.934 14.084v-9.984c0-.3 0-.65-.017-1.016-.017-.384-.017-.734-.033-1.067a25.04 25.04 0 00-.05-.8.16.16 0 01.033-.167c.05-.033.1-.05.167-.05h2.766c.1 0 .184.017.267.05.067.034.117.1.133.184.034.1.084.233.117.366a2.7 2.7 0 01.1.5c.517-.45 1.117-.8 1.767-1.033a6.394 6.394 0 012.016-.333c.534 0 1.067.083 1.567.25a4.008 4.008 0 012.533 2.466c.267.684.4 1.584.4 2.667v7.967c0 .166-.066.233-.216.233h-3.25a.23.23 0 01-.267-.2v-7.683a3.474 3.474 0 00-.233-1.367 1.968 1.968 0 00-.684-.833 1.968 1.968 0 00-1.133-.3c-.433 0-.867.066-1.267.233-.366.15-.7.367-1 .633v9.284c0 .166-.066.233-.216.233H26.7a.208.208 0 01-.233-.183v-.05z"
  />
</svg>
