<svg
  xmlns="http://www.w3.org/2000/svg"
  width="48"
  height="48"
  viewBox="0 0 48 48"
>
  <path
    fill="#470137"
    d="M10.438 3.5h27.124A7.436 7.436 0 0145 10.947v26.106a7.436 7.436 0 01-7.438 7.447H10.439A7.436 7.436 0 013 37.053V10.947A7.436 7.436 0 0110.438 3.5z"
  />
  <path
    fill="#FF61F6"
    d="M6.99 32.2V14.258c-.017-.105.07-.21.175-.228h.018c.262-.017.665-.035 1.172-.035.525-.017 1.12-.017 1.82-.035.7-.017 1.435-.017 2.223-.017 2.135 0 3.92.385 5.32 1.156a7.679 7.679 0 013.167 3.171c.7 1.35 1.05 2.892 1.05 4.644a10.846 10.846 0 01-.543 3.592 8.54 8.54 0 01-1.505 2.698 9.166 9.166 0 01-2.152 1.875 9.594 9.594 0 01-2.572 1.103c-.876.228-1.786.35-2.696.35H10.49c-.7 0-1.365 0-1.96-.017-.612-.017-1.067-.017-1.365-.035-.122 0-.175-.105-.175-.28zm3.692-14.788v11.687c.193 0 .368 0 .543.017.158.018.332.018.49.035.175.018.367.018.578.018a6.54 6.54 0 002.38-.403 4.697 4.697 0 001.837-1.192 5.412 5.412 0 001.172-1.945c.28-.84.42-1.734.42-2.628a6.97 6.97 0 00-.402-2.47 4.566 4.566 0 00-2.992-2.839 7.374 7.374 0 00-2.31-.333c-.35 0-.648 0-.893.018-.245 0-.525.018-.823.035zM37.615 32.48h-3.273c-.07.018-.157-.017-.21-.07a.591.591 0 01-.105-.21 165.499 165.499 0 01-.84-3.732c-.227-1.086-.42-1.997-.56-2.75-.14-.754-.262-1.385-.367-1.91-.088-.526-.175-.964-.228-1.332h-.017c-.175.77-.333 1.524-.49 2.242-.14.719-.315 1.455-.49 2.19-.175.736-.368 1.542-.595 2.418-.21.877-.455 1.84-.718 2.874-.035.193-.122.28-.28.28H26.17c-.088.018-.175-.017-.245-.052a.724.724 0 01-.123-.193L22.39 18.691c-.053-.158.017-.228.21-.228h3.307c.158 0 .245.053.263.175.35 1.542.647 2.874.875 3.995.227 1.122.42 2.068.542 2.856.123.789.245 1.437.333 1.928.087.49.157.91.21 1.226h.052c.035-.28.07-.543.123-.823.07-.333.157-.771.262-1.314.105-.544.228-1.174.385-1.91.158-.736.333-1.577.543-2.558.192-.964.472-2.068.805-3.312 0-.07.035-.158.07-.228.017-.035.087-.052.192-.052h3.43c.105 0 .158.07.175.192.298 1.28.543 2.4.753 3.365.192.963.367 1.822.525 2.575.14.736.262 1.384.332 1.91.07.543.158.981.228 1.35.052.297.105.595.122.893h.053c.087-.35.157-.771.227-1.244s.158-.999.28-1.595c.105-.595.228-1.244.368-1.962.122-.718.297-1.507.49-2.4.192-.877.402-1.84.647-2.874.035-.158.105-.228.228-.228h3.062c.158 0 .21.088.175.245l-3.78 13.51a.418.418 0 01-.105.192c0 .088-.07.123-.157.105z"
  />
</svg>
