<svg
  xmlns="http://www.w3.org/2000/svg"
  width="48"
  height="48"
  viewBox="0 0 48 48"
>
  <path
    fill="#470137"
    d="M8.5 0h31C44.2 0 48 3.897 48 8.718v30.564C48 44.102 44.2 48 39.5 48h-31C3.8 48 0 44.103 0 39.282V8.718C0 3.898 3.8 0 8.5 0z"
  />
  <path
    fill="#FF61F6"
    d="M4.56 33.84V13.36c-.02-.12.08-.24.2-.26h.02c.3-.02.76-.04 1.34-.04.6-.02 1.28-.02 2.08-.04S9.84 13 10.74 13c2.44 0 4.48.44 6.08 1.32a8.77 8.77 0 013.62 3.62c.8 1.54 1.2 3.3 1.2 5.3.02 1.4-.18 2.78-.62 4.1a9.744 9.744 0 01-1.72 3.08c-.7.84-1.54 1.56-2.46 2.14-.9.56-1.9.98-2.94 1.26-1 .26-2.04.4-3.08.4H8.56c-.8 0-1.56 0-2.24-.02-.7-.02-1.22-.02-1.56-.04-.14 0-.2-.12-.2-.32zm4.22-16.88V30.3c.22 0 .42 0 .62.02.18.02.38.02.56.04.2.02.42.02.66.02.92.02 1.84-.14 2.72-.46.8-.28 1.5-.74 2.1-1.36.6-.64 1.06-1.4 1.34-2.22.32-.96.48-1.98.48-3 .02-.96-.14-1.92-.46-2.82a5.215 5.215 0 00-3.42-3.24c-.86-.26-1.74-.4-2.64-.38-.4 0-.74 0-1.02.02-.28 0-.6.02-.94.04zM39.56 34.16h-3.74c-.08.02-.18-.02-.24-.08a.676.676 0 01-.12-.24c-.38-1.6-.7-3.04-.96-4.26-.26-1.24-.48-2.28-.64-3.14-.16-.86-.3-1.58-.42-2.18-.1-.6-.2-1.1-.26-1.52h-.02c-.2.88-.38 1.74-.56 2.56-.16.82-.36 1.66-.56 2.5-.2.84-.42 1.76-.68 2.76-.24 1-.52 2.1-.82 3.28-.04.22-.14.32-.32.32h-3.74c-.1.02-.2-.02-.28-.06-.06-.06-.1-.14-.14-.22l-3.9-15.46c-.06-.18.02-.26.24-.26h3.78c.18 0 .28.06.3.2.4 1.76.74 3.28 1 4.56.26 1.28.48 2.36.62 3.26.14.9.28 1.64.38 2.2.1.56.18 1.04.24 1.4h.06c.04-.32.08-.62.14-.94.08-.38.18-.88.3-1.5s.26-1.34.44-2.18c.18-.84.38-1.8.62-2.92.22-1.1.54-2.36.92-3.78 0-.08.04-.18.08-.26.02-.04.1-.06.22-.06h3.92c.12 0 .18.08.2.22.34 1.46.62 2.74.86 3.84.22 1.1.42 2.08.6 2.94.16.84.3 1.58.38 2.18.08.62.18 1.12.26 1.54.06.34.12.68.14 1.02h.06c.1-.4.18-.88.26-1.42.08-.54.18-1.14.32-1.82.12-.68.26-1.42.42-2.24.14-.82.34-1.72.56-2.74.22-1 .46-2.1.74-3.28.04-.18.12-.26.26-.26h3.5c.18 0 .24.1.2.28l-4.32 15.42c-.02.08-.06.16-.12.22 0 .1-.08.14-.18.12z"
  />
</svg>
