<svg
  xmlns="http://www.w3.org/2000/svg"
  width="48"
  height="48"
  viewBox="0 0 48 48"
>
  <path
    fill="#470137"
    d="M11.083 4.5h25.834A7.077 7.077 0 0144 11.583v24.834a7.077 7.077 0 01-7.083 7.083H11.083A7.077 7.077 0 014 36.417V11.583A7.077 7.077 0 0111.083 4.5z"
  />
  <path
    fill="#FF61F6"
    d="M7.8 31.8V14.733c-.017-.1.067-.2.167-.216h.016c.25-.017.634-.034 1.117-.034.5-.016 1.067-.016 1.733-.033.667-.017 1.367-.017 2.117-.017 2.033 0 3.733.367 5.067 1.1a7.31 7.31 0 013.016 3.017c.667 1.283 1 2.75 1 4.417a10.306 10.306 0 01-.516 3.416 8.12 8.12 0 01-1.434 2.567c-.583.7-1.283 1.3-2.05 1.783a9.142 9.142 0 01-2.45 1.05c-.833.217-1.7.334-2.566.334h-1.884c-.666 0-1.3 0-1.866-.017-.584-.017-1.017-.017-1.3-.033-.117 0-.167-.1-.167-.267zm3.517-14.067V28.85c.183 0 .35 0 .516.017.15.016.317.016.467.033.167.017.35.017.55.017a6.237 6.237 0 002.267-.384 4.472 4.472 0 001.75-1.133c.5-.533.883-1.167 1.116-1.85.267-.8.4-1.65.4-2.5.017-.8-.116-1.6-.383-2.35a4.346 4.346 0 00-2.85-2.7 7.032 7.032 0 00-2.2-.317c-.333 0-.617 0-.85.017-.233 0-.5.017-.783.033zM36.967 32.067H33.85c-.067.016-.15-.017-.2-.067a.564.564 0 01-.1-.2 157.738 157.738 0 01-.8-3.55c-.217-1.033-.4-1.9-.533-2.617-.134-.716-.25-1.316-.35-1.816-.084-.5-.167-.917-.217-1.267h-.017c-.166.733-.316 1.45-.466 2.133-.134.684-.3 1.384-.467 2.084-.167.7-.35 1.466-.567 2.3-.2.833-.433 1.75-.683 2.733-.033.183-.117.267-.267.267h-3.116c-.084.016-.167-.017-.234-.05a.687.687 0 01-.116-.184l-3.25-12.883c-.05-.15.016-.217.2-.217h3.15c.15 0 .233.05.25.167.333 1.467.616 2.733.833 3.8.217 1.067.4 1.967.517 2.717.116.75.233 1.366.316 1.833.084.467.15.867.2 1.167h.05c.034-.267.067-.517.117-.784.067-.316.15-.733.25-1.25.1-.516.217-1.116.367-1.816s.316-1.5.516-2.434c.184-.916.45-1.966.767-3.15 0-.066.033-.15.067-.216.016-.034.083-.05.183-.05h3.267c.1 0 .15.066.166.183.284 1.217.517 2.283.717 3.2.183.917.35 1.733.5 2.45.133.7.25 1.317.317 1.817.066.516.15.933.216 1.283.05.283.1.567.117.85h.05c.083-.333.15-.733.217-1.183.066-.45.15-.95.266-1.517.1-.567.217-1.183.35-1.867.117-.683.284-1.433.467-2.283.183-.833.383-1.75.617-2.733.033-.15.1-.217.216-.217h2.917c.15 0 .2.083.167.233l-3.6 12.85a.398.398 0 01-.1.184c0 .083-.067.116-.15.1z"
  />
</svg>
