<svg
  xmlns="http://www.w3.org/2000/svg"
  width="48"
  height="48"
  viewBox="0 0 48 48"
>
  <rect width="48" height="48" fill="#fff" rx="8" />
  <path
    fill="url(#edge__a)"
    d="M39.29 33.278c-.505.267-1.025.505-1.56.697a15.182 15.182 0 01-5.328.965c-7.021 0-13.137-4.824-13.137-11.029a4.657 4.657 0 012.434-4.052c-6.353.267-7.986 6.887-7.986 10.762 0 10.97 10.109 12.083 12.291 12.083 1.173 0 2.94-.342 4.008-.683l.193-.06a18.994 18.994 0 009.886-7.837.595.595 0 00-.178-.817.625.625 0 00-.624-.03z"
  />
  <path
    fill="url(#edge__b)"
    d="M39.29 33.278c-.505.267-1.025.505-1.56.697a15.182 15.182 0 01-5.328.965c-7.021 0-13.137-4.824-13.137-11.029a4.657 4.657 0 012.434-4.052c-6.353.267-7.986 6.887-7.986 10.762 0 10.97 10.109 12.083 12.291 12.083 1.173 0 2.94-.342 4.008-.683l.193-.06a18.994 18.994 0 009.886-7.837.595.595 0 00-.178-.817.625.625 0 00-.624-.03z"
    opacity=".35"
  />
  <path
    fill="url(#edge__c)"
    d="M20.69 40.833a11.797 11.797 0 01-3.37-3.161c-3.904-5.344-2.731-12.84 2.613-16.744a11.999 11.999 0 011.766-1.07c.46-.222 1.247-.608 2.301-.593 1.5.015 2.91.727 3.815 1.93a4.78 4.78 0 01.95 2.776c0-.03 3.637-11.816-11.875-11.816-6.517 0-11.875 6.19-11.875 11.608a19.36 19.36 0 001.796 8.312c4.097 8.729 14.072 13.004 23.216 9.96-3.132.98-6.547.55-9.337-1.202z"
  />
  <path
    fill="url(#edge__d)"
    d="M20.69 40.833a11.797 11.797 0 01-3.37-3.161c-3.904-5.344-2.731-12.84 2.613-16.744a11.999 11.999 0 011.766-1.07c.46-.222 1.247-.608 2.301-.593 1.5.015 2.91.727 3.815 1.93a4.78 4.78 0 01.95 2.776c0-.03 3.637-11.816-11.875-11.816-6.517 0-11.875 6.19-11.875 11.608a19.36 19.36 0 001.796 8.312c4.097 8.729 14.072 13.004 23.216 9.96-3.132.98-6.547.55-9.337-1.202z"
    opacity=".41"
  />
  <path
    fill="url(#edge__e)"
    d="M27.607 27.103c-.119.148-.49.37-.49.846 0 .386.253.757.698 1.069 2.137 1.484 6.16 1.291 6.175 1.291a8.87 8.87 0 004.498-1.232A9.099 9.099 0 0043 21.224c.045-3.325-1.187-5.536-1.677-6.516C38.176 8.548 31.378 5 24 5 13.61 5 5.148 13.342 5 23.733c.074-5.418 5.462-9.797 11.875-9.797.52 0 3.488.045 6.234 1.5 2.42 1.276 3.696 2.805 4.572 4.334.92 1.588 1.084 3.577 1.084 4.379 0 .787-.4 1.974-1.158 2.954z"
  />
  <path
    fill="url(#edge__f)"
    d="M27.607 27.103c-.119.148-.49.37-.49.846 0 .386.253.757.698 1.069 2.137 1.484 6.16 1.291 6.175 1.291a8.87 8.87 0 004.498-1.232A9.099 9.099 0 0043 21.224c.045-3.325-1.187-5.536-1.677-6.516C38.176 8.548 31.378 5 24 5 13.61 5 5.148 13.342 5 23.733c.074-5.418 5.462-9.797 11.875-9.797.52 0 3.488.045 6.234 1.5 2.42 1.276 3.696 2.805 4.572 4.334.92 1.588 1.084 3.577 1.084 4.379 0 .787-.4 1.974-1.158 2.954z"
  />
  <defs>
    <radialGradient
      id="edge__b"
      cx="0"
      cy="0"
      r="1"
      gradientTransform="matrix(14.1568 0 0 13.4475 28.333 31.487)"
      gradientUnits="userSpaceOnUse"
    >
      <stop offset=".72" stop-opacity="0" />
      <stop offset=".95" stop-opacity=".53" />
      <stop offset="1" />
    </radialGradient>
    <radialGradient
      id="edge__d"
      cx="0"
      cy="0"
      r="1"
      gradientTransform="rotate(-81.383 27.825 8.269) scale(21.286 17.2003)"
      gradientUnits="userSpaceOnUse"
    >
      <stop offset=".76" stop-opacity="0" />
      <stop offset=".95" stop-opacity=".5" />
      <stop offset="1" />
    </radialGradient>
    <radialGradient
      id="edge__e"
      cx="0"
      cy="0"
      r="1"
      gradientTransform="matrix(-1.20196 30.04267 -63.9944 -2.56032 8.837 12.035)"
      gradientUnits="userSpaceOnUse"
    >
      <stop stop-color="#35C1F1" />
      <stop offset=".11" stop-color="#34C1ED" />
      <stop offset=".23" stop-color="#2FC2DF" />
      <stop offset=".31" stop-color="#2BC3D2" />
      <stop offset=".67" stop-color="#36C752" />
    </radialGradient>
    <radialGradient
      id="edge__f"
      cx="0"
      cy="0"
      r="1"
      gradientTransform="matrix(4.04567 13.86835 -11.27984 3.29055 40.634 16.49)"
      gradientUnits="userSpaceOnUse"
    >
      <stop stop-color="#66EB6E" />
      <stop offset="1" stop-color="#66EB6E" stop-opacity="0" />
    </radialGradient>
    <linearGradient
      id="edge__a"
      x1="13.714"
      x2="40.178"
      y1="31.277"
      y2="31.277"
      gradientUnits="userSpaceOnUse"
    >
      <stop stop-color="#0C59A4" />
      <stop offset="1" stop-color="#114A8B" />
    </linearGradient>
    <linearGradient
      id="edge__c"
      x1="27.677"
      x2="11.145"
      y1="19.806"
      y2="37.814"
      gradientUnits="userSpaceOnUse"
    >
      <stop stop-color="#1B9DE2" />
      <stop offset=".16" stop-color="#1595DF" />
      <stop offset=".67" stop-color="#0680D7" />
      <stop offset="1" stop-color="#0078D4" />
    </linearGradient>
  </defs>
</svg>
