<svg
  xmlns="http://www.w3.org/2000/svg"
  width="48"
  height="48"
  viewBox="0 0 48 48"
>
  <path
    fill="#28A8EA"
    d="M42.335 5.65h-9.322a2.664 2.664 0 00-1.885.78L9.126 28.434a2.664 2.664 0 00-.78 1.884v9.322a2.665 2.665 0 002.665 2.665h9.321a2.664 2.664 0 001.885-.78L44.219 19.52c.5-.5.78-1.177.78-1.884V8.315a2.666 2.666 0 00-2.664-2.665z"
  />
  <path
    fill="#0078D4"
    d="M42.335 42.304h-9.322c-.707 0-1.385-.28-1.885-.78l-4.456-4.456v-8.326a4.766 4.766 0 014.766-4.765h8.326l4.455 4.456c.5.5.78 1.178.78 1.884v9.322a2.665 2.665 0 01-2.664 2.665z"
  />
  <path
    fill="#50D9FF"
    d="M11.01 5.65h9.322c.707 0 1.385.28 1.885.78l4.456 4.456v8.326a4.765 4.765 0 01-4.765 4.765h-8.326l-4.456-4.456c-.5-.5-.78-1.177-.78-1.884V8.315A2.665 2.665 0 0111.01 5.65z"
  />
  <path
    fill="#000"
    d="M25.145 15.066V35.18c.002.102-.008.205-.03.305a1.767 1.767 0 01-1.75 1.474H8.346V13.286h15.02a1.776 1.776 0 011.78 1.78z"
    opacity=".2"
  />
  <path
    fill="#000"
    d="M25.909 15.066v18.587a2.567 2.567 0 01-2.543 2.543H8.346V12.523h15.02a2.552 2.552 0 012.543 2.543z"
    opacity=".1"
  />
  <path
    fill="#000"
    d="M25.145 15.066v18.587a1.778 1.778 0 01-1.78 1.779H8.346V13.286h15.02a1.776 1.776 0 011.78 1.78z"
    opacity=".2"
  />
  <path
    fill="#000"
    d="M24.382 15.066v18.587a1.774 1.774 0 01-1.78 1.779H8.345V13.286h14.257a1.776 1.776 0 011.78 1.78z"
    opacity=".1"
  />
  <path
    fill="#0078D4"
    d="M22.6 13.286H4.782c-.984 0-1.782.798-1.782 1.782v17.818c0 .984.798 1.782 1.782 1.782H22.6c.984 0 1.782-.798 1.782-1.782V15.068c0-.984-.798-1.782-1.782-1.782z"
  />
  <path
    fill="#fff"
    d="M17.192 20.068h-5v2.924h4.693v1.874h-4.692v3.036h5.266v1.866H9.923V18.186h7.27v1.882z"
  />
</svg>
