<svg
  xmlns="http://www.w3.org/2000/svg"
  width="48"
  height="48"
  viewBox="0 0 48 48"
>
  <rect width="48" height="48" fill="#fff" rx="8" />
  <path
    fill="#28A8EA"
    d="M40.589 7.395h-8.434a2.41 2.41 0 00-1.706.707L10.543 28.009a2.41 2.41 0 00-.706 1.705v8.434a2.411 2.411 0 002.412 2.411h8.434a2.41 2.41 0 001.705-.706l19.907-19.907A2.412 2.412 0 0043 18.24V9.807a2.411 2.411 0 00-2.411-2.412z"
  />
  <path
    fill="#0078D4"
    d="M40.589 40.56h-8.434c-.64 0-1.253-.255-1.706-.707l-4.031-4.032V28.29a4.311 4.311 0 014.311-4.312h7.533l4.032 4.032A2.41 2.41 0 0143 29.715v8.434a2.411 2.411 0 01-2.411 2.411z"
  />
  <path
    fill="#50D9FF"
    d="M12.247 7.395h8.434c.64 0 1.253.254 1.706.707l4.031 4.031v7.533a4.311 4.311 0 01-4.311 4.311h-7.533l-4.032-4.031a2.411 2.411 0 01-.706-1.705V9.807a2.411 2.411 0 012.411-2.412z"
  />
  <path
    d="M25.036 15.914v18.199a1.22 1.22 0 01-.027.276 1.599 1.599 0 01-1.583 1.334H9.836V14.304h13.59a1.61 1.61 0 011.61 1.61z"
    opacity=".2"
  />
  <path
    d="M25.727 15.914v16.817a2.322 2.322 0 01-2.3 2.3H9.836V13.615h13.59a2.309 2.309 0 012.3 2.3z"
    opacity=".1"
  />
  <path
    d="M25.036 15.914v16.817a1.606 1.606 0 01-1.61 1.61H9.836V14.304h13.59a1.61 1.61 0 011.61 1.61z"
    opacity=".2"
  />
  <path
    d="M24.345 15.914v16.817a1.608 1.608 0 01-1.61 1.61H9.836V14.304h12.9a1.61 1.61 0 011.61 1.61z"
    opacity=".1"
  />
  <path
    fill="#0078D4"
    d="M22.733 14.304H6.612c-.89 0-1.612.722-1.612 1.613v16.12c0 .891.722 1.613 1.612 1.613h16.121c.89 0 1.612-.722 1.612-1.612V15.917c0-.89-.721-1.613-1.612-1.613z"
  />
  <path
    fill="#fff"
    d="M17.84 20.44h-4.523v2.646h4.246v1.695h-4.246v2.748h4.765v1.688h-6.818v-10.48h6.576v1.704z"
  />
</svg>
