<svg
  xmlns="http://www.w3.org/2000/svg"
  width="48"
  height="48"
  viewBox="0 0 48 48"
>
  <path
    fill="#1977F3"
    d="M44 24c0-11.045-8.955-20-20-20S4 12.955 4 24c0 9.982 7.313 18.256 16.875 19.758V29.783h-5.08V24h5.08v-4.407c0-5.012 2.987-7.783 7.555-7.783 2.188 0 4.477.391 4.477.391v4.922h-2.522c-2.484 0-3.26 1.542-3.26 3.125V24h5.546l-.886 5.783h-4.66v13.975C36.687 42.26 44 33.984 44 24z"
  />
  <path
    fill="#FEFEFE"
    d="M31.785 29.783L32.671 24h-5.546v-3.752c0-1.58.773-3.125 3.26-3.125h2.522v-4.922s-2.29-.39-4.477-.39c-4.568 0-7.555 2.767-7.555 7.782V24h-5.08v5.783h5.08v13.975A20.08 20.08 0 0024 44c1.063 0 2.107-.084 3.125-.242V29.783h4.66z"
  />
</svg>
