<svg
  width="48"
  height="48"
  fill="none"
  xmlns="http://www.w3.org/2000/svg"
  viewBox="0 0 48 48"
>
  <path
    d="M23.983 24a6.667 6.667 0 1 1 13.334 0 6.667 6.667 0 0 1-13.334 0z"
    fill="#1ABCFE"
  />
  <path
    d="M10.65 37.333a6.667 6.667 0 0 1 6.667-6.666h6.666v6.666a6.667 6.667 0 0 1-13.333 0z"
    fill="#0ACF83"
  />
  <path
    d="M23.983 4v13.333h6.667A6.666 6.666 0 1 0 30.65 4h-6.667z"
    fill="#FF7262"
  />
  <path
    d="M10.65 10.667a6.667 6.667 0 0 0 6.667 6.666h6.666V4h-6.666a6.667 6.667 0 0 0-6.667 6.667z"
    fill="#F24E1E"
  />
  <path
    d="M10.65 24a6.667 6.667 0 0 0 6.667 6.667h6.666V17.333h-6.666A6.667 6.667 0 0 0 10.65 24z"
    fill="#A259FF"
  />
</svg>
