<svg
  width="48"
  height="48"
  fill="none"
  xmlns="http://www.w3.org/2000/svg"
  viewBox="0 0 48 48"
>
  <path
    fill="#1ABCFE"
    d="M23.983 24a6.667 6.667 0 1113.334 0 6.667 6.667 0 01-13.334 0z"
  />
  <path
    fill="#0ACF83"
    d="M10.65 37.333a6.667 6.667 0 016.667-6.666h6.666v6.666a6.667 6.667 0 01-13.333 0z"
  />
  <path
    fill="#FF7262"
    d="M23.983 4v13.333h6.667A6.666 6.666 0 1030.65 4h-6.667z"
  />
  <path
    fill="#F24E1E"
    d="M10.65 10.667a6.667 6.667 0 006.667 6.666h6.666V4h-6.666a6.667 6.667 0 00-6.667 6.667z"
  />
  <path
    fill="#A259FF"
    d="M10.65 24a6.667 6.667 0 006.667 6.667h6.666V17.333h-6.666A6.667 6.667 0 0010.65 24z"
  />
</svg>
