<svg
  xmlns="http://www.w3.org/2000/svg"
  width="48"
  height="48"
  viewBox="0 0 48 48"
>
  <rect width="48" height="48" fill="#282828" rx="8" />
  <path
    fill="#1ABCFE"
    d="M23.983 24A5.508 5.508 0 1135 24a5.508 5.508 0 01-11.017 0z"
  />
  <path
    fill="#0ACF83"
    d="M12.967 35.017a5.508 5.508 0 015.508-5.509h5.508v5.509a5.508 5.508 0 11-11.016 0z"
  />
  <path
    fill="#FF7262"
    d="M23.983 7.475v11.017h5.509a5.508 5.508 0 000-11.017h-5.509z"
  />
  <path
    fill="#F24E1E"
    d="M12.967 12.983a5.508 5.508 0 005.508 5.509h5.508V7.475h-5.508a5.508 5.508 0 00-5.508 5.508z"
  />
  <path
    fill="#A259FF"
    d="M12.967 24a5.508 5.508 0 005.508 5.508h5.508V18.492h-5.508A5.508 5.508 0 0012.967 24z"
  />
</svg>
