<svg
  xmlns="http://www.w3.org/2000/svg"
  width="48"
  height="48"
  viewBox="0 0 48 48"
>
  <rect width="48" height="48" fill="#282828" rx="8" />
  <path
    fill="#1ABCFE"
    d="M23.983 24A5.008 5.008 0 1134 24a5.008 5.008 0 01-10.017 0z"
  />
  <path
    fill="#0ACF83"
    d="M13.967 34.017a5.008 5.008 0 015.008-5.009h5.008v5.009a5.008 5.008 0 11-10.016 0z"
  />
  <path
    fill="#FF7262"
    d="M23.983 8.975v10.017h5.009a5.009 5.009 0 000-10.017h-5.009z"
  />
  <path
    fill="#F24E1E"
    d="M13.967 13.983a5.008 5.008 0 005.008 5.009h5.008V8.975h-5.008a5.008 5.008 0 00-5.008 5.008z"
  />
  <path
    fill="#A259FF"
    d="M13.967 24a5.008 5.008 0 005.008 5.008h5.008V18.992h-5.008A5.008 5.008 0 0013.967 24z"
  />
</svg>
