<svg
  width="48"
  height="48"
  fill="none"
  xmlns="http://www.w3.org/2000/svg"
  viewBox="0 0 48 48"
>
  <path
    d="M39.972 11.85a19.735 19.735 0 00-15.178-7.845c-4.644-.093-7.852 1.302-9.667 2.424 2.429-1.409 5.943-2.208 9.02-2.168 7.915.1 16.416 5.49 17.679 15.207 1.45 11.152-6.319 20.461-17.247 20.49-12.022.03-19.335-10.615-17.423-20.176.035-.47.104-.935.206-1.394.236-2.45.948-4.831 2.097-7.009-1.385.716-3.148 2.982-4.018 5.082A20.677 20.677 0 004.142 26.55c.03.259.057.517.091.774a20.03 20.03 0 1035.74-15.474z"
    fill="url(#firefox_svg__paint0_radial)"
  />
  <path
    opacity=".67"
    d="M39.972 11.85a19.735 19.735 0 00-15.178-7.845c-4.644-.093-7.852 1.302-9.667 2.424 2.429-1.409 5.943-2.208 9.02-2.168 7.915.1 16.416 5.49 17.679 15.207 1.45 11.152-6.319 20.461-17.247 20.49-12.022.03-19.335-10.615-17.423-20.176.035-.47.104-.935.206-1.394.236-2.45.948-4.831 2.097-7.009-1.385.716-3.148 2.982-4.018 5.082A20.677 20.677 0 004.142 26.55c.03.259.057.517.091.774a20.03 20.03 0 1035.74-15.474z"
    fill="url(#firefox_svg__paint1_radial)"
  />
  <path
    d="M39.972 11.85a19.735 19.735 0 00-15.178-7.845c-4.644-.093-7.852 1.302-9.667 2.424 2.429-1.409 5.943-2.208 9.02-2.168 7.915.1 16.416 5.49 17.679 15.207 1.45 11.152-6.319 20.461-17.247 20.49-12.022.03-19.335-10.615-17.423-20.176.035-.47.104-.935.206-1.394.236-2.45.948-4.831 2.097-7.009-1.385.716-3.148 2.982-4.018 5.082A20.677 20.677 0 004.142 26.55c.03.259.057.517.091.774a20.03 20.03 0 1035.74-15.474z"
    fill="url(#firefox_svg__paint2_radial)"
  />
  <path
    d="M39.972 11.85a19.735 19.735 0 00-15.178-7.845c-4.644-.093-7.852 1.302-9.667 2.424 2.429-1.409 5.943-2.208 9.02-2.168 7.915.1 16.416 5.49 17.679 15.207 1.45 11.152-6.319 20.461-17.247 20.49-12.022.03-19.335-10.615-17.423-20.176.035-.47.104-.935.206-1.394.236-2.45.948-4.831 2.097-7.009-1.385.716-3.148 2.982-4.018 5.082A20.677 20.677 0 004.142 26.55c.03.259.057.517.091.774a20.03 20.03 0 1035.74-15.474z"
    fill="url(#firefox_svg__paint3_radial)"
  />
  <path
    d="M39.972 11.85a19.735 19.735 0 00-15.178-7.845c-4.644-.093-7.852 1.302-9.667 2.424 2.429-1.409 5.943-2.208 9.02-2.168 7.915.1 16.416 5.49 17.679 15.207 1.45 11.152-6.319 20.461-17.247 20.49-12.022.03-19.335-10.615-17.423-20.176.035-.47.104-.935.206-1.394.236-2.45.948-4.831 2.097-7.009-1.385.716-3.148 2.982-4.018 5.082A20.677 20.677 0 004.142 26.55c.03.259.057.517.091.774a20.03 20.03 0 1035.74-15.474z"
    fill="url(#firefox_svg__paint4_radial)"
  />
  <path
    d="M41.825 19.468c.157 1.2.208 2.413.15 3.623.664-.1 1.328-.188 1.994-.265a20.006 20.006 0 00-3.997-10.976 19.736 19.736 0 00-15.178-7.845c-4.644-.093-7.852 1.302-9.667 2.424 2.428-1.409 5.943-2.208 9.02-2.168 7.915.101 16.416 5.489 17.678 15.207z"
    fill="url(#firefox_svg__paint5_linear)"
  />
  <path
    d="M42.313 18.913C41.187 8.759 32.132 4.195 24.146 4.261c-3.077.025-6.591.76-9.02 2.168a9.85 9.85 0 00-1.78 1.35c.065-.053.257-.212.576-.431l.031-.021.028-.02a13.328 13.328 0 013.846-1.786 21.75 21.75 0 016.592-.771 16.627 16.627 0 0115.625 15.997c.183 6.603-5.221 11.868-11.451 12.173-4.531.222-8.8-1.97-10.885-6.357a10.84 10.84 0 01-.982-3.166c-.988-6.675 3.494-12.367 7.605-13.777-2.218-1.937-7.774-1.805-11.91 1.237-2.977 2.191-4.91 5.524-5.55 9.5a16.473 16.473 0 001.17 9 17.65 17.65 0 0015.045 10.721c.496.038.994.057 1.492.057 13.231 0 18.971-10.043 17.733-21.222z"
    fill="url(#firefox_svg__paint6_radial)"
  />
  <path
    d="M42.313 18.913C41.187 8.759 32.132 4.195 24.146 4.261c-3.077.025-6.591.76-9.02 2.168a9.85 9.85 0 00-1.78 1.35c.065-.053.257-.212.576-.431l.031-.021.028-.02a13.328 13.328 0 013.846-1.786 21.75 21.75 0 016.592-.771 16.627 16.627 0 0115.625 15.997c.183 6.603-5.221 11.868-11.451 12.173-4.531.222-8.8-1.97-10.885-6.357a10.84 10.84 0 01-.982-3.166c-.988-6.675 3.494-12.367 7.605-13.777-2.218-1.937-7.774-1.805-11.91 1.237-2.977 2.191-4.91 5.524-5.55 9.5a16.473 16.473 0 001.17 9 17.65 17.65 0 0015.045 10.721c.496.038.994.057 1.492.057 13.231 0 18.971-10.043 17.733-21.222z"
    fill="url(#firefox_svg__paint7_radial)"
  />
  <path
    style="mix-blend-mode:multiply"
    opacity=".53"
    d="M42.313 18.913C41.187 8.759 32.132 4.195 24.146 4.261c-3.077.025-6.591.76-9.02 2.168a9.85 9.85 0 00-1.78 1.35c.065-.053.257-.212.576-.431l.031-.021.028-.02a13.328 13.328 0 013.846-1.786 21.75 21.75 0 016.592-.771 16.627 16.627 0 0115.625 15.997c.183 6.603-5.221 11.868-11.451 12.173-4.531.222-8.8-1.97-10.885-6.357a10.84 10.84 0 01-.982-3.166c-.988-6.675 3.494-12.367 7.605-13.777-2.218-1.937-7.774-1.805-11.91 1.237-2.977 2.191-4.91 5.524-5.55 9.5a16.473 16.473 0 001.17 9 17.65 17.65 0 0015.045 10.721c.496.038.994.057 1.492.057 13.231 0 18.971-10.043 17.733-21.222z"
    fill="url(#firefox_svg__paint8_radial)"
  />
  <path
    style="mix-blend-mode:multiply"
    opacity=".53"
    d="M42.313 18.913C41.187 8.759 32.132 4.195 24.146 4.261c-3.077.025-6.591.76-9.02 2.168a9.85 9.85 0 00-1.78 1.35c.065-.053.257-.212.576-.431l.031-.021.028-.02a13.328 13.328 0 013.846-1.786 21.75 21.75 0 016.592-.771 16.627 16.627 0 0115.625 15.997c.183 6.603-5.221 11.868-11.451 12.173-4.531.222-8.8-1.97-10.885-6.357a10.84 10.84 0 01-.982-3.166c-.988-6.675 3.494-12.367 7.605-13.777-2.218-1.937-7.774-1.805-11.91 1.237-2.977 2.191-4.91 5.524-5.55 9.5a16.473 16.473 0 001.17 9 17.65 17.65 0 0015.045 10.721c.496.038.994.057 1.492.057 13.231 0 18.971-10.043 17.733-21.222z"
    fill="url(#firefox_svg__paint9_radial)"
  />
  <path
    d="M28.594 32.92c8.55-.52 12.21-7.6 12.44-12.623C41.391 12.45 36.735 3.99 24.42 4.75a21.75 21.75 0 00-6.592.773 14.427 14.427 0 00-3.845 1.786l-.029.019-.031.022c-.191.133-.379.273-.562.42A16.74 16.74 0 0123.85 5.804c7.071.928 13.536 6.428 13.536 13.686 0 5.584-4.316 9.85-9.369 9.543-7.508-.45-9.4-8.15-5.495-11.477-1.053-.226-3.031.218-4.41 2.278-1.236 1.85-1.166 4.705-.403 6.73a11.059 11.059 0 0010.885 6.357z"
    fill="url(#firefox_svg__paint10_radial)"
  />
  <path
    d="M39.972 11.85a19.986 19.986 0 00-1.741-1.991 15.68 15.68 0 00-1.589-1.463c.324.282.633.58.925.895a11.233 11.233 0 012.441 4.072c1.044 3.165.976 7.125-1.018 10.236a11.77 11.77 0 01-10.428 5.447c-.18 0-.362 0-.545-.014-7.508-.45-9.4-8.15-5.494-11.477-1.053-.226-3.032.218-4.41 2.278-1.237 1.85-1.167 4.705-.404 6.73a10.837 10.837 0 01-.982-3.166c-.988-6.675 3.494-12.367 7.605-13.777-2.218-1.937-7.774-1.805-11.91 1.237a13.923 13.923 0 00-5.043 7.3 19.25 19.25 0 012.08-6.777c-1.385.717-3.148 2.983-4.018 5.082A20.677 20.677 0 004.142 26.55c.03.259.057.517.091.774A20.03 20.03 0 1039.972 11.85z"
    fill="url(#firefox_svg__paint11_linear)"
  />
  <path
    d="M40.008 13.363a11.23 11.23 0 00-2.441-4.072 15.111 15.111 0 00-4.547-3.246 20.258 20.258 0 00-4.47-1.585 19.917 19.917 0 00-8.283-.05c-2.841.6-5.34 1.83-6.92 3.367a16.05 16.05 0 014.016-1.6 16.782 16.782 0 0115.586 4.05 13.51 13.51 0 012.165 2.65c2.447 3.979 2.216 8.982.307 11.932-1.417 2.192-4.453 4.25-7.286 4.226A11.815 11.815 0 0038.99 23.6c1.994-3.112 2.063-7.073 1.018-10.237z"
    fill="url(#firefox_svg__paint12_linear)"
  />
  <path
    d="M40.008 13.363a11.23 11.23 0 00-2.441-4.072 15.111 15.111 0 00-4.547-3.246 20.258 20.258 0 00-4.47-1.585 19.917 19.917 0 00-8.283-.05c-2.841.6-5.34 1.83-6.92 3.367a16.05 16.05 0 014.016-1.6 16.782 16.782 0 0115.586 4.05 13.51 13.51 0 012.165 2.65c2.447 3.979 2.216 8.982.307 11.932-1.417 2.192-4.453 4.25-7.286 4.226A11.815 11.815 0 0038.99 23.6c1.994-3.112 2.063-7.073 1.018-10.237z"
    fill="url(#firefox_svg__paint13_linear)"
  />
  <defs>
    <radialGradient
      id="firefox_svg__paint0_radial"
      cx="0"
      cy="0"
      r="1"
      gradientUnits="userSpaceOnUse"
      gradientTransform="translate(39.766 12.193) scale(45.39)"
    >
      <stop stop-color="#FFF36E" />
      <stop offset=".5" stop-color="#FC4055" />
      <stop offset="1" stop-color="#E31587" />
    </radialGradient>
    <radialGradient
      id="firefox_svg__paint1_radial"
      cx="0"
      cy="0"
      r="1"
      gradientUnits="userSpaceOnUse"
      gradientTransform="translate(7.315 14.07) scale(26.863)"
    >
      <stop offset=".001" stop-color="#C60084" />
      <stop offset="1" stop-color="#FC4055" stop-opacity="0" />
    </radialGradient>
    <radialGradient
      id="firefox_svg__paint2_radial"
      cx="0"
      cy="0"
      r="1"
      gradientUnits="userSpaceOnUse"
      gradientTransform="translate(43.646 9.61) scale(53.2995)"
    >
      <stop stop-color="#FFDE67" stop-opacity=".6" />
      <stop offset=".093" stop-color="#FFD966" stop-opacity=".581" />
      <stop offset=".203" stop-color="#FFCA65" stop-opacity=".525" />
      <stop offset=".321" stop-color="#FEB262" stop-opacity=".432" />
      <stop offset=".446" stop-color="#FE8F5E" stop-opacity=".302" />
      <stop offset=".573" stop-color="#FD6459" stop-opacity=".137" />
      <stop offset=".664" stop-color="#FC4055" stop-opacity="0" />
    </radialGradient>
    <radialGradient
      id="firefox_svg__paint3_radial"
      cx="0"
      cy="0"
      r="1"
      gradientUnits="userSpaceOnUse"
      gradientTransform="translate(25.143 26.202) scale(68.7605)"
    >
      <stop offset=".153" stop-color="#810220" />
      <stop offset=".167" stop-color="#920B27" stop-opacity=".861" />
      <stop offset=".216" stop-color="#CB2740" stop-opacity=".398" />
      <stop offset=".253" stop-color="#EF394F" stop-opacity=".11" />
      <stop offset=".272" stop-color="#FC4055" stop-opacity="0" />
    </radialGradient>
    <radialGradient
      id="firefox_svg__paint4_radial"
      cx="0"
      cy="0"
      r="1"
      gradientUnits="userSpaceOnUse"
      gradientTransform="translate(19.94 25.337) scale(68.7605)"
    >
      <stop offset=".113" stop-color="#810220" />
      <stop offset=".133" stop-color="#920B27" stop-opacity=".861" />
      <stop offset=".204" stop-color="#CB2740" stop-opacity=".398" />
      <stop offset=".257" stop-color="#EF394F" stop-opacity=".11" />
      <stop offset=".284" stop-color="#FC4055" stop-opacity="0" />
    </radialGradient>
    <radialGradient
      id="firefox_svg__paint6_radial"
      cx="0"
      cy="0"
      r="1"
      gradientUnits="userSpaceOnUse"
      gradientTransform="matrix(42.6098 0 0 42.6987 38.728 10.046)"
    >
      <stop stop-color="#FF9640" />
      <stop offset=".8" stop-color="#FC4055" />
    </radialGradient>
    <radialGradient
      id="firefox_svg__paint7_radial"
      cx="0"
      cy="0"
      r="1"
      gradientUnits="userSpaceOnUse"
      gradientTransform="matrix(42.6098 0 0 42.6987 38.728 10.046)"
    >
      <stop offset=".084" stop-color="#FFDE67" />
      <stop offset=".147" stop-color="#FFDC66" stop-opacity=".968" />
      <stop offset=".246" stop-color="#FFD562" stop-opacity=".879" />
      <stop offset=".369" stop-color="#FFCB5D" stop-opacity=".734" />
      <stop offset=".511" stop-color="#FFBC55" stop-opacity=".533" />
      <stop offset=".667" stop-color="#FFAA4B" stop-opacity=".28" />
      <stop offset=".822" stop-color="#FF9640" stop-opacity="0" />
    </radialGradient>
    <radialGradient
      id="firefox_svg__paint8_radial"
      cx="0"
      cy="0"
      r="1"
      gradientUnits="userSpaceOnUse"
      gradientTransform="rotate(75.728 -.517 30.293) scale(20.9352 21.807)"
    >
      <stop offset=".363" stop-color="#FC4055" />
      <stop offset=".443" stop-color="#FD604D" stop-opacity=".633" />
      <stop offset=".545" stop-color="#FE8644" stop-opacity=".181" />
      <stop offset=".59" stop-color="#FF9640" stop-opacity="0" />
    </radialGradient>
    <radialGradient
      id="firefox_svg__paint9_radial"
      cx="0"
      cy="0"
      r="1"
      gradientUnits="userSpaceOnUse"
      gradientTransform="translate(25.369 25.049) scale(20.895)"
    >
      <stop offset=".216" stop-color="#FC4055" stop-opacity=".8" />
      <stop offset=".267" stop-color="#FD5251" stop-opacity=".633" />
      <stop offset=".41" stop-color="#FE8345" stop-opacity=".181" />
      <stop offset=".474" stop-color="#FF9640" stop-opacity="0" />
    </radialGradient>
    <radialGradient
      id="firefox_svg__paint10_radial"
      cx="0"
      cy="0"
      r="1"
      gradientUnits="userSpaceOnUse"
      gradientTransform="matrix(72.0185 0 0 72.1687 47.232 5.222)"
    >
      <stop offset=".054" stop-color="#FFF36E" />
      <stop offset=".457" stop-color="#FF9640" />
      <stop offset=".639" stop-color="#FF9640" />
    </radialGradient>
    <linearGradient
      id="firefox_svg__paint5_linear"
      x1="26.916"
      y1="7.894"
      x2="38.694"
      y2="28.296"
      gradientUnits="userSpaceOnUse"
    >
      <stop stop-color="#FFBD4F" />
      <stop offset=".508" stop-color="#FF9640" stop-opacity="0" />
    </linearGradient>
    <linearGradient
      id="firefox_svg__paint11_linear"
      x1="33.526"
      y1="7.542"
      x2="13.078"
      y2="42.96"
      gradientUnits="userSpaceOnUse"
    >
      <stop stop-color="#FFF36E" stop-opacity=".8" />
      <stop offset=".094" stop-color="#FFF36E" stop-opacity=".699" />
      <stop offset=".752" stop-color="#FFF36E" stop-opacity="0" />
    </linearGradient>
    <linearGradient
      id="firefox_svg__paint12_linear"
      x1="24.293"
      y1="3.665"
      x2="35.15"
      y2="35.102"
      gradientUnits="userSpaceOnUse"
    >
      <stop stop-color="#B833E1" />
      <stop offset=".371" stop-color="#9059FF" />
      <stop offset=".614" stop-color="#5B6DF8" />
      <stop offset="1" stop-color="#0090ED" />
    </linearGradient>
    <linearGradient
      id="firefox_svg__paint13_linear"
      x1="17.855"
      y1="4.162"
      x2="38.035"
      y2="24.343"
      gradientUnits="userSpaceOnUse"
    >
      <stop offset=".805" stop-color="#722291" stop-opacity="0" />
      <stop offset="1" stop-color="#592ACB" stop-opacity=".5" />
    </linearGradient>
  </defs>
</svg>
