<svg
  xmlns="http://www.w3.org/2000/svg"
  width="48"
  height="48"
  viewBox="0 0 48 48"
>
  <rect width="48" height="48" fill="#fff" rx="8" />
  <path
    fill="url(#firefox__a)"
    d="M39.171 12.457a18.745 18.745 0 00-14.417-7.452c-4.411-.088-7.458 1.237-9.182 2.303 2.306-1.338 5.645-2.097 8.568-2.06 7.518.096 15.593 5.216 16.792 14.445 1.377 10.594-6.002 19.436-16.382 19.463C13.13 39.185 6.184 29.073 8 19.99c.034-.445.1-.887.196-1.323.224-2.328.9-4.59 1.991-6.658-1.315.68-2.99 2.833-3.816 4.827a19.641 19.641 0 00-1.234 9.583c.029.246.054.492.087.736A19.027 19.027 0 1039.17 12.457z"
  />
  <path
    fill="url(#firefox__b)"
    d="M39.171 12.457a18.745 18.745 0 00-14.417-7.452c-4.411-.088-7.458 1.237-9.182 2.303 2.306-1.338 5.645-2.097 8.568-2.06 7.518.096 15.593 5.216 16.792 14.445 1.377 10.594-6.002 19.436-16.382 19.463C13.13 39.185 6.184 29.073 8 19.99c.034-.445.1-.887.196-1.323.224-2.328.9-4.59 1.991-6.658-1.315.68-2.99 2.833-3.816 4.827a19.641 19.641 0 00-1.234 9.583c.029.246.054.492.087.736A19.027 19.027 0 1039.17 12.457z"
    opacity=".67"
  />
  <path
    fill="url(#firefox__c)"
    d="M39.171 12.457a18.745 18.745 0 00-14.417-7.452c-4.411-.088-7.458 1.237-9.182 2.303 2.306-1.338 5.645-2.097 8.568-2.06 7.518.096 15.593 5.216 16.792 14.445 1.377 10.594-6.002 19.436-16.382 19.463C13.13 39.185 6.184 29.073 8 19.99c.034-.445.1-.887.196-1.323.224-2.328.9-4.59 1.991-6.658-1.315.68-2.99 2.833-3.816 4.827a19.641 19.641 0 00-1.234 9.583c.029.246.054.492.087.736A19.027 19.027 0 1039.17 12.457z"
  />
  <path
    fill="url(#firefox__d)"
    d="M39.171 12.457a18.745 18.745 0 00-14.417-7.452c-4.411-.088-7.458 1.237-9.182 2.303 2.306-1.338 5.645-2.097 8.568-2.06 7.518.096 15.593 5.216 16.792 14.445 1.377 10.594-6.002 19.436-16.382 19.463C13.13 39.185 6.184 29.073 8 19.99c.034-.445.1-.887.196-1.323.224-2.328.9-4.59 1.991-6.658-1.315.68-2.99 2.833-3.816 4.827a19.641 19.641 0 00-1.234 9.583c.029.246.054.492.087.736A19.027 19.027 0 1039.17 12.457z"
  />
  <path
    fill="url(#firefox__e)"
    d="M39.171 12.457a18.745 18.745 0 00-14.417-7.452c-4.411-.088-7.458 1.237-9.182 2.303 2.306-1.338 5.645-2.097 8.568-2.06 7.518.096 15.593 5.216 16.792 14.445 1.377 10.594-6.002 19.436-16.382 19.463C13.13 39.185 6.184 29.073 8 19.99c.034-.445.1-.887.196-1.323.224-2.328.9-4.59 1.991-6.658-1.315.68-2.99 2.833-3.816 4.827a19.641 19.641 0 00-1.234 9.583c.029.246.054.492.087.736A19.027 19.027 0 1039.17 12.457z"
  />
  <path
    fill="url(#firefox__f)"
    d="M40.932 19.693c.149 1.14.197 2.292.142 3.442a52.77 52.77 0 011.894-.252 19.003 19.003 0 00-3.797-10.426 18.744 18.744 0 00-14.417-7.452c-4.411-.088-7.458 1.237-9.183 2.303 2.307-1.338 5.646-2.097 8.568-2.06 7.519.097 15.594 5.214 16.793 14.445z"
  />
  <path
    fill="url(#firefox__g)"
    d="M41.395 19.166c-1.07-9.645-9.671-13.98-17.256-13.917-2.923.023-6.26.721-8.567 2.059A9.355 9.355 0 0013.88 8.59c.061-.05.244-.201.547-.41l.03-.02.026-.018a12.66 12.66 0 013.654-1.696 20.66 20.66 0 016.26-.733A15.794 15.794 0 0139.24 20.908c.174 6.272-4.96 11.273-10.877 11.563-4.304.21-8.36-1.872-10.34-6.038a10.293 10.293 0 01-.933-3.008c-.938-6.34 3.32-11.747 7.224-13.086-2.106-1.84-7.384-1.715-11.312 1.175-2.83 2.081-4.664 5.248-5.272 9.024a15.647 15.647 0 001.111 8.549 16.765 16.765 0 0014.29 10.184c.472.036.944.054 1.418.053 12.568 0 18.02-9.54 16.845-20.158z"
  />
  <path
    fill="url(#firefox__h)"
    d="M41.395 19.166c-1.07-9.645-9.671-13.98-17.256-13.917-2.923.023-6.26.721-8.567 2.059A9.355 9.355 0 0013.88 8.59c.061-.05.244-.201.547-.41l.03-.02.026-.018a12.66 12.66 0 013.654-1.696 20.66 20.66 0 016.26-.733A15.794 15.794 0 0139.24 20.908c.174 6.272-4.96 11.273-10.877 11.563-4.304.21-8.36-1.872-10.34-6.038a10.293 10.293 0 01-.933-3.008c-.938-6.34 3.32-11.747 7.224-13.086-2.106-1.84-7.384-1.715-11.312 1.175-2.83 2.081-4.664 5.248-5.272 9.024a15.647 15.647 0 001.111 8.549 16.765 16.765 0 0014.29 10.184c.472.036.944.054 1.418.053 12.568 0 18.02-9.54 16.845-20.158z"
  />
  <path
    style="mix-blend-mode:multiply"
    fill="url(#firefox__i)"
    d="M41.395 19.166c-1.07-9.645-9.671-13.98-17.256-13.917-2.923.023-6.26.721-8.567 2.059A9.355 9.355 0 0013.88 8.59c.061-.05.244-.201.547-.41l.03-.02.026-.018a12.66 12.66 0 013.654-1.696 20.66 20.66 0 016.26-.733A15.794 15.794 0 0139.24 20.908c.174 6.272-4.96 11.273-10.877 11.563-4.304.21-8.36-1.872-10.34-6.038a10.293 10.293 0 01-.933-3.008c-.938-6.34 3.32-11.747 7.224-13.086-2.106-1.84-7.384-1.715-11.312 1.175-2.83 2.081-4.664 5.248-5.272 9.024a15.647 15.647 0 001.111 8.549 16.765 16.765 0 0014.29 10.184c.472.036.944.054 1.418.053 12.568 0 18.02-9.54 16.845-20.158z"
    opacity=".53"
  />
  <path
    style="mix-blend-mode:multiply"
    fill="url(#firefox__j)"
    d="M41.395 19.166c-1.07-9.645-9.671-13.98-17.256-13.917-2.923.023-6.26.721-8.567 2.059A9.355 9.355 0 0013.88 8.59c.061-.05.244-.201.547-.41l.03-.02.026-.018a12.66 12.66 0 013.654-1.696 20.66 20.66 0 016.26-.733A15.794 15.794 0 0139.24 20.908c.174 6.272-4.96 11.273-10.877 11.563-4.304.21-8.36-1.872-10.34-6.038a10.293 10.293 0 01-.933-3.008c-.938-6.34 3.32-11.747 7.224-13.086-2.106-1.84-7.384-1.715-11.312 1.175-2.83 2.081-4.664 5.248-5.272 9.024a15.647 15.647 0 001.111 8.549 16.765 16.765 0 0014.29 10.184c.472.036.944.054 1.418.053 12.568 0 18.02-9.54 16.845-20.158z"
    opacity=".53"
  />
  <path
    fill="url(#firefox__k)"
    d="M28.363 32.471c8.122-.494 11.599-7.219 11.816-11.99.34-7.454-4.082-15.49-15.78-14.768a20.66 20.66 0 00-6.261.734 13.703 13.703 0 00-3.654 1.697l-.026.018-.03.02c-.182.127-.36.26-.534.4a15.902 15.902 0 019.963-1.87c6.717.882 12.858 6.107 12.858 13.001 0 5.305-4.1 9.357-8.9 9.065-7.13-.427-8.928-7.741-5.219-10.901-1-.215-2.88.206-4.189 2.163-1.174 1.757-1.108 4.47-.383 6.393a10.505 10.505 0 0010.34 6.038z"
  />
  <path
    fill="url(#firefox__l)"
    d="M39.171 12.457a18.968 18.968 0 00-1.654-1.891c-.47-.497-.974-.962-1.508-1.39.307.268.6.552.878.85a10.67 10.67 0 012.318 3.868c.993 3.006.928 6.768-.966 9.723a11.18 11.18 0 01-9.905 5.174c-.172 0-.345 0-.518-.013-7.132-.427-8.93-7.741-5.22-10.901-1-.215-2.88.206-4.189 2.163-1.174 1.757-1.108 4.47-.383 6.393a10.298 10.298 0 01-.932-3.008c-.94-6.34 3.319-11.747 7.223-13.086-2.106-1.84-7.384-1.715-11.312 1.175a13.225 13.225 0 00-4.791 6.934 18.28 18.28 0 011.975-6.437c-1.315.68-2.99 2.833-3.816 4.827a19.64 19.64 0 00-1.234 9.582c.029.246.054.492.087.736A19.027 19.027 0 1039.17 12.457z"
  />
  <path
    fill="url(#firefox__m)"
    d="M39.205 13.894a10.665 10.665 0 00-2.318-3.868 14.356 14.356 0 00-4.32-3.083 19.244 19.244 0 00-4.245-1.505 18.919 18.919 0 00-7.868-.048c-2.699.57-5.072 1.738-6.573 3.198a15.245 15.245 0 013.814-1.52A15.941 15.941 0 0132.5 10.915c.79.749 1.48 1.594 2.056 2.517 2.325 3.78 2.105 8.533.292 11.335-1.346 2.082-4.23 4.037-6.92 4.014a11.224 11.224 0 0010.31-5.163c1.895-2.956 1.96-6.718.967-9.724z"
  />
  <path
    fill="url(#firefox__n)"
    d="M39.205 13.894a10.665 10.665 0 00-2.318-3.868 14.356 14.356 0 00-4.32-3.083 19.244 19.244 0 00-4.245-1.505 18.919 18.919 0 00-7.868-.048c-2.699.57-5.072 1.738-6.573 3.198a15.245 15.245 0 013.814-1.52A15.941 15.941 0 0132.5 10.915c.79.749 1.48 1.594 2.056 2.517 2.325 3.78 2.105 8.533.292 11.335-1.346 2.082-4.23 4.037-6.92 4.014a11.224 11.224 0 0010.31-5.163c1.895-2.956 1.96-6.718.967-9.724z"
  />
  <defs>
    <radialGradient
      id="firefox__a"
      cx="0"
      cy="0"
      r="1"
      gradientTransform="translate(38.975 12.783) scale(43.1149)"
      gradientUnits="userSpaceOnUse"
    >
      <stop stop-color="#FFF36E" />
      <stop offset=".5" stop-color="#FC4055" />
      <stop offset="1" stop-color="#E31587" />
    </radialGradient>
    <radialGradient
      id="firefox__b"
      cx="0"
      cy="0"
      r="1"
      gradientTransform="translate(8.15 14.566) scale(25.5165)"
      gradientUnits="userSpaceOnUse"
    >
      <stop offset=".001" stop-color="#C60084" />
      <stop offset="1" stop-color="#FC4055" stop-opacity="0" />
    </radialGradient>
    <radialGradient
      id="firefox__c"
      cx="0"
      cy="0"
      r="1"
      gradientTransform="translate(42.66 10.329) scale(50.628)"
      gradientUnits="userSpaceOnUse"
    >
      <stop stop-color="#FFDE67" stop-opacity=".6" />
      <stop offset=".093" stop-color="#FFD966" stop-opacity=".581" />
      <stop offset=".203" stop-color="#FFCA65" stop-opacity=".525" />
      <stop offset=".321" stop-color="#FEB262" stop-opacity=".432" />
      <stop offset=".446" stop-color="#FE8F5E" stop-opacity=".302" />
      <stop offset=".573" stop-color="#FD6459" stop-opacity=".137" />
      <stop offset=".664" stop-color="#FC4055" stop-opacity="0" />
    </radialGradient>
    <radialGradient
      id="firefox__d"
      cx="0"
      cy="0"
      r="1"
      gradientTransform="translate(25.085 26.09) scale(65.314)"
      gradientUnits="userSpaceOnUse"
    >
      <stop offset=".153" stop-color="#810220" />
      <stop offset=".167" stop-color="#920B27" stop-opacity=".861" />
      <stop offset=".216" stop-color="#CB2740" stop-opacity=".398" />
      <stop offset=".253" stop-color="#EF394F" stop-opacity=".11" />
      <stop offset=".272" stop-color="#FC4055" stop-opacity="0" />
    </radialGradient>
    <radialGradient
      id="firefox__e"
      cx="0"
      cy="0"
      r="1"
      gradientTransform="translate(20.142 25.269) scale(65.314)"
      gradientUnits="userSpaceOnUse"
    >
      <stop offset=".113" stop-color="#810220" />
      <stop offset=".133" stop-color="#920B27" stop-opacity=".861" />
      <stop offset=".204" stop-color="#CB2740" stop-opacity=".398" />
      <stop offset=".257" stop-color="#EF394F" stop-opacity=".11" />
      <stop offset=".284" stop-color="#FC4055" stop-opacity="0" />
    </radialGradient>
    <radialGradient
      id="firefox__g"
      cx="0"
      cy="0"
      r="1"
      gradientTransform="matrix(40.4741 0 0 40.5585 37.99 10.743)"
      gradientUnits="userSpaceOnUse"
    >
      <stop stop-color="#FF9640" />
      <stop offset=".8" stop-color="#FC4055" />
    </radialGradient>
    <radialGradient
      id="firefox__h"
      cx="0"
      cy="0"
      r="1"
      gradientTransform="matrix(40.4741 0 0 40.5585 37.99 10.743)"
      gradientUnits="userSpaceOnUse"
    >
      <stop offset=".084" stop-color="#FFDE67" />
      <stop offset=".147" stop-color="#FFDC66" stop-opacity=".968" />
      <stop offset=".246" stop-color="#FFD562" stop-opacity=".879" />
      <stop offset=".369" stop-color="#FFCB5D" stop-opacity=".734" />
      <stop offset=".511" stop-color="#FFBC55" stop-opacity=".533" />
      <stop offset=".667" stop-color="#FFAA4B" stop-opacity=".28" />
      <stop offset=".822" stop-color="#FF9640" stop-opacity="0" />
    </radialGradient>
    <radialGradient
      id="firefox__i"
      cx="0"
      cy="0"
      r="1"
      gradientTransform="rotate(75.728 -.662 30.149) scale(19.8858 20.714)"
      gradientUnits="userSpaceOnUse"
    >
      <stop offset=".363" stop-color="#FC4055" />
      <stop offset=".443" stop-color="#FD604D" stop-opacity=".633" />
      <stop offset=".545" stop-color="#FE8644" stop-opacity=".181" />
      <stop offset=".59" stop-color="#FF9640" stop-opacity="0" />
    </radialGradient>
    <radialGradient
      id="firefox__j"
      cx="0"
      cy="0"
      r="1"
      gradientTransform="translate(25.3 24.995) scale(19.8477)"
      gradientUnits="userSpaceOnUse"
    >
      <stop offset=".216" stop-color="#FC4055" stop-opacity=".8" />
      <stop offset=".267" stop-color="#FD5251" stop-opacity=".633" />
      <stop offset=".41" stop-color="#FE8345" stop-opacity=".181" />
      <stop offset=".474" stop-color="#FF9640" stop-opacity="0" />
    </radialGradient>
    <radialGradient
      id="firefox__k"
      cx="0"
      cy="0"
      r="1"
      gradientTransform="matrix(68.4087 0 0 68.5514 46.067 6.162)"
      gradientUnits="userSpaceOnUse"
    >
      <stop offset=".054" stop-color="#FFF36E" />
      <stop offset=".457" stop-color="#FF9640" />
      <stop offset=".639" stop-color="#FF9640" />
    </radialGradient>
    <linearGradient
      id="firefox__f"
      x1="26.769"
      x2="37.958"
      y1="8.699"
      y2="28.078"
      gradientUnits="userSpaceOnUse"
    >
      <stop stop-color="#FFBD4F" />
      <stop offset=".508" stop-color="#FF9640" stop-opacity="0" />
    </linearGradient>
    <linearGradient
      id="firefox__l"
      x1="33.048"
      x2="13.625"
      y1="8.365"
      y2="42.008"
      gradientUnits="userSpaceOnUse"
    >
      <stop stop-color="#FFF36E" stop-opacity=".8" />
      <stop offset=".094" stop-color="#FFF36E" stop-opacity=".699" />
      <stop offset=".752" stop-color="#FFF36E" stop-opacity="0" />
    </linearGradient>
    <linearGradient
      id="firefox__m"
      x1="24.278"
      x2="34.591"
      y1="4.682"
      y2="34.543"
      gradientUnits="userSpaceOnUse"
    >
      <stop stop-color="#B833E1" />
      <stop offset=".371" stop-color="#9059FF" />
      <stop offset=".614" stop-color="#5B6DF8" />
      <stop offset="1" stop-color="#0090ED" />
    </linearGradient>
    <linearGradient
      id="firefox__n"
      x1="18.163"
      x2="37.332"
      y1="5.155"
      y2="24.323"
      gradientUnits="userSpaceOnUse"
    >
      <stop offset=".805" stop-color="#722291" stop-opacity="0" />
      <stop offset="1" stop-color="#592ACB" stop-opacity=".5" />
    </linearGradient>
  </defs>
</svg>
