<svg
  xmlns="http://www.w3.org/2000/svg"
  width="48"
  height="48"
  viewBox="0 0 48 48"
>
  <path
    fill="#036C70"
    d="M45 24v17.716c0 .984-.8 1.784-1.787 1.784H14.555c-.987 0-1.787-.8-1.787-1.784V24l16.604-1.95L45 24z"
  />
  <path
    fill="#37C6D0"
    d="M14.555 4.5h28.658c.986 0 1.787.8 1.787 1.784V24H12.767V6.284c0-.984.801-1.784 1.788-1.784z"
  />
  <path
    fill="#1A9BA1"
    d="M40.116 28.875H30.35v9.75h9.767v-9.75zM35.233 20.1c3.236 0 5.86-2.62 5.86-5.85 0-3.23-2.624-5.85-5.86-5.85a5.855 5.855 0 00-5.86 5.85c0 3.23 2.623 5.85 5.86 5.85z"
  />
  <path
    fill="#036C70"
    d="M35.233 17.175c1.618 0 2.93-1.31 2.93-2.925a2.928 2.928 0 00-2.93-2.925 2.928 2.928 0 00-2.93 2.925 2.928 2.928 0 002.93 2.925z"
  />
  <path
    d="M24.654 12.3H12.768v24.375h11.886c.987 0 1.788-.8 1.788-1.784V14.084c0-.984-.801-1.784-1.788-1.784z"
    opacity=".1"
  />
  <path
    d="M23.678 13.275h-10.91V37.65h10.91c.986 0 1.787-.8 1.787-1.784V15.059c0-.984-.8-1.784-1.787-1.784z"
    opacity=".2"
  />
  <path
    d="M23.678 13.275h-10.91V35.7h10.91c.986 0 1.787-.8 1.787-1.784V15.059c0-.984-.8-1.784-1.787-1.784z"
    opacity=".2"
  />
  <path
    d="M22.7 13.275h-9.932V35.7H22.7c.986 0 1.787-.8 1.787-1.784V15.059c0-.984-.8-1.784-1.787-1.784z"
    opacity=".2"
  />
  <path
    fill="url(#forms__a)"
    d="M4.787 13.275h17.904c.987 0 1.788.8 1.788 1.784v17.872c0 .985-.801 1.784-1.788 1.784H4.787A1.772 1.772 0 013 32.941V15.059c0-.984.8-1.784 1.787-1.784z"
  />
  <path
    fill="#fff"
    d="M17.368 20.08h-5.04v3.17h4.698v1.881h-4.698v4.68h-2.276V18.189h7.326l-.01 1.892z"
  />
  <defs>
    <linearGradient
      id="forms__a"
      x1="6.733"
      x2="20.718"
      y1="11.879"
      y2="36.143"
      gradientUnits="userSpaceOnUse"
    >
      <stop stop-color="#058F92" />
      <stop offset=".5" stop-color="#038489" />
      <stop offset="1" stop-color="#026D71" />
    </linearGradient>
  </defs>
</svg>
