<svg
  xmlns="http://www.w3.org/2000/svg"
  width="48"
  height="48"
  viewBox="0 0 48 48"
>
  <rect width="48" height="48" fill="#fff" rx="8" />
  <path
    fill="#036C70"
    d="M42 24v15.185c0 .844-.687 1.53-1.532 1.53H15.904a1.531 1.531 0 01-1.532-1.53V24l14.233-1.671L42 24z"
  />
  <path
    fill="#37C6D0"
    d="M15.904 7.286h24.564c.845 0 1.532.685 1.532 1.53V24H14.372V8.815c0-.844.687-1.53 1.532-1.53z"
  />
  <path
    fill="#1A9BA1"
    d="M37.814 28.179h-8.372v8.357h8.372v-8.357zM33.628 20.657a5.019 5.019 0 005.023-5.014 5.019 5.019 0 00-5.023-5.014 5.019 5.019 0 00-5.023 5.014 5.019 5.019 0 005.023 5.014z"
  />
  <path
    fill="#036C70"
    d="M33.628 18.15a2.51 2.51 0 002.511-2.507 2.51 2.51 0 00-2.511-2.507 2.51 2.51 0 00-2.512 2.507 2.51 2.51 0 002.512 2.507z"
  />
  <path
    fill="#000"
    d="M24.56 13.971H14.373v20.893h10.189c.846 0 1.532-.685 1.532-1.53V15.502c0-.844-.686-1.53-1.532-1.53z"
    opacity=".1"
  />
  <path
    fill="#000"
    d="M23.724 14.807h-9.352V35.7h9.352c.845 0 1.532-.685 1.532-1.53V16.337c0-.844-.687-1.529-1.532-1.529z"
    opacity=".2"
  />
  <path
    fill="#000"
    d="M23.724 14.807h-9.352V34.03h9.352c.845 0 1.532-.686 1.532-1.53V16.336c0-.844-.687-1.529-1.532-1.529z"
    opacity=".2"
  />
  <path
    fill="#000"
    d="M22.887 14.807h-8.515V34.03h8.515c.845 0 1.532-.686 1.532-1.53V16.336c0-.844-.687-1.529-1.532-1.529z"
    opacity=".2"
  />
  <path
    fill="url(#forms__a)"
    d="M7.532 14.807h15.346c.846 0 1.532.685 1.532 1.53v15.318c0 .844-.686 1.53-1.532 1.53H7.532A1.52 1.52 0 016 31.663V16.337c0-.845.687-1.53 1.532-1.53z"
  />
  <path
    fill="#fff"
    d="M18.315 20.64h-4.32v2.716h4.027v1.613h-4.027v4.012h-1.95v-9.962h6.279l-.009 1.621z"
  />
  <defs>
    <linearGradient
      id="forms__a"
      x1="9.2"
      x2="21.187"
      y1="13.61"
      y2="34.408"
      gradientUnits="userSpaceOnUse"
    >
      <stop stop-color="#058F92" />
      <stop offset=".5" stop-color="#038489" />
      <stop offset="1" stop-color="#026D71" />
    </linearGradient>
  </defs>
</svg>
