<svg
  xmlns="http://www.w3.org/2000/svg"
  width="48"
  height="48"
  viewBox="0 0 48 48"
>
  <path
    fill="#001E36"
    d="M10.438 3.5h27.124A7.436 7.436 0 0145 10.947v26.106a7.436 7.436 0 01-7.438 7.447H10.439A7.436 7.436 0 013 37.053V10.947A7.436 7.436 0 0110.438 3.5z"
  />
  <path
    fill="#31A8FF"
    d="M17.823 25.35v6.903a.198.198 0 01-.175.227H14.13c-.053 0-.123-.017-.158-.052a.244.244 0 01-.034-.193v-18.03c0-.262.07-.402.192-.402h11.165c.07 0 .14 0 .192.035.036.035.07.157.088.385l.315 3.066a.168.168 0 01-.035.158.25.25 0 01-.175.07h-7.857v4.293h7.035c.174 0 .244.07.244.193v3.1a.198.198 0 01-.175.229h-.052l-7.052.017zm9.764-6.887h3.063c.175 0 .315.123.367.28a1.1 1.1 0 01.14.404 5.842 5.842 0 01.123 1.174 6.514 6.514 0 011.873-1.507 5.219 5.219 0 012.607-.631c.123-.018.227.07.245.193v3.486c0 .14-.088.193-.28.193a7.126 7.126 0 00-3.308.596c-.35.157-.682.368-.945.648v8.936c0 .175-.07.245-.227.245H27.85a.242.242 0 01-.28-.21v-9.777c0-.42 0-.858-.018-1.314-.017-.455-.017-.911-.035-1.367a12.897 12.897 0 00-.104-1.156.162.162 0 01.122-.193c0-.017.035-.017.052 0z"
  />
</svg>
