<svg
  xmlns="http://www.w3.org/2000/svg"
  width="48"
  height="48"
  viewBox="0 0 48 48"
>
  <path
    fill="#001E36"
    d="M11.083 4.5h25.834A7.077 7.077 0 0144 11.583v24.834a7.077 7.077 0 01-7.083 7.083H11.083A7.077 7.077 0 014 36.417V11.583A7.077 7.077 0 0111.083 4.5z"
  />
  <path
    fill="#31A8FF"
    d="M18.117 25.283v6.567c.016.1-.05.2-.167.217H14.6c-.05 0-.117-.017-.15-.05a.232.232 0 01-.033-.184v-17.15c0-.25.066-.383.183-.383h10.633c.067 0 .134 0 .184.033.033.034.066.15.083.367l.3 2.917a.16.16 0 01-.033.15.239.239 0 01-.167.066h-7.483v4.084h6.7c.166 0 .233.066.233.183v2.95c.017.1-.05.2-.167.217h-.05l-6.716.016zm9.3-6.55h2.916c.167 0 .3.117.35.267.067.117.117.25.134.383a5.574 5.574 0 01.116 1.117 6.19 6.19 0 011.784-1.433 4.975 4.975 0 012.483-.6.207.207 0 01.233.183v3.317c0 .133-.083.183-.266.183a6.792 6.792 0 00-3.15.567c-.334.15-.65.35-.9.616v8.5c0 .167-.067.234-.217.234h-3.233c-.134.016-.25-.067-.267-.2v-9.3c0-.4 0-.817-.017-1.25-.016-.434-.016-.867-.033-1.3-.017-.367-.05-.734-.1-1.1a.154.154 0 01.117-.184c0-.016.033-.016.05 0z"
  />
</svg>
