<svg
  xmlns="http://www.w3.org/2000/svg"
  width="48"
  height="48"
  viewBox="0 0 48 48"
>
  <path fill="#261600" d="M46 2H2v44h44V2z" />
  <path
    fill="#FF9100"
    fill-rule="evenodd"
    d="M0 0v48h48V0H0zm2 2.051h44V45.95H2V2.05z"
    clip-rule="evenodd"
  />
  <path
    fill="#FF9100"
    d="M16.012 33.739c0 .198-.066.264-.23.264h-3.135c-.165 0-.23-.066-.23-.264V12.23c0-.165.065-.231.23-.231h10.985c.198 0 .231.066.264.23l.33 2.772c.033.198-.066.264-.264.264h-7.95v6.267h7.125c.165 0 .231.033.231.231v2.771c0 .198-.066.231-.23.231h-7.126v8.973zM31.897 20.51c-1.583 0-2.111.793-2.111 1.452 0 .726.363 1.22 2.474 2.31 3.134 1.517 4.123 2.968 4.123 5.113 0 3.2-2.44 4.915-5.74 4.915-1.748 0-3.232-.363-4.09-.858-.132-.066-.165-.165-.165-.33v-2.936c0-.198.1-.264.231-.165 1.254.825 2.705 1.188 4.025 1.188 1.583 0 2.243-.66 2.243-1.55 0-.726-.462-1.353-2.474-2.409-2.837-1.352-4.025-2.738-4.025-5.047 0-2.573 2.013-4.717 5.51-4.717 1.715 0 2.902.264 3.562.56.165.1.198.265.198.397v2.738c0 .165-.1.264-.297.198-.89-.528-2.177-.858-3.464-.858z"
  />
</svg>
