<svg
  xmlns="http://www.w3.org/2000/svg"
  width="48"
  height="48"
  viewBox="0 0 48 48"
>
  <rect width="48" height="48" fill="#FF9100" rx="8" />
  <path
    fill="#261600"
    d="M39.083 2.917H8.917a6 6 0 00-6 6v30.166a6 6 0 006 6h30.166a6 6 0 006-6V8.917a6 6 0 00-6-6z"
  />
  <path
    fill="#FF9100"
    d="M16.345 33.333c0 .19-.063.253-.221.253H13.12c-.158 0-.22-.063-.22-.253V12.721c0-.158.062-.221.22-.221h10.528c.19 0 .22.063.252.221l.317 2.656c.031.19-.064.253-.253.253h-7.62v6.006h6.83c.157 0 .22.032.22.222v2.655c0 .19-.063.221-.22.221h-6.83v8.6zm15.223-12.677c-1.517 0-2.023.759-2.023 1.391 0 .696.348 1.17 2.37 2.213 3.004 1.454 3.953 2.845 3.953 4.9 0 3.067-2.34 4.71-5.501 4.71-1.676 0-3.098-.347-3.92-.821-.127-.064-.158-.158-.158-.316v-2.814c0-.19.095-.253.221-.158a7.085 7.085 0 003.857 1.138c1.517 0 2.15-.632 2.15-1.486 0-.695-.443-1.296-2.371-2.308-2.72-1.296-3.857-2.623-3.857-4.837 0-2.465 1.928-4.52 5.28-4.52 1.643 0 2.781.253 3.413.537.159.095.19.253.19.38v2.623c0 .159-.095.253-.284.19-.854-.506-2.087-.822-3.32-.822z"
  />
</svg>
