<svg
  xmlns="http://www.w3.org/2000/svg"
  width="48"
  height="48"
  viewBox="0 0 48 48"
>
  <path fill="#261600" d="M43.25 5.252H4.75v37.496h38.5V5.252z" />
  <path
    fill="#FF9100"
    fill-rule="evenodd"
    d="M3 3.5v41h42v-41H3zm1.75 1.752h38.5v37.496H4.75V5.252z"
    clip-rule="evenodd"
  />
  <path
    fill="#FF9100"
    d="M17.01 31.875c0 .173-.057.231-.202.231h-2.742c-.144 0-.202-.058-.202-.231V13.032c0-.144.058-.202.202-.202h9.612c.173 0 .202.058.231.202l.289 2.428c.029.173-.058.231-.231.231H17.01v5.491h6.234c.145 0 .202.029.202.202v2.428c0 .173-.057.202-.202.202H17.01v7.86zm13.9-11.589c-1.385 0-1.847.694-1.847 1.272 0 .636.317 1.07 2.165 2.023 2.742 1.33 3.608 2.6 3.608 4.48 0 2.802-2.136 4.305-5.023 4.305-1.53 0-2.828-.318-3.579-.751-.115-.058-.144-.145-.144-.29v-2.571c0-.174.086-.232.202-.145a6.464 6.464 0 003.521 1.04c1.386 0 1.963-.577 1.963-1.358 0-.635-.404-1.184-2.165-2.11-2.482-1.184-3.521-2.398-3.521-4.42 0-2.255 1.76-4.133 4.82-4.133 1.501 0 2.54.23 3.117.49.145.088.173.232.173.348v2.398c0 .145-.086.231-.26.174-.779-.463-1.904-.752-3.03-.752z"
  />
</svg>
