<svg
  xmlns="http://www.w3.org/2000/svg"
  width="48"
  height="48"
  viewBox="0 0 48 48"
>
  <path fill="#261600" d="M42.333 6.167H5.667v35.666h36.666V6.167z" />
  <path
    fill="#FF9100"
    fill-rule="evenodd"
    d="M4 4.5v39h40v-39H4zm1.667 1.667h36.666v35.666H5.667V6.167z"
    clip-rule="evenodd"
  />
  <path
    fill="#FF9100"
    d="M17.343 31.49c0 .166-.055.22-.192.22H14.54c-.138 0-.193-.054-.193-.22V13.568c0-.137.055-.192.193-.192h9.154c.164 0 .192.055.22.192l.274 2.31c.028.164-.055.22-.22.22h-6.625v5.223h5.938c.138 0 .193.027.193.192v2.31c0 .164-.055.192-.193.192h-5.938v7.477zm13.238-11.023c-1.32 0-1.76.66-1.76 1.21 0 .605.303 1.017 2.062 1.924 2.612 1.265 3.437 2.474 3.437 4.261 0 2.667-2.035 4.096-4.784 4.096-1.457 0-2.694-.302-3.408-.715-.11-.055-.138-.137-.138-.275v-2.446c0-.165.083-.22.193-.138a6.161 6.161 0 003.353.99c1.32 0 1.87-.55 1.87-1.292 0-.605-.385-1.127-2.062-2.007-2.364-1.127-3.354-2.281-3.354-4.206 0-2.144 1.677-3.93 4.591-3.93 1.43 0 2.42.22 2.969.467.137.082.165.22.165.33v2.281c0 .138-.083.22-.248.165-.742-.44-1.814-.715-2.886-.715z"
  />
</svg>
