<svg
  xmlns="http://www.w3.org/2000/svg"
  width="48"
  height="48"
  viewBox="0 0 48 48"
>
  <path
    fill="#fff"
    d="M39.714 24h-10v2.858h6.857c-1 4.284-4.142 7.856-8.285 9.284L11.858 19.714c1.713-5 6.57-8.571 12.142-8.571 4.286 0 8.142 2.143 10.571 5.428l2.143-1.857C33.858 10.857 29.288 8.287 24 8.287c-7.429 0-13.714 5.285-15.286 12.286L27.57 39.43c6.858-1.715 12.143-8 12.143-15.429V24zm-31.428.142c0 4 1.571 7.858 4.572 10.858 3 3 7 4.571 10.856 4.571L8.287 24.143z"
  />
  <path
    fill="#639"
    d="M24 4C13 4 4 13 4 24s9 20 20 20 20-9 20-20S35 4 24 4zM12.857 35.142c-3-3-4.57-7-4.57-10.856l15.57 15.426c-4-.142-8-1.57-11-4.57zm14.572 4.144L8.713 20.571c1.575-7 7.858-12.284 15.287-12.284 5.286 0 9.858 2.572 12.714 6.428l-2.143 1.858c-2.428-3.286-6.283-5.43-10.571-5.43-5.571 0-10.286 3.57-12.143 8.57l16.43 16.43c4.142-1.43 7.284-5 8.284-9.285h-6.857V24h10c0 7.429-5.285 13.714-12.285 15.286z"
  />
</svg>
