<svg
  xmlns="http://www.w3.org/2000/svg"
  width="48"
  height="48"
  viewBox="0 0 48 48"
>
  <rect width="48" height="48" fill="#639" rx="8" />
  <path
    fill="#fff"
    d="M41 24.006H30.181v3.091h7.42c-1.083 4.636-4.482 8.5-8.964 10.045L10.863 19.37c1.855-5.41 7.11-9.273 13.137-9.273 4.637 0 8.809 2.319 11.437 5.873l2.317-2.01C34.664 9.787 29.72 7.007 24 7.007c-8.037 0-14.836 5.718-16.538 13.29L27.863 40.7C35.283 38.843 41 32.044 41 24.007v-.001zM7 24.16c0 4.327 1.7 8.5 4.945 11.746 3.246 3.246 7.573 4.946 11.745 4.946L7.001 24.16H7z"
  />
</svg>
