<svg
  xmlns="http://www.w3.org/2000/svg"
  width="48"
  height="48"
  viewBox="0 0 48 48"
>
  <path
    fill="#000"
    d="M14.023 6.691C17.086 4.928 20.427 4 24.046 4c3.62 0 6.961.928 10.024 2.691a19.357 19.357 0 017.239 7.24C43.072 16.992 44 20.333 44 23.953c0 4.361-1.3 8.26-3.805 11.693-2.506 3.434-5.754 5.847-9.838 7.147-.464.092-.835 0-1.02-.186-.186-.186-.372-.464-.372-.743v-1.949-3.526c0-1.67-.464-2.877-1.392-3.712 1.021-.093 1.856-.279 2.692-.464.742-.186 1.577-.557 2.413-1.021.835-.465 1.577-1.021 2.134-1.764.557-.65 1.02-1.577 1.392-2.691.371-1.114.557-2.413.557-3.898 0-2.042-.65-3.805-2.042-5.29.65-1.578.557-3.341-.185-5.29-.464-.186-1.207-.093-2.135.278-.928.371-1.67.743-2.413 1.114l-1.02.65c-1.579-.464-3.25-.65-5.012-.65-1.67 0-3.341.186-5.012.65-.278-.186-.65-.464-1.114-.743-.464-.278-1.206-.65-2.134-1.02-1.021-.372-1.764-.465-2.228-.372-.742 1.949-.835 3.712-.185 5.29-1.3 1.578-1.95 3.341-1.95 5.383 0 1.485.186 2.784.558 3.898.37 1.114.835 2.042 1.392 2.691.557.65 1.206 1.3 2.041 1.764.836.464 1.671.835 2.413 1.02.743.186 1.671.372 2.692.465-.65.65-1.114 1.484-1.3 2.69-.37.186-.742.28-1.206.372-.371.093-.928.093-1.485.093s-1.114-.186-1.67-.557c-.557-.371-1.021-.928-1.393-1.578-.37-.556-.742-1.02-1.299-1.392a3.389 3.389 0 00-1.3-.65l-.556-.092c-.371 0-.65 0-.742.093-.093.092-.186.185-.093.278.093.093.093.279.278.371.093.093.186.186.372.279l.185.093c.371.185.743.464 1.114 1.02.371.464.65.928.835 1.3l.278.556c.186.65.65 1.207 1.114 1.578.557.372 1.114.65 1.764.743.65.093 1.206.185 1.763.185.557 0 1.02 0 1.392-.093l.557-.092V41.587c0 .278-.093.557-.371.742-.186.186-.557.279-1.021.186-3.991-1.3-7.24-3.712-9.838-7.146C5.207 31.935 4 28.037 4 23.675c0-3.62.928-6.96 2.691-10.023 1.857-2.784 4.27-5.197 7.332-6.96zM11.61 32.585c.093-.093 0-.186-.185-.279-.186-.092-.279 0-.372.093-.092.093 0 .186.186.279.186.092.371.092.371-.093zm.835.928c.093-.093.093-.186-.092-.371-.186-.186-.279-.186-.372-.093-.092.093-.092.185.093.371.093.186.279.186.371.093zm.743 1.113c.185-.092.185-.278 0-.464-.093-.185-.279-.278-.464-.185-.186.093-.186.278 0 .464.185.185.371.278.464.185zm1.114 1.114c.092-.093.092-.278-.093-.464-.186-.186-.371-.278-.557-.093-.186.093-.093.279.093.464.278.186.464.186.557.093zm1.485.65c.092-.186-.093-.371-.372-.371-.278-.093-.464 0-.464.185-.093.186 0 .279.371.371.186.093.372 0 .465-.185zm1.67.093c0-.186-.186-.279-.464-.279s-.371.093-.371.279c0 .185.185.278.464.278.186 0 .371-.093.371-.278zm1.485-.279c0-.185-.186-.278-.464-.278-.279.093-.371.185-.371.371s.185.278.464.186c.278.092.371-.093.371-.279z"
  />
</svg>
