<svg
  xmlns="http://www.w3.org/2000/svg"
  width="48"
  height="48"
  viewBox="0 0 48 48"
>
  <rect width="48" height="48" rx="8" />
  <path d="M30.65 41.57c-5.225 2.376-11.4.95-13.775-.474-2.375-1.425-6.65-6.745-6.65-7.125 0-.38-.95-2.058-1.425-2.85v-4.275c.633-3.958 1.995-11.97 2.375-12.35.38-.38 1.108-2.058 1.425-2.85l4.75-1.425H29.7c1.14 0 3.325.633 4.275.95l3.8 3.8.475 12.35c-1.583 3.167-5.32 10.45-7.6 14.25z" />
  <path
    fill="#fff"
    d="M14.522 7.553c2.91-1.675 6.084-2.557 9.522-2.557 3.439 0 6.613.882 9.522 2.557a18.39 18.39 0 016.877 6.877C42.118 17.34 43 20.513 43 23.952c0 4.144-1.234 7.847-3.615 11.109-2.38 3.262-5.466 5.554-9.346 6.789-.44.088-.793 0-.97-.177-.176-.176-.352-.44-.352-.705V35.767c0-1.588-.44-2.734-1.323-3.528.97-.088 1.764-.264 2.557-.44.706-.177 1.5-.53 2.293-.97.793-.441 1.498-.97 2.028-1.675.529-.617.97-1.5 1.322-2.557.353-1.058.529-2.293.529-3.703 0-1.94-.617-3.615-1.94-5.026.617-1.498.53-3.174-.176-5.025-.44-.177-1.146-.088-2.028.264-.882.353-1.587.706-2.292 1.058l-.97.618c-1.499-.441-3.086-.618-4.761-.618-1.587 0-3.174.177-4.761.618-.265-.177-.617-.441-1.058-.706-.44-.264-1.146-.617-2.028-.97-.97-.352-1.675-.44-2.116-.352-.705 1.851-.793 3.526-.176 5.025-1.235 1.499-1.852 3.174-1.852 5.114 0 1.41.177 2.645.53 3.703.352 1.058.793 1.94 1.322 2.557s1.146 1.234 1.94 1.675c.793.44 1.586.793 2.292.97.705.176 1.587.352 2.557.44-.618.618-1.058 1.411-1.235 2.557-.352.177-.705.265-1.146.353-.353.088-.882.088-1.41.088-.53 0-1.059-.176-1.588-.529-.529-.352-.97-.881-1.322-1.499-.353-.529-.705-.97-1.234-1.322a3.22 3.22 0 00-1.235-.617l-.529-.088c-.352 0-.617 0-.705.088-.088.088-.177.176-.088.264.088.088.088.265.264.353.088.088.177.176.353.264l.176.088c.353.177.706.441 1.058.97.353.441.617.882.794 1.235l.264.529c.177.617.617 1.146 1.058 1.499.53.352 1.058.617 1.675.705.617.088 1.147.176 1.676.176.529 0 .97 0 1.322-.088l.53-.088v3.527c0 .264-.09.529-.354.705-.176.176-.529.264-.97.176-3.79-1.234-6.877-3.526-9.345-6.789C6.146 31.534 5 27.831 5 23.687c0-3.438.882-6.612 2.557-9.522 1.763-2.645 4.056-4.937 6.965-6.612zM12.23 32.15c.088-.088 0-.176-.177-.264-.176-.088-.264 0-.352.088-.088.088 0 .176.176.264.176.089.353.089.353-.088zm.793.882c.088-.088.088-.176-.088-.353-.176-.176-.264-.176-.353-.088-.088.088-.088.177.088.353.089.176.265.176.353.088zm.706 1.058c.176-.088.176-.264 0-.44-.089-.177-.265-.265-.441-.177-.177.088-.177.264 0 .44.176.177.352.265.44.177zm1.058 1.058c.088-.088.088-.264-.089-.44-.176-.177-.352-.265-.529-.089-.176.088-.088.265.088.44.265.177.441.177.53.09zm1.41.617c.088-.176-.088-.352-.352-.352-.265-.089-.441 0-.441.176-.088.176 0 .264.352.353.177.088.353 0 .441-.177zm1.587.088c0-.176-.176-.264-.44-.264-.265 0-.353.088-.353.264 0 .177.176.265.44.265.177 0 .353-.088.353-.265zm1.41-.264c0-.176-.175-.265-.44-.265-.264.089-.353.177-.353.353s.177.265.441.176c.265.089.353-.088.353-.264z"
  />
</svg>
