<svg
  xmlns="http://www.w3.org/2000/svg"
  width="48"
  height="48"
  viewBox="0 0 48 48"
>
  <path
    fill="#E3E3E3"
    d="M41.448 39.38H6.499a2.503 2.503 0 01-2.497-2.496V11.639A2.503 2.503 0 016.5 9.142h34.949a2.503 2.503 0 012.496 2.497v25.245a2.478 2.478 0 01-2.496 2.497z"
  />
  <path
    fill="#231F20"
    d="M8.996 39.38l14.942-12.019.11-.638L8.64 15.633l-.039 23.212.394.536z"
    opacity=".1"
  />
  <path
    fill="#D54B3D"
    d="M6.5 39.38a2.478 2.478 0 01-2.498-2.496V11.6c0-1.394 1.11-1.639 2.497-1.639 1.387 0 2.497.284 2.497 1.639v27.78H6.499z"
  />
  <path
    fill="#D72B27"
    d="M6.5 10.316c1.78 0 2.141.536 2.141 1.284v27.426H6.5a2.15 2.15 0 01-2.142-2.142V11.6c.007-.787.362-1.284 2.142-1.284zm0-.355c-1.394 0-2.498.284-2.498 1.639v25.284A2.478 2.478 0 006.5 39.38h2.497V11.6c0-1.394-1.103-1.639-2.497-1.639z"
  />
  <path
    fill="#D54B3D"
    d="M41.448 39.38H38.95V11.53c0-1.393 1.103-1.568 2.497-1.568 1.393 0 2.496.18 2.496 1.568v25.394c0 1.354-1.103 2.458-2.496 2.458z"
  />
  <path
    fill="#D72B27"
    d="M41.448 10.316c1.606 0 2.142.323 2.142 1.213v25.394a2.149 2.149 0 01-2.142 2.142h-2.142V11.529c.006-.929.542-1.213 2.142-1.213zm0-.355c-1.394 0-2.497.18-2.497 1.568v27.884h2.497a2.478 2.478 0 002.496-2.497V11.53c0-1.393-1.103-1.568-2.496-1.568z"
  />
  <path
    fill="url(#gmail__a)"
    d="M30.75 39.38L4.216 12.64l1.394.568 18.47 13.303 19.865-14.568v24.98c0 1.355-1.103 2.459-2.496 2.459H30.75z"
  />
  <path
    fill="#D54B3D"
    d="M23.938 27.362L5.074 13.672c-1.104-.82-1.426-2.388-.607-3.497.82-1.11 2.426-1.355 3.568-.536l15.942 11.587L40.022 9.497c1.103-.82 2.677-.568 3.497.568.82 1.103.568 2.677-.568 3.497l-19.013 13.8z"
  />
  <path
    fill="#D72B27"
    d="M41.448 9.355c.677 0 1.322.322 1.748.89a2.186 2.186 0 01-.465 2.994L23.938 26.936 5.286 13.387c-.961-.716-1.213-2.07-.535-2.994a2.236 2.236 0 011.787-.896c.464 0 .929.142 1.284.426l15.903 11.554.213.142.213-.142L40.164 9.748c.393-.251.82-.393 1.284-.393zm0-.355c-.497 0-1.033.142-1.465.465L23.938 21.194 8.002 9.6c-.425-.323-.96-.465-1.496-.465-.787 0-1.568.355-2.071 1.033-.787 1.103-.465 2.677.638 3.497l18.865 13.729L42.912 13.56a2.541 2.541 0 00.568-3.496A2.44 2.44 0 0041.448 9z"
  />
  <defs>
    <linearGradient
      id="gmail__a"
      x1="4.214"
      x2="43.946"
      y1="25.661"
      y2="25.661"
      gradientUnits="userSpaceOnUse"
    >
      <stop stop-opacity=".1" />
      <stop offset="1" stop-opacity=".2" />
    </linearGradient>
  </defs>
</svg>
