<svg
  xmlns="http://www.w3.org/2000/svg"
  width="48"
  height="48"
  viewBox="0 0 48 48"
>
  <path
    fill="#E3E3E3"
    d="M41.45 39.382H6.5a2.504 2.504 0 01-2.496-2.496V11.638a2.504 2.504 0 012.496-2.496H41.45a2.504 2.504 0 012.497 2.496v25.248a2.48 2.48 0 01-2.497 2.496z"
  />
  <path
    fill="#231F20"
    d="M8.998 39.383L23.94 27.365l.107-.641L8.64 15.633l-.036 23.215.393.535z"
    opacity=".1"
  />
  <path
    fill="#D54B3D"
    d="M6.501 39.383a2.48 2.48 0 01-2.496-2.496V11.603c0-1.39 1.106-1.64 2.496-1.64 1.391 0 2.497.285 2.497 1.64v27.78H6.5z"
  />
  <path
    fill="#D72B27"
    d="M6.501 10.32c1.784 0 2.14.534 2.14 1.283v27.424h-2.14a2.146 2.146 0 01-2.14-2.14V11.603c0-.784.357-1.284 2.14-1.284zm0-.357c-1.39 0-2.496.285-2.496 1.64v25.284a2.48 2.48 0 002.496 2.496h2.497v-27.78c0-1.39-1.106-1.64-2.497-1.64z"
  />
  <path
    fill="#D54B3D"
    d="M41.45 39.383h-2.497V11.532c0-1.39 1.105-1.57 2.496-1.57s2.497.18 2.497 1.57v25.39c0 1.356-1.106 2.461-2.497 2.461z"
  />
  <path
    fill="#D72B27"
    d="M41.45 10.32c1.604 0 2.139.32 2.139 1.212v25.39c0 1.177-.963 2.14-2.14 2.14h-2.14v-27.53c0-.927.535-1.213 2.14-1.213zm0-.357c-1.392 0-2.497.178-2.497 1.569v27.887h2.496a2.48 2.48 0 002.497-2.496V11.532c0-1.39-1.106-1.57-2.497-1.57z"
  />
  <path
    fill="url(#gmail__a)"
    d="M30.751 39.383L4.214 12.64l1.396.568L24.082 26.51l19.864-14.566v24.979c0 1.355-1.106 2.46-2.497 2.46H30.751z"
  />
  <path
    fill="#D54B3D"
    d="M23.94 27.366L5.075 13.672c-1.105-.82-1.426-2.39-.606-3.495s2.425-1.355 3.566-.535l15.94 11.59L40.024 9.5c1.105-.82 2.675-.571 3.495.57.82 1.106.57 2.675-.57 3.495l-19.008 13.8z"
  />
  <path
    fill="#D72B27"
    d="M41.45 9.357c.677 0 1.319.32 1.747.891a2.19 2.19 0 01-.464 2.996L23.94 26.938 5.289 13.386c-.963-.713-1.212-2.068-.535-2.995a2.246 2.246 0 011.783-.892c.464 0 .927.143 1.284.428l15.905 11.554.214.143.214-.143L40.166 9.75c.392-.25.82-.392 1.283-.392zm0-.357c-.5 0-1.035.143-1.463.464L23.94 21.196 8 9.606c-.429-.32-.964-.463-1.499-.463-.784 0-1.569.356-2.068 1.034-.784 1.105-.463 2.674.642 3.495l18.865 13.73L42.91 13.564a2.54 2.54 0 00.57-3.495A2.444 2.444 0 0041.45 9z"
  />
  <defs>
    <linearGradient
      id="gmail__a"
      x1="4.216"
      x2="43.958"
      y1="25.663"
      y2="25.663"
      gradientUnits="userSpaceOnUse"
    >
      <stop stop-opacity=".1" />
      <stop offset="1" stop-opacity=".2" />
    </linearGradient>
  </defs>
</svg>
