<svg
  xmlns="http://www.w3.org/2000/svg"
  width="48"
  height="48"
  viewBox="0 0 48 48"
>
  <rect width="48" height="48" fill="#fff" rx="8" />
  <path
    fill="#E3E3E3"
    d="M40.302 38.385H7.652a2.339 2.339 0 01-2.332-2.332V12.465a2.339 2.339 0 012.332-2.332h32.65a2.339 2.339 0 012.332 2.332v23.588a2.318 2.318 0 01-2.332 2.332z"
  />
  <path
    fill="#231F20"
    d="M9.984 38.386l13.96-11.228.1-.6L9.65 16.197l-.033 21.689.366.5z"
    opacity=".1"
  />
  <path
    fill="#D54B3D"
    d="M7.652 38.386a2.318 2.318 0 01-2.332-2.333v-23.62c0-1.3 1.033-1.533 2.332-1.533 1.3 0 2.332.266 2.332 1.532v25.954H7.652z"
  />
  <path
    fill="#D72B27"
    d="M7.652 11.233c1.666 0 1.999.5 1.999 1.2v25.62h-2c-1.098 0-1.998-.9-1.998-2v-23.62c0-.734.333-1.2 1.999-1.2zm0-.333c-1.3 0-2.332.266-2.332 1.532v23.621c0 1.3 1.033 2.333 2.332 2.333h2.332V12.431c0-1.3-1.033-1.532-2.332-1.532z"
  />
  <path
    fill="#D54B3D"
    d="M40.302 38.386H37.97v-26.02c0-1.3 1.033-1.466 2.332-1.466 1.3 0 2.332.166 2.332 1.466v23.72c0 1.267-1.033 2.3-2.332 2.3z"
  />
  <path
    fill="#D72B27"
    d="M40.302 11.233c1.5 0 1.999.3 1.999 1.133v23.72c0 1.1-.9 2-1.999 2h-1.999v-25.72c0-.867.5-1.133 1.999-1.133zm0-.333c-1.3 0-2.332.166-2.332 1.466v26.053h2.332c1.3 0 2.332-1.033 2.332-2.332V12.365c0-1.299-1.033-1.465-2.332-1.465z"
  />
  <path
    fill="url(#gmail__a)"
    d="M30.307 38.386L5.515 13.4l1.304.53 17.258 12.427L42.634 12.75v23.336c0 1.266-1.033 2.298-2.332 2.298h-9.995z"
  />
  <path
    fill="#D54B3D"
    d="M23.944 27.158L6.319 14.365c-1.032-.767-1.332-2.232-.566-3.265.766-1.033 2.266-1.266 3.332-.5l14.892 10.828L38.97 10.467c1.033-.767 2.5-.533 3.265.533.767 1.033.533 2.498-.533 3.265L23.944 27.158z"
  />
  <path
    fill="#D72B27"
    d="M40.302 10.333c.633 0 1.233.3 1.633.833.633.9.433 2.132-.434 2.799L23.944 26.758 6.519 14.098c-.9-.666-1.133-1.932-.5-2.799a2.1 2.1 0 011.666-.833c.433 0 .867.134 1.2.4l14.859 10.795.2.133.2-.133L39.103 10.7a2.208 2.208 0 011.199-.367zm0-.333c-.466 0-.966.133-1.366.433L23.944 21.394 9.05 10.566c-.4-.3-.9-.433-1.399-.433-.733 0-1.466.333-1.932.966-.733 1.033-.433 2.5.6 3.265l17.624 12.827 17.724-12.926a2.373 2.373 0 00.533-3.266A2.283 2.283 0 0040.302 10z"
  />
  <defs>
    <linearGradient
      id="gmail__a"
      x1="5.516"
      x2="42.646"
      y1="25.567"
      y2="25.567"
      gradientUnits="userSpaceOnUse"
    >
      <stop stop-opacity=".1" />
      <stop offset="1" stop-opacity=".2" />
    </linearGradient>
  </defs>
</svg>
