<svg
  xmlns="http://www.w3.org/2000/svg"
  width="48"
  height="48"
  viewBox="0 0 48 48"
>
  <path
    fill="#EA4335"
    d="M29.651 16.308h1.28l3.652-3.65.178-1.551C27.967 5.109 17.598 5.757 11.6 12.55a16.405 16.405 0 00-3.535 6.563 1.976 1.976 0 011.281-.076l7.301-1.205s.37-.615.565-.577a9.107 9.107 0 0112.464-.948h-.025z"
  />
  <path
    fill="#4285F4"
    d="M39.783 19.114a16.434 16.434 0 00-4.956-7.992l-5.123 5.123a9.11 9.11 0 013.343 7.226v.91a4.561 4.561 0 010 9.121h-9.121l-.91.923v5.47l.91.91h9.121c6.55.051 11.902-5.218 11.953-11.768.03-3.978-1.929-7.7-5.217-9.923z"
  />
  <path
    fill="#34A853"
    d="M14.791 40.748h9.122v-7.301H14.79c-.65 0-1.29-.142-1.883-.411l-1.28.398-3.676 3.65-.32 1.281a11.773 11.773 0 007.16 2.383z"
  />
  <path
    fill="#FBBC05"
    d="M14.791 17.064c-6.552.038-11.829 5.38-11.79 11.933a11.855 11.855 0 004.63 9.33l5.29-5.289a4.562 4.562 0 01-2.28-6.033 4.562 4.562 0 018.313 0l5.29-5.29a11.834 11.834 0 00-9.453-4.65z"
  />
</svg>
