<svg
  xmlns="http://www.w3.org/2000/svg"
  width="48"
  height="48"
  viewBox="0 0 48 48"
>
  <path
    fill="#4285F4"
    d="M43.6 24.444c0-1.644-.133-2.844-.422-4.088H24.4v7.422h11.022C35.2 29.622 34 32.4 31.333 34.267l-.037.248 5.937 4.6.412.04c3.777-3.488 5.955-8.622 5.955-14.71z"
  />
  <path
    fill="#34A853"
    d="M24.4 44c5.4 0 9.933-1.778 13.245-4.844l-6.312-4.89c-1.688 1.178-3.955 2-6.933 2-5.289 0-9.778-3.488-11.378-8.31l-.234.02-6.174 4.777-.08.225C9.821 39.51 16.577 44 24.4 44z"
  />
  <path
    fill="#FBBC05"
    d="M13.022 27.956A12.31 12.31 0 0112.356 24c0-1.378.244-2.711.644-3.956l-.011-.265-6.251-4.854-.205.097A20.019 20.019 0 004.4 24c0 3.222.778 6.267 2.133 8.978l6.49-5.022z"
  />
  <path
    fill="#EB4335"
    d="M24.4 11.733c3.756 0 6.289 1.622 7.733 2.978L37.778 9.2C34.31 5.978 29.8 4 24.4 4 16.578 4 9.822 8.489 6.533 15.022L13 20.044c1.622-4.822 6.111-8.31 11.4-8.31z"
  />
</svg>
