<svg
  xmlns="http://www.w3.org/2000/svg"
  width="48"
  height="48"
  viewBox="0 0 48 48"
>
  <rect width="48" height="48" fill="#fff" rx="8" />
  <path
    fill="url(#google-play__a)"
    fill-rule="evenodd"
    d="M9.64 6.552C9.232 6.987 9 7.656 9 8.526v30.942c0 .87.233 1.54.654 1.959l.11.093 17.389-17.338v-.39L9.749 6.46l-.11.093z"
    clip-rule="evenodd"
  />
  <path
    fill="url(#google-play__b)"
    fill-rule="evenodd"
    d="M32.937 29.984l-5.8-5.785v-.404l5.802-5.785.125.077 6.862 3.889c1.965 1.104 1.965 2.923 0 4.043l-6.862 3.888c-.002 0-.127.077-.127.077z"
    clip-rule="evenodd"
  />
  <path
    fill="url(#google-play__c)"
    fill-rule="evenodd"
    d="M33.063 29.907l-5.926-5.91L9.64 41.444c.64.684 1.715.762 2.917.093l20.507-11.63z"
    clip-rule="evenodd"
  />
  <path
    fill="url(#google-play__d)"
    fill-rule="evenodd"
    d="M33.063 18.09L12.555 6.473c-1.2-.684-2.278-.591-2.917.093l17.497 17.43 5.927-5.908z"
    clip-rule="evenodd"
  />
  <path
    fill-rule="evenodd"
    d="M32.937 29.782L12.571 41.319c-1.138.652-2.152.607-2.807.015l-.11.11.11.093c.655.59 1.67.637 2.807-.016l20.507-11.614-.14-.125z"
    clip-rule="evenodd"
    opacity=".2"
  />
  <path
    fill-rule="evenodd"
    d="M39.924 25.816l-7.002 3.966.125.125 6.862-3.888c.983-.56 1.466-1.29 1.466-2.022-.062.67-.561 1.307-1.45 1.82z"
    clip-rule="evenodd"
    opacity=".12"
  />
  <path
    fill="#fff"
    fill-rule="evenodd"
    d="M12.556 6.677L39.924 22.18c.89.497 1.389 1.15 1.467 1.819 0-.73-.484-1.462-1.467-2.022L12.556 6.474C10.591 5.355 9 6.287 9 8.526v.203c0-2.24 1.591-3.157 3.556-2.052z"
    clip-rule="evenodd"
    opacity=".25"
  />
  <defs>
    <linearGradient
      id="google-play__a"
      x1="25.581"
      x2="-2.233"
      y1="8.203"
      y2="15.633"
      gradientUnits="userSpaceOnUse"
    >
      <stop stop-color="#00A0FF" />
      <stop offset=".007" stop-color="#00A1FF" />
      <stop offset=".26" stop-color="#00BEFF" />
      <stop offset=".512" stop-color="#00D2FF" />
      <stop offset=".76" stop-color="#00DFFF" />
      <stop offset="1" stop-color="#00E3FF" />
    </linearGradient>
    <linearGradient
      id="google-play__b"
      x1="42.483"
      x2="8.522"
      y1="23.992"
      y2="23.992"
      gradientUnits="userSpaceOnUse"
    >
      <stop stop-color="#FFE000" />
      <stop offset=".409" stop-color="#FFBD00" />
      <stop offset=".775" stop-color="orange" />
      <stop offset="1" stop-color="#FF9C00" />
    </linearGradient>
    <linearGradient
      id="google-play__c"
      x1="29.843"
      x2="7.559"
      y1="27.206"
      y2="64.781"
      gradientUnits="userSpaceOnUse"
    >
      <stop stop-color="#FF3A44" />
      <stop offset="1" stop-color="#C31162" />
    </linearGradient>
    <linearGradient
      id="google-play__d"
      x1="5.23"
      x2="15.174"
      y1="-3.753"
      y2="13.016"
      gradientUnits="userSpaceOnUse"
    >
      <stop stop-color="#32A071" />
      <stop offset=".069" stop-color="#2DA771" />
      <stop offset=".476" stop-color="#15CF74" />
      <stop offset=".801" stop-color="#06E775" />
      <stop offset="1" stop-color="#00F076" />
    </linearGradient>
  </defs>
</svg>
