<svg
  xmlns="http://www.w3.org/2000/svg"
  width="48"
  height="48"
  viewBox="0 0 48 48"
>
  <rect width="48" height="48" fill="#fff" rx="8" />
  <path
    fill="#4285F4"
    d="M41 24.386c0-1.427-.116-2.468-.366-3.547H24.347v6.438h9.56c-.193 1.6-1.233 4.009-3.546 5.628l-.033.215 5.15 3.99.356.035C39.111 34.12 41 29.667 41 24.385z"
  />
  <path
    fill="#34A853"
    d="M24.347 41.347c4.684 0 8.615-1.542 11.487-4.202l-5.474-4.24c-1.464 1.021-3.43 1.734-6.013 1.734-4.587 0-8.48-3.026-9.869-7.208l-.203.017-5.355 4.144-.07.195c2.853 5.666 8.712 9.56 15.497 9.56z"
  />
  <path
    fill="#FBBC05"
    d="M14.478 27.43A10.68 10.68 0 0113.9 24c0-1.195.212-2.352.56-3.43l-.01-.23-5.422-4.211-.178.084A17.363 17.363 0 007 24c0 2.795.675 5.435 1.85 7.787l5.628-4.356z"
  />
  <path
    fill="#EB4335"
    d="M24.347 13.36c3.257 0 5.454 1.408 6.707 2.583l4.896-4.78c-3.007-2.794-6.92-4.51-11.603-4.51-6.785 0-12.644 3.894-15.497 9.56l5.61 4.356c1.406-4.182 5.3-7.208 9.887-7.208z"
  />
</svg>
