<svg
  xmlns="http://www.w3.org/2000/svg"
  width="48"
  height="48"
  viewBox="0 0 48 48"
>
  <rect width="48" height="48" fill="#fff" rx="8" />
  <path
    fill="#EA4335"
    d="M28.983 17.207h1.129l3.218-3.22.158-1.366c-5.99-5.288-15.133-4.717-20.42 1.274A14.464 14.464 0 009.95 19.68a1.742 1.742 0 011.129-.067l6.437-1.063s.327-.542.498-.509a8.03 8.03 0 0110.99-.835h-.022z"
  />
  <path
    fill="#4285F4"
    d="M37.916 19.68a14.488 14.488 0 00-4.37-7.046l-4.517 4.517a8.032 8.032 0 012.948 6.37v.803a4.021 4.021 0 010 8.042h-8.043l-.802.814v4.823l.802.803h8.043c5.774.044 10.494-4.601 10.538-10.376a10.462 10.462 0 00-4.6-8.75z"
  />
  <path
    fill="#34A853"
    d="M15.881 38.755h8.042v-6.438h-8.042a4.004 4.004 0 01-1.66-.362l-1.13.351-3.24 3.219-.283 1.129a10.38 10.38 0 006.313 2.1z"
  />
  <path
    fill="#FBBC05"
    d="M15.881 17.873c-5.777.034-10.43 4.744-10.396 10.521a10.452 10.452 0 004.083 8.227l4.664-4.664a4.022 4.022 0 01-2.01-5.319 4.022 4.022 0 017.329 0l4.663-4.664a10.434 10.434 0 00-8.333-4.1z"
  />
</svg>
