<svg
  xmlns="http://www.w3.org/2000/svg"
  width="48"
  height="48"
  viewBox="0 0 48 48"
>
  <path
    fill="#E44D26"
    d="M42.5 3l-3.37 37.796L23.976 45 8.867 40.801 5.5 3h37z"
  />
  <path fill="#F16529" d="M24 41.787l12.244-3.398 2.88-32.298H24v35.696z" />
  <path
    fill="#EBEBEB"
    d="M17.446 15.364H24v-4.637H12.386l.11 1.244 1.138 12.776H24V20.11h-6.13l-.424-4.747zm1.045 11.7h-4.65l.65 7.281 9.488 2.636.021-.006v-4.824l-.02.005-5.158-1.394-.33-3.699v.002z"
  />
  <path
    fill="#fff"
    d="M23.984 24.748h5.704l-.537 6.011-5.167 1.397v4.823l9.495-2.634.07-.783 1.088-12.207.114-1.244H23.985v4.637zm0-9.396v.012h11.188l.092-1.042.213-2.351.11-1.244H23.984v4.625z"
  />
</svg>
