<svg
  xmlns="http://www.w3.org/2000/svg"
  width="48"
  height="48"
  viewBox="0 0 48 48"
>
  <rect width="48" height="48" fill="#fff" rx="8" />
  <path
    fill="#E44D26"
    d="M40.738 5L37.69 39.196 23.979 43l-13.67-3.799L7.262 5h33.476z"
  />
  <path fill="#F16529" d="M24 40.093l11.078-3.074 2.606-29.222H24v32.296z" />
  <path
    fill="#EBEBEB"
    d="M18.07 16.186H24v-4.195H13.492l.1 1.126 1.03 11.559H24V20.48h-5.545l-.385-4.295zm.946 10.587h-4.207l.587 6.587 8.585 2.384.019-.004v-4.366l-.018.005-4.667-1.261-.3-3.346z"
  />
  <path
    fill="#fff"
    d="M23.986 24.677h5.16l-.486 5.439-4.674 1.263v4.364l8.59-2.383.064-.71.984-11.043.103-1.126h-9.741v4.195zm0-8.502v.011h10.122l.083-.943.193-2.127.1-1.125H23.985v4.184z"
  />
</svg>
