<svg
  xmlns="http://www.w3.org/2000/svg"
  width="48"
  height="48"
  viewBox="0 0 48 48"
>
  <path
    fill="#300"
    d="M11.083 4.5h25.834A7.077 7.077 0 0144 11.583v24.834a7.077 7.077 0 01-7.083 7.083H11.083A7.077 7.077 0 014 36.417V11.583A7.077 7.077 0 0111.083 4.5z"
  />
  <path
    fill="#FF9A00"
    d="M23.383 27.885h-6.2L15.917 31.8a.292.292 0 01-.317.233h-3.133c-.184 0-.234-.1-.184-.3l5.367-15.44c.05-.167.1-.35.167-.55.066-.35.1-.716.1-1.083-.017-.083.05-.166.133-.183h4.317c.133 0 .2.05.216.133l6.084 17.156c.05.184 0 .267-.167.267h-3.483c-.117.016-.234-.067-.267-.183l-1.367-3.965zm-5.233-3.38h4.233c-.1-.35-.233-.767-.383-1.2-.15-.45-.3-.933-.45-1.433-.167-.516-.317-1.016-.483-1.532-.167-.516-.317-1-.45-1.482-.134-.467-.25-.9-.367-1.3h-.033c-.15.717-.334 1.433-.567 2.15-.25.799-.5 1.632-.767 2.464a32.71 32.71 0 01-.733 2.332zM32.3 17.325c-.55.017-1.083-.2-1.483-.583a2.163 2.163 0 01-.567-1.532c-.017-.566.2-1.1.6-1.482.4-.383.933-.583 1.483-.583.65 0 1.15.2 1.517.583.367.4.567.932.55 1.482a2.107 2.107 0 01-.583 1.532c-.384.4-.95.617-1.517.583zm-1.867 14.458V18.958c0-.167.067-.233.217-.233h3.3c.15 0 .217.083.217.233v12.825c0 .183-.067.267-.217.267h-3.267c-.166 0-.25-.1-.25-.267z"
  />
</svg>
