<svg
  xmlns="http://www.w3.org/2000/svg"
  width="48"
  height="48"
  viewBox="0 0 48 48"
>
  <path
    fill="#300"
    d="M10.76 4h26.48a7.257 7.257 0 017.26 7.265v25.47A7.257 7.257 0 0137.24 44H10.76a7.257 7.257 0 01-7.26-7.265v-25.47A7.257 7.257 0 0110.76 4z"
  />
  <path
    fill="#FF9A00"
    d="M23.368 27.985h-6.355L15.715 32a.3.3 0 01-.325.239h-3.212c-.188 0-.239-.103-.188-.308l5.501-15.836c.052-.17.103-.359.171-.564.069-.359.103-.734.103-1.11-.018-.086.05-.171.136-.188h4.425c.136 0 .205.051.222.137l6.235 17.595c.052.188 0 .274-.17.274h-3.57c-.12.017-.24-.069-.274-.188l-1.401-4.066zm-5.364-3.468h4.339a24.4 24.4 0 00-.393-1.23 51.519 51.519 0 01-.461-1.47c-.171-.529-.325-1.041-.496-1.57-.17-.53-.324-1.026-.46-1.521-.138-.479-.257-.923-.377-1.333h-.034c-.154.735-.341 1.47-.58 2.204-.257.82-.513 1.674-.787 2.528a33.395 33.395 0 01-.751 2.392zm14.504-7.363a2.114 2.114 0 01-1.52-.598 2.22 2.22 0 01-.582-1.571 2.01 2.01 0 01.615-1.52c.41-.394.957-.599 1.52-.599.667 0 1.18.205 1.555.598.376.41.581.957.564 1.52a2.162 2.162 0 01-.598 1.572 2.01 2.01 0 01-1.554.598zm-1.914 14.829V18.828c0-.17.069-.239.222-.239H34.2c.154 0 .222.086.222.24v13.154c0 .187-.069.273-.222.273h-3.35c-.17 0-.256-.103-.256-.273z"
  />
</svg>
