<svg
  xmlns="http://www.w3.org/2000/svg"
  width="48"
  height="48"
  viewBox="0 0 48 48"
>
  <g clip-path="url(#illustrator__a)">
    <path
      fill="#300"
      d="M8.5 0h31C44.2 0 48 3.897 48 8.718v30.564C48 44.102 44.2 48 39.5 48h-31C3.8 48 0 44.103 0 39.282V8.718C0 3.898 3.8 0 8.5 0z"
    />
    <path
      fill="#FF9A00"
      d="M23.26 28.689h-7.44l-1.52 4.697c-.04.18-.2.3-.38.28h-3.76c-.22 0-.28-.12-.22-.36l6.44-18.528c.06-.2.12-.42.2-.66.08-.42.12-.86.12-1.3-.02-.1.06-.199.16-.219h5.18c.16 0 .24.06.26.16l7.3 20.587c.06.22 0 .32-.2.32h-4.18c-.14.02-.28-.08-.32-.22l-1.64-4.757zm-6.28-4.058h5.08c-.12-.42-.28-.919-.46-1.439-.18-.54-.36-1.119-.54-1.719-.2-.62-.38-1.219-.58-1.838-.2-.62-.38-1.2-.54-1.78-.16-.559-.3-1.079-.44-1.558h-.04c-.18.86-.4 1.719-.68 2.578-.3.96-.6 1.959-.92 2.958a39.21 39.21 0 01-.88 2.799zm16.98-8.614c-.66.02-1.3-.24-1.78-.7-.46-.5-.7-1.159-.68-1.838-.02-.68.24-1.32.72-1.78A2.565 2.565 0 0134 11c.78 0 1.38.24 1.82.7.44.48.68 1.119.66 1.779.02.679-.22 1.339-.7 1.838-.46.48-1.14.74-1.82.7zm-2.24 17.349v-15.39c0-.2.08-.28.26-.28h3.96c.18 0 .26.1.26.28v15.39c0 .22-.08.32-.26.32h-3.92c-.2 0-.3-.12-.3-.32z"
    />
  </g>
  <defs>
    <clipPath id="illustrator__a">
      <path fill="#fff" d="M0 0h48v48H0z" />
    </clipPath>
  </defs>
</svg>
