<svg
  xmlns="http://www.w3.org/2000/svg"
  width="48"
  height="48"
  viewBox="0 0 48 48"
>
  <rect width="40" height="38.824" x="4" y="5" fill="#F4C434" rx="5" />
  <path
    fill="#202020"
    fill-rule="evenodd"
    d="M18.443 24.064l.659-4.946h3.722v10.588h-2.488l-.008-7.146-.997 7.146h-1.776l-1.05-6.992-.01 6.992H14V19.118h3.693c.109.642.223 1.394.341 2.256l.41 2.69zm-8.56 5.642V19.118h2.94v10.588h-2.94zm14.117 0V19.118h4.59c1.04 0 1.88.835 1.88 1.868v6.851c0 1.032-.84 1.869-1.88 1.869H24zm3.43-8.683c-.116-.063-.34-.093-.664-.093v6.947c.429 0 .693-.077.792-.238.099-.159.15-.588.15-1.294V22.24c0-.479-.018-.785-.051-.92a.433.433 0 00-.226-.297zm8.776.746h-.188c-.633 0-1.193.296-1.557.749v-3.4h-2.814V29.57h2.638l.17-.648a1.93 1.93 0 001.563.784h.188c1.056 0 1.912-.827 1.912-1.846v-4.245c0-1.02-.856-1.846-1.912-1.846zm-.79 2.654v2.509c0 .473-.025.773-.074.896-.049.123-.281.188-.441.188-.16 0-.388-.067-.441-.188V23.58c.046-.11.286-.175.441-.175.155 0 .377.08.432.205.056.125.082.397.082.812z"
    clip-rule="evenodd"
  />
</svg>
