<svg
  xmlns="http://www.w3.org/2000/svg"
  width="48"
  height="48"
  viewBox="0 0 48 48"
>
  <rect width="48" height="48" fill="#F4C434" rx="8" />
  <path
    fill="#202020"
    fill-rule="evenodd"
    d="M17.273 23.935l.79-5.935h4.466v12.706h-2.985l-.009-8.575-1.196 8.575h-2.132l-1.26-8.39-.012 8.39h-2.994V18h4.432c.13.77.267 1.673.41 2.707l.49 3.228zM7 30.705V18h3.53v12.706H7zm16.941 0V18h5.51a2.248 2.248 0 012.255 2.242v8.222a2.248 2.248 0 01-2.256 2.242h-5.509zm4.117-10.418c-.14-.076-.408-.112-.797-.112v8.337c.514 0 .83-.093.95-.286.118-.19.179-.706.179-1.553v-4.926c0-.575-.021-.942-.061-1.104a.52.52 0 00-.27-.356zm10.53.894h-.226c-.758 0-1.43.356-1.867.9V18h-3.377v12.543h3.165l.203-.777c.415.568 1.1.94 1.876.94h.226c1.267 0 2.294-.992 2.294-2.215v-5.095c0-1.222-1.027-2.215-2.294-2.215zm-.949 3.185v3.011c0 .568-.029.928-.088 1.075-.058.148-.337.226-.529.226-.191 0-.465-.08-.53-.226v-5.096c.057-.132.344-.21.53-.21.187 0 .452.096.519.246.066.15.098.477.098.974z"
    clip-rule="evenodd"
  />
</svg>
