<svg
  xmlns="http://www.w3.org/2000/svg"
  width="48"
  height="48"
  viewBox="0 0 48 48"
>
  <path
    fill="#49021F"
    d="M11.083 4.5h25.834A7.077 7.077 0 0144 11.583v24.834a7.077 7.077 0 01-7.083 7.083H11.083A7.077 7.077 0 014 36.417V11.583A7.077 7.077 0 0111.083 4.5z"
  />
  <path
    fill="#F36"
    d="M18.533 14.927V31.61c0 .179-.083.26-.233.26h-3.267c-.15 0-.216-.081-.216-.26V14.927c0-.147.083-.212.233-.212h3.25c.1-.016.2.05.217.163.016.016.016.033.016.049zm9.6 17.203a8.462 8.462 0 01-3.583-.732 5.763 5.763 0 01-2.517-2.211c-.616-.992-.916-2.228-.916-3.707-.017-1.204.3-2.39.916-3.431a6.846 6.846 0 012.65-2.52c1.167-.635 2.567-.944 4.217-.944.083 0 .2 0 .35.017.15.016.317.016.517.032v-5.138c0-.114.05-.179.166-.179h3.384c.083-.016.15.049.166.114v15.512c0 .293.017.618.034.976.033.341.05.666.066.943 0 .114-.05.211-.166.26a12.93 12.93 0 01-2.717.78c-.833.147-1.7.228-2.567.228zm1.634-3.252v-7.154c-.15-.033-.3-.066-.45-.082-.184-.016-.367-.032-.55-.032-.65 0-1.3.13-1.884.422a3.71 3.71 0 00-1.416 1.204c-.367.52-.55 1.22-.55 2.065a4.43 4.43 0 00.283 1.675c.167.439.417.829.75 1.154.317.293.7.52 1.133.65.45.147.917.212 1.384.212.25 0 .483-.016.7-.033.216.017.416-.016.6-.081z"
  />
</svg>
