<svg
  xmlns="http://www.w3.org/2000/svg"
  width="48"
  height="48"
  viewBox="0 0 48 48"
>
  <path
    fill="#49021F"
    d="M10.438 3.5h27.124A7.436 7.436 0 0145 10.947v26.106a7.436 7.436 0 01-7.438 7.447H10.439A7.436 7.436 0 013 37.053V10.947A7.436 7.436 0 0110.438 3.5z"
  />
  <path
    fill="#F36"
    d="M18.26 14.461V32c0 .188-.088.273-.245.273h-3.43c-.158 0-.228-.085-.228-.273V14.462c0-.154.088-.223.245-.223h3.413a.197.197 0 01.227.171c.018.017.018.034.018.051zm10.08 18.086a8.875 8.875 0 01-3.762-.77 6.054 6.054 0 01-2.643-2.324c-.647-1.043-.962-2.342-.962-3.898a6.894 6.894 0 01.962-3.606 7.192 7.192 0 012.783-2.65c1.224-.667 2.695-.991 4.427-.991.088 0 .21 0 .367.017.158.017.333.017.543.034v-5.402c0-.12.053-.188.175-.188h3.552c.088-.017.158.051.176.12v16.307c0 .308.017.65.035 1.026.035.36.052.701.07.992 0 .12-.053.222-.175.273-.91.376-1.873.65-2.853.82-.875.154-1.785.24-2.695.24zm1.715-3.419v-7.521c-.157-.034-.315-.069-.473-.086-.192-.017-.384-.034-.577-.034-.682 0-1.365.137-1.977.445a3.897 3.897 0 00-1.488 1.265c-.385.547-.578 1.282-.578 2.17a4.664 4.664 0 00.298 1.761c.175.462.438.872.787 1.214.333.308.735.547 1.19.684.473.154.963.222 1.453.222.262 0 .508-.017.735-.034.227.017.438-.017.63-.086z"
  />
</svg>
