<svg
  xmlns="http://www.w3.org/2000/svg"
  width="48"
  height="48"
  viewBox="0 0 48 48"
>
  <path
    fill="#49021F"
    d="M8.5 0h31C44.2 0 48 3.897 48 8.718v30.564C48 44.102 44.2 48 39.5 48h-31C3.8 48 0 44.103 0 39.282V8.718C0 3.898 3.8 0 8.5 0z"
  />
  <path
    fill="#F36"
    d="M17.46 12.935v20.02c0 .214-.1.311-.28.311h-3.92c-.18 0-.26-.097-.26-.312v-20.02c0-.175.1-.253.28-.253h3.9c.12-.02.24.059.26.195.02.02.02.04.02.059zm11.52 20.644c-1.48.02-2.96-.273-4.3-.878a6.916 6.916 0 01-3.02-2.654c-.74-1.19-1.1-2.673-1.1-4.449a7.862 7.862 0 011.1-4.117 8.214 8.214 0 013.18-3.024c1.4-.761 3.08-1.132 5.06-1.132.1 0 .24 0 .42.02.18.019.38.019.62.039v-6.166c0-.137.06-.215.2-.215h4.06c.1-.02.18.059.2.137v18.614c0 .351.02.742.04 1.171.04.41.06.8.08 1.132 0 .136-.06.253-.2.312-1.04.43-2.14.741-3.26.937-1 .175-2.04.273-3.08.273zm1.96-3.903v-8.585c-.18-.04-.36-.078-.54-.098-.22-.02-.44-.039-.66-.039-.78 0-1.56.156-2.26.508a4.45 4.45 0 00-1.7 1.444c-.44.624-.66 1.463-.66 2.478-.02.682.1 1.365.34 2.01.2.526.5.994.9 1.385.38.35.84.624 1.36.78.54.176 1.1.254 1.66.254.3 0 .58-.02.84-.04.26.02.5-.019.72-.097z"
  />
</svg>
