<svg
  xmlns="http://www.w3.org/2000/svg"
  width="48"
  height="48"
  viewBox="0 0 48 48"
>
  <path
    fill="url(#instagram__a)"
    d="M24.006 4c-8.35 0-10.791.009-11.266.048-1.713.142-2.78.412-3.941.99A7.984 7.984 0 006.5 6.722c-1.27 1.318-2.038 2.94-2.317 4.866-.135.936-.175 1.126-.183 5.905-.003 1.592 0 3.688 0 6.5 0 8.345.01 10.786.05 11.26.138 1.667.4 2.717.953 3.864 1.059 2.198 3.08 3.847 5.46 4.462.825.213 1.736.33 2.905.385.495.022 5.543.037 10.595.037 5.051 0 10.102-.006 10.586-.03 1.353-.064 2.14-.17 3.008-.395a8.374 8.374 0 005.46-4.47c.544-1.12.819-2.21.944-3.791.027-.345.038-5.84.038-11.327 0-5.488-.012-10.973-.04-11.318-.126-1.606-.4-2.686-.961-3.828a7.928 7.928 0 00-1.712-2.346c-1.323-1.264-2.942-2.033-4.87-2.312-.934-.135-1.12-.175-5.9-.183h-6.51z"
  />
  <path
    fill="url(#instagram__b)"
    d="M24.006 4c-8.35 0-10.791.009-11.266.048-1.713.142-2.78.412-3.941.99A7.984 7.984 0 006.5 6.722c-1.27 1.318-2.038 2.94-2.317 4.866-.135.936-.175 1.126-.183 5.905-.003 1.592 0 3.688 0 6.5 0 8.345.01 10.786.05 11.26.138 1.667.4 2.717.953 3.864 1.059 2.198 3.08 3.847 5.46 4.462.825.213 1.736.33 2.905.385.495.022 5.543.037 10.595.037 5.051 0 10.102-.006 10.586-.03 1.353-.064 2.14-.17 3.008-.395a8.374 8.374 0 005.46-4.47c.544-1.12.819-2.21.944-3.791.027-.345.038-5.84.038-11.327 0-5.488-.012-10.973-.04-11.318-.126-1.606-.4-2.686-.961-3.828a7.928 7.928 0 00-1.712-2.346c-1.323-1.264-2.942-2.033-4.87-2.312-.934-.135-1.12-.175-5.9-.183h-6.51z"
  />
  <path
    fill="#fff"
    d="M23.997 9.231c-4.01 0-4.513.018-6.088.09-1.572.071-2.645.32-3.584.686a7.23 7.23 0 00-2.616 1.703 7.25 7.25 0 00-1.704 2.616c-.366.94-.616 2.013-.686 3.585-.07 1.575-.09 2.08-.09 6.09 0 4.012.019 4.514.09 6.09.072 1.572.321 2.645.686 3.584a7.238 7.238 0 001.703 2.617 7.229 7.229 0 002.615 1.705c.94.365 2.013.614 3.584.686 1.576.072 2.078.09 6.088.09 4.011 0 4.513-.018 6.088-.09 1.572-.072 2.646-.321 3.586-.686a7.223 7.223 0 002.614-1.705 7.251 7.251 0 001.704-2.616c.363-.94.612-2.013.686-3.585.07-1.576.09-2.078.09-6.09 0-4.01-.02-4.514-.09-6.09-.074-1.572-.323-2.645-.686-3.585a7.25 7.25 0 00-1.704-2.616 7.215 7.215 0 00-2.615-1.703c-.941-.366-2.015-.615-3.587-.687-1.575-.071-2.077-.089-6.088-.089h.004zm-1.324 2.662h1.324c3.943 0 4.41.014 5.967.085 1.44.066 2.221.306 2.742.509a4.56 4.56 0 011.697 1.104c.517.517.837 1.01 1.105 1.699.202.52.443 1.302.508 2.742.071 1.557.087 2.024.087 5.966s-.016 4.41-.087 5.967c-.066 1.44-.306 2.222-.508 2.742a4.567 4.567 0 01-1.105 1.697 4.566 4.566 0 01-1.697 1.104c-.52.203-1.302.443-2.742.51-1.556.07-2.024.085-5.967.085-3.943 0-4.41-.015-5.966-.086-1.44-.066-2.222-.307-2.742-.51a4.573 4.573 0 01-1.699-1.104 4.578 4.578 0 01-1.105-1.697c-.202-.52-.443-1.302-.508-2.742-.07-1.557-.085-2.025-.085-5.97 0-3.944.014-4.409.085-5.966.066-1.44.306-2.222.508-2.742a4.576 4.576 0 011.105-1.699 4.583 4.583 0 011.699-1.105c.52-.204 1.302-.443 2.742-.51 1.362-.061 1.89-.08 4.642-.083v.004zm9.207 2.452a1.772 1.772 0 100 3.546 1.772 1.772 0 000-3.546zm-7.883 2.071a7.585 7.585 0 000 15.17 7.582 7.582 0 007.582-7.584 7.584 7.584 0 00-7.582-7.586zm0 2.662a4.923 4.923 0 11-.002 9.848 4.923 4.923 0 01.002-9.848z"
  />
  <defs>
    <radialGradient
      id="instagram__a"
      cx="0"
      cy="0"
      r="1"
      gradientTransform="matrix(0 -39.643 36.8712 0 14.625 47.08)"
      gradientUnits="userSpaceOnUse"
    >
      <stop stop-color="#FD5" />
      <stop offset=".1" stop-color="#FD5" />
      <stop offset=".5" stop-color="#FF543E" />
      <stop offset="1" stop-color="#C837AB" />
    </radialGradient>
    <radialGradient
      id="instagram__b"
      cx="0"
      cy="0"
      r="1"
      gradientTransform="matrix(3.47805 17.37593 -71.62415 14.33662 -2.7 6.882)"
      gradientUnits="userSpaceOnUse"
    >
      <stop stop-color="#3771C8" />
      <stop offset=".13" stop-color="#3771C8" />
      <stop offset="1" stop-color="#60F" stop-opacity="0" />
    </radialGradient>
  </defs>
</svg>
