<svg
  xmlns="http://www.w3.org/2000/svg"
  width="48"
  height="48"
  viewBox="0 0 48 48"
>
  <path
    fill="url(#instagram__a)"
    d="M8.5 0h31C44.2 0 48 3.897 48 8.718v30.564C48 44.102 44.2 48 39.5 48h-31C3.8 48 0 44.103 0 39.282V8.718C0 3.898 3.8 0 8.5 0z"
  />
  <path
    fill="#fff"
    d="M23.997 6.277c-4.813 0-5.416.021-7.307.108-1.886.086-3.174.385-4.3.823a8.676 8.676 0 00-3.14 2.044 8.7 8.7 0 00-2.044 3.14c-.44 1.127-.739 2.415-.824 4.301-.084 1.89-.106 2.495-.106 7.309s.021 5.416.107 7.307c.086 1.887.385 3.174.823 4.302a8.685 8.685 0 002.044 3.14 8.678 8.678 0 003.137 2.045c1.128.438 2.416.737 4.302.824 1.89.086 2.494.107 7.306.107 4.812 0 5.415-.021 7.305-.107 1.886-.087 3.175-.386 4.302-.824a8.671 8.671 0 003.137-2.046 8.701 8.701 0 002.045-3.14c.436-1.127.735-2.415.824-4.301.085-1.89.107-2.493.107-7.307s-.022-5.418-.107-7.308c-.089-1.887-.388-3.175-.824-4.302a8.698 8.698 0 00-2.045-3.14 8.66 8.66 0 00-3.138-2.044c-1.13-.438-2.418-.737-4.304-.823-1.89-.087-2.492-.108-7.306-.108h.006zm-1.59 3.195h1.59c4.731 0 5.292.017 7.16.101 1.728.08 2.665.368 3.29.61a5.479 5.479 0 012.036 1.326 5.501 5.501 0 011.326 2.039c.243.624.532 1.562.61 3.29.086 1.868.104 2.43.104 7.16s-.019 5.291-.103 7.16c-.08 1.728-.368 2.666-.61 3.29a5.481 5.481 0 01-1.327 2.036 5.478 5.478 0 01-2.036 1.326c-.624.244-1.562.532-3.29.61-1.868.085-2.429.104-7.16.104-4.732 0-5.293-.019-7.16-.103-1.728-.08-2.666-.369-3.29-.611a5.488 5.488 0 01-2.039-1.326 5.493 5.493 0 01-1.326-2.037c-.242-.624-.531-1.562-.61-3.29-.085-1.869-.102-2.43-.102-7.163 0-4.734.017-5.292.102-7.16.08-1.729.368-2.666.61-3.291a5.491 5.491 0 011.326-2.039 5.499 5.499 0 012.038-1.326c.625-.244 1.563-.532 3.29-.611 1.635-.074 2.269-.096 5.571-.1v.005zm11.049 2.943a2.126 2.126 0 100 4.254 2.126 2.126 0 000-4.255zm-9.46 2.485c-5.025 0-9.099 4.075-9.099 9.102a9.1 9.1 0 1018.198 0c0-5.027-4.073-9.102-9.098-9.102zm0 3.194a5.907 5.907 0 015.907 5.908 5.908 5.908 0 11-5.906-5.908z"
  />
  <defs>
    <radialGradient
      id="instagram__a"
      cx="0"
      cy="0"
      r="1"
      gradientTransform="matrix(0 -47.5717 44.2455 0 12.75 51.697)"
      gradientUnits="userSpaceOnUse"
    >
      <stop stop-color="#FD5" />
      <stop offset=".1" stop-color="#FD5" />
      <stop offset=".5" stop-color="#FF543E" />
      <stop offset="1" stop-color="#C837AB" />
    </radialGradient>
  </defs>
</svg>
