<svg
  xmlns="http://www.w3.org/2000/svg"
  width="48"
  height="48"
  viewBox="0 0 48 48"
>
  <path
    fill="#F7DF1E"
    d="M8.5 0h31C44.2 0 48 3.897 48 8.718v30.564C48 44.102 44.2 48 39.5 48h-31C3.8 48 0 44.103 0 39.282V8.718C0 3.898 3.8 0 8.5 0z"
  />
  <path d="M12 36.382l3.483-2.107c.672 1.191 1.283 2.199 2.749 2.199 1.405 0 2.291-.55 2.291-2.688V19.245H24.8v14.601c0 4.43-2.596 6.446-6.385 6.446-3.421 0-5.407-1.772-6.415-3.91zm15.123-.458l3.482-2.016c.917 1.497 2.109 2.597 4.216 2.597 1.772 0 2.902-.886 2.902-2.108 0-1.467-1.16-1.986-3.116-2.841l-1.069-.459c-3.085-1.313-5.132-2.963-5.132-6.445 0-3.208 2.444-5.652 6.263-5.652 2.719 0 4.674.947 6.079 3.422l-3.33 2.138c-.734-1.313-1.527-1.833-2.75-1.833-1.252 0-2.046.795-2.046 1.833 0 1.283.794 1.803 2.627 2.597l1.069.458C39.953 29.173 42 30.762 42 34.335c0 3.85-3.024 5.958-7.087 5.958-3.971 0-6.538-1.894-7.79-4.369" />
</svg>
