<svg
  xmlns="http://www.w3.org/2000/svg"
  width="48"
  height="48"
  viewBox="0 0 48 48"
>
  <path
    fill="#001E36"
    d="M10.76 4h26.48a7.257 7.257 0 017.26 7.265v25.47A7.257 7.257 0 0137.24 44H10.76a7.257 7.257 0 01-7.26-7.265v-25.47A7.257 7.257 0 0110.76 4z"
  />
  <path
    fill="#31A8FF"
    d="M25.025 32.256h-10.83c-.189 0-.274-.103-.274-.308V14.49c-.017-.12.068-.222.188-.239h3.416c.086-.017.188.051.188.137v14.4h7.893c.17 0 .222.086.188.24L25.298 32c0 .085-.05.153-.102.205a.288.288 0 01-.171.05zm2.733-13.666h2.99c.17 0 .307.119.359.273.068.12.12.256.136.392a5.652 5.652 0 01.12 1.145 6.36 6.36 0 011.828-1.47 5.1 5.1 0 012.545-.614c.12-.017.222.068.24.188v3.399c0 .137-.086.188-.274.188a6.963 6.963 0 00-3.229.581 2.864 2.864 0 00-.922.632v8.713c0 .17-.068.239-.222.239h-3.332a.237.237 0 01-.273-.205v-9.533c0-.41 0-.837-.017-1.28-.017-.445-.017-.89-.034-1.333a12.547 12.547 0 00-.103-1.128.157.157 0 01.12-.188c.017-.017.034-.017.068 0z"
  />
</svg>
