<svg
  xmlns="http://www.w3.org/2000/svg"
  width="48"
  height="48"
  viewBox="0 0 48 48"
>
  <path
    fill="#001E36"
    d="M8.5 0h31C44.2 0 48 3.897 48 8.718v30.564C48 44.102 44.2 48 39.5 48h-31C3.8 48 0 44.103 0 39.282V8.718C0 3.898 3.8 0 8.5 0z"
  />
  <path
    fill="#31A8FF"
    d="M16.7 34.08H5.28c-.2 0-.28-.12-.28-.36V13.28c0-.2.08-.28.26-.28H8.8c.14 0 .2.08.2.22v16.8h8.32c.18 0 .24.1.2.28L17 33.78c-.02.12-.06.2-.12.24-.06.04-.12.06-.18.06zm2.86-16h3.16c.18 0 .3.1.38.32.06.14.12.3.14.46.04.2.06.42.08.62.02.22.02.46.02.72.52-.68 1.18-1.28 1.92-1.72.8-.48 1.74-.74 2.68-.72.18 0 .26.1.26.28v3.9c0 .16-.1.22-.28.22-.64-.04-1.28 0-1.9.14-.52.12-1.02.3-1.5.54-.36.18-.7.44-.98.74v10.2c0 .2-.08.28-.24.28h-3.48c-.2 0-.28-.1-.28-.32V22.66c0-.48 0-.98-.02-1.5 0-.52-.02-1.04-.04-1.56-.02-.44-.06-.88-.12-1.32 0-.06 0-.12.04-.18.06-.02.1-.04.16-.02zm22.82-2.96c-.42-.18-.88-.28-1.34-.34-.68-.08-1.36-.12-2.04-.12-1.96 0-3.68.42-5.1 1.24a8.61 8.61 0 00-3.32 3.5c-.78 1.48-1.16 3.24-1.16 5.2-.02 1.18.14 2.36.44 3.52.28.98.7 1.9 1.28 2.74.54.78 1.2 1.44 1.96 1.98s1.62.96 2.54 1.2c.94.26 1.94.4 2.92.4.7 0 1.38-.04 2.06-.14.56-.06 1.1-.2 1.62-.4.2-.1.32-.3.3-.54v-2.98c.02-.1-.02-.22-.1-.3-.06-.04-.16-.1-.32.02-.44.16-.92.28-1.4.34-.58.06-1.16.08-1.74.08-.52 0-1.06-.08-1.56-.22-.54-.14-1.04-.36-1.52-.64-.5-.3-.92-.7-1.26-1.16-.38-.52-.68-1.1-.88-1.72a7.69 7.69 0 01-.32-2.34c-.02-1.1.2-2.2.66-3.2.42-.86 1.06-1.6 1.88-2.1.88-.52 1.9-.78 2.92-.76.62 0 1.26.04 1.88.16.5.08.98.24 1.44.48.08.04.18.04.26 0 .08-.08.14-.18.12-.3V15.6c.02-.2-.06-.38-.22-.48z"
  />
</svg>
