<svg
  xmlns="http://www.w3.org/2000/svg"
  width="48"
  height="48"
  viewBox="0 0 48 48"
>
  <path
    fill="#001E36"
    d="M8.5 0h31C44.2 0 48 3.897 48 8.718v30.564C48 44.102 44.2 48 39.5 48h-31C3.8 48 0 44.103 0 39.282V8.718C0 3.898 3.8 0 8.5 0z"
  />
  <path
    fill="#31A8FF"
    d="M25.2 34.07H12.52c-.22 0-.32-.12-.32-.36V13.283c-.02-.14.08-.26.22-.28h4c.1-.02.22.06.22.16v16.85h9.24c.2 0 .26.1.22.28l-.58 3.477c0 .1-.06.18-.12.24-.06.04-.12.06-.2.06zm3.2-15.99h3.5c.2 0 .36.14.42.32.08.14.14.3.16.46.04.2.08.42.1.619.02.22.04.46.04.72.6-.7 1.32-1.28 2.14-1.72a5.98 5.98 0 012.98-.719c.14-.02.26.08.28.22v3.978c0 .16-.1.22-.32.22-1.3-.08-2.6.16-3.78.679-.4.18-.78.42-1.08.74V33.79c0 .2-.08.28-.26.28h-3.9c-.16.02-.3-.08-.32-.24V22.677c0-.48 0-.98-.02-1.499-.02-.52-.02-1.04-.04-1.56-.02-.439-.06-.878-.12-1.318-.02-.1.04-.2.14-.22.02-.02.04-.02.08 0z"
  />
</svg>
