<svg
  xmlns="http://www.w3.org/2000/svg"
  width="48"
  height="48"
  viewBox="0 0 48 48"
>
  <path
    fill="#001E36"
    d="M10.438 3.5h27.124A7.436 7.436 0 0145 10.947v26.106a7.436 7.436 0 01-7.438 7.447H10.439A7.436 7.436 0 013 37.053V10.947A7.436 7.436 0 0110.438 3.5z"
  />
  <path
    fill="#31A8FF"
    d="M17.735 32.48H7.743c-.175 0-.245-.105-.245-.315V14.258c0-.175.07-.245.227-.245h3.098c.122 0 .175.07.175.193v14.718h7.28c.157 0 .21.087.175.245l-.455 3.049c-.018.105-.053.175-.105.21a.282.282 0 01-.158.052zm2.503-14.017h2.765c.157 0 .262.088.332.28.052.123.105.263.122.404.035.175.053.368.07.543.018.192.018.403.018.63a6.01 6.01 0 011.68-1.506c.7-.42 1.522-.649 2.345-.631.157 0 .227.087.227.245v3.417c0 .14-.087.193-.245.193-.56-.035-1.12 0-1.662.122a5.88 5.88 0 00-1.313.473 3.08 3.08 0 00-.857.649v8.936c0 .175-.07.245-.21.245h-3.045c-.175 0-.245-.088-.245-.28v-9.707c0-.42 0-.859-.017-1.314 0-.456-.018-.912-.035-1.367a12.897 12.897 0 00-.105-1.157c0-.052 0-.105.035-.157.052-.018.087-.035.14-.018zm19.967-2.593a4.436 4.436 0 00-1.172-.298c-.595-.07-1.19-.105-1.785-.105-1.715 0-3.22.368-4.463 1.086a7.54 7.54 0 00-2.905 3.067c-.682 1.296-1.015 2.838-1.015 4.555a11.55 11.55 0 00.385 3.084 8.127 8.127 0 001.12 2.4 7.02 7.02 0 001.715 1.735 6.828 6.828 0 002.223 1.051 9.65 9.65 0 002.555.35c.612 0 1.207-.034 1.802-.122a5.63 5.63 0 001.418-.35.47.47 0 00.262-.473v-2.611a.305.305 0 00-.087-.263c-.053-.035-.14-.087-.28.018a5.69 5.69 0 01-1.225.297c-.508.053-1.015.07-1.523.07-.455 0-.927-.07-1.365-.192a5.228 5.228 0 01-1.33-.56 3.822 3.822 0 01-1.102-1.017 5.334 5.334 0 01-.77-1.507 6.745 6.745 0 01-.28-2.05 6.446 6.446 0 01.577-2.803 4.397 4.397 0 011.645-1.84 4.847 4.847 0 012.555-.666c.543 0 1.103.035 1.645.14.438.07.858.21 1.26.42a.26.26 0 00.228 0c.07-.07.122-.157.105-.262V16.29a.43.43 0 00-.193-.42z"
  />
</svg>
