<svg
  xmlns="http://www.w3.org/2000/svg"
  width="48"
  height="48"
  viewBox="0 0 48 48"
>
  <path
    fill="#001E36"
    d="M11.083 4.5h25.834A7.077 7.077 0 0144 11.583v24.834a7.077 7.077 0 01-7.083 7.083H11.083A7.077 7.077 0 014 36.417V11.583A7.077 7.077 0 0111.083 4.5z"
  />
  <path
    fill="#31A8FF"
    d="M18.033 32.067H8.517c-.167 0-.234-.1-.234-.3V14.733c0-.166.067-.233.217-.233h2.95c.117 0 .167.067.167.183v14h6.933c.15 0 .2.084.167.234l-.434 2.9c-.016.1-.05.166-.1.2a.27.27 0 01-.15.05zm2.384-13.334h2.633c.15 0 .25.084.317.267.05.117.1.25.116.383.034.167.05.35.067.517.017.183.017.383.017.6a5.718 5.718 0 011.6-1.433 4.2 4.2 0 012.233-.6c.15 0 .217.083.217.233v3.25c0 .133-.084.183-.234.183a5.599 5.599 0 00-1.583.117c-.433.1-.85.25-1.25.45-.3.15-.583.367-.817.617v8.5c0 .166-.066.233-.2.233h-2.9c-.166 0-.233-.083-.233-.267V22.55c0-.4 0-.817-.017-1.25 0-.433-.016-.867-.033-1.3a12.38 12.38 0 00-.1-1.1c0-.05 0-.1.033-.15.05-.017.084-.033.134-.017zm19.017-2.466a4.23 4.23 0 00-1.117-.284c-.567-.066-1.134-.1-1.7-.1-1.634 0-3.067.35-4.25 1.034a7.175 7.175 0 00-2.767 2.916c-.65 1.234-.967 2.7-.967 4.334-.016.983.117 1.966.367 2.933a7.723 7.723 0 001.067 2.283c.45.65 1 1.2 1.633 1.65.633.45 1.35.8 2.117 1a9.213 9.213 0 002.433.334c.583 0 1.15-.034 1.717-.117a5.38 5.38 0 001.35-.333.448.448 0 00.25-.45v-2.484a.29.29 0 00-.084-.25c-.05-.033-.133-.083-.266.017a5.427 5.427 0 01-1.167.283c-.483.05-.967.067-1.45.067a4.9 4.9 0 01-1.3-.183c-.45-.117-.867-.3-1.267-.534a3.641 3.641 0 01-1.05-.966 5.074 5.074 0 01-.733-1.434 6.412 6.412 0 01-.267-1.95 6.126 6.126 0 01.55-2.666 4.185 4.185 0 011.567-1.75 4.62 4.62 0 012.433-.634c.517 0 1.05.034 1.567.134.417.066.817.2 1.2.4a.25.25 0 00.217 0c.066-.067.116-.15.1-.25v-2.6a.41.41 0 00-.183-.4z"
  />
</svg>
