<svg
  xmlns="http://www.w3.org/2000/svg"
  width="48"
  height="48"
  viewBox="0 0 48 48"
>
  <path
    fill="#001E36"
    d="M11.083 4.5h25.834A7.077 7.077 0 0144 11.583v24.834a7.077 7.077 0 01-7.083 7.083H11.083A7.077 7.077 0 014 36.417V11.583A7.077 7.077 0 0111.083 4.5z"
  />
  <path
    fill="#31A8FF"
    d="M25 32.05H14.433c-.183 0-.266-.1-.266-.3V14.727a.206.206 0 01.183-.233h3.333c.084-.017.184.05.184.133v14.041h7.7c.166 0 .216.084.183.233l-.483 2.899c0 .083-.05.15-.1.2-.05.033-.1.05-.167.05zm2.667-13.326h2.916c.167 0 .3.117.35.267.067.117.117.25.134.383a5.568 5.568 0 01.116 1.116 6.2 6.2 0 011.784-1.432 4.979 4.979 0 012.483-.6.207.207 0 01.233.183v3.315c0 .133-.083.183-.266.183a6.795 6.795 0 00-3.15.566c-.334.15-.65.35-.9.617v8.494c0 .167-.067.233-.217.233H27.9a.23.23 0 01-.267-.2v-9.294c0-.4 0-.816-.016-1.249-.017-.433-.017-.866-.034-1.299-.016-.367-.05-.733-.1-1.1a.154.154 0 01.117-.183c.017-.016.033-.016.067 0z"
  />
</svg>
