<svg
  xmlns="http://www.w3.org/2000/svg"
  width="48"
  height="48"
  viewBox="0 0 48 48"
>
  <path
    fill="#3ACE01"
    fill-rule="evenodd"
    d="M12.187 4h23.626C40.316 4 44 7.684 44 12.187v23.626C44 40.316 40.316 44 35.813 44H12.187C7.684 44 4 40.316 4 35.813V12.187C4 7.684 7.684 4 12.187 4z"
    clip-rule="evenodd"
  />
  <path
    fill="#fff"
    fill-rule="evenodd"
    d="M23.958 10.625c8.103 0 14.673 5.26 14.673 11.75 0 2.266-.803 4.382-2.19 6.177a3.053 3.053 0 01-.273.34l-.008.009c-.474.567-1.009 1.1-1.596 1.592-4.057 3.75-10.736 8.215-11.617 7.526-.767-.599 1.262-3.527-1.078-4.015a18.331 18.331 0 01-.488-.061h-.003c-6.873-.977-12.093-5.785-12.093-11.569 0-6.489 6.57-11.75 14.673-11.75z"
    clip-rule="evenodd"
  />
  <path
    fill="#3ACE01"
    fill-rule="evenodd"
    d="M15.445 26.122h2.959a.768.768 0 00.765-.766v-.063a.767.767 0 00-.765-.766h-2.13v-4.846a.767.767 0 00-.765-.765h-.064a.767.767 0 00-.765.765v5.675c0 .421.344.766.765.766zm18.337-3.558V22.5a.767.767 0 00-.765-.765h-2.13v-1.212h2.13c.42 0 .765-.344.765-.765v-.063a.768.768 0 00-.765-.766h-2.96a.767.767 0 00-.765.766v5.675c0 .42.344.765.765.765h2.96c.42 0 .765-.344.765-.765v-.064a.767.767 0 00-.765-.765h-2.13v-1.212h2.13c.42 0 .765-.344.765-.765zm-5.691 3.33a.763.763 0 00.221-.537V19.68a.767.767 0 00-.765-.765h-.064a.767.767 0 00-.765.765v3.332l-2.766-3.71a.767.767 0 00-.664-.387h-.064a.767.767 0 00-.766.765v5.675c0 .421.345.766.766.766h.064c.42 0 .765-.345.765-.765v-3.394l2.786 3.805a.797.797 0 00.056.076.643.643 0 00.298.22.76.76 0 00.29.058h.064a.76.76 0 00.357-.09.537.537 0 00.187-.138zm-7.539.228h.064c.42 0 .765-.345.765-.766v-5.675a.767.767 0 00-.765-.765h-.064a.767.767 0 00-.765.765v5.675c0 .421.344.766.765.766z"
    clip-rule="evenodd"
  />
</svg>
