<svg
  xmlns="http://www.w3.org/2000/svg"
  width="48"
  height="48"
  viewBox="0 0 48 48"
>
  <path
    fill="#3ACE01"
    fill-rule="evenodd"
    d="M9.824 0h28.352C43.58 0 48 4.42 48 9.824v28.352C48 43.58 43.58 48 38.176 48H9.824C4.42 48 0 43.58 0 38.176V9.824C0 4.42 4.42 0 9.824 0z"
    clip-rule="evenodd"
  />
  <path
    fill="#fff"
    fill-rule="evenodd"
    d="M23.95 7.95c9.724 0 17.607 6.312 17.607 14.099 0 2.72-.963 5.26-2.629 7.413-.082.123-.19.258-.326.408l-.01.01c-.57.682-1.21 1.321-1.915 1.911-4.869 4.5-12.883 9.859-13.941 9.032-.92-.718 1.514-4.233-1.294-4.818a22.194 22.194 0 01-.585-.074h-.004c-8.247-1.172-14.51-6.941-14.51-13.882 0-7.787 7.882-14.1 17.607-14.1z"
    clip-rule="evenodd"
  />
  <path
    fill="#3ACE01"
    fill-rule="evenodd"
    d="M13.734 26.546h3.55a.921.921 0 00.92-.918v-.077a.92.92 0 00-.92-.918H14.73v-5.816a.92.92 0 00-.919-.918h-.076a.92.92 0 00-.918.918v6.81c0 .506.413.92.918.92zm22.004-4.269v-.076a.921.921 0 00-.918-.919h-2.556v-1.454h2.556a.921.921 0 00.918-.918v-.077a.921.921 0 00-.918-.918h-3.551a.92.92 0 00-.918.918v6.811a.92.92 0 00.918.918h3.55a.921.921 0 00.92-.918v-.077a.921.921 0 00-.92-.918h-2.555v-1.454h2.556a.92.92 0 00.918-.918zm-6.829 3.995a.916.916 0 00.266-.644v-6.81a.92.92 0 00-.919-.92h-.076a.921.921 0 00-.918.92v3.997l-3.32-4.452a.92.92 0 00-.797-.464h-.076a.921.921 0 00-.919.918v6.81a.92.92 0 00.919.92h.076a.921.921 0 00.918-.92v-4.072l3.343 4.566c.02.032.043.063.068.092a.771.771 0 00.357.264.91.91 0 00.349.07h.076a.91.91 0 00.43-.108.644.644 0 00.223-.167zm-9.046.274h.076a.921.921 0 00.918-.918v-6.81a.92.92 0 00-.918-.92h-.076a.921.921 0 00-.919.92v6.81a.92.92 0 00.919.918z"
    clip-rule="evenodd"
  />
</svg>
