<svg
  xmlns="http://www.w3.org/2000/svg"
  width="48"
  height="48"
  viewBox="0 0 48 48"
>
  <g clip-path="url(#medium__a)">
    <path
      fill="#12100E"
      d="M35.2 0H12.8C8.32 0 6.08 0 4.368.872A8 8 0 00.872 4.368C0 6.08 0 8.32 0 12.8v22.4c0 4.48 0 6.72.872 8.432a8 8 0 003.496 3.496C6.08 48 8.32 48 12.8 48h22.4c4.48 0 6.72 0 8.432-.872a8 8 0 003.496-3.496C48 41.92 48 39.68 48 35.2V12.8c0-4.48 0-6.72-.872-8.432A8 8 0 0043.632.872C41.92 0 39.68 0 35.2 0z"
    />
    <path
      fill="#fff"
      d="M11.454 16.053c.04-.396-.11-.787-.406-1.053l-3.01-3.627v-.542h9.348l7.226 15.847 6.353-15.847h8.912v.542l-2.574 2.468a.752.752 0 00-.286.722v18.135a.752.752 0 00.286.723l2.514 2.468v.542H27.17v-.542l2.605-2.528c.256-.256.256-.331.256-.723V17.98L22.79 36.37h-.978l-8.43-18.39v12.325a1.7 1.7 0 00.466 1.415l3.387 4.109v.542H7.631v-.542l3.387-4.109c.362-.375.524-.9.436-1.415V16.053z"
    />
  </g>
  <defs>
    <clipPath id="medium__a">
      <path fill="#fff" d="M0 0h48v48H0z" />
    </clipPath>
  </defs>
</svg>
