<svg
  xmlns="http://www.w3.org/2000/svg"
  width="48"
  height="48"
  viewBox="0 0 48 48"
>
  <path fill="#12100E" d="M44 4H4v40h40V4z" />
  <path
    fill="#fff"
    d="M13.546 17.378a1.04 1.04 0 00-.34-.878l-2.508-3.023v-.451h7.79l6.022 13.206 5.294-13.206h7.427v.451l-2.145 2.057a.627.627 0 00-.239.602v15.113a.627.627 0 00.239.602l2.095 2.056v.452H26.643v-.452l2.17-2.106c.213-.214.213-.276.213-.602V18.983l-6.034 15.326h-.816l-7.025-15.326v10.271a1.42 1.42 0 00.39 1.18l2.822 3.423v.452h-8.004v-.452l2.823-3.424a1.37 1.37 0 00.364-1.178V17.377z"
  />
</svg>
