<svg
  xmlns="http://www.w3.org/2000/svg"
  width="48"
  height="48"
  viewBox="0 0 48 48"
>
  <path
    fill="#fff"
    d="M35.2 0H12.8C8.32 0 6.08 0 4.368.872A8 8 0 00.872 4.368C0 6.08 0 8.32 0 12.8v22.4c0 4.48 0 6.72.872 8.432a8 8 0 003.496 3.496C6.08 48 8.32 48 12.8 48h22.4c4.48 0 6.72 0 8.432-.872a8 8 0 003.496-3.496C48 41.92 48 39.68 48 35.2V12.8c0-4.48 0-6.72-.872-8.432A8 8 0 0043.632.872C41.92 0 39.68 0 35.2 0z"
  />
  <path
    fill="url(#messenger__a)"
    fill-rule="evenodd"
    d="M24 5C13.296 5 5 12.84 5 23.43c0 5.54 2.27 10.327 5.968 13.633.31.28.497.666.512 1.082l.103 3.38a1.523 1.523 0 002.133 1.346l3.77-1.663a1.516 1.516 0 011.013-.077 20.66 20.66 0 005.501.73c10.705 0 19-7.84 19-18.43S34.706 5 24 5z"
    clip-rule="evenodd"
  />
  <path
    fill="#fff"
    fill-rule="evenodd"
    d="M12.592 28.821l5.582-8.854a2.853 2.853 0 014.121-.76l4.439 3.329a1.14 1.14 0 001.372-.004l5.994-4.55c.8-.607 1.847.353 1.308 1.201l-5.578 8.85a2.853 2.853 0 01-4.12.761l-4.44-3.33a1.141 1.141 0 00-1.372.004L13.9 30.021c-.8.608-1.847-.351-1.308-1.2z"
    clip-rule="evenodd"
  />
  <defs>
    <linearGradient
      id="messenger__a"
      x1="24"
      x2="24"
      y1="5"
      y2="43"
      gradientUnits="userSpaceOnUse"
    >
      <stop stop-color="#00B2FF" />
      <stop offset="1" stop-color="#006AFF" />
    </linearGradient>
  </defs>
</svg>
