<svg
  xmlns="http://www.w3.org/2000/svg"
  width="48"
  height="48"
  viewBox="0 0 48 48"
>
  <path
    fill="#fff"
    d="M35.2 0H12.8C8.32 0 6.08 0 4.368.872A8 8 0 00.872 4.368C0 6.08 0 8.32 0 12.8v22.4c0 4.48 0 6.72.872 8.432a8 8 0 003.496 3.496C6.08 48 8.32 48 12.8 48h22.4c4.48 0 6.72 0 8.432-.872a8 8 0 003.496-3.496C48 41.92 48 39.68 48 35.2V12.8c0-4.48 0-6.72-.872-8.432A8 8 0 0043.632.872C41.92 0 39.68 0 35.2 0z"
  />
  <path fill="#F25022" d="M7 7h16.157v16.157H7V7z" />
  <path fill="#7FBA00" d="M24.843 7H41v16.157H24.843V7z" />
  <path fill="#00A4EF" d="M7 24.843h16.157V41H7V24.843z" />
  <path fill="#FFB900" d="M24.843 24.843H41V41H24.843V24.843z" />
</svg>
