<svg
  xmlns="http://www.w3.org/2000/svg"
  width="48"
  height="48"
  viewBox="0 0 48 48"
>
  <path
    fill="#fff"
    d="M35.2 0H12.8C8.32 0 6.08 0 4.368.872A8 8 0 00.872 4.368C0 6.08 0 8.32 0 12.8v22.4c0 4.48 0 6.72.872 8.432a8 8 0 003.496 3.496C6.08 48 8.32 48 12.8 48h22.4c4.48 0 6.72 0 8.432-.872a8 8 0 003.496-3.496C48 41.92 48 39.68 48 35.2V12.8c0-4.48 0-6.72-.872-8.432A8 8 0 0043.632.872C41.92 0 39.68 0 35.2 0z"
  />
  <path
    fill="#7B83EB"
    d="M25.125 18a5.25 5.25 0 100-10.5 5.25 5.25 0 000 10.5z"
  />
  <path
    d="M24.75 13.875h-4.755l.024.105.002.009.025.096a5.254 5.254 0 006.204 3.794v-2.504a1.504 1.504 0 00-1.5-1.5z"
    opacity=".1"
  />
  <path
    d="M23.625 15h-3.244a5.25 5.25 0 004.744 3v-1.5a1.505 1.505 0 00-1.5-1.5z"
    opacity=".2"
  />
  <path
    fill="#5059C9"
    d="M36.938 18.375a3.938 3.938 0 100-7.875 3.938 3.938 0 000 7.875zm3.375 1.125h-8.844a.72.72 0 00-.72.72v9.124a5.76 5.76 0 004.463 5.72A5.632 5.632 0 0042 29.554v-8.367a1.687 1.687 0 00-1.688-1.688z"
  />
  <path
    fill="#7B83EB"
    d="M34.125 21.187v10.688a8.994 8.994 0 01-16.785 4.5 8.067 8.067 0 01-.562-1.125 9.408 9.408 0 01-.372-1.125 9.272 9.272 0 01-.28-2.25V21.187a1.685 1.685 0 011.687-1.687h14.625a1.687 1.687 0 011.687 1.687z"
  />
  <path
    d="M23.625 15h-3.244a5.25 5.25 0 004.744 3v-1.5a1.505 1.505 0 00-1.5-1.5z"
    opacity=".2"
  />
  <path
    d="M26.25 19.5v14.254a1.485 1.485 0 01-1.17 1.45 1.085 1.085 0 01-.326.046h-7.976a9.396 9.396 0 01-.372-1.125 9.272 9.272 0 01-.28-2.25V21.187a1.685 1.685 0 011.687-1.687h8.437z"
    opacity=".1"
  />
  <path
    d="M25.125 19.5v15.379c.002.11-.014.22-.045.326a1.484 1.484 0 01-1.451 1.17H17.34a8.061 8.061 0 01-.562-1.125 9.4 9.4 0 01-.372-1.125 9.273 9.273 0 01-.28-2.25V21.187a1.685 1.685 0 011.687-1.687h7.312z"
    opacity=".2"
  />
  <path
    d="M25.125 19.5v13.129a1.502 1.502 0 01-1.496 1.496h-7.223a9.272 9.272 0 01-.28-2.25V21.187a1.686 1.686 0 011.687-1.687h7.312z"
    opacity=".2"
  />
  <path
    d="M17.813 19.5a1.687 1.687 0 00-1.688 1.688v10.687c.001.759.096 1.514.281 2.25h6.098A1.503 1.503 0 0024 32.629v-13.13h-6.187z"
    opacity=".2"
  />
  <path
    fill="#4B53BC"
    d="M7.5 15h15a1.5 1.5 0 011.5 1.5v15a1.5 1.5 0 01-1.5 1.5h-15A1.5 1.5 0 016 31.5v-15A1.5 1.5 0 017.5 15z"
  />
  <path
    fill="#fff"
    d="M19.477 20.597h-3.363v9.022h-2.208v-9.022h-3.383v-2.216h8.954v2.216z"
  />
</svg>
