<svg
  xmlns="http://www.w3.org/2000/svg"
  width="48"
  height="48"
  viewBox="0 0 48 48"
>
  <path
    fill="#7B83EB"
    d="M25.313 17a6.125 6.125 0 100-12.25 6.125 6.125 0 000 12.25z"
  />
  <path
    d="M24.875 12.188h-5.547l.027.122.003.01.029.113a6.131 6.131 0 007.238 4.426v-2.922a1.755 1.755 0 00-1.75-1.75z"
    opacity=".1"
  />
  <path
    d="M23.563 13.5h-3.785a6.125 6.125 0 005.535 3.5v-1.75a1.755 1.755 0 00-1.75-1.75z"
    opacity=".2"
  />
  <path
    fill="#5059C9"
    d="M39.094 17.438a4.594 4.594 0 100-9.188 4.594 4.594 0 000 9.188zm3.937 1.312H32.714a.84.84 0 00-.84.84v10.644a6.722 6.722 0 005.206 6.673A6.57 6.57 0 0045 30.481V20.72a1.969 1.969 0 00-1.969-1.969z"
  />
  <path
    fill="#7B83EB"
    d="M35.813 20.719v12.468a10.493 10.493 0 01-19.583 5.25 9.41 9.41 0 01-.656-1.312 10.983 10.983 0 01-.433-1.313 10.822 10.822 0 01-.328-2.625V20.72a1.967 1.967 0 011.968-1.97h17.063a1.967 1.967 0 011.969 1.97z"
  />
  <path
    d="M23.563 13.5h-3.785a6.125 6.125 0 005.535 3.5v-1.75a1.755 1.755 0 00-1.75-1.75z"
    opacity=".2"
  />
  <path
    d="M26.625 18.75v16.63a1.732 1.732 0 01-1.365 1.692 1.264 1.264 0 01-.38.053h-9.306a10.979 10.979 0 01-.433-1.313 10.82 10.82 0 01-.328-2.625V20.72a1.967 1.967 0 011.968-1.97h9.844z"
    opacity=".1"
  />
  <path
    d="M25.313 18.75v17.942a1.27 1.27 0 01-.053.38 1.733 1.733 0 01-1.693 1.365H16.23a9.41 9.41 0 01-.656-1.312 10.984 10.984 0 01-.433-1.313 10.82 10.82 0 01-.328-2.625V20.72a1.967 1.967 0 011.968-1.97h8.532z"
    opacity=".2"
  />
  <path
    d="M25.313 18.75v15.317a1.754 1.754 0 01-1.746 1.745H15.14a10.822 10.822 0 01-.328-2.624v-12.47a1.967 1.967 0 011.968-1.968h8.532z"
    opacity=".2"
  />
  <path
    d="M16.781 18.75a1.967 1.967 0 00-1.968 1.969v12.468c.001.886.111 1.767.328 2.626h7.114A1.754 1.754 0 0024 34.066V18.75h-7.219z"
    opacity=".2"
  />
  <path
    fill="#4B53BC"
    d="M4.75 13.5h17.5A1.75 1.75 0 0124 15.25v17.5a1.75 1.75 0 01-1.75 1.75H4.75A1.75 1.75 0 013 32.75v-17.5a1.75 1.75 0 011.75-1.75z"
  />
  <path
    fill="#fff"
    d="M18.724 20.03h-3.925v10.526h-2.575V20.03H8.276v-2.586h10.448v2.586z"
  />
</svg>
