<svg
  width="24"
  height="24"
  xmlns="http://www.w3.org/2000/svg"
  viewBox="0 0 24 24"
  fill="currentColor"
>
  <path d="M13.521 2.366a1 1 0 0 1 1.052-.326c4.334 1.259 7.522 5.065 7.425 9.794C21.992 17.543 17.186 22 11.448 22c-4.044 0-7.601-2.235-9.335-5.568a1 1 0 0 1 1.076-1.443c.935.18 1.76.334 2.566.334 4.805 0 8.55-3.73 8.55-8.176a7.967 7.967 0 0 0-.897-3.685 1 1 0 0 1 .113-1.096zm2.513 2.46c.177.745.27 1.522.27 2.321 0 5.613-4.703 10.176-10.55 10.176-.199 0-.398-.007-.595-.02C6.707 18.96 8.955 20 11.448 20c4.726 0 8.55-3.654 8.55-8.177v-.021c.065-2.98-1.515-5.538-3.964-6.975z" />
</svg>
