<svg
  xmlns="http://www.w3.org/2000/svg"
  width="48"
  height="48"
  viewBox="0 0 48 48"
>
  <path
    fill="#fff"
    d="M42 48H6a6 6 0 01-6-6V6a6 6 0 016-6h36a6 6 0 016 6v36a6 6 0 01-6 6z"
  />
  <path
    fill="#D7D7D7"
    d="M24 44.976a.272.272 0 100-.543.272.272 0 000 .543zm13.815 0a.272.272 0 100-.543.272.272 0 000 .543zm-27.63 0a.272.272 0 100-.543.272.272 0 000 .543zm6.908-6.891a.272.272 0 100-.543.272.272 0 000 .543zM24 31.163a.27.27 0 00.271-.272.27.27 0 10-.271.272zm6.907 6.922a.272.272 0 100-.543.272.272 0 000 .543zm6.908-6.922a.27.27 0 00.272-.272.27.27 0 10-.272.272zm6.906 6.922a.272.272 0 100-.543.272.272 0 000 .543zm-34.536-6.922a.27.27 0 00.271-.272.27.27 0 10-.271.272zm-6.906 6.922a.272.272 0 100-.543.272.272 0 000 .543zM17.093 24.27a.272.272 0 100-.543.272.272 0 000 .543zM24 17.349a.272.272 0 100-.543.272.272 0 000 .543zm6.907 6.921a.272.272 0 100-.543.272.272 0 000 .543zm6.908-6.921a.272.272 0 100-.543.272.272 0 000 .543zm6.906 6.921a.272.272 0 100-.543.272.272 0 000 .543zm-34.536-6.921a.272.272 0 100-.543.272.272 0 000 .543zM3.279 24.27a.272.272 0 100-.543.272.272 0 000 .543zm13.814-13.813a.272.272 0 100-.544.272.272 0 000 .543zM24 3.535a.272.272 0 100-.543.272.272 0 000 .541v.002zm6.907 6.92a.272.272 0 100-.543.272.272 0 000 .543zm6.908-6.92a.272.272 0 100-.543.272.272 0 000 .541v.002zm6.906 6.92a.272.272 0 100-.543.272.272 0 000 .543zm-34.536-6.92a.272.272 0 100-.545.272.272 0 000 .545zm-6.906 6.92a.272.272 0 100-.543.272.272 0 000 .543z"
  />
  <path d="M14.495 18.805h6.79v.54h-6.168v4.061h5.8v.54h-5.8v4.46h6.238v.54h-6.86v-10.14zm7.397 0h.722l3.197 4.46 3.268-4.46 4.444-5.665-7.302 10.593 3.762 5.212h-.75l-3.422-4.742-3.437 4.742h-.735l3.79-5.212-3.537-4.928zm8.361.54v-.54h7.737v.54h-3.565v9.6h-.621v-9.6h-3.55zM6 18.806h.779l10.727 16.053-4.434-5.912-6.421-9.374-.03 9.373H6v-10.14zm31.928 9.439a.22.22 0 01-.222-.227c0-.127.094-.225.221-.225.13 0 .223.098.223.225a.218.218 0 01-.222.225v.002zm.611-.596h.334c.004.18.135.303.33.303.215 0 .338-.13.338-.375v-1.545h.34v1.547c0 .439-.255.692-.675.692-.397 0-.667-.245-.667-.622zm1.785-.02h.337c.028.209.23.341.523.341.273 0 .473-.141.473-.336 0-.165-.128-.267-.417-.334l-.281-.07c-.396-.091-.576-.281-.576-.604 0-.39.318-.648.795-.648.444 0 .768.26.788.627h-.33c-.034-.201-.209-.327-.463-.327-.268 0-.447.129-.447.325 0 .157.116.247.401.313l.24.06c.449.104.633.284.633.614 0 .419-.324.681-.842.681-.484 0-.81-.25-.834-.642z" />
</svg>
