<svg
  xmlns="http://www.w3.org/2000/svg"
  width="48"
  height="48"
  viewBox="0 0 48 48"
>
  <path
    fill="#fff"
    d="M39 44H9a5 5 0 01-5-5V9a5 5 0 015-5h30a5 5 0 015 5v30a5 5 0 01-5 5z"
  />
  <path
    fill="#D7D7D7"
    d="M24 41.48a.226.226 0 100-.452.226.226 0 000 .452zm11.513 0a.226.226 0 100-.452.226.226 0 000 .452zm-23.025 0a.226.226 0 100-.452.226.226 0 000 .452zm5.756-5.742a.226.226 0 100-.452.226.226 0 000 .451zM24 29.967a.226.226 0 100-.451.226.226 0 000 .452zm5.756 5.77a.226.226 0 100-.452.226.226 0 000 .451zm5.757-5.77a.226.226 0 100-.451.226.226 0 000 .452zm5.755 5.77a.226.226 0 100-.452.226.226 0 000 .451zm-28.78-5.77a.226.226 0 100-.451.226.226 0 000 .452zm-5.755 5.77a.226.226 0 100-.452.226.226 0 000 .451zm11.51-11.513a.226.226 0 10.001-.452.226.226 0 000 .452zM24 18.457a.226.226 0 100-.451.226.226 0 000 .451zm5.756 5.768a.226.226 0 100-.452.226.226 0 000 .452zm5.757-5.768a.226.226 0 100-.451.226.226 0 000 .451zm5.755 5.768a.226.226 0 100-.452.226.226 0 000 .452zm-28.78-5.768a.226.226 0 100-.451.226.226 0 000 .451zm-5.755 5.768a.226.226 0 100-.452.226.226 0 000 .452zm11.51-11.511a.226.226 0 100-.453.226.226 0 000 .453zM24 6.946a.226.226 0 100-.452.226.226 0 000 .451v.001zm5.756 5.768a.226.226 0 100-.453.226.226 0 000 .453zm5.757-5.768a.226.226 0 100-.452.226.226 0 000 .451v.001zm5.755 5.768a.226.226 0 100-.453.226.226 0 000 .453zm-28.78-5.768a.227.227 0 100-.453.227.227 0 000 .453zm-5.755 5.768a.226.226 0 100-.453.226.226 0 000 .453z"
  />
  <path
    fill="#000"
    d="M16.079 19.671h5.659v.45h-5.14v3.384h4.833v.45h-4.834v3.716h5.2v.45h-5.718v-8.45zm6.165 0h.601l2.664 3.716 2.724-3.716 3.703-4.721-6.085 8.828 3.135 4.343h-.625L25.51 24.17l-2.864 3.952h-.613l3.16-4.343-2.948-4.107zm6.967.45v-.45h6.448v.45h-2.971v8h-.518v-8h-2.959zM9 19.671h.649l8.94 13.378-3.695-4.928-5.351-7.811-.025 7.811H9v-8.45zm26.606 7.865a.184.184 0 01-.185-.189c0-.106.079-.187.185-.187.108 0 .185.081.185.188a.181.181 0 01-.185.187v.001zm.51-.496h.278c.004.15.112.253.275.253.18 0 .282-.11.282-.313v-1.288h.283v1.29c0 .366-.213.577-.563.577-.33 0-.555-.205-.555-.519zm1.488-.016h.28c.023.174.192.284.436.284.227 0 .394-.118.394-.28 0-.138-.106-.223-.348-.28l-.233-.057c-.33-.076-.48-.235-.48-.503 0-.325.264-.54.662-.54.37 0 .64.216.656.522h-.275c-.027-.168-.173-.273-.385-.273-.224 0-.372.108-.372.272 0 .13.096.205.334.26l.2.05c.373.087.527.237.527.512 0 .349-.27.568-.701.568-.404 0-.675-.209-.695-.535z"
  />
</svg>
