<svg
  xmlns="http://www.w3.org/2000/svg"
  width="48"
  height="48"
  viewBox="0 0 48 48"
>
  <path
    fill="#fff"
    d="M35.2 0H12.8C8.32 0 6.08 0 4.368.872A8 8 0 00.872 4.368C0 6.08 0 8.32 0 12.8v22.4c0 4.48 0 6.72.872 8.432a8 8 0 003.496 3.496C6.08 48 8.32 48 12.8 48h22.4c4.48 0 6.72 0 8.432-.872a8 8 0 003.496-3.496C48 41.92 48 39.68 48 35.2V12.8c0-4.48 0-6.72-.872-8.432A8 8 0 0043.632.872C41.92 0 39.68 0 35.2 0z"
  />
  <path
    fill="url(#node-js__a)"
    d="M24.963 4.254a1.893 1.893 0 00-1.894 0L7.39 13.3a1.892 1.892 0 00-.947 1.64v18.11c0 .675.362 1.3.947 1.64l15.679 9.055a1.898 1.898 0 001.894 0l15.674-9.055c.587-.339.948-.964.948-1.64V14.94a1.9 1.9 0 00-.948-1.64L24.963 4.254z"
  />
  <path
    fill="url(#node-js__b)"
    d="M40.669 13.301L24.946 4.254a1.884 1.884 0 00-.492-.196L6.8 34.256c.153.171.331.32.529.435l15.75 9.055a1.912 1.912 0 001.462.184l16.55-30.305a2.096 2.096 0 00-.422-.325v.001z"
  />
  <path
    fill="url(#node-js__c)"
    d="M40.676 34.691c.458-.265.8-.704.928-1.205L24.369 4.041a1.918 1.918 0 00-1.333.213L7.42 13.248 24.29 43.98c.241-.032.476-.11.693-.235l15.694-9.055z"
  />
  <path fill="url(#node-js__d)" d="M42.139 34.4l-.104-.178v.238l.104-.06z" />
  <defs>
    <linearGradient
      id="node-js__a"
      x1="30.389"
      x2="16.224"
      y1="10.991"
      y2="39.887"
      gradientUnits="userSpaceOnUse"
    >
      <stop stop-color="#41873F" />
      <stop offset=".329" stop-color="#418B3D" />
      <stop offset=".635" stop-color="#419637" />
      <stop offset=".932" stop-color="#3FA92D" />
      <stop offset="1" stop-color="#3FAE2A" />
    </linearGradient>
    <linearGradient
      id="node-js__b"
      x1="21.628"
      x2="61.372"
      y1="26.114"
      y2="-3.251"
      gradientUnits="userSpaceOnUse"
    >
      <stop offset=".138" stop-color="#41873F" />
      <stop offset=".403" stop-color="#54A044" />
      <stop offset=".714" stop-color="#66B848" />
      <stop offset=".908" stop-color="#6CC04A" />
    </linearGradient>
    <linearGradient
      id="node-js__c"
      x1="5.889"
      x2="42.139"
      y1="23.992"
      y2="23.992"
      gradientUnits="userSpaceOnUse"
    >
      <stop offset=".092" stop-color="#6CC04A" />
      <stop offset=".286" stop-color="#66B848" />
      <stop offset=".597" stop-color="#54A044" />
      <stop offset=".862" stop-color="#41873F" />
    </linearGradient>
    <linearGradient
      id="node-js__d"
      x1="5.889"
      x2="42.139"
      y1="34.341"
      y2="34.341"
      gradientUnits="userSpaceOnUse"
    >
      <stop offset=".092" stop-color="#6CC04A" />
      <stop offset=".286" stop-color="#66B848" />
      <stop offset=".597" stop-color="#54A044" />
      <stop offset=".862" stop-color="#41873F" />
    </linearGradient>
  </defs>
</svg>
