<svg
  xmlns="http://www.w3.org/2000/svg"
  width="48"
  height="48"
  viewBox="0 0 48 48"
>
  <rect width="40" height="40" x="4" y="4" fill="#2F495E" rx="4" />
  <path
    fill="#00C58E"
    fill-rule="evenodd"
    d="M18.589 32.919l-.061-.125c-.125-.248-.125-.496-.062-.806h-6.704l9.931-17.627 4.158 7.51 1.365-.993-4.158-7.51c-.061-.124-.558-.868-1.366-.868-.371 0-.93.124-1.365.931L10.273 31.243c-.061.186-.496.993-.124 1.676.249.371.62.745 1.49.745h8.44c-.869 0-1.303-.374-1.49-.745z"
    clip-rule="evenodd"
  />
  <path
    fill="#108775"
    fill-rule="evenodd"
    d="M37.705 31.305l-8.069-14.523c-.123-.124-.558-.93-1.364-.93-.373 0-.931.185-1.366.93L25.85 18.52v3.351l2.42-4.158 8.007 14.275h-3.042c.052.295.009.599-.123.868l-.063.063c-.372.682-1.303.745-1.427.745h4.716c.187 0 1.056-.063 1.49-.745.186-.31.31-.87-.124-1.614z"
    clip-rule="evenodd"
  />
  <path
    fill="#fff"
    d="M33.299 32.919v-.063l.061-.124c.063-.248.125-.496.063-.745l-.248-.744-6.33-11.048-.932-1.675h-.062l-.93 1.675-6.332 11.048-.248.745c-.06.315-.018.641.123.93.249.372.621.746 1.49.746h11.792c.186 0 1.117-.063 1.551-.745h.002zM25.851 21.87l5.772 10.117H20.079l5.772-10.117z"
  />
</svg>
