<svg
  xmlns="http://www.w3.org/2000/svg"
  width="48"
  height="48"
  viewBox="0 0 48 48"
>
  <path
    fill="#00C58E"
    fill-rule="evenodd"
    d="M15.915 38.775l-.092-.187c-.186-.371-.186-.742-.092-1.207H5.693l14.87-26.39 6.225 11.244 2.043-1.487-6.225-11.243c-.092-.187-.836-1.3-2.045-1.3-.556 0-1.392.184-2.043 1.393L3.465 36.265c-.092.28-.743 1.487-.187 2.51.373.556.93 1.115 2.232 1.115h12.636c-1.3 0-1.951-.559-2.231-1.115z"
    clip-rule="evenodd"
  />
  <path
    fill="#108775"
    fill-rule="evenodd"
    d="M44.535 36.358l-12.08-21.742c-.185-.187-.836-1.394-2.043-1.394-.558 0-1.394.278-2.045 1.394l-1.58 2.601v5.018l3.625-6.226 11.987 21.372h-4.555c.078.442.013.896-.184 1.3l-.094.094c-.556 1.02-1.95 1.115-2.137 1.115h7.061c.28 0 1.58-.094 2.232-1.115.278-.465.464-1.302-.187-2.416z"
    clip-rule="evenodd"
  />
  <path
    fill="#fff"
    d="M37.939 38.775v-.093l.092-.187c.093-.371.186-.743.093-1.115l-.372-1.115-9.477-16.54-1.394-2.508h-.093l-1.394 2.508-9.479 16.54-.371 1.116c-.091.472-.027.96.185 1.394.371.556.929 1.115 2.23 1.115h17.654c.28 0 1.673-.094 2.323-1.115h.003zm-11.151-16.54l8.641 15.146H18.146l8.642-15.146z"
  />
</svg>
