<svg
  xmlns="http://www.w3.org/2000/svg"
  width="48"
  height="48"
  viewBox="0 0 48 48"
>
  <rect width="48" height="48" fill="#2F495E" rx="8" />
  <path
    fill="#00C58E"
    fill-rule="evenodd"
    d="M17.507 34.703l-.074-.15c-.15-.298-.15-.595-.073-.968H9.314l11.918-21.152 4.99 9.012 1.637-1.191-4.99-9.012c-.073-.149-.67-1.042-1.638-1.042-.446 0-1.116.148-1.638 1.117L7.528 32.691c-.074.224-.596 1.192-.15 2.011.3.447.745.895 1.789.895h10.128c-1.042 0-1.564-.449-1.788-.895z"
    clip-rule="evenodd"
  />
  <path
    fill="#108775"
    fill-rule="evenodd"
    d="M40.446 32.766l-9.682-17.427c-.149-.15-.67-1.117-1.638-1.117-.447 0-1.117.223-1.64 1.117l-1.265 2.085v4.021l2.905-4.989 9.607 17.13h-3.65c.062.354.01.718-.147 1.04l-.076.076c-.446.819-1.563.895-1.713.895h5.66c.224 0 1.267-.076 1.788-.895.223-.372.373-1.043-.149-1.936z"
    clip-rule="evenodd"
  />
  <path
    fill="#fff"
    d="M35.159 34.703v-.075l.073-.15c.075-.297.15-.595.075-.894l-.298-.893-7.596-13.257-1.117-2.01h-.075l-1.117 2.01-7.597 13.257-.298.894a1.78 1.78 0 00.148 1.117c.298.447.745.895 1.789.895h14.149c.224 0 1.341-.076 1.862-.895h.002zM26.22 21.446l6.926 12.14H19.295l6.926-12.14z"
  />
</svg>
