<svg
  xmlns="http://www.w3.org/2000/svg"
  width="48"
  height="48"
  viewBox="0 0 48 48"
>
  <ellipse cx="24.534" cy="40.227" fill="#9CDAF0" rx="13.791" ry="4.773" />
  <path
    fill="#7CBAE6"
    d="M20.88 44.83a33.207 33.207 0 01-2.37-.308v-2.348c0-1.37-1.097-2.063-1.646-2.238.12-.395.724-1.027 2.173-.395 1.81.79 1.843 1.843 1.843 2.403v2.887zm3.226.168a38.957 38.957 0 01-2.494-.105c.075-2.166-.277-3.087-.469-3.279.22-.416.863-1.171 1.679-.855 1.02.395 1.284 1.777 1.284 2.37v1.869zm3.144-.091a39.23 39.23 0 01-2.387.092V43.16c0-.526.164-2.106 1.35-2.37.947-.21 1.316.505 1.382.89-.11.23-.33.928-.33 1.876 0 .531-.006.998-.014 1.35zm3.077-.347c-.726.116-1.485.211-2.272.283v-2.208c0-1.12.132-2.666 2.008-3.028 1.501-.29 1.942-.033 1.975.131a.457.457 0 01-.362.395c-.329.066-1.35.659-1.35 2.074v2.353z"
  />
  <path
    fill="#201F1F"
    d="M14.823 32.525c1.633.421 3.314.088 3.95-.132l1.02-3.39c-.394.351-1.573 1.113-3.126 1.35-1.942.296-3.292-1.087-3.49-1.284-.197-.197-1.183-1.602-1.974-2.337-.922-.856-2.666-.823-2.864-.494-.197.33.226.665 1.152 1.152 1.25.659 1.745 1.877 2.206 2.666.46.79 1.086 1.942 3.126 2.47z"
  />
  <path
    fill="#9CDAF0"
    fill-rule="evenodd"
    d="M10.617 26.858c-.04.13-.203.195-.363.145-.16-.05-.256-.195-.216-.325.04-.13.203-.195.363-.145.16.05.257.195.216.325zm-2.212 1.586c.026-.21.263-.944.395-1.284.142.428.421 1.343.395 1.58-.033.296-.264.46-.527.362-.263-.099-.296-.395-.263-.658zm2.618-.876c.155.112.345.114.426.003.08-.11.02-.292-.134-.405-.155-.112-.346-.114-.427-.003-.08.11-.02.292.135.405zm1.232 1.107c-.114.096-.323.035-.465-.135-.142-.17-.165-.387-.05-.483.115-.095.323-.035.466.136.142.17.164.386.05.482zm.39.918c.143.17.351.231.466.135.115-.096.093-.311-.05-.482-.142-.17-.35-.231-.465-.135-.115.095-.093.311.05.482zm1.651 1.053c-.089.12-.305.11-.484-.021-.179-.132-.252-.337-.163-.457s.306-.11.484.021c.179.132.252.337.163.457zm.99.468c.22.034.417-.058.44-.206.022-.148-.137-.295-.356-.33-.22-.033-.416.059-.44.207-.022.147.137.295.357.329zm2.065-.327c.015.148-.152.287-.373.31-.22.022-.412-.08-.427-.23-.015-.148.152-.287.373-.309.22-.023.412.08.427.229zm1.147-.007c.221-.023.388-.161.373-.31-.015-.149-.206-.251-.427-.229-.221.023-.388.162-.373.31.015.149.206.251.427.229z"
    clip-rule="evenodd"
  />
  <path
    fill="#201F1F"
    d="M20.88 31.965c0-1.29.505-1.678.757-1.711a89.846 89.846 0 00-.033 1.942v7.274c0 .922-.724 1.185-.889 1.317-.164.132-.46 1.053.692.922 1.151-.132 1.876-.856 2.205-1.284.329-.428.494-1.086.494-1.679v-8.558c0-.362.032-.592.296-.592.263 0 .362.329.362.592v7.867c0 .856-.033 1.81.494 2.468.524.656 1.18.887 1.737 1.084l.007.003c.56.197 1.25.066 1.284-.297.033-.362-.198-.56-.593-.888-.395-.33-.428-.988-.428-1.185v-8.92c.428 0 .758 1.48.758 2.008v5.266c0 1.448 1.678 2.107 2.567 2.271.889.165 1.547.099 1.547-.263s-.33-.494-.823-.79c-.494-.296-.954-1.086-.954-1.646 0-.56-.066-4.575-.066-6.616a4.375 4.375 0 00-2.206-3.85c-.954-.528-4.772-.429-6.912 0-2.14.427-2.633 3.356-2.633 4.245v5.793c0 .691.033.56-.23 1.317-.264.757-1.284.987-1.548 1.218-.263.23-.032.625.264.658.296.033 1.613.132 2.666-.527 1.053-.658 1.185-1.777 1.185-2.205v-5.233z"
  />
  <path d="M19.493 27.862c.432-.174 1.318-.417 2.539-.439.31-.005.646-.017.996-.029 1.699-.057 3.744-.127 4.863.391 1.252.58 1.824 1.076 2.4 2.59a4.371 4.371 0 00-2.203-3.676c-.954-.527-4.773-.428-6.912 0-.744.149-1.289.6-1.683 1.163z" />
  <path
    fill-rule="evenodd"
    d="M11.433 6.16c-.053 1.606.33 2.71.527 3.061-2.238 2.205-2.403 5.3-2.403 5.99l-.004.215c-.017.697-.062 2.5.459 4.388-2.291.049-4.969.232-7.037.702l.044.193c2.068-.47 4.756-.652 7.049-.698.108.365.239.733.395 1.095-2.445.226-5.305.635-7.3 1.322l.064.187c1.994-.686 4.871-1.095 7.32-1.319a7.353 7.353 0 001.314 1.98c2.633 2.798 5.892 3.686 12.738 3.686 6.847 0 9.908-1.086 11.751-2.962.818-.832 1.357-1.658 1.724-2.707 2.407.184 5.343.576 7.728 1.338l.06-.188c-2.386-.763-5.314-1.157-7.723-1.343.106-.332.197-.686.275-1.069a88.23 88.23 0 012.112.081c2.106.108 4.192.305 5.445.644l.051-.19c-1.275-.346-3.38-.543-5.486-.651a86.178 86.178 0 00-2.083-.08c.201-1.066.313-2.354.399-3.998.184-3.555-1.745-6.177-2.732-7.044.526-1.119.56-3.752-.395-5.793-2.633.099-4.905 1.514-6.155 2.304-5.88-1.188-9.472-.267-10.832.082a33.61 33.61 0 01-.195.05c-3.107-2.239-5.53-2.535-6.353-2.403-.23.373-.704 1.52-.757 3.127z"
    clip-rule="evenodd"
  />
  <path
    fill="#F4CAB1"
    d="M33.19 14.981c-1.58-1.448-6.385-.527-9.018-.592-.867 0-3.18-.046-5.497-.23-2.897-.231-5.431 2.106-5.431 5.167s1.711 4.806 3.884 5.694c2.172.89 7.471 1.152 11.684.724 4.214-.427 5.63-2.007 6.353-4.674.724-2.666-.395-4.64-1.975-6.089z"
  />
  <path
    fill="#C49B86"
    fill-rule="evenodd"
    d="M26.79 14.284c2.464-.16 5.265-.344 6.4.697 1.299 1.19 2.286 2.737 2.195 4.73-.083-1.75-1.009-3.134-2.195-4.22-1.135-1.042-3.936-.859-6.4-.698-.964.064-1.877.123-2.618.105-.867 0-3.18-.046-5.497-.23-2.824-.225-5.304 1.99-5.427 4.937a8.005 8.005 0 01-.004-.279c0-3.061 2.534-5.398 5.43-5.168 2.318.185 4.63.23 5.498.23.74.02 1.654-.04 2.618-.104z"
    clip-rule="evenodd"
  />
  <path
    fill="#fff"
    fill-rule="evenodd"
    d="M18.444 22.683c1.382 0 2.206-1.488 2.206-3.324 0-1.836-1.12-3.259-2.206-3.259-1.381 0-2.37 1.423-2.37 3.259 0 1.836.989 3.324 2.37 3.324zm12.294.132c1.371 0 2.189-1.518 2.189-3.39 0-1.874-1.111-3.325-2.19-3.325-1.371 0-2.352 1.451-2.352 3.324 0 1.873.98 3.391 2.352 3.391z"
    clip-rule="evenodd"
  />
  <path
    fill="#AC5C51"
    fill-rule="evenodd"
    d="M18.576 21.828c.909 0 1.646-1.032 1.646-2.305 0-1.272-.737-2.304-1.646-2.304-.91 0-1.646 1.032-1.646 2.304 0 1.273.737 2.305 1.646 2.305zm11.816-.198c.891 0 1.613-.987 1.613-2.205s-.722-2.206-1.613-2.206c-.89 0-1.612.988-1.612 2.206s.722 2.205 1.612 2.205zm-5.43.724a.592.592 0 11-1.186 0 .592.592 0 011.185 0zm-1.625 1.283a.197.197 0 10-.372.134c.062.172.215.407.439.602.226.198.54.368.924.384.786.031 1.2-.614 1.338-.902a.197.197 0 10-.356-.17c-.125.26-.435.699-.966.677a1.099 1.099 0 01-.68-.286 1.201 1.201 0 01-.327-.44z"
    clip-rule="evenodd"
  />
  <circle cx="17.884" cy="18.371" r=".427" fill="#fff" />
  <circle cx="29.865" cy="18.371" r=".427" fill="#fff" />
</svg>
