<svg
  xmlns="http://www.w3.org/2000/svg"
  width="48"
  height="48"
  viewBox="0 0 48 48"
>
  <rect width="48" height="48" fill="#fff" rx="8" />
  <ellipse cx="24.53" cy="38.703" fill="#9CDAF0" rx="12.496" ry="4.324" />
  <path
    fill="#7CBAE6"
    d="M21.22 42.873a30.095 30.095 0 01-2.147-.28v-2.127c0-1.24-.994-1.868-1.492-2.028.11-.357.657-.93 1.969-.357 1.64.715 1.67 1.67 1.67 2.177v2.615zm2.922.152a35.429 35.429 0 01-2.258-.095c.067-1.963-.252-2.797-.425-2.97.198-.378.78-1.062 1.52-.776.925.358 1.163 1.61 1.163 2.147v1.694zm2.85-.082c-.702.049-1.425.077-2.164.083V41.36c0-.477.15-1.908 1.223-2.147.86-.19 1.193.457 1.253.805-.1.209-.298.841-.298 1.7 0 .482-.007.905-.014 1.224zm2.787-.315a30.5 30.5 0 01-2.058.257v-2.001c0-1.014.12-2.416 1.82-2.744 1.36-.262 1.759-.03 1.789.12a.416.416 0 01-.328.358c-.299.06-1.223.596-1.223 1.878v2.132z"
  />
  <path
    fill="#201F1F"
    d="M15.732 31.724c1.48.382 3.003.08 3.58-.12l.924-3.07c-.358.317-1.426 1.007-2.834 1.222-1.759.268-2.982-.984-3.16-1.163-.18-.18-1.073-1.452-1.79-2.118-.835-.775-2.416-.745-2.595-.447-.179.298.206.602 1.044 1.044 1.133.596 1.58 1.7 1.998 2.415.418.716.984 1.76 2.834 2.237z"
  />
  <path
    fill="#9CDAF0"
    fill-rule="evenodd"
    d="M11.921 26.59c-.036.117-.183.176-.328.131-.145-.045-.233-.177-.196-.295.036-.117.184-.176.328-.131.145.045.233.177.196.294zm-2.004 1.436c.024-.19.239-.855.358-1.163.129.388.381 1.217.358 1.431-.03.269-.239.418-.477.328-.24-.089-.269-.357-.24-.596zm2.372-.793c.14.102.313.103.386.003.073-.1.019-.265-.122-.367-.14-.102-.313-.104-.386-.003-.073.1-.019.264.122.367zm1.117 1.003c-.104.087-.293.032-.422-.123-.129-.154-.15-.35-.045-.437.104-.087.293-.032.421.123.13.154.15.35.046.437zm.353.831c.13.155.318.21.422.123.104-.087.084-.282-.045-.437-.13-.154-.318-.21-.422-.122-.104.086-.084.282.045.436zm1.496.954c-.08.11-.277.1-.44-.019-.161-.12-.227-.304-.147-.413.08-.11.277-.1.44.019.161.12.227.304.147.413zm.897.424c.2.031.377-.052.398-.186.02-.134-.124-.267-.323-.298-.198-.031-.377.052-.397.186-.021.134.123.268.322.298zm1.87-.296c.014.135-.137.26-.337.28-.2.021-.374-.072-.387-.206-.014-.135.137-.26.337-.281.2-.02.374.072.388.207zm1.04-.006c.2-.02.351-.146.338-.28-.014-.136-.187-.228-.387-.208-.2.02-.352.146-.338.28.013.135.187.228.387.208z"
    clip-rule="evenodd"
  />
  <path
    fill="#201F1F"
    d="M21.22 31.217c0-1.169.457-1.52.686-1.55-.01.367-.03 1.234-.03 1.759v6.59c0 .836-.656 1.074-.805 1.194-.15.119-.418.954.626.835 1.044-.12 1.7-.776 1.998-1.163.298-.388.447-.985.447-1.521v-7.754c0-.328.03-.537.269-.537.238 0 .328.298.328.537v7.127c0 .776-.03 1.64.447 2.237.476.594 1.069.804 1.575.982l.006.002c.507.18 1.133.06 1.163-.268.03-.328-.179-.507-.537-.805-.358-.299-.388-.895-.388-1.074v-8.082c.388 0 .686 1.342.686 1.82v4.77c0 1.313 1.521 1.91 2.326 2.059.806.149 1.402.089 1.402-.239 0-.328-.298-.447-.745-.716-.448-.268-.865-.984-.865-1.49 0-.508-.06-4.146-.06-5.995a3.966 3.966 0 00-1.998-3.49c-.865-.477-4.324-.387-6.263 0-1.938.388-2.386 3.042-2.386 3.848v5.248c0 .627.03.507-.208 1.193-.239.686-1.163.895-1.402 1.104-.239.209-.03.566.239.596.268.03 1.46.12 2.415-.477.954-.596 1.074-1.61 1.074-1.998v-4.742z"
  />
  <path d="M19.963 27.499c.391-.158 1.194-.377 2.3-.397.281-.006.586-.016.903-.027 1.54-.052 3.393-.115 4.406.355 1.134.525 1.653.974 2.174 2.346a3.961 3.961 0 00-1.995-3.33c-.865-.478-4.324-.388-6.263 0-.674.134-1.168.543-1.525 1.053z" />
  <path
    fill-rule="evenodd"
    d="M12.66 7.836c-.047 1.455.299 2.455.478 2.774-2.028 1.998-2.177 4.801-2.177 5.427l-.004.195c-.016.631-.056 2.265.416 3.976-2.076.044-4.502.21-6.376.636l.04.174c1.873-.426 4.31-.59 6.387-.633.098.332.216.665.358.993-2.216.204-4.807.576-6.615 1.198l.058.17c1.807-.623 4.414-.993 6.633-1.196a6.679 6.679 0 001.19 1.794c2.386 2.535 5.339 3.34 11.542 3.34 6.203 0 8.976-.984 10.647-2.684.74-.754 1.229-1.502 1.561-2.453 2.181.167 4.842.522 7.002 1.213l.055-.17c-2.162-.692-4.815-1.05-6.998-1.218.097-.3.18-.62.25-.968.62.017 1.267.04 1.913.073 1.908.098 3.798.277 4.933.584l.047-.173c-1.156-.313-3.063-.492-4.97-.59a78.166 78.166 0 00-1.888-.072c.182-.965.284-2.132.361-3.622.167-3.22-1.58-5.597-2.475-6.382.477-1.014.507-3.4-.358-5.249-2.386.09-4.444 1.372-5.577 2.088-5.327-1.077-8.581-.242-9.814.074l-.177.045c-2.815-2.028-5.01-2.296-5.755-2.177-.21.338-.638 1.378-.686 2.833z"
    clip-rule="evenodd"
  />
  <path
    fill="#F4CAB1"
    d="M32.374 15.829c-1.432-1.313-5.786-.478-8.172-.537-.785 0-2.88-.042-4.98-.209-2.625-.209-4.921 1.909-4.921 4.682 0 2.774 1.55 4.354 3.52 5.16 1.967.805 6.769 1.043 10.586.656 3.817-.388 5.1-1.82 5.756-4.235.656-2.416-.358-4.205-1.79-5.517z"
  />
  <path
    fill="#C49B86"
    fill-rule="evenodd"
    d="M26.575 15.197c2.232-.145 4.77-.311 5.799.632 1.176 1.078 2.07 2.479 1.988 4.285-.075-1.586-.914-2.84-1.988-3.824-1.029-.943-3.567-.777-5.8-.632-.873.058-1.7.112-2.372.095-.785 0-2.88-.042-4.98-.209-2.558-.203-4.805 1.803-4.917 4.474a7.236 7.236 0 01-.004-.253c0-2.773 2.296-4.89 4.92-4.682 2.1.167 4.196.209 4.981.209.672.017 1.499-.037 2.373-.095z"
    clip-rule="evenodd"
  />
  <path
    fill="#fff"
    fill-rule="evenodd"
    d="M19.013 22.807c1.252 0 1.998-1.348 1.998-3.012s-1.014-2.953-1.998-2.953c-1.252 0-2.147 1.29-2.147 2.953 0 1.663.895 3.012 2.147 3.012zm11.138.12c1.243 0 1.984-1.376 1.984-3.073s-1.007-3.011-1.984-3.011c-1.242 0-2.131 1.314-2.131 3.011s.889 3.072 2.131 3.072z"
    clip-rule="evenodd"
  />
  <path
    fill="#AC5C51"
    fill-rule="evenodd"
    d="M19.132 22.032c.824 0 1.491-.935 1.491-2.088s-.667-2.087-1.49-2.087c-.824 0-1.492.934-1.492 2.087s.668 2.088 1.491 2.088zm10.707-.18c.807 0 1.461-.894 1.461-1.997 0-1.104-.654-1.998-1.461-1.998s-1.462.894-1.462 1.998c0 1.103.655 1.998 1.462 1.998zm-4.921.657a.537.537 0 11-1.074 0 .537.537 0 011.074 0zm-1.472 1.162a.179.179 0 10-.337.121c.057.157.195.37.398.546.205.18.488.334.837.348.712.028 1.087-.557 1.212-.817a.179.179 0 00-.322-.155c-.114.236-.395.633-.876.614a.996.996 0 01-.616-.26 1.089 1.089 0 01-.296-.397z"
    clip-rule="evenodd"
  />
  <circle cx="18.506" cy="18.9" r=".387" fill="#fff" />
  <circle cx="29.361" cy="18.9" r=".387" fill="#fff" />
</svg>
