<svg
  xmlns="http://www.w3.org/2000/svg"
  width="48"
  height="48"
  viewBox="0 0 48 48"
>
  <path
    fill="#CA64EA"
    d="M35.233 43.5H14.556c-.988 0-1.788-.8-1.788-1.785V6.285c0-.986.8-1.785 1.788-1.785h28.656c.987 0 1.788.8 1.788 1.785v7.965L35.233 43.5z"
  />
  <path fill="#AE4BD5" d="M45 24l-4.884 2.925L35.233 24v-9.75H45V24z" />
  <path fill="#9332BF" d="M45 33.75l-4.884 2.925-4.883-2.925V24H45v9.75z" />
  <path
    fill="#7719AA"
    d="M35.233 33.75H45v7.922a1.83 1.83 0 01-1.831 1.828h-7.936v-9.75z"
  />
  <path
    d="M24.651 12.3H12.768v24.375H24.65a1.795 1.795 0 001.79-1.787v-20.8a1.795 1.795 0 00-1.79-1.788z"
    opacity=".2"
  />
  <path
    d="M23.675 13.275H12.767V37.65h10.908a1.795 1.795 0 001.79-1.787v-20.8a1.795 1.795 0 00-1.79-1.788z"
    opacity=".2"
  />
  <path
    d="M23.675 13.275H12.767V35.7h10.908a1.795 1.795 0 001.79-1.787v-18.85a1.795 1.795 0 00-1.79-1.788z"
    opacity=".5"
  />
  <path
    d="M22.698 13.275h-9.93V35.7h9.93a1.795 1.795 0 001.79-1.787v-18.85a1.795 1.795 0 00-1.79-1.788z"
    opacity=".5"
  />
  <path
    fill="url(#onenote__a)"
    d="M4.79 13.275h17.908c.989 0 1.79.8 1.79 1.787v17.876c0 .987-.801 1.787-1.79 1.787H4.79c-.988 0-1.79-.8-1.79-1.787V15.062c0-.987.802-1.787 1.79-1.787z"
  />
  <path
    fill="#fff"
    d="M8.886 18.19h2.427l4.77 7.703c.216.346.38.623.488.834h.031a11.705 11.705 0 01-.07-1.58v-6.956h2.07v11.618h-2.271l-4.948-7.916a6.158 6.158 0 01-.442-.818h-.039c.05.576.07 1.155.062 1.733v7.001H8.886V18.191z"
  />
  <defs>
    <linearGradient
      id="onenote__a"
      x1="6.733"
      x2="20.718"
      y1="11.879"
      y2="36.143"
      gradientUnits="userSpaceOnUse"
    >
      <stop stop-color="#8324B3" />
      <stop offset=".5" stop-color="#7A1BAC" />
      <stop offset="1" stop-color="#621197" />
    </linearGradient>
  </defs>
</svg>
