<svg
  xmlns="http://www.w3.org/2000/svg"
  width="48"
  height="48"
  viewBox="0 0 48 48"
>
  <rect width="48" height="48" fill="#fff" rx="8" />
  <path
    fill="#CA64EA"
    d="M34.369 42H15.282a1.65 1.65 0 01-1.65-1.648V7.648c0-.91.739-1.648 1.65-1.648h26.452c.912 0 1.65.738 1.65 1.648V15L34.37 42z"
  />
  <path fill="#AE4BD5" d="M43.385 24l-4.508 2.7-4.509-2.7v-9h9.017v9z" />
  <path fill="#9332BF" d="M43.385 33l-4.508 2.7-4.509-2.7v-9h9.017v9z" />
  <path
    fill="#7719AA"
    d="M34.368 33h9.017v7.313A1.69 1.69 0 0141.695 42h-7.327v-9z"
  />
  <path
    d="M24.601 13.2h-10.97v22.5h10.97a1.657 1.657 0 001.653-1.65v-19.2a1.657 1.657 0 00-1.653-1.65z"
    opacity=".2"
  />
  <path
    d="M23.7 14.1H13.632v22.5H23.7a1.657 1.657 0 001.652-1.65v-19.2A1.657 1.657 0 0023.7 14.1z"
    opacity=".2"
  />
  <path
    d="M23.7 14.1H13.632v20.7H23.7a1.657 1.657 0 001.652-1.65v-17.4A1.657 1.657 0 0023.7 14.1z"
    opacity=".5"
  />
  <path
    d="M22.798 14.1h-9.166v20.7h9.166a1.657 1.657 0 001.653-1.65v-17.4a1.657 1.657 0 00-1.653-1.65z"
    opacity=".5"
  />
  <path
    fill="url(#onenote__a)"
    d="M6.268 14.1h16.53c.913 0 1.653.739 1.653 1.65v16.5c0 .911-.74 1.65-1.653 1.65H6.268a1.651 1.651 0 01-1.653-1.65v-16.5c0-.911.74-1.65 1.653-1.65z"
  />
  <path
    fill="#fff"
    d="M10.049 18.638h2.24l4.403 7.11c.2.318.35.575.45.77h.03a10.792 10.792 0 01-.066-1.459v-6.421h1.912v10.724H16.92l-4.568-7.307a5.687 5.687 0 01-.407-.755h-.036c.046.532.065 1.066.056 1.6v6.462H10.05V18.638z"
  />
  <defs>
    <linearGradient
      id="onenote__a"
      x1="8.061"
      x2="20.97"
      y1="12.811"
      y2="35.209"
      gradientUnits="userSpaceOnUse"
    >
      <stop stop-color="#8324B3" />
      <stop offset=".5" stop-color="#7A1BAC" />
      <stop offset="1" stop-color="#621197" />
    </linearGradient>
  </defs>
</svg>
