<svg
  width="48"
  height="48"
  fill="none"
  xmlns="http://www.w3.org/2000/svg"
  viewBox="0 0 48 48"
>
  <path
    d="M24 4.004A19.998 19.998 0 1 0 37.326 38.91a14.422 14.422 0 0 1-8.015 2.448c-4.763 0-9.026-2.364-11.899-6.09-2.213-2.61-3.642-6.466-3.74-10.796v-.948c.098-4.33 1.527-8.19 3.74-10.797 2.865-3.725 7.136-6.088 11.9-6.088 2.928 0 5.67.895 8.014 2.451A19.93 19.93 0 0 0 24.075 4h-.08l.004.004z"
    fill="url(#paint0_linear)"
  />
  <path
    d="M17.417 12.732c1.83-2.165 4.206-3.475 6.793-3.475 5.823 0 10.547 6.607 10.547 14.741 0 8.143-4.72 14.74-10.547 14.74-2.587 0-4.958-1.304-6.793-3.47 2.865 3.725 7.132 6.09 11.9 6.09a14.448 14.448 0 0 0 8.014-2.448 19.94 19.94 0 0 0 6.666-14.908 19.943 19.943 0 0 0-6.67-14.908 14.423 14.423 0 0 0-8.015-2.447c-4.763 0-9.026 2.363-11.899 6.088"
    fill="url(#paint1_linear)"
  />
  <defs>
    <linearGradient
      id="paint0_linear"
      x1="20.656"
      y1="4.661"
      x2="20.656"
      y2="43.423"
      gradientUnits="userSpaceOnUse"
    >
      <stop offset=".6" stop-color="#FF1B2D" />
      <stop offset="1" stop-color="#A70014" />
    </linearGradient>
    <linearGradient
      id="paint1_linear"
      x1="30.725"
      y1="6.929"
      x2="30.725"
      y2="41.234"
      gradientUnits="userSpaceOnUse"
    >
      <stop stop-color="#9C0000" />
      <stop offset=".7" stop-color="#FF4B4B" />
    </linearGradient>
  </defs>
</svg>
