<svg
  xmlns="http://www.w3.org/2000/svg"
  width="48"
  height="48"
  viewBox="0 0 48 48"
>
  <rect width="48" height="48" fill="#fff" rx="8" />
  <path
    fill="url(#opera__a)"
    d="M24 6.004a17.998 17.998 0 1011.995 31.415 12.98 12.98 0 01-7.214 2.203c-4.287 0-8.123-2.128-10.71-5.48-1.99-2.35-3.277-5.82-3.366-9.718v-.852c.09-3.897 1.375-7.371 3.367-9.717 2.578-3.353 6.422-5.48 10.709-5.48 2.636 0 5.104.806 7.214 2.206A17.938 17.938 0 0024.067 6h-.071l.003.004z"
  />
  <path
    fill="url(#opera__b)"
    d="M18.075 13.858c1.648-1.948 3.786-3.127 6.114-3.127 5.24 0 9.492 5.946 9.492 13.267 0 7.328-4.248 13.267-9.492 13.267-2.328 0-4.463-1.175-6.114-3.123 2.579 3.352 6.419 5.48 10.71 5.48a13.005 13.005 0 007.213-2.203 17.946 17.946 0 006-13.417 17.947 17.947 0 00-6.003-13.417 12.98 12.98 0 00-7.214-2.203c-4.287 0-8.123 2.127-10.71 5.48"
  />
  <defs>
    <linearGradient
      id="opera__a"
      x1="20.991"
      x2="20.991"
      y1="6.595"
      y2="41.481"
      gradientUnits="userSpaceOnUse"
    >
      <stop offset=".6" stop-color="#FF1B2D" />
      <stop offset="1" stop-color="#A70014" />
    </linearGradient>
    <linearGradient
      id="opera__b"
      x1="30.052"
      x2="30.052"
      y1="8.636"
      y2="39.511"
      gradientUnits="userSpaceOnUse"
    >
      <stop stop-color="#9C0000" />
      <stop offset=".7" stop-color="#FF4B4B" />
    </linearGradient>
  </defs>
</svg>
