<svg
  xmlns="http://www.w3.org/2000/svg"
  width="48"
  height="48"
  viewBox="0 0 48 48"
>
  <path
    fill="#0364B8"
    d="M40.532 5.625H17.968a1.843 1.843 0 00-1.843 1.843v2.095L28.843 13.5l13.532-3.938V7.469a1.843 1.843 0 00-1.843-1.843z"
  />
  <path
    fill="#0A2767"
    d="M44.54 25.844c.193-.604.346-1.22.46-1.844a.874.874 0 00-.437-.756l-.017-.01-.005-.003-14.225-8.104a1.97 1.97 0 00-2.132-.001L13.96 23.232l-.005.003-.016.009A.875.875 0 0013.5 24c.114.624.267 1.24.46 1.844l15.083 11.032L44.54 25.844z"
  />
  <path
    fill="#28A8EA"
    d="M34.5 9.563h-9.188L22.66 13.5l2.652 3.938 9.188 7.875h7.875v-7.875L34.5 9.563z"
  />
  <path fill="#0078D4" d="M16.125 9.563h9.188v7.874h-9.188V9.563z" />
  <path fill="#50D9FF" d="M34.5 9.563h7.875v7.874H34.5V9.563z" />
  <path
    fill="#0364B8"
    d="M34.5 25.313l-9.188-7.875h-9.187v7.875l9.188 7.875 14.216 2.32L34.5 25.312z"
  />
  <path fill="#0078D4" d="M25.313 17.438H34.5v7.875h-9.188v-7.875z" />
  <path fill="#064A8C" d="M16.125 25.313h9.188v7.875h-9.188v-7.876z" />
  <path fill="#0078D4" d="M34.5 25.313h7.875v7.875H34.5v-7.876z" />
  <path
    fill="#0A2767"
    d="M29.5 36.099L14.02 24.81l.65-1.142s14.103 8.033 14.318 8.154a.694.694 0 00.551-.016l14.35-8.177.65 1.14L29.5 36.1z"
    opacity=".5"
  />
  <path
    fill="#1490DF"
    d="M44.563 24.757l-.019.01-.003.003-14.225 8.104a1.964 1.964 0 01-1.916.12l4.953 6.642 10.833 2.358V42A1.965 1.965 0 0045 40.406V24a.874.874 0 01-.437.757z"
  />
  <path
    fill="#000"
    d="M45 40.406v-.968l-13.103-7.466-1.581.902a1.964 1.964 0 01-1.916.12l4.953 6.642 10.833 2.358V42A1.965 1.965 0 0045 40.406z"
    opacity=".05"
  />
  <path
    fill="#000"
    d="M44.934 40.909l-14.362-8.18-.256.144a1.965 1.965 0 01-1.916.12l4.953 6.643 10.833 2.358V42a1.97 1.97 0 00.748-1.09v-.001z"
    opacity=".1"
  />
  <path
    fill="#28A8EA"
    d="M13.96 24.774v-.013h-.014l-.04-.026A.854.854 0 0113.5 24v16.406a1.965 1.965 0 001.969 1.969H43.03c.164-.002.327-.024.486-.066a.836.836 0 00.236-.078.187.187 0 00.079-.027c.107-.044.209-.1.302-.17.026-.013.04-.013.052-.04L13.96 24.774z"
  />
  <path
    fill="#000"
    d="M26.625 35.375V13.937a1.755 1.755 0 00-1.75-1.75h-8.71v9.787l-2.206 1.257-.006.002-.016.01A.874.874 0 0013.5 24v.007V24v13.125h11.375a1.755 1.755 0 001.75-1.75z"
    opacity=".1"
  />
  <path
    fill="#000"
    d="M25.313 36.688V15.25a1.755 1.755 0 00-1.75-1.75h-7.399v8.474L13.96 23.23l-.006.002-.016.01A.874.874 0 0013.5 24v.007V24v14.438h10.063a1.755 1.755 0 001.75-1.75z"
    opacity=".2"
  />
  <path
    fill="#000"
    d="M25.313 34.063V15.25a1.755 1.755 0 00-1.75-1.75h-7.399v8.474L13.96 23.23l-.006.002-.016.01A.874.874 0 0013.5 24v.007V24v11.813h10.063a1.755 1.755 0 001.75-1.75z"
    opacity=".2"
  />
  <path
    fill="#000"
    d="M24 34.063V15.25a1.755 1.755 0 00-1.75-1.75h-6.086v8.474L13.96 23.23l-.006.002-.016.01A.874.874 0 0013.5 24v.007V24v11.813h8.75a1.755 1.755 0 001.75-1.75z"
    opacity=".2"
  />
  <path
    fill="#0078D4"
    d="M4.75 13.5h17.5A1.75 1.75 0 0124 15.25v17.5a1.75 1.75 0 01-1.75 1.75H4.75A1.75 1.75 0 013 32.75v-17.5a1.75 1.75 0 011.75-1.75z"
  />
  <path
    fill="#fff"
    d="M8.075 20.677a5.487 5.487 0 012.155-2.381 6.517 6.517 0 013.426-.858 6.059 6.059 0 013.167.813 5.433 5.433 0 012.098 2.275 7.346 7.346 0 01.735 3.347 7.746 7.746 0 01-.758 3.499 5.563 5.563 0 01-2.159 2.354 6.3 6.3 0 01-3.288.837 6.207 6.207 0 01-3.239-.823A5.518 5.518 0 018.09 27.46a7.165 7.165 0 01-.745-3.306 7.947 7.947 0 01.731-3.478zm2.297 5.588c.248.627.668 1.17 1.212 1.567a3.164 3.164 0 001.894.571c.72.028 1.43-.178 2.022-.589a3.416 3.416 0 001.177-1.57c.259-.7.386-1.44.376-2.186a6.644 6.644 0 00-.355-2.213 3.502 3.502 0 00-1.136-1.628 3.132 3.132 0 00-2.004-.62 3.271 3.271 0 00-1.939.576 3.596 3.596 0 00-1.239 1.579 6.268 6.268 0 00-.009 4.515l.001-.002z"
  />
</svg>
