<svg
  xmlns="http://www.w3.org/2000/svg"
  width="48"
  height="48"
  viewBox="0 0 48 48"
>
  <rect width="48" height="48" fill="#fff" rx="8" />
  <path
    fill="#0364B8"
    d="M39.745 6.5h-21.49A1.755 1.755 0 0016.5 8.255v1.995L28.613 14 41.5 10.25V8.255A1.755 1.755 0 0039.745 6.5z"
  />
  <path
    fill="#0A2767"
    d="M43.563 25.756c.183-.575.329-1.162.437-1.756a.832.832 0 00-.416-.72l-.017-.01-.005-.003-13.547-7.717a1.875 1.875 0 00-2.03-.001l-13.547 7.72-.006.002-.014.009A.833.833 0 0014 24c.108.594.254 1.18.438 1.756l14.364 10.507 14.76-10.507z"
  />
  <path
    fill="#28A8EA"
    d="M34 10.25h-8.75L22.724 14l2.526 3.75 8.75 7.5h7.5v-7.5l-7.5-7.5z"
  />
  <path fill="#0078D4" d="M16.5 10.25h8.75v7.5H16.5v-7.5z" />
  <path fill="#50D9FF" d="M34 10.25h7.5v7.5H34v-7.5z" />
  <path
    fill="#0364B8"
    d="M34 25.25l-8.75-7.5H16.5v7.5l8.75 7.5 13.54 2.21L34 25.25z"
  />
  <path fill="#0078D4" d="M25.25 17.75H34v7.5h-8.75v-7.5z" />
  <path fill="#064A8C" d="M16.5 25.25h8.75v7.5H16.5v-7.5z" />
  <path fill="#0078D4" d="M34 25.25h7.5v7.5H34v-7.5z" />
  <path
    fill="#0A2767"
    d="M29.238 35.523l-14.742-10.75.619-1.088s13.431 7.65 13.636 7.765a.66.66 0 00.525-.015l13.667-7.787.62 1.086-14.326 10.788z"
    opacity=".5"
  />
  <path
    fill="#1490DF"
    d="M43.584 24.721l-.018.01-.004.003-13.547 7.717a1.872 1.872 0 01-1.825.114l4.717 6.326 10.318 2.247v.005A1.872 1.872 0 0044 39.624V24a.833.833 0 01-.416.721z"
  />
  <path
    d="M44 39.625v-.922l-12.479-7.11-1.506.858a1.871 1.871 0 01-1.825.114l4.717 6.326 10.318 2.247v.005A1.872 1.872 0 0044 39.624z"
    opacity=".05"
  />
  <path
    d="M43.938 40.104l-13.68-7.791-.243.137a1.871 1.871 0 01-1.825.115l4.717 6.326 10.318 2.247v.005c.35-.254.602-.62.712-1.038v-.001z"
    opacity=".1"
  />
  <path
    fill="#28A8EA"
    d="M14.438 24.738v-.013h-.013l-.038-.025A.812.812 0 0114 24v15.625a1.871 1.871 0 001.875 1.875h26.25c.156-.002.312-.023.462-.063a.796.796 0 00.225-.075.177.177 0 00.076-.025 1.29 1.29 0 00.287-.162c.025-.012.038-.012.05-.037l-28.788-16.4z"
  />
  <path
    d="M26.5 34.834V14.416a1.671 1.671 0 00-1.666-1.666h-8.296v9.32l-2.1 1.197-.007.003-.015.009A.831.831 0 0014 24v.006V24v12.5h10.834a1.671 1.671 0 001.666-1.666z"
    opacity=".1"
  />
  <path
    d="M25.25 36.084V15.666A1.671 1.671 0 0023.584 14h-7.046v8.07l-2.1 1.197-.007.003-.015.009A.831.831 0 0014 24v.006V24v13.75h9.584a1.671 1.671 0 001.666-1.666z"
    opacity=".2"
  />
  <path
    d="M25.25 33.584V15.666A1.671 1.671 0 0023.584 14h-7.046v8.07l-2.1 1.197-.007.003-.015.009A.831.831 0 0014 24v.006V24v11.25h9.584a1.671 1.671 0 001.666-1.666z"
    opacity=".2"
  />
  <path
    d="M24 33.584V15.666A1.671 1.671 0 0022.334 14h-5.796v8.07l-2.1 1.197-.007.003-.015.009A.831.831 0 0014 24v.006V24v11.25h8.334A1.671 1.671 0 0024 33.584z"
    opacity=".2"
  />
  <path
    fill="#0078D4"
    d="M5.666 14h16.668A1.667 1.667 0 0124 15.666v16.668A1.667 1.667 0 0122.334 34H5.666A1.667 1.667 0 014 32.334V15.666A1.666 1.666 0 015.666 14z"
  />
  <path
    fill="#fff"
    d="M8.834 20.835a5.226 5.226 0 012.052-2.268 6.206 6.206 0 013.263-.817 5.771 5.771 0 013.016.775 5.175 5.175 0 011.998 2.166c.48.993.72 2.085.7 3.188a7.376 7.376 0 01-.722 3.332 5.298 5.298 0 01-2.056 2.243 6 6 0 01-3.131.796 5.912 5.912 0 01-3.085-.784 5.255 5.255 0 01-2.023-2.17 6.823 6.823 0 01-.709-3.148 7.569 7.569 0 01.697-3.313zm2.187 5.322a3.395 3.395 0 001.154 1.493c.528.37 1.16.56 1.804.544a3.166 3.166 0 001.926-.561 3.253 3.253 0 001.121-1.497 5.782 5.782 0 00.358-2.081 6.33 6.33 0 00-.338-2.107 3.336 3.336 0 00-1.082-1.55 2.984 2.984 0 00-1.909-.592 3.117 3.117 0 00-1.846.549c-.528.38-.938.9-1.18 1.504a5.97 5.97 0 00-.009 4.3l.001-.002z"
  />
</svg>
