<svg
  xmlns="http://www.w3.org/2000/svg"
  width="48"
  height="48"
  viewBox="0 0 48 48"
>
  <path
    fill="#001E36"
    d="M10.76 4h26.48a7.257 7.257 0 017.26 7.265v25.47A7.257 7.257 0 0137.24 44H10.76a7.257 7.257 0 01-7.26-7.265v-25.47A7.257 7.257 0 0110.76 4z"
  />
  <path
    fill="#31A8FF"
    d="M12.73 32.051v-17.59c0-.12.052-.188.172-.188.29 0 .564 0 .957-.017.41-.017.838-.017 1.3-.034.46-.017.956-.017 1.486-.034s1.043-.017 1.556-.017c1.402 0 2.564.17 3.521.53.855.29 1.641.77 2.29 1.402a5.442 5.442 0 011.249 1.948c.256.718.393 1.453.393 2.223 0 1.47-.342 2.683-1.026 3.64A5.857 5.857 0 0121.876 26c-1.162.427-2.444.581-3.846.581-.41 0-.684 0-.855-.017-.17-.017-.41-.017-.735-.017v5.487c.017.12-.068.222-.188.24h-3.316c-.137 0-.205-.069-.205-.223zm3.727-14.478v5.743c.24.017.462.034.667.034h.906a6.39 6.39 0 001.966-.307 2.94 2.94 0 001.401-.906c.36-.428.53-1.009.53-1.76.017-.53-.12-1.06-.393-1.522a2.48 2.48 0 00-1.196-.975 5.012 5.012 0 00-2.018-.341c-.444 0-.837 0-1.162.017-.342-.018-.581 0-.7.017zm19.863 4.7a6.051 6.051 0 00-1.64-.58 9.015 9.015 0 00-1.915-.223c-.342-.017-.7.034-1.026.12a.878.878 0 00-.53.342.906.906 0 00-.136.461.76.76 0 00.17.445c.154.188.36.341.582.461.393.205.803.393 1.213.564.924.308 1.812.735 2.633 1.248a3.978 3.978 0 011.35 1.419 3.69 3.69 0 01.393 1.76 3.977 3.977 0 01-.666 2.274 4.283 4.283 0 01-1.915 1.522c-.837.358-1.863.547-3.094.547-.786 0-1.555-.069-2.325-.223a6.897 6.897 0 01-1.743-.547c-.12-.068-.205-.188-.188-.325v-2.974c0-.051.017-.12.068-.154.052-.034.103-.017.154.017a7.32 7.32 0 002.12.838 7.96 7.96 0 002.017.256c.65 0 1.111-.085 1.419-.239a.794.794 0 00.461-.718c0-.24-.136-.461-.41-.684-.274-.222-.838-.478-1.675-.803a10.459 10.459 0 01-2.428-1.23 4.427 4.427 0 01-1.299-1.454 3.668 3.668 0 01-.393-1.743c0-.735.205-1.436.581-2.069a4.213 4.213 0 011.795-1.572c.804-.41 1.812-.599 3.026-.599.7 0 1.419.052 2.12.154a6.012 6.012 0 011.47.393c.068.017.136.086.17.154a.823.823 0 01.035.205v2.787a.21.21 0 01-.086.17c-.154.035-.24.035-.307 0z"
  />
</svg>
