<svg
  xmlns="http://www.w3.org/2000/svg"
  width="48"
  height="48"
  viewBox="0 0 48 48"
>
  <path
    fill="#001E36"
    d="M8.5 0h31C44.2 0 48 3.897 48 8.718v30.564C48 44.102 44.2 48 39.5 48h-31C3.8 48 0 44.103 0 39.282V8.718C0 3.898 3.8 0 8.5 0z"
  />
  <path
    fill="#31A8FF"
    d="M10.807 33.92V13.34c0-.14.06-.22.2-.22.34 0 .66 0 1.12-.02.48-.02.981-.02 1.522-.04.54-.02 1.12-.02 1.74-.04.621-.02 1.221-.02 1.822-.02 1.64 0 3.002.2 4.122.62 1.001.34 1.922.9 2.682 1.64.64.64 1.14 1.42 1.461 2.28.3.84.46 1.7.46 2.6 0 1.72-.4 3.14-1.2 4.26a6.856 6.856 0 01-3.223 2.44c-1.36.5-2.861.68-4.502.68-.48 0-.8 0-1.001-.02-.2-.02-.48-.02-.86-.02v6.42c.02.14-.08.26-.22.28h-3.883c-.16 0-.24-.08-.24-.26zm4.362-16.94v6.72c.28.02.54.04.781.04h1.06c.781 0 1.562-.12 2.302-.36.64-.18 1.2-.56 1.641-1.06.42-.5.62-1.18.62-2.06a3.29 3.29 0 00-.46-1.78 2.9 2.9 0 00-1.4-1.14c-.741-.3-1.542-.42-2.362-.4-.52 0-.98 0-1.361.02-.4-.02-.68 0-.82.02zm23.255 5.5c-.6-.32-1.24-.54-1.921-.68-.74-.16-1.481-.26-2.242-.26-.4-.02-.82.04-1.2.14-.26.06-.48.2-.62.4-.1.16-.16.36-.16.54 0 .18.08.36.2.52.18.22.42.4.68.54.46.24.94.46 1.42.66 1.081.36 2.122.86 3.082 1.46.66.42 1.201.98 1.582 1.66.32.64.48 1.34.46 2.06.02.94-.26 1.88-.78 2.66a5.017 5.017 0 01-2.242 1.78c-.98.42-2.181.64-3.622.64-.92 0-1.822-.08-2.722-.26-.7-.12-1.4-.34-2.041-.64-.14-.08-.24-.22-.22-.38v-3.48c0-.06.02-.14.08-.18.06-.04.12-.02.18.02.78.46 1.6.78 2.481.98.76.2 1.561.3 2.362.3.76 0 1.3-.1 1.66-.28a.93.93 0 00.541-.84c0-.28-.16-.54-.48-.8-.32-.26-.98-.56-1.961-.94a12.23 12.23 0 01-2.842-1.44 5.18 5.18 0 01-1.521-1.7 4.29 4.29 0 01-.46-2.04c0-.86.24-1.68.68-2.42.5-.8 1.24-1.44 2.101-1.84.94-.48 2.122-.7 3.542-.7.821 0 1.661.06 2.482.18.6.08 1.18.24 1.721.46.08.02.16.1.2.18a1 1 0 01.04.24v3.26c0 .08-.04.16-.1.2-.18.04-.28.04-.36 0z"
  />
</svg>
