<svg
  xmlns="http://www.w3.org/2000/svg"
  width="48"
  height="48"
  viewBox="0 0 48 48"
>
  <path
    fill="#001E36"
    d="M11.083 4.5h25.834A7.077 7.077 0 0144 11.583v24.834a7.077 7.077 0 01-7.083 7.083H11.083A7.077 7.077 0 014 36.417V11.583A7.077 7.077 0 0111.083 4.5z"
  />
  <path
    fill="#31A8FF"
    d="M13.006 31.85V14.7c0-.117.05-.183.166-.183.284 0 .55 0 .934-.017.4-.017.818-.017 1.268-.033.45-.017.934-.017 1.45-.034.518-.016 1.018-.016 1.518-.016 1.368 0 2.502.166 3.436.516.834.284 1.6.75 2.235 1.367a5.31 5.31 0 011.217 1.9c.25.7.383 1.417.383 2.167 0 1.433-.333 2.616-1 3.55a5.713 5.713 0 01-2.685 2.033c-1.134.417-2.385.567-3.753.567-.4 0-.666 0-.833-.017-.167-.017-.4-.017-.717-.017v5.35a.209.209 0 01-.184.234h-3.235c-.134 0-.2-.067-.2-.217zm3.635-14.117v5.6c.234.017.45.034.65.034h.884c.65 0 1.301-.1 1.918-.3a2.867 2.867 0 001.368-.884c.35-.416.517-.983.517-1.716a2.741 2.741 0 00-.384-1.484 2.419 2.419 0 00-1.167-.95 4.896 4.896 0 00-1.968-.333c-.434 0-.817 0-1.134.017-.334-.017-.567 0-.684.016zm19.379 4.584a5.905 5.905 0 00-1.601-.567 8.799 8.799 0 00-1.868-.217 3.363 3.363 0 00-1 .117.857.857 0 00-.517.333.884.884 0 00-.134.45c0 .15.067.3.167.434.15.183.35.333.567.45.383.2.784.383 1.184.55.9.3 1.768.716 2.568 1.216.55.35 1 .817 1.318 1.384.267.533.4 1.116.383 1.716a3.876 3.876 0 01-.65 2.217 4.178 4.178 0 01-1.868 1.483c-.817.35-1.818.534-3.019.534a11.5 11.5 0 01-2.268-.217 6.731 6.731 0 01-1.7-.533c-.117-.067-.2-.184-.184-.317v-2.9c0-.05.017-.117.067-.15.05-.033.1-.017.15.017a7.14 7.14 0 002.068.816c.633.167 1.3.25 1.968.25.633 0 1.084-.083 1.384-.233.267-.117.45-.4.45-.7 0-.233-.133-.45-.4-.667-.267-.216-.817-.466-1.634-.783-.851-.3-1.635-.7-2.369-1.2a4.316 4.316 0 01-1.267-1.417 3.573 3.573 0 01-.384-1.7c0-.716.2-1.4.567-2.016a4.11 4.11 0 011.751-1.534c.784-.4 1.768-.583 2.952-.583.684 0 1.385.05 2.068.15.5.067.984.2 1.434.383.067.017.134.084.167.15a.836.836 0 01.034.2v2.717a.205.205 0 01-.084.167c-.15.033-.233.033-.3 0z"
  />
</svg>
