<svg
  xmlns="http://www.w3.org/2000/svg"
  width="48"
  height="48"
  viewBox="0 0 48 48"
>
  <path
    fill="#ED6C47"
    d="M28.395 25.95L25.465 4.5h-.219C14.591 4.531 5.961 13.146 5.93 23.782V24l22.465 1.95z"
  />
  <path
    fill="#FF8F6B"
    d="M25.684 4.5h-.219V24l9.768 3.9L45 24v-.218C44.969 13.146 36.339 4.532 25.684 4.5z"
  />
  <path
    fill="#D35230"
    d="M45 24v.215c-.03 10.638-8.663 19.254-19.32 19.285h-.43c-10.657-.03-19.29-8.647-19.32-19.285V24H45z"
  />
  <path
    fill="#000"
    d="M26.442 14.084v20.807a1.795 1.795 0 01-1.114 1.648c-.213.09-.442.136-.674.136H10.54a14.86 14.86 0 01-.78-.975 19.1 19.1 0 01-3.83-11.486v-.428a19.042 19.042 0 013.145-10.511c.215-.332.44-.663.684-.975h14.895a1.8 1.8 0 011.788 1.784z"
    opacity=".1"
  />
  <path
    fill="#000"
    d="M25.465 15.06v20.806a1.798 1.798 0 01-1.787 1.784H11.429c-.309-.313-.605-.638-.889-.975a14.837 14.837 0 01-.781-.975A19.1 19.1 0 015.93 24.214v-.428a19.042 19.042 0 013.145-10.511h14.603a1.8 1.8 0 011.787 1.784z"
    opacity=".2"
  />
  <path
    fill="#000"
    d="M25.465 15.06v18.856a1.8 1.8 0 01-1.787 1.784H9.759A19.101 19.101 0 015.93 24.214v-.428a19.042 19.042 0 013.145-10.511h14.603a1.8 1.8 0 011.787 1.784z"
    opacity=".2"
  />
  <path
    fill="#000"
    d="M24.488 15.06v18.856a1.8 1.8 0 01-1.787 1.784H9.759A19.101 19.101 0 015.93 24.214v-.428a19.042 19.042 0 013.145-10.511h13.626a1.8 1.8 0 011.787 1.784z"
    opacity=".2"
  />
  <path
    fill="url(#powerpoint__a)"
    d="M4.79 13.275h17.908c.989 0 1.79.8 1.79 1.787v17.876c0 .987-.801 1.787-1.79 1.787H4.79c-.988 0-1.79-.8-1.79-1.787V15.062c0-.987.802-1.787 1.79-1.787z"
  />
  <path
    fill="#fff"
    d="M13.94 18.042a4.928 4.928 0 013.26.953 3.41 3.41 0 011.135 2.762 3.839 3.839 0 01-.56 2.065 3.738 3.738 0 01-1.589 1.402 5.404 5.404 0 01-2.39.5h-2.265v4.203H9.21V18.042h4.729zm-2.411 5.867h1.996c.633.047 1.261-.14 1.765-.525.417-.4.636-.962.597-1.538 0-1.31-.762-1.964-2.287-1.964h-2.071v4.027z"
  />
  <defs>
    <linearGradient
      id="powerpoint__a"
      x1="6.733"
      x2="20.718"
      y1="11.879"
      y2="36.143"
      gradientUnits="userSpaceOnUse"
    >
      <stop stop-color="#CA4C28" />
      <stop offset=".5" stop-color="#C5401E" />
      <stop offset="1" stop-color="#B62F14" />
    </linearGradient>
  </defs>
</svg>
