<svg
  xmlns="http://www.w3.org/2000/svg"
  width="48"
  height="48"
  viewBox="0 0 48 48"
>
  <rect width="48" height="48" fill="#fff" rx="8" />
  <path
    fill="#ED6C47"
    d="M28.057 25.8L25.353 6h-.203c-9.835.029-17.801 7.98-17.83 17.798V24l20.737 1.8z"
  />
  <path
    fill="#FF8F6B"
    d="M25.554 6h-.202v18l9.016 3.6 9.017-3.6v-.202C43.355 13.981 35.39 6.028 25.555 6z"
  />
  <path
    fill="#D35230"
    d="M43.385 24v.198C43.356 34.018 35.389 41.972 25.55 42h-.397c-9.838-.028-17.806-7.982-17.834-17.802V24h36.065z"
  />
  <path
    d="M26.254 14.847v19.206a1.657 1.657 0 01-1.65 1.647H11.576a13.724 13.724 0 01-.722-.9A17.632 17.632 0 017.32 24.198v-.396a17.577 17.577 0 012.903-9.702c.199-.306.406-.612.631-.9h13.75a1.66 1.66 0 011.65 1.647z"
    opacity=".1"
  />
  <path
    d="M25.352 15.747v19.206a1.66 1.66 0 01-1.65 1.647H12.396c-.285-.29-.559-.59-.82-.9a13.69 13.69 0 01-.722-.9A17.632 17.632 0 017.32 24.198v-.396a17.577 17.577 0 012.903-9.702h13.48c.908.007 1.643.74 1.65 1.647z"
    opacity=".2"
  />
  <path
    d="M25.352 15.747v17.406a1.661 1.661 0 01-1.65 1.647H10.854A17.632 17.632 0 017.32 24.198v-.396a17.577 17.577 0 012.903-9.702h13.48c.908.007 1.643.74 1.65 1.647z"
    opacity=".2"
  />
  <path
    d="M24.45 15.747v17.406A1.661 1.661 0 0122.8 34.8H10.855A17.632 17.632 0 017.32 24.198v-.396a17.577 17.577 0 012.903-9.702h12.578c.908.007 1.643.74 1.65 1.647z"
    opacity=".2"
  />
  <path
    fill="url(#powerpoint__a)"
    d="M6.268 14.1h16.53c.913 0 1.653.739 1.653 1.65v16.5c0 .911-.74 1.65-1.653 1.65H6.268a1.651 1.651 0 01-1.653-1.65v-16.5c0-.911.74-1.65 1.653-1.65z"
  />
  <path
    fill="#fff"
    d="M14.713 18.5a4.549 4.549 0 013.01.88 3.147 3.147 0 011.048 2.55 3.543 3.543 0 01-.517 1.905 3.45 3.45 0 01-1.467 1.294 4.99 4.99 0 01-2.206.463h-2.09v3.88h-2.142V18.5h4.364zm-2.225 5.416h1.843a2.396 2.396 0 001.63-.485c.384-.368.586-.888.55-1.42 0-1.208-.704-1.813-2.111-1.813h-1.912v3.718z"
  />
  <defs>
    <linearGradient
      id="powerpoint__a"
      x1="8.061"
      x2="20.97"
      y1="12.811"
      y2="35.209"
      gradientUnits="userSpaceOnUse"
    >
      <stop stop-color="#CA4C28" />
      <stop offset=".5" stop-color="#C5401E" />
      <stop offset="1" stop-color="#B62F14" />
    </linearGradient>
  </defs>
</svg>
