<svg
  xmlns="http://www.w3.org/2000/svg"
  width="48"
  height="48"
  viewBox="0 0 48 48"
>
  <rect width="48" height="48" fill="#673AB8" rx="8" />
  <path
    fill="#fff"
    d="M24 5l16.43 9.487v18.971L24 42.944 7.57 33.457v-18.97L24 5z"
  />
  <path
    fill="#673AB8"
    d="M12.045 33.3c2.184 2.796 9.126.666 15.68-4.454s10.299-11.34 8.115-14.136c-2.184-2.795-9.126-.665-15.68 4.455S9.861 30.504 12.045 33.3zm.933-.729c-.724-.926-.407-2.746.973-5.038 1.453-2.413 3.92-5.077 6.938-7.435 3.02-2.36 6.2-4.108 8.893-4.934 2.558-.784 4.4-.652 5.125.275.724.927.407 2.747-.972 5.039-1.454 2.413-3.921 5.076-6.94 7.435-3.019 2.358-6.2 4.108-8.892 4.935-2.558.783-4.4.65-5.125-.277z"
  />
  <path
    fill="#673AB8"
    d="M35.84 33.3c2.185-2.795-1.562-9.015-8.115-14.135-6.554-5.12-13.497-7.25-15.681-4.455-2.185 2.796 1.562 9.015 8.115 14.136 6.554 5.12 13.495 7.25 15.68 4.455l.001-.001zm-.933-.729c-.724.927-2.567 1.062-5.125.277-2.692-.827-5.873-2.577-8.893-4.935-3.018-2.36-5.485-5.022-6.938-7.435-1.38-2.292-1.697-4.112-.973-5.039.724-.926 2.567-1.06 5.125-.275 2.692.826 5.873 2.576 8.893 4.934 3.018 2.358 5.485 5.023 6.939 7.435 1.38 2.292 1.696 4.112.972 5.038z"
  />
  <path
    fill="#673AB8"
    d="M23.943 26.522a2.517 2.517 0 100-5.034 2.517 2.517 0 100 5.035v-.001z"
  />
</svg>
