<svg
  xmlns="http://www.w3.org/2000/svg"
  width="48"
  height="48"
  viewBox="0 0 48 48"
>
  <path
    fill="#673AB8"
    d="M24 3l18.162 10.487v20.971L24 44.944 5.838 34.457v-20.97L24 3z"
  />
  <path
    fill="#fff"
    d="M10.784 34.283c2.415 3.091 10.088.737 17.333-4.923 7.245-5.66 11.385-12.535 8.971-15.626-2.415-3.09-10.088-.735-17.333 4.924-7.245 5.66-11.384 12.534-8.97 15.625zm1.032-.805c-.8-1.024-.45-3.036 1.075-5.57 1.607-2.666 4.334-5.612 7.67-8.218 3.338-2.608 6.854-4.542 9.83-5.455 2.828-.866 4.865-.72 5.666.305.8 1.025.45 3.037-1.075 5.57-1.607 2.667-4.334 5.61-7.67 8.219-3.338 2.606-6.854 4.54-9.831 5.454-2.827.867-4.864.72-5.665-.305z"
  />
  <path
    fill="#fff"
    d="M37.088 34.283c2.415-3.09-1.727-9.965-8.97-15.625-7.246-5.66-14.92-8.014-17.335-4.924-2.415 3.09 1.727 9.965 8.971 15.626 7.245 5.66 14.918 8.014 17.333 4.925l.001-.002zm-1.031-.805c-.801 1.025-2.838 1.173-5.665.305-2.977-.913-6.493-2.848-9.83-5.454-3.337-2.608-6.065-5.552-7.671-8.22-1.525-2.532-1.876-4.544-1.075-5.57.8-1.023 2.838-1.172 5.665-.304 2.977.914 6.493 2.848 9.83 5.455 3.337 2.606 6.064 5.552 7.67 8.219 1.526 2.533 1.876 4.545 1.076 5.569z"
  />
  <path
    fill="#fff"
    d="M23.937 26.79a2.784 2.784 0 100-5.563 2.783 2.783 0 000 5.565v-.002z"
  />
</svg>
