<svg
  xmlns="http://www.w3.org/2000/svg"
  width="48"
  height="48"
  viewBox="0 0 48 48"
>
  <path
    fill="#00005B"
    d="M11.083 4.5h25.834A7.077 7.077 0 0144 11.583v24.834a7.077 7.077 0 01-7.083 7.083H11.083A7.077 7.077 0 014 36.417V11.583A7.077 7.077 0 0111.083 4.5z"
  />
  <path
    fill="#99F"
    d="M13.5 31.85V14.7c0-.117.05-.183.167-.183.283 0 .55 0 .933-.017.4-.017.817-.017 1.267-.033.45-.017.933-.017 1.45-.034.516-.016 1.016-.016 1.516-.016 1.367 0 2.5.166 3.434.516.833.284 1.6.75 2.233 1.367.533.533.95 1.183 1.217 1.9.25.7.383 1.417.383 2.167 0 1.433-.333 2.616-1 3.55a5.71 5.71 0 01-2.683 2.033c-1.134.417-2.384.567-3.75.567-.4 0-.667 0-.834-.017-.166-.017-.4-.017-.716-.017v5.35a.208.208 0 01-.184.234H13.7c-.133 0-.2-.067-.2-.217zm3.633-14.117v5.6c.234.017.45.034.65.034h.884c.65 0 1.3-.1 1.916-.3.534-.15 1-.467 1.367-.884.35-.416.517-.983.517-1.716a2.744 2.744 0 00-.384-1.484 2.417 2.417 0 00-1.166-.95 4.89 4.89 0 00-1.967-.333c-.433 0-.817 0-1.133.017-.334-.017-.567 0-.684.016zM28.433 18.7h2.917c.166 0 .3.117.35.267.05.133.083.266.1.416a5.542 5.542 0 01.116 1.117c.5-.583 1.1-1.067 1.784-1.433a5.165 5.165 0 012.533-.65c.117-.017.217.066.234.183v3.317c0 .133-.084.183-.267.183a7.242 7.242 0 00-1.8.167c-.483.1-.95.25-1.4.45-.317.15-.617.35-.85.616v8.5c0 .167-.067.234-.217.234H28.65c-.133.016-.25-.067-.267-.2v-9.3c0-.4 0-.817-.017-1.25-.016-.434-.016-.867-.033-1.3 0-.384-.033-.75-.066-1.134a.153.153 0 01.116-.183c0-.017.034-.017.05 0z"
  />
</svg>
