<svg
  xmlns="http://www.w3.org/2000/svg"
  width="48"
  height="48"
  viewBox="0 0 48 48"
>
  <path
    fill="#00005B"
    d="M10.438 3.5h27.124A7.436 7.436 0 0145 10.947v26.106a7.436 7.436 0 01-7.438 7.447H10.439A7.436 7.436 0 013 37.053V10.947A7.436 7.436 0 0110.438 3.5z"
  />
  <path
    fill="#99F"
    d="M12.975 32.253v-18.03c0-.123.053-.193.175-.193.297 0 .577 0 .98-.017.42-.018.857-.018 1.33-.035.472-.018.98-.018 1.523-.035.542-.018 1.067-.018 1.592-.018 1.435 0 2.625.175 3.605.543.875.298 1.68.789 2.345 1.437a5.58 5.58 0 011.277 1.998 6.7 6.7 0 01.403 2.277c0 1.507-.35 2.751-1.05 3.732a5.996 5.996 0 01-2.818 2.138c-1.19.438-2.502.596-3.937.596-.42 0-.7 0-.875-.018-.175-.017-.42-.017-.752-.017v5.624a.218.218 0 01-.193.245h-3.395c-.14 0-.21-.07-.21-.227zm3.815-14.841v5.887c.245.018.473.035.683.035h.927a6.54 6.54 0 002.013-.315 3.01 3.01 0 001.434-.929c.368-.438.543-1.034.543-1.805a2.886 2.886 0 00-.402-1.559 2.538 2.538 0 00-1.226-.999 5.13 5.13 0 00-2.064-.35c-.456 0-.858 0-1.19.017a4 4 0 00-.718.018zm11.865 1.016h3.062c.175 0 .315.123.368.28.052.14.087.28.105.439a5.842 5.842 0 01.122 1.174 6.514 6.514 0 011.873-1.507 5.418 5.418 0 012.66-.684c.122-.017.227.07.245.193v3.487c0 .14-.088.193-.28.193a7.595 7.595 0 00-1.89.175 7.19 7.19 0 00-1.47.473 2.721 2.721 0 00-.893.648v8.936c0 .175-.07.245-.227.245h-3.448a.242.242 0 01-.28-.21v-9.777c0-.42 0-.858-.017-1.314-.018-.455-.018-.911-.035-1.367 0-.403-.035-.788-.07-1.191a.161.161 0 01.122-.193c0-.017.035-.017.053 0z"
  />
</svg>
