<svg
  xmlns="http://www.w3.org/2000/svg"
  width="48"
  height="48"
  viewBox="0 0 48 48"
>
  <path
    fill="#00005B"
    d="M8.5 0h31C44.2 0 48 3.897 48 8.718v30.564C48 44.102 44.2 48 39.5 48h-31C3.8 48 0 44.103 0 39.282V8.718C0 3.898 3.8 0 8.5 0z"
  />
  <path
    fill="#99F"
    d="M11.4 33.92V13.34c0-.14.06-.22.2-.22.34 0 .66 0 1.12-.02.48-.02.98-.02 1.52-.04s1.12-.02 1.74-.04C16.6 13 17.2 13 17.8 13c1.64 0 3 .2 4.12.62 1 .34 1.92.9 2.68 1.64.64.64 1.14 1.42 1.46 2.28.3.84.46 1.7.46 2.6 0 1.72-.4 3.14-1.2 4.26a6.852 6.852 0 01-3.22 2.44c-1.36.5-2.86.68-4.5.68-.48 0-.8 0-1-.02-.2-.02-.48-.02-.86-.02v6.42c.02.14-.08.26-.22.28h-3.88c-.16 0-.24-.08-.24-.26zm4.36-16.94v6.72c.28.02.54.04.78.04h1.06c.78 0 1.56-.12 2.3-.36.64-.18 1.2-.56 1.64-1.06.42-.5.62-1.18.62-2.06.02-.62-.14-1.24-.46-1.78a2.9 2.9 0 00-1.4-1.14c-.74-.3-1.54-.42-2.36-.4-.52 0-.98 0-1.36.02-.4-.02-.68 0-.82.02zm13.56 1.16h3.5c.2 0 .36.14.42.32.06.16.1.32.12.5.04.2.08.42.1.62.02.22.04.46.04.72.6-.7 1.32-1.28 2.14-1.72.92-.52 1.98-.78 3.04-.78.14-.02.26.08.28.22V22c0 .16-.1.22-.32.22-.72-.02-1.46.04-2.16.2-.58.12-1.14.3-1.68.54-.38.18-.74.42-1.02.74v10.2c0 .2-.08.28-.26.28h-3.94c-.16.02-.3-.08-.32-.24V22.78c0-.48 0-.98-.02-1.5s-.02-1.04-.04-1.56c0-.46-.04-.9-.08-1.36-.02-.1.04-.2.14-.22 0-.02.04-.02.06 0z"
  />
</svg>
