<svg
  xmlns="http://www.w3.org/2000/svg"
  width="48"
  height="48"
  viewBox="0 0 48 48"
>
  <path
    fill="#fff"
    d="M8.5 0h31C44.2 0 48 3.897 48 8.718v30.564C48 44.102 44.2 48 39.5 48h-31C3.8 48 0 44.103 0 39.282V8.718C0 3.898 3.8 0 8.5 0z"
  />
  <path
    fill="#212735"
    d="M42.652 28.403l-2.81-2.81a.237.237 0 00-.258-.05.237.237 0 00-.147.219v4.7c-.011 3.058-.341 4.19-.952 5.332a6.474 6.474 0 01-2.693 2.693c-1.162.621-2.313.952-5.488.952h-3.437a1.188 1.188 0 00-.84.348l-2.809 2.809v-.001a.237.237 0 00.167.405h7.436c4.235 0 5.77-.441 7.32-1.268a8.632 8.632 0 003.59-3.59c.828-1.55 1.269-3.086 1.269-7.32v-1.58c0-.315-.126-.617-.348-.84zM8.216 26.027l-2.811-2.809a.239.239 0 00-.364.037.237.237 0 00-.041.13v7.612c.012 4.102.453 5.616 1.27 7.143a8.632 8.632 0 003.591 3.591C11.41 42.56 12.945 43 17.18 43h1.58a1.186 1.186 0 00.84-.348l2.81-2.81a.237.237 0 00-.17-.404h-4.542c-3.175 0-4.327-.33-5.489-.953a6.474 6.474 0 01-2.692-2.692c-.622-1.161-.952-2.313-.952-5.489v-3.437c0-.315-.126-.617-.348-.84z"
  />
  <path
    fill="#212735"
    d="M36.715 22.467l-2.81-2.811a.24.24 0 00-.258-.052.238.238 0 00-.148.22v11.304c0 .287-.05.571-.152.84a2.358 2.358 0 01-.553.865l-3.66 3.832a.238.238 0 00.171.401h3.008a4.75 4.75 0 004.75-4.75v-9.008a1.19 1.19 0 00-.348-.84zm-25.377 6.667h.002a.237.237 0 00-.362.04.238.238 0 00-.04.131v3.008a4.74 4.74 0 001.389 3.356 4.76 4.76 0 003.36 1.394h9.009c.315 0 .616-.126.839-.348l2.812-2.81a.237.237 0 00-.036-.364.238.238 0 00-.131-.04H16.875a2.36 2.36 0 01-.84-.154 2.366 2.366 0 01-.865-.552l-3.832-3.66zm7.487-18.157a.238.238 0 00-.13-.04h-3.008a4.75 4.75 0 00-4.75 4.75v9.009c0 .314.125.616.348.839l2.81 2.812a.238.238 0 00.405-.167V16.875c0-.287.051-.57.153-.84.118-.325.306-.62.552-.865l3.661-3.832a.237.237 0 00-.04-.36zM41.73 9.86a8.632 8.632 0 00-3.59-3.591C36.592 5.44 35.056 5 30.821 5h-1.58a1.188 1.188 0 00-.84.348l-2.808 2.81a.238.238 0 00.167.404h4.544c3.176 0 4.328.331 5.488.953a6.474 6.474 0 012.693 2.692c.621 1.162.952 2.313.952 5.49v3.436c0 .315.125.617.348.84l2.809 2.808v.001a.238.238 0 00.406-.168v-7.61c-.012-4.103-.453-5.617-1.27-7.144z"
  />
  <path
    fill="#212735"
    d="M24.746 5.04a.238.238 0 00-.132-.04h-7.61c-4.102.012-5.617.452-7.144 1.269A8.632 8.632 0 006.27 9.86C5.44 11.41 5 12.944 5 17.178v1.58c0 .315.126.618.349.84l2.808 2.81a.238.238 0 00.405-.169v-4.543c0-3.176.33-4.327.952-5.489a6.474 6.474 0 012.693-2.692c1.161-.622 2.313-.953 5.49-.953h3.436a1.19 1.19 0 00.84-.348l2.809-2.809a.237.237 0 00-.036-.364zm12.316 10.647a4.75 4.75 0 00-4.75-4.75h-9.008a1.19 1.19 0 00-.839.348l-2.813 2.81a.237.237 0 00.168.405h11.304c.287 0 .572.052.84.153.326.119.622.307.867.552l3.83 3.66a.237.237 0 00.256.047.239.239 0 00.145-.217v-3.008z"
  />
</svg>
