<svg
  xmlns="http://www.w3.org/2000/svg"
  width="48"
  height="48"
  viewBox="0 0 48 48"
>
  <rect width="48" height="48" fill="#fff" rx="8" />
  <path
    fill="#185C37"
    d="M42.123 40.85h-22.05a1.66 1.66 0 01-1.668-1.668v-9.636l8.462-4.2 10.563 4.2h4.694a1.66 1.66 0 011.668 1.668v7.968a1.66 1.66 0 01-1.667 1.668z"
  />
  <path
    fill="#33C481"
    d="M31.067 18.304l-9.883 3.52-11.242-3.52V8.668A1.66 1.66 0 0111.609 7h17.852a1.66 1.66 0 011.668 1.668l-.062 9.636z"
  />
  <path
    fill="#21A366"
    d="M9.942 18.304h25.82a1.66 1.66 0 011.667 1.668v9.636h-25.82a1.66 1.66 0 01-1.667-1.668v-9.636z"
  />
  <path
    d="M18.404 35.908h5.374c.803 0 1.482-.556 1.606-1.359V15.71c0-.926-.741-1.667-1.606-1.667H9.942v13.836a1.66 1.66 0 001.667 1.668h6.795v6.362z"
    opacity=".1"
  />
  <path
    d="M23.778 35.229a2.346 2.346 0 002.347-2.348V15.71a2.346 2.346 0 00-2.347-2.347H9.942V27.94a1.66 1.66 0 001.667 1.668h6.795v5.62h5.374z"
    opacity=".2"
  />
  <path
    d="M23.778 34.487c.927 0 1.668-.74 1.668-1.606V15.71c0-.926-.742-1.667-1.606-1.667H9.942v13.836a1.66 1.66 0 001.667 1.668h6.795v4.941h5.374z"
    opacity=".2"
  />
  <path
    d="M23.099 34.487c.926 0 1.667-.74 1.667-1.606V15.71c0-.926-.741-1.667-1.606-1.667H9.942v13.836a1.66 1.66 0 001.667 1.668h6.795v4.941h4.695z"
    opacity=".1"
  />
  <path
    fill="url(#project__a)"
    d="M6.668 14.042h16.43a1.66 1.66 0 011.668 1.668v16.43a1.66 1.66 0 01-1.667 1.668H6.668A1.66 1.66 0 015 32.14V15.71a1.66 1.66 0 011.668-1.668z"
  />
  <path
    fill="#fff"
    d="M15.192 18.427c1.05-.061 2.1.247 2.903.865.68.68 1.05 1.606.988 2.533 0 .68-.185 1.297-.494 1.915a4.07 4.07 0 01-1.42 1.297c-.68.309-1.421.494-2.162.432h-2.039v3.892h-2.1V18.427h4.324zm-2.162 5.374h1.791c.556.062 1.112-.123 1.606-.494.371-.37.556-.865.556-1.42 0-1.236-.68-1.792-2.038-1.792h-1.853l-.062 3.706z"
  />
  <defs>
    <linearGradient
      id="project__a"
      x1="8.437"
      x2="21.309"
      y1="12.759"
      y2="35.056"
      gradientUnits="userSpaceOnUse"
    >
      <stop stop-color="#18884F" />
      <stop offset=".5" stop-color="#117E43" />
      <stop offset="1" stop-color="#0B6631" />
    </linearGradient>
  </defs>
</svg>
