<svg
  xmlns="http://www.w3.org/2000/svg"
  width="48"
  height="48"
  viewBox="0 0 48 48"
>
  <path
    fill="#185C37"
    d="M43.194 42.25H19.318a1.798 1.798 0 01-1.805-1.806V30.011l9.162-4.548 11.436 4.548h5.083c1.003 0 1.806.802 1.806 1.806v8.627a1.798 1.798 0 01-1.806 1.806z"
  />
  <path
    fill="#33C481"
    d="M31.223 17.839l-10.7 3.812L8.35 17.839V7.406c0-1.003.803-1.806 1.806-1.806h19.328c1.003 0 1.806.803 1.806 1.806l-.067 10.433z"
  />
  <path
    fill="#21A366"
    d="M8.35 17.839h27.956c1.003 0 1.806.802 1.806 1.806v10.433H10.155a1.798 1.798 0 01-1.806-1.806V17.839z"
  />
  <path
    d="M17.513 36.9h5.818c.87 0 1.605-.602 1.74-1.472V15.03c0-1.003-.804-1.806-1.74-1.806H8.351v14.981c0 1.003.802 1.806 1.805 1.806h7.357v6.888z"
    opacity=".1"
  />
  <path
    d="M23.331 36.164a2.54 2.54 0 002.542-2.542V15.03a2.54 2.54 0 00-2.542-2.541H8.351v15.783c0 1.003.802 1.806 1.805 1.806h7.357v6.086h5.818z"
    opacity=".2"
  />
  <path
    d="M23.331 35.361c1.003 0 1.806-.802 1.806-1.739V15.03c0-1.003-.803-1.806-1.739-1.806H8.35v14.981c0 1.003.803 1.806 1.806 1.806h7.357v5.35h5.818z"
    opacity=".2"
  />
  <path
    d="M22.596 35.361c1.003 0 1.805-.802 1.805-1.739V15.03c0-1.003-.802-1.806-1.739-1.806H8.35v14.981c0 1.003.803 1.806 1.806 1.806h7.357v5.35h5.083z"
    opacity=".1"
  />
  <path
    fill="url(#project__a)"
    d="M4.806 13.224h17.79c1.003 0 1.805.803 1.805 1.806v17.79a1.798 1.798 0 01-1.805 1.806H4.806A1.798 1.798 0 013 32.82V15.03c0-1.003.803-1.806 1.806-1.806z"
  />
  <path
    fill="#fff"
    d="M14.035 17.973c1.137-.067 2.274.267 3.143.936.736.736 1.137 1.739 1.07 2.742 0 .736-.2 1.404-.535 2.073a4.407 4.407 0 01-1.538 1.405c-.736.334-1.538.535-2.34.468h-2.208v4.213H9.354V17.973h4.681zm-2.34 5.818h1.939c.602.067 1.204-.134 1.739-.535.4-.401.602-.936.602-1.538 0-1.338-.736-1.94-2.207-1.94H11.76l-.067 4.013z"
  />
  <defs>
    <linearGradient
      id="project__a"
      x1="6.721"
      x2="20.658"
      y1="11.836"
      y2="35.976"
      gradientUnits="userSpaceOnUse"
    >
      <stop stop-color="#18884F" />
      <stop offset=".5" stop-color="#117E43" />
      <stop offset="1" stop-color="#0B6631" />
    </linearGradient>
  </defs>
</svg>
