<svg
  xmlns="http://www.w3.org/2000/svg"
  width="48"
  height="48"
  viewBox="0 0 48 48"
>
  <rect width="48" height="48" fill="#fff" rx="8" />
  <path
    fill="#038387"
    d="M31.31 10.064h10.121A1.57 1.57 0 0143 11.633v24.702a1.57 1.57 0 01-1.569 1.569H31.31a1.57 1.57 0 01-1.569-1.569V11.633a1.571 1.571 0 011.569-1.57z"
  />
  <path
    fill="#038387"
    d="M36.156 41.02H15.578c-.913 0-1.655-.726-1.655-1.621v-6.895l13.028-2.838 10.856 2.838v6.895c0 .895-.741 1.622-1.651 1.622z"
  />
  <path
    fill="#37C6D0"
    d="M36.102 6.953h-20.47c-.944 0-1.709.753-1.706 1.679v15.355l12.304 1.42 11.58-1.42V8.632c0-.926-.765-1.679-1.708-1.679z"
  />
  <path fill="#1A9BA1" d="M37.81 23.987H13.926v8.517H37.81v-8.517z" />
  <path
    d="M25.026 16.004v18.273c.003.092-.009.187-.027.279a1.608 1.608 0 01-1.59 1.34h-9.483V14.385h9.484a1.611 1.611 0 011.616 1.61v.009z"
    opacity=".2"
  />
  <path
    d="M25.72 16.004v16.885a2.33 2.33 0 01-2.31 2.31h-9.484V13.692h9.484a2.323 2.323 0 012.31 2.313z"
    opacity=".1"
  />
  <path
    d="M25.026 16.004v16.885a1.611 1.611 0 01-1.61 1.616h-9.49v-20.12h9.484a1.611 1.611 0 011.616 1.61v.009z"
    opacity=".2"
  />
  <path
    d="M24.332 16.004v16.885a1.611 1.611 0 01-1.61 1.616h-8.796v-20.12h8.79a1.611 1.611 0 011.616 1.61v.009z"
    opacity=".1"
  />
  <path
    fill="url(#publisher__a)"
    d="M6.62 14.296h16.188c.895 0 1.619.723 1.619 1.619v16.188c0 .896-.724 1.62-1.62 1.62H6.62a1.618 1.618 0 01-1.619-1.62V15.915c0-.893.724-1.62 1.62-1.62z"
  />
  <path
    fill="#fff"
    d="M14.866 18.723a4.217 4.217 0 012.841.854 3.079 3.079 0 01.985 2.47 3.518 3.518 0 01-.487 1.848 3.266 3.266 0 01-1.385 1.257 4.552 4.552 0 01-2.081.448h-1.97v3.76H10.75V18.723h4.116zm-2.1 5.252h1.741a2.205 2.205 0 001.537-.472c.364-.361.554-.862.518-1.375 0-1.172-.664-1.759-1.992-1.759h-1.803v3.606z"
  />
  <path d="M38.516 10.064h-.706V37.9h.706V10.064z" opacity=".2" />
  <path d="M39.222 10.064h-.706V37.9h.706V10.064z" opacity=".1" />
  <defs>
    <linearGradient
      id="publisher__a"
      x1="8.375"
      x2="21.051"
      y1="13.032"
      y2="34.987"
      gradientUnits="userSpaceOnUse"
    >
      <stop stop-color="#058F92" />
      <stop offset=".5" stop-color="#038489" />
      <stop offset="1" stop-color="#026D71" />
    </linearGradient>
  </defs>
</svg>
