<svg
  xmlns="http://www.w3.org/2000/svg"
  width="48"
  height="48"
  viewBox="0 0 48 48"
>
  <path
    fill="#038387"
    d="M32.08 8.598h11.186c.957 0 1.734.777 1.734 1.734v27.303c0 .957-.777 1.734-1.734 1.734H32.08a1.735 1.735 0 01-1.733-1.734V10.332a1.737 1.737 0 011.733-1.734z"
  />
  <path
    fill="#038387"
    d="M37.435 42.814H14.691c-1.01 0-1.829-.803-1.829-1.793V33.4l14.4-3.137L39.26 33.4v7.62c0 .99-.82 1.794-1.826 1.794z"
  />
  <path
    fill="#37C6D0"
    d="M37.376 5.16H14.75c-1.042 0-1.887.833-1.884 1.855v16.972l13.599 1.57 12.799-1.57V7.015c0-1.022-.846-1.855-1.888-1.855z"
  />
  <path fill="#1A9BA1" d="M39.264 23.987H12.866V33.4h26.398v-9.413z" />
  <path
    d="M25.134 15.163V35.36c.003.102-.01.207-.03.309a1.778 1.778 0 01-1.756 1.481H12.866V13.374h10.482a1.78 1.78 0 011.786 1.78v.01z"
    opacity=".2"
  />
  <path
    d="M25.901 15.164v18.663a2.576 2.576 0 01-2.553 2.553H12.866V12.607h10.482a2.568 2.568 0 012.553 2.557z"
    opacity=".1"
  />
  <path
    d="M25.134 15.163v18.663a1.78 1.78 0 01-1.78 1.787H12.866v-22.24h10.482a1.78 1.78 0 011.786 1.78v.01z"
    opacity=".2"
  />
  <path
    d="M24.367 15.163v18.663a1.78 1.78 0 01-1.78 1.787h-9.721v-22.24h9.715a1.78 1.78 0 011.786 1.78v.01z"
    opacity=".1"
  />
  <path
    fill="url(#publisher__a)"
    d="M4.79 13.275h17.892c.99 0 1.79.8 1.79 1.79v17.893c0 .99-.8 1.79-1.79 1.79H4.79c-.99 0-1.79-.8-1.79-1.79V15.065c0-.986.8-1.79 1.79-1.79z"
  />
  <path
    fill="#fff"
    d="M13.905 18.169a4.661 4.661 0 013.14.944 3.403 3.403 0 011.088 2.73 3.889 3.889 0 01-.538 2.042 3.624 3.624 0 01-1.53 1.39 5.03 5.03 0 01-2.301.495h-2.177v4.156H9.355V18.169h4.55zm-2.32 5.805h1.923a2.437 2.437 0 001.698-.521c.403-.4.613-.954.574-1.521 0-1.295-.735-1.944-2.203-1.944h-1.993v3.986z"
  />
  <path d="M40.044 8.598h-.78v30.768h.78V8.598z" opacity=".2" />
  <path d="M40.824 8.598h-.78v30.768h.78V8.598z" opacity=".1" />
  <defs>
    <linearGradient
      id="publisher__a"
      x1="6.73"
      x2="20.741"
      y1="11.879"
      y2="36.145"
      gradientUnits="userSpaceOnUse"
    >
      <stop stop-color="#058F92" />
      <stop offset=".5" stop-color="#038489" />
      <stop offset="1" stop-color="#026D71" />
    </linearGradient>
  </defs>
</svg>
