<svg
  xmlns="http://www.w3.org/2000/svg"
  width="48"
  height="48"
  viewBox="0 0 48 48"
>
  <path
    fill="#fff"
    d="M3 24.068c0-3.192 3.097-6.171 7.98-7.85-.975-4.94-.174-8.922 2.499-10.474 2.748-1.595 6.841-.49 10.726 2.927 3.788-3.28 7.615-4.57 10.286-3.015 2.745 1.6 3.58 5.851 2.578 10.946C42.155 18.294 45 20.834 45 24.068c0 3.118-3.103 5.815-7.92 7.484 1.079 5.305.165 9.19-2.62 10.805-2.683 1.558-6.556.2-10.398-3.165-3.998 3.572-7.832 4.663-10.613 3.043-2.682-1.562-3.447-5.617-2.469-10.648C6.262 29.932 3 27.174 3 24.068z"
  />
  <path
    fill="#53C1DE"
    d="M36.06 29.895c-.397.137-.798.264-1.201.38.067.274.129.549.185.825.91 4.44.315 8.017-1.714 9.194-1.946 1.13-5.128-.048-8.342-2.863a25.007 25.007 0 01-.929-.857c-.203.195-.409.387-.618.574-3.368 3.01-6.745 4.278-8.772 3.097-1.944-1.132-2.52-4.495-1.701-8.703.081-.417.173-.831.275-1.243a24.654 24.654 0 01-1.38-.437c-3.95-1.385-6.471-3.557-6.471-5.809 0-2.326 2.707-4.66 6.82-6.074.334-.114.67-.22 1.009-.318-.11-.444-.208-.89-.293-1.34-.78-4.134-.17-7.417 1.768-8.543 2.002-1.162 5.363.033 8.636 2.911.259.228.518.47.778.722.328-.318.664-.626 1.009-.925 3.17-2.745 6.3-3.854 8.238-2.726 2 1.166 2.65 4.693 1.806 8.984-.064.328-.14.662-.223 1.003.236.07.467.143.693.218 4.276 1.426 7.058 3.73 7.058 6.088 0 2.26-2.603 4.446-6.631 5.842z"
  />
  <path
    fill="#fff"
    d="M35.132 19.487a20.762 20.762 0 00-.626-.197c-.472 1.504-1.11 3.103-1.89 4.755a37.76 37.76 0 011.816 4.686c.382-.112.752-.229 1.109-.352 3.452-1.196 5.557-2.964 5.557-4.326 0-1.451-2.274-3.335-5.966-4.566zM33.6 16.432c.373-1.897.427-3.613.18-4.954-.223-1.205-.67-2.008-1.222-2.33-1.175-.685-3.69.206-6.4 2.553-.31.27-.624.557-.938.86 1.051 1.157 2.101 2.502 3.127 3.996 1.803.16 3.506.424 5.051.783.076-.309.144-.611.202-.908zM18.108 9.266c-1.149-.408-2.063-.42-2.616-.099-1.177.683-1.666 3.32-.999 6.855.08.418.17.834.273 1.247 1.528-.34 3.219-.585 5.026-.733a38.978 38.978 0 013.202-3.98 19.645 19.645 0 00-.71-.659c-1.448-1.273-2.898-2.176-4.176-2.63zm-5.38 10.23c-1.82.626-3.321 1.439-4.35 2.326-.926.797-1.393 1.589-1.393 2.231 0 1.367 2.025 3.11 5.402 4.295.424.148.852.284 1.284.406a38.609 38.609 0 011.818-4.74 39.195 39.195 0 01-1.84-4.808c-.31.089-.617.186-.921.29zM14.53 31.85c-.7 3.605-.235 6.325.936 7.007 1.248.727 4.007-.31 6.916-2.908.186-.166.372-.34.56-.52a38.39 38.39 0 01-3.178-3.957 38.704 38.704 0 01-4.977-.778c-.095.383-.18.769-.257 1.156zm16.09-3.998a51.04 51.04 0 01-1.135 1.877c1.19-.15 2.33-.352 3.401-.598a34.339 34.339 0 00-1.193-3.232 55.87 55.87 0 01-1.073 1.953zm-6.562 6.431a34.25 34.25 0 002.195-2.666c-1.468.07-2.94.07-4.408 0a35.3 35.3 0 002.213 2.666zm-6.603-6.442a47.483 47.483 0 01-1.053-1.94 35.538 35.538 0 00-1.185 3.247c1.064.24 2.2.436 3.381.584a47.23 47.23 0 01-1.143-1.89zm1.178-9.582a33.716 33.716 0 00-3.438.556 36.14 36.14 0 001.209 3.314 47.248 47.248 0 012.229-3.87zm5.47-4.55a35.98 35.98 0 00-2.245 2.703 55.333 55.333 0 012.183-.043c.76 0 1.511.018 2.251.05a34.074 34.074 0 00-2.19-2.71zm7.605 8.478c.498-1.144.919-2.25 1.252-3.302a33.635 33.635 0 00-3.48-.597 55.11 55.11 0 011.146 1.91c.375.655.736 1.318 1.082 1.989zm-2.462-1.188a52.636 52.636 0 00-1.79-2.905 47.453 47.453 0 00-3.415-.121c-1.161 0-2.29.036-3.378.107a45.527 45.527 0 00-3.414 5.934 45.607 45.607 0 001.587 3.026c.566.989 1.17 1.955 1.808 2.898a44.857 44.857 0 006.8-.002 48.358 48.358 0 001.797-2.887 52.673 52.673 0 001.608-3.012A48.403 48.403 0 0029.247 21zm3.287 17.906c1.249-.725 1.735-3.648.95-7.482-.052-.25-.108-.498-.168-.746a37.93 37.93 0 01-4.987.793 37.63 37.63 0 01-3.153 3.96c.28.271.565.535.858.792 2.754 2.411 5.327 3.364 6.5 2.683z"
  />
  <path
    fill="#53C1DE"
    d="M24.042 27.405c1.84 0 3.33-1.501 3.33-3.352s-1.49-3.352-3.33-3.352-3.331 1.5-3.331 3.352c0 1.851 1.491 3.352 3.33 3.352z"
  />
</svg>
