<svg
  xmlns="http://www.w3.org/2000/svg"
  width="48"
  height="48"
  viewBox="0 0 48 48"
>
  <rect width="48" height="48" fill="#fff" rx="8" />
  <path
    fill="#fff"
    d="M1.895 24.072c0-3.36 3.26-6.496 8.4-8.264-1.026-5.2-.184-9.392 2.63-11.025 2.892-1.678 7.201-.516 11.291 3.081 3.987-3.452 8.016-4.81 10.827-3.173 2.89 1.683 3.769 6.159 2.714 11.521 5.354 1.781 8.348 4.456 8.348 7.86 0 3.282-3.266 6.121-8.337 7.878 1.136 5.584.174 9.673-2.757 11.374-2.825 1.64-6.901.21-10.946-3.333-4.209 3.76-8.244 4.909-11.172 3.203-2.822-1.644-3.628-5.911-2.598-11.207-4.967-1.743-8.4-4.646-8.4-7.915z"
  />
  <path
    fill="#53C1DE"
    d="M36.694 30.205c-.418.145-.839.278-1.264.401.07.288.136.577.196.867.957 4.674.331 8.44-1.805 9.679-2.048 1.188-5.398-.051-8.781-3.014a25.28 25.28 0 01-.978-.902c-.213.205-.43.407-.65.604-3.546 3.168-7.1 4.503-9.234 3.26-2.046-1.192-2.652-4.732-1.791-9.16.086-.44.182-.876.29-1.31a25.878 25.878 0 01-1.453-.46c-4.157-1.458-6.812-3.744-6.812-6.114 0-2.449 2.85-4.905 7.18-6.394.351-.12.705-.232 1.062-.334a25.998 25.998 0 01-.309-1.41c-.821-4.353-.18-7.809 1.861-8.994 2.108-1.223 5.646.035 9.091 3.065.272.24.546.493.82.76.344-.335.698-.66 1.06-.975 3.338-2.89 6.633-4.056 8.672-2.868 2.106 1.227 2.79 4.939 1.902 9.456a23.67 23.67 0 01-.235 1.056c.248.074.492.15.73.23 4.5 1.5 7.43 3.926 7.43 6.408 0 2.38-2.741 4.68-6.982 6.15z"
  />
  <path
    fill="#fff"
    d="M35.718 19.25a20.531 20.531 0 00-.66-.208c-.496 1.583-1.167 3.266-1.988 5.005a39.763 39.763 0 011.911 4.933c.402-.117.792-.24 1.167-.37 3.634-1.26 5.85-3.12 5.85-4.554 0-1.528-2.394-3.51-6.28-4.806zm-1.613-3.216c.393-1.997.45-3.803.19-5.215-.235-1.268-.705-2.114-1.286-2.452-1.238-.721-3.884.216-6.737 2.687-.328.283-.657.586-.988.906 1.107 1.217 2.212 2.633 3.291 4.205 1.899.17 3.692.447 5.318.825.08-.325.151-.644.212-.956zM17.799 8.491c-1.209-.43-2.172-.442-2.754-.104-1.238.718-1.753 3.493-1.05 7.215.083.44.178.878.286 1.312 1.608-.358 3.388-.615 5.29-.77a41.02 41.02 0 013.371-4.19 20.76 20.76 0 00-.748-.694c-1.523-1.34-3.05-2.29-4.395-2.769zm-5.664 10.768c-1.914.659-3.495 1.514-4.579 2.448-.974.84-1.465 1.672-1.465 2.349 0 1.438 2.131 3.273 5.686 4.52.446.157.897.3 1.351.429a40.634 40.634 0 011.914-4.99 41.24 41.24 0 01-1.937-5.061c-.326.093-.65.195-.97.305zm1.899 13.004c-.738 3.795-.248 6.658.985 7.376 1.314.765 4.218-.326 7.28-3.061.195-.175.392-.358.589-.547a40.391 40.391 0 01-3.345-4.165 40.725 40.725 0 01-5.24-.82c-.1.404-.19.81-.27 1.218zm16.936-4.208a53.708 53.708 0 01-1.194 1.976 36.61 36.61 0 003.58-.63A36.147 36.147 0 0032.1 26c-.363.693-.74 1.378-1.13 2.056zm-6.907 6.77a36.03 36.03 0 002.311-2.807 49.092 49.092 0 01-4.64 0 37.162 37.162 0 002.33 2.806zm-6.95-6.782A50.053 50.053 0 0116.003 26a37.363 37.363 0 00-1.247 3.42 37.63 37.63 0 003.56.614 49.664 49.664 0 01-1.204-1.99zm1.24-10.086c-1.287.144-2.5.34-3.62.585a37.981 37.981 0 001.273 3.488 49.707 49.707 0 012.346-4.073zm5.757-4.79a37.878 37.878 0 00-2.362 2.846c.751-.03 1.518-.045 2.297-.045.8 0 1.591.018 2.37.053a35.85 35.85 0 00-2.305-2.853zm8.005 8.924a35.97 35.97 0 001.319-3.476 35.365 35.365 0 00-3.663-.628 55.716 55.716 0 012.345 4.104zm-2.591-1.25a55.384 55.384 0 00-1.884-3.058 50.222 50.222 0 00-3.595-.127c-1.222 0-2.41.038-3.555.113a47.932 47.932 0 00-3.594 6.246 47.497 47.497 0 003.574 6.235 47.242 47.242 0 007.157-.001 50.913 50.913 0 001.891-3.04 55.403 55.403 0 001.693-3.17 50.994 50.994 0 00-1.687-3.198zm3.46 18.849c1.315-.764 1.826-3.84 1-7.876a22.43 22.43 0 00-.177-.785c-1.628.378-3.397.66-5.25.834a39.61 39.61 0 01-3.318 4.169c.294.285.595.563.903.833 2.898 2.539 5.608 3.54 6.842 2.825z"
  />
  <path
    fill="#53C1DE"
    d="M24.044 27.584c1.936 0 3.506-1.58 3.506-3.528 0-1.949-1.57-3.529-3.506-3.529-1.936 0-3.506 1.58-3.506 3.529 0 1.948 1.57 3.528 3.506 3.528"
  />
</svg>
