<svg
  width="48"
  height="48"
  fill="none"
  xmlns="http://www.w3.org/2000/svg"
  viewBox="0 0 48 48"
>
  <path
    d="M24 44c11.046 0 20-8.954 20-20S35.046 4 24 4 4 12.954 4 24s8.954 20 20 20z"
    fill="#FC471E"
  />
  <path
    d="M37.341 24a2.912 2.912 0 00-4.94-2.1c-2.005-1.432-4.75-2.363-7.804-2.482l1.336-6.253 4.344.93a2.076 2.076 0 10.215-1.002l-4.845-1.026a.508.508 0 00-.526.215.478.478 0 00-.07.19l-1.48 6.97c-3.103.095-5.896 1.026-7.924 2.482a2.913 2.913 0 00-4.822 2.887 2.913 2.913 0 001.6 1.862 5.297 5.297 0 00-.072.883c0 4.487 5.227 8.138 11.67 8.138 6.445 0 11.671-3.627 11.671-8.138 0-.296-.024-.591-.071-.883A2.94 2.94 0 0037.34 24zm-20 2.076a2.075 2.075 0 114.15 0 2.075 2.075 0 01-4.15 0zm11.623 5.514c-1.432 1.432-4.152 1.527-4.94 1.527-.812 0-3.532-.12-4.94-1.527a.533.533 0 010-.764.533.533 0 01.763 0c.907.907 2.816 1.217 4.177 1.217 1.36 0 3.293-.31 4.177-1.217a.533.533 0 01.763 0 .58.58 0 010 .764zm-.382-3.413a2.077 2.077 0 110-4.154 2.077 2.077 0 010 4.154z"
    fill="#fff"
  />
</svg>
