<svg
  xmlns="http://www.w3.org/2000/svg"
  width="48"
  height="48"
  viewBox="0 0 48 48"
>
  <g filter="url(#safari__a)" opacity=".53">
    <path
      fill="#000"
      d="M42.243 24.636c0 4.684-1.922 9.177-5.343 12.49-3.421 3.312-8.061 5.173-12.9 5.173-4.838 0-9.478-1.86-12.9-5.173-3.42-3.313-5.342-7.806-5.342-12.49 0-4.685 1.922-9.178 5.343-12.49 3.421-3.313 8.061-5.174 12.9-5.174 4.838 0 9.478 1.861 12.9 5.174 3.42 3.312 5.342 7.805 5.342 12.49z"
    />
  </g>
  <path
    fill="url(#safari__b)"
    stroke="#CDCDCD"
    stroke-linecap="round"
    stroke-linejoin="round"
    stroke-width=".056"
    d="M42.937 23.076c0 5.05-1.995 9.893-5.546 13.464A18.885 18.885 0 0124 42.117c-2.487 0-4.95-.492-7.247-1.449a18.931 18.931 0 01-6.144-4.128 19.048 19.048 0 01-4.105-6.177 19.132 19.132 0 010-14.574 19.048 19.048 0 014.105-6.178 18.93 18.93 0 016.144-4.127A18.847 18.847 0 0124 4.034c5.022 0 9.84 2.007 13.39 5.578a19.095 19.095 0 015.547 13.464v0z"
  />
  <path
    fill="url(#safari__c)"
    d="M41.454 23.076c0 2.305-.452 4.587-1.329 6.716a17.557 17.557 0 01-3.783 5.693 17.447 17.447 0 01-5.663 3.804 17.371 17.371 0 01-13.358 0 17.447 17.447 0 01-5.663-3.804 17.556 17.556 0 01-3.783-5.693 17.633 17.633 0 01-1.329-6.716c0-4.654 1.84-9.118 5.112-12.409A17.405 17.405 0 0124 5.527c2.292 0 4.562.454 6.68 1.336a17.448 17.448 0 015.662 3.804 17.558 17.558 0 013.783 5.693 17.634 17.634 0 011.329 6.716z"
  />
  <path
    fill="#F4F2F3"
    d="M24 6.442a.253.253 0 00-.235.157.256.256 0 00-.02.098V9.65a.256.256 0 00.255.256.254.254 0 00.255-.256V6.698a.257.257 0 00-.158-.237.253.253 0 00-.097-.02zm-1.665.106a.253.253 0 00-.265.17.256.256 0 00-.013.111l.128 1.234a.256.256 0 00.28.228.254.254 0 00.226-.28l-.128-1.235a.256.256 0 00-.228-.228zm3.341 0a.253.253 0 00-.228.229L25.32 8.01a.257.257 0 00.226.281.254.254 0 00.28-.227l.13-1.235a.256.256 0 00-.167-.268.252.252 0 00-.112-.013zm-5.051.248a.253.253 0 00-.247.196.258.258 0 00-.001.113l.608 2.887a.256.256 0 00.301.198.255.255 0 00.197-.303l-.608-2.888a.256.256 0 00-.25-.203zm6.76.003a.253.253 0 00-.25.202l-.61 2.887a.256.256 0 00.296.305.254.254 0 00.202-.198l.61-2.888a.257.257 0 00-.248-.308zm-8.392.46a.253.253 0 00-.273.21.257.257 0 00.008.124l.382 1.18a.257.257 0 00.222.176.253.253 0 00.247-.138.256.256 0 00.015-.195l-.38-1.18a.255.255 0 00-.221-.177zm10.016 0a.253.253 0 00-.22.177l-.383 1.18a.257.257 0 00.164.322.253.253 0 00.32-.164l.382-1.18a.256.256 0 00-.263-.335zm-11.63.595a.253.253 0 00-.25.237.257.257 0 00.021.123l1.193 2.697a.254.254 0 00.487-.11.258.258 0 00-.022-.098l-1.192-2.697a.255.255 0 00-.238-.152zm13.261.009a.253.253 0 00-.237.152l-1.196 2.695a.258.258 0 00.13.338.253.253 0 00.335-.13l1.196-2.695a.256.256 0 00-.228-.36zm-14.758.787a.253.253 0 00-.273.25c0 .047.011.093.034.133l.617 1.076a.258.258 0 00.254.126.255.255 0 00.22-.287.258.258 0 00-.033-.095l-.617-1.075a.254.254 0 00-.202-.128zm16.236 0a.252.252 0 00-.202.128l-.617 1.075a.26.26 0 00.018.284.254.254 0 00.423-.029l.616-1.074a.257.257 0 00-.104-.356.253.253 0 00-.134-.027zm-17.692.912a.254.254 0 00-.244.278c.004.047.02.091.047.129l1.723 2.389a.254.254 0 10.413-.3l-1.723-2.39a.255.255 0 00-.215-.105v-.001zm19.166.013a.253.253 0 00-.216.106l-1.726 2.387a.257.257 0 00.245.403.254.254 0 00.167-.103l1.726-2.386a.257.257 0 00-.196-.407zM13.127 10.66a.252.252 0 00-.244.145.256.256 0 00.041.282l.826.923a.255.255 0 10.378-.343l-.826-.922a.253.253 0 00-.175-.085zm21.748.002a.254.254 0 00-.175.085l-.827.922a.257.257 0 00.202.427.254.254 0 00.176-.085l.827-.922a.256.256 0 00-.203-.427zM11.88 11.863a.253.253 0 00-.227.17.256.256 0 00.07.275l2.182 1.975a.253.253 0 00.425-.204.257.257 0 00-.084-.176l-2.182-1.975a.254.254 0 00-.184-.065zm24.248.008a.25.25 0 00-.184.066l-2.183 1.972a.258.258 0 00-.07.276.256.256 0 00.227.17.252.252 0 00.183-.065l2.182-1.973a.255.255 0 00.072-.275.255.255 0 00-.227-.17zm-25.284 1.332a.252.252 0 00-.252.171.257.257 0 00.094.292l.998.73a.252.252 0 00.283.01.255.255 0 00.084-.351.252.252 0 00-.068-.074l-.998-.73a.253.253 0 00-.141-.048zm26.319.009a.254.254 0 00-.141.048l-1 .73a.256.256 0 00.3.414l.999-.73a.255.255 0 00-.158-.462zm-27.287 1.42a.252.252 0 00-.231.197.256.256 0 00.122.28l2.542 1.475a.252.252 0 00.282-.019.256.256 0 00-.028-.424l-2.542-1.475a.253.253 0 00-.145-.034zm28.249 0a.25.25 0 00-.145.034l-2.542 1.475a.255.255 0 00-.126.255.256.256 0 00.286.22.254.254 0 00.094-.031l2.542-1.476a.255.255 0 00-.109-.477zM9.143 16.155a.252.252 0 00-.257.2.256.256 0 00.149.29l1.128.505a.252.252 0 00.335-.13.257.257 0 00-.128-.337l-1.128-.506a.252.252 0 00-.099-.022zm29.718.01a.253.253 0 00-.099.023l-1.127.504a.256.256 0 00.206.468l1.128-.505a.254.254 0 00.149-.29.255.255 0 00-.257-.2zm-30.37 1.582a.253.253 0 00-.234.225.257.257 0 00.177.273l2.79.915a.254.254 0 00.333-.263.258.258 0 00-.175-.224l-2.79-.914a.255.255 0 00-.1-.012zm31.021.01a.246.246 0 00-.1.013l-2.791.912a.253.253 0 00-.175.223.257.257 0 00.233.275.254.254 0 00.1-.011l2.79-.912a.254.254 0 00.177-.273.256.256 0 00-.234-.226zM8.084 19.42a.253.253 0 00-.261.227.256.256 0 00.207.279l1.208.258a.253.253 0 00.301-.197.257.257 0 00-.195-.304l-1.208-.258a.253.253 0 00-.052-.005zm31.832.002a.318.318 0 00-.051.005l-1.208.258a.254.254 0 00-.196.303.256.256 0 00.302.197l1.208-.257a.253.253 0 00.207-.279.256.256 0 00-.262-.228v.001zm-32.14 1.678a.253.253 0 00-.237.254.256.256 0 00.236.256l2.918.31a.254.254 0 00.28-.228.259.259 0 00-.131-.251.251.251 0 00-.095-.03l-2.92-.31a.26.26 0 00-.05 0zm32.45.023a.232.232 0 00-.052 0l-2.92.306a.254.254 0 00-.226.281.256.256 0 00.28.228l2.92-.306a.253.253 0 00.231-.256.256.256 0 00-.233-.253zM7.727 22.82a.254.254 0 00-.255.255.257.257 0 00.255.256h1.235a.254.254 0 00.255-.256.257.257 0 00-.255-.255H7.727zm31.31 0a.254.254 0 00-.254.255.256.256 0 00.255.256h1.235a.254.254 0 00.254-.256.257.257 0 00-.254-.255h-1.235zm-28.293 1.395a.232.232 0 00-.052 0l-2.92.306a.254.254 0 00-.226.281.257.257 0 00.28.228l2.92-.306a.254.254 0 00.235-.256.256.256 0 00-.237-.253zm26.51.018a.254.254 0 00-.237.254.256.256 0 00.236.255l2.918.31a.252.252 0 00.25-.132.256.256 0 00-.196-.377l-2.919-.31a.266.266 0 00-.052 0zM9.29 25.96a.254.254 0 00-.052.006l-1.208.258a.254.254 0 00-.196.303.256.256 0 00.203.198.253.253 0 00.1 0l1.207-.259a.254.254 0 00.207-.278.256.256 0 00-.261-.228zm29.422.003a.254.254 0 00-.261.228.256.256 0 00.207.278l1.207.258a.254.254 0 00.303-.297.255.255 0 00-.197-.204l-1.208-.258a.247.247 0 00-.051-.006v.001zm-27.39 1.007a.244.244 0 00-.1.012l-2.79.912a.255.255 0 00-.164.323.255.255 0 00.32.164l2.791-.912a.254.254 0 00.177-.273.256.256 0 00-.233-.225zm25.353.01a.253.253 0 00-.234.225.256.256 0 00.177.273l2.79.914a.255.255 0 10.158-.486l-2.79-.915a.254.254 0 00-.1-.012zm-26.417 1.99a.254.254 0 00-.099.022l-1.128.505a.254.254 0 00-.129.338.257.257 0 00.24.152.253.253 0 00.096-.022l1.128-.505a.254.254 0 00.148-.29.255.255 0 00-.256-.2zm27.482.01a.253.253 0 00-.256.2.257.257 0 00.147.29l1.127.505a.253.253 0 00.358-.227.258.258 0 00-.15-.24l-1.128-.506a.254.254 0 00-.098-.022zm-25.286.554a.25.25 0 00-.145.034l-2.542 1.475a.256.256 0 00.255.444l2.542-1.476a.255.255 0 00.122-.28.256.256 0 00-.232-.197zm23.094 0a.253.253 0 00-.232.198.257.257 0 00.122.28l2.542 1.475a.253.253 0 00.38-.189.257.257 0 00-.126-.254l-2.541-1.476a.253.253 0 00-.145-.034zm-23.728 2.166a.253.253 0 00-.14.048l-1 .73a.257.257 0 00.11.46.255.255 0 00.19-.046l.998-.73a.255.255 0 00-.158-.462zm24.356.009a.253.253 0 00-.252.172.257.257 0 00.093.29l.999.73a.253.253 0 00.355-.056.256.256 0 00-.056-.358l-.998-.73a.253.253 0 00-.141-.048zm-22.092.088a.251.251 0 00-.184.065l-2.183 1.973a.255.255 0 00-.07.275.256.256 0 00.226.17.252.252 0 00.184-.065l2.183-1.972a.256.256 0 00-.157-.446zm19.828.006a.254.254 0 00-.227.17.258.258 0 00.07.277l2.182 1.974a.253.253 0 00.41-.105.257.257 0 00-.07-.275l-2.18-1.975a.255.255 0 00-.185-.065zM16.153 33.68a.252.252 0 00-.215.105l-1.726 2.387a.255.255 0 00-.011.284.253.253 0 00.422.017l1.727-2.386a.256.256 0 00-.197-.407zm15.68.011a.253.253 0 00-.245.278c.004.046.02.09.047.128l1.723 2.389a.255.255 0 10.413-.3l-1.724-2.39a.253.253 0 00-.215-.105zm-17.909.368a.254.254 0 00-.175.086l-.827.922a.256.256 0 00.203.426.253.253 0 00.175-.084l.827-.922a.255.255 0 00-.203-.428zm20.15.002a.252.252 0 00-.244.145.256.256 0 00.041.281l.826.923a.255.255 0 00.36.02.256.256 0 00.019-.362l-.826-.923a.254.254 0 00-.176-.084zm-15.51 1.023a.252.252 0 00-.237.152l-1.196 2.695a.257.257 0 00.13.338.254.254 0 00.336-.13l1.195-2.695a.256.256 0 00-.228-.36zm10.855.008a.253.253 0 00-.25.236.256.256 0 00.022.123l1.192 2.697a.255.255 0 10.466-.207l-1.192-2.697a.254.254 0 00-.238-.153zm-12.956.826a.252.252 0 00-.202.127l-.618 1.075a.258.258 0 00.093.35.254.254 0 00.348-.094l.617-1.075a.257.257 0 00-.105-.356.252.252 0 00-.133-.027zm15.074 0a.253.253 0 00-.273.25c0 .047.011.092.035.133l.617 1.076a.254.254 0 00.467-.063.256.256 0 00-.026-.194l-.618-1.075a.253.253 0 00-.202-.128zm-10.31.038a.253.253 0 00-.251.203l-.61 2.887a.256.256 0 00.296.305.253.253 0 00.202-.199l.61-2.887a.257.257 0 00-.138-.284.253.253 0 00-.11-.025zm5.538.002a.253.253 0 00-.247.196.257.257 0 00-.001.113l.608 2.887a.257.257 0 00.202.198.251.251 0 00.26-.112.255.255 0 00.035-.192l-.608-2.888a.256.256 0 00-.25-.202zM24 36.248a.252.252 0 00-.235.158.256.256 0 00-.02.098v2.951a.256.256 0 00.255.256.254.254 0 00.255-.256v-2.951a.256.256 0 00-.255-.255zm-4.671.954a.254.254 0 00-.22.176l-.382 1.18a.257.257 0 00.163.323.253.253 0 00.32-.165l.383-1.18a.257.257 0 00-.141-.315.254.254 0 00-.123-.02zm9.34 0a.254.254 0 00-.264.334l.382 1.181a.255.255 0 00.407.115.254.254 0 00.076-.273l-.38-1.18a.255.255 0 00-.221-.177zm-6.266.658a.252.252 0 00-.229.228l-.128 1.234a.259.259 0 00.131.251.253.253 0 00.375-.198l.129-1.234a.256.256 0 00-.167-.267.252.252 0 00-.111-.014zm3.184.001a.252.252 0 00-.265.17.256.256 0 00-.013.112l.128 1.234a.256.256 0 00.28.227.254.254 0 00.226-.28l-.128-1.235a.256.256 0 00-.228-.228z"
  />
  <g filter="url(#safari__d)" opacity=".409">
    <path
      fill="#000"
      d="M35.926 12.842l-13.922 8.133-8.802 13.934 12.877-9.59 9.847-12.477z"
    />
  </g>
  <path
    fill="#FF5150"
    d="M25.995 25.177l-3.99-4.202 14.156-9.576-10.166 13.778z"
  />
  <path
    fill="#F1F1F1"
    d="M25.995 25.177l-3.99-4.202-10.166 13.777 14.156-9.575z"
  />
  <path
    fill="#000"
    d="M11.84 34.752l14.155-9.575L36.16 11.4 11.84 34.752z"
    opacity=".243"
  />
  <defs>
    <filter
      id="safari__a"
      width="39.344"
      height="38.185"
      x="4.328"
      y="5.543"
      color-interpolation-filters="sRGB"
      filterUnits="userSpaceOnUse"
    >
      <feFlood flood-opacity="0" result="BackgroundImageFix" />
      <feBlend in="SourceGraphic" in2="BackgroundImageFix" result="shape" />
      <feGaussianBlur result="effect1_foregroundBlur" stdDeviation=".715" />
    </filter>
    <filter
      id="safari__d"
      width="23.538"
      height="22.88"
      x="12.795"
      y="12.435"
      color-interpolation-filters="sRGB"
      filterUnits="userSpaceOnUse"
    >
      <feFlood flood-opacity="0" result="BackgroundImageFix" />
      <feBlend in="SourceGraphic" in2="BackgroundImageFix" result="shape" />
      <feGaussianBlur result="effect1_foregroundBlur" stdDeviation=".203" />
    </filter>
    <radialGradient
      id="safari__c"
      cx="0"
      cy="0"
      r="1"
      gradientTransform="matrix(18.9371 0 0 19.0414 24.078 20.517)"
      gradientUnits="userSpaceOnUse"
    >
      <stop stop-color="#06C2E7" />
      <stop offset=".25" stop-color="#0DB8EC" />
      <stop offset=".5" stop-color="#12AEF1" />
      <stop offset=".75" stop-color="#1F86F9" />
      <stop offset="1" stop-color="#107DDD" />
    </radialGradient>
    <linearGradient
      id="safari__b"
      x1="23.999"
      x2="23.999"
      y1="42.117"
      y2="4.034"
      gradientUnits="userSpaceOnUse"
    >
      <stop stop-color="#BDBDBD" />
      <stop offset="1" stop-color="#fff" />
    </linearGradient>
  </defs>
</svg>
