<svg
  xmlns="http://www.w3.org/2000/svg"
  width="48"
  height="48"
  viewBox="0 0 48 48"
>
  <rect width="48" height="48" fill="#fff" rx="8" />
  <g filter="url(#safari__a)" opacity=".53">
    <path d="M43.267 24.718c0 4.948-2.03 9.693-5.643 13.191-3.613 3.499-8.514 5.464-13.623 5.464-5.11 0-10.01-1.965-13.624-5.464-3.613-3.498-5.643-8.243-5.643-13.19 0-4.948 2.03-9.693 5.643-13.192 3.613-3.498 8.514-5.464 13.624-5.464 5.11 0 10.01 1.966 13.623 5.464 3.613 3.499 5.643 8.244 5.643 13.191z" />
  </g>
  <path
    fill="url(#safari__b)"
    stroke="#CDCDCD"
    stroke-linecap="round"
    stroke-linejoin="round"
    stroke-width=".056"
    d="M44 23.07a20.166 20.166 0 01-5.858 14.22A19.945 19.945 0 0124 43.18a19.899 19.899 0 01-7.654-1.53 19.994 19.994 0 01-6.489-4.359 20.118 20.118 0 01-4.335-6.524 20.206 20.206 0 010-15.392A20.118 20.118 0 019.857 8.85a19.994 19.994 0 016.49-4.36A19.905 19.905 0 0124 2.961a19.945 19.945 0 0114.142 5.89A20.166 20.166 0 0144 23.07v0z"
  />
  <path
    fill="url(#safari__c)"
    d="M42.433 23.07c0 2.435-.477 4.845-1.403 7.094a18.539 18.539 0 01-3.996 6.013 18.426 18.426 0 01-5.98 4.017 18.346 18.346 0 01-14.108 0 18.426 18.426 0 01-5.98-4.017 18.54 18.54 0 01-3.996-6.013 18.623 18.623 0 01-1.403-7.093c0-4.916 1.942-9.63 5.399-13.106a18.382 18.382 0 0113.033-5.428c2.421 0 4.818.48 7.054 1.41a18.425 18.425 0 015.98 4.018 18.541 18.541 0 013.996 6.013 18.624 18.624 0 011.403 7.093h.001z"
  />
  <path
    fill="#F4F2F3"
    d="M24 5.503a.267.267 0 00-.248.166.271.271 0 00-.02.104V8.89a.271.271 0 00.268.27.268.268 0 00.269-.27V5.773a.274.274 0 00-.079-.19.268.268 0 00-.19-.08zm-1.758.112a.267.267 0 00-.28.179.271.271 0 00-.014.118l.135 1.303a.27.27 0 00.295.241.268.268 0 00.24-.297l-.136-1.303a.27.27 0 00-.24-.241zm3.528.001a.267.267 0 00-.24.24l-.137 1.304a.271.271 0 00.239.297.267.267 0 00.295-.24l.137-1.304a.271.271 0 00-.176-.283.267.267 0 00-.118-.014zm-5.335.261a.267.267 0 00-.26.207c-.01.04-.01.08-.001.12l.641 3.049a.27.27 0 00.319.209.269.269 0 00.207-.32l-.641-3.05a.27.27 0 00-.265-.215zm7.14.003a.267.267 0 00-.264.214l-.644 3.05a.273.273 0 00.11.278.269.269 0 00.416-.167l.644-3.049a.272.272 0 00-.146-.3.267.267 0 00-.116-.026zm-8.863.486a.267.267 0 00-.289.221.272.272 0 00.01.132l.403 1.247a.27.27 0 00.234.185.267.267 0 00.29-.248.27.27 0 00-.013-.104l-.402-1.247a.27.27 0 00-.233-.186zm10.578 0a.267.267 0 00-.233.187l-.403 1.246a.27.27 0 00.172.34.267.267 0 00.338-.173l.404-1.246a.27.27 0 00-.278-.353zm-12.283.628a.267.267 0 00-.264.25.271.271 0 00.023.13l1.26 2.849a.27.27 0 00.354.137.27.27 0 00.137-.357l-1.26-2.848a.269.269 0 00-.25-.16zm14.006.01a.267.267 0 00-.25.16L29.5 10.012a.274.274 0 00.05.296.268.268 0 00.44-.076l1.264-2.846a.27.27 0 00-.241-.381zm-15.587.831a.267.267 0 00-.288.265c0 .05.012.097.036.14l.652 1.136a.27.27 0 00.446.03.269.269 0 00.02-.3L15.64 7.97a.269.269 0 00-.214-.135zm17.148 0a.266.266 0 00-.214.135l-.652 1.136a.272.272 0 00.1.369.267.267 0 00.366-.1l.651-1.134a.27.27 0 00-.251-.405zm-18.685.963a.269.269 0 00-.258.294.273.273 0 00.05.136l1.82 2.523a.268.268 0 00.483-.116.272.272 0 00-.048-.201l-1.82-2.523a.269.269 0 00-.227-.112zm20.24.014a.267.267 0 00-.226.112l-1.824 2.52a.271.271 0 00.26.426.268.268 0 00.175-.108l1.823-2.52a.271.271 0 00-.207-.43zM12.518 9.957a.267.267 0 00-.258.153.27.27 0 00.044.298l.872.974a.27.27 0 10.4-.361l-.873-.975a.268.268 0 00-.185-.09v.001zm22.968.002a.268.268 0 00-.185.09l-.873.973a.271.271 0 00.214.451.268.268 0 00.186-.089l.872-.974a.271.271 0 00-.062-.414.267.267 0 00-.152-.037zM11.2 11.23a.267.267 0 00-.24.179.27.27 0 00.074.29l2.305 2.086a.267.267 0 00.38-.02.271.271 0 00-.02-.381l-2.305-2.085a.268.268 0 00-.194-.07zm25.608.008a.267.267 0 00-.194.07L34.31 13.39a.27.27 0 00.269.455.268.268 0 00.09-.053l2.305-2.083a.27.27 0 00-.165-.472zm-26.702 1.406a.267.267 0 00-.266.182.271.271 0 00.098.307l1.055.77a.267.267 0 00.42-.155.27.27 0 00-.104-.281l-1.055-.77a.268.268 0 00-.148-.053zm27.795.01a.269.269 0 00-.148.051l-1.056.77a.27.27 0 00.116.486.268.268 0 00.2-.048l1.056-.77a.27.27 0 00-.168-.489zm-28.818 1.5a.268.268 0 00-.244.208.271.271 0 00.13.295l2.684 1.559a.266.266 0 00.297-.02.27.27 0 00.096-.285.271.271 0 00-.125-.163l-2.684-1.559a.266.266 0 00-.154-.036zm29.835 0a.265.265 0 00-.154.035l-2.684 1.559a.27.27 0 00-.1.369.269.269 0 00.368.1l2.685-1.56a.269.269 0 00.13-.295.27.27 0 00-.245-.209zM8.31 15.76a.267.267 0 00-.272.211.27.27 0 00.157.307l1.191.533a.267.267 0 00.355-.136.27.27 0 00-.136-.357l-1.191-.534a.267.267 0 00-.104-.024zm31.385.011a.269.269 0 00-.104.024l-1.191.533a.27.27 0 00.218.494l1.192-.533a.269.269 0 00.156-.307.27.27 0 00-.27-.21zm-32.074 1.67a.267.267 0 00-.247.239.27.27 0 00.187.288l2.946.966a.266.266 0 00.339-.173.27.27 0 00-.172-.34l-2.947-.966a.268.268 0 00-.106-.013zm32.762.012a.26.26 0 00-.106.013l-2.948.963a.267.267 0 00-.185.236.27.27 0 00.247.29.269.269 0 00.104-.012l2.948-.963a.268.268 0 00.187-.288.27.27 0 00-.247-.238zM7.191 19.208a.268.268 0 00-.276.24.27.27 0 00.219.295l1.275.272a.266.266 0 00.277-.111.27.27 0 00-.165-.417l-1.276-.273a.268.268 0 00-.054-.006zm33.619.003a.33.33 0 00-.055.006l-1.275.272a.269.269 0 00-.207.32.27.27 0 00.318.208l1.276-.272a.268.268 0 00.219-.294.27.27 0 00-.276-.24zM6.866 20.983a.268.268 0 00-.25.268.27.27 0 00.248.27l3.083.328a.267.267 0 00.295-.24.27.27 0 00-.239-.298l-3.083-.327a.273.273 0 00-.054 0zm34.27.024a.246.246 0 00-.054 0l-3.084.323a.268.268 0 00-.239.297.27.27 0 00.296.24l3.083-.323a.267.267 0 00.245-.27.27.27 0 00-.247-.267zM6.814 22.8a.268.268 0 00-.27.27.271.271 0 00.27.27h1.304a.268.268 0 00.269-.27.271.271 0 00-.269-.27H6.814zm33.068 0a.268.268 0 00-.269.27.271.271 0 00.269.27h1.304a.268.268 0 00.27-.27.271.271 0 00-.27-.27h-1.304zM10 24.273a.246.246 0 00-.055 0l-3.083.324a.269.269 0 00-.24.297.27.27 0 00.296.24L10 24.812a.268.268 0 00.25-.27.27.27 0 00-.251-.268zm27.998.02a.268.268 0 00-.25.268.27.27 0 00.248.27l3.083.327a.267.267 0 00.264-.14.27.27 0 00-.207-.397l-3.083-.328a.272.272 0 00-.055 0zM8.463 26.118a.275.275 0 00-.054.006l-1.276.272a.268.268 0 00-.208.215.272.272 0 00.215.315.27.27 0 00.105-.001l1.275-.272a.268.268 0 00.22-.295.27.27 0 00-.277-.24zm31.074.003a.268.268 0 00-.276.24.27.27 0 00.219.295l1.275.272a.266.266 0 00.277-.111.273.273 0 00-.07-.376.269.269 0 00-.096-.042l-1.275-.272a.26.26 0 00-.055-.007l.001.001zM10.61 27.185a.26.26 0 00-.106.013l-2.948.963a.267.267 0 00-.156.134.271.271 0 00.218.392.267.267 0 00.104-.012l2.948-.963a.268.268 0 00.187-.288.27.27 0 00-.247-.239zm26.776.01a.268.268 0 00-.248.238.271.271 0 00.187.288l2.948.965a.27.27 0 00.287-.081.27.27 0 00-.121-.432l-2.947-.966a.268.268 0 00-.106-.013zm-27.9 2.102a.267.267 0 00-.104.023l-1.192.534a.269.269 0 00-.136.356.27.27 0 00.355.137l1.19-.533a.268.268 0 00.157-.306.27.27 0 00-.27-.211zm29.024.01a.267.267 0 00-.27.21.271.271 0 00.155.307l1.19.534a.266.266 0 00.295-.05.27.27 0 00-.075-.444l-1.191-.534a.267.267 0 00-.104-.023zm-26.705.586a.265.265 0 00-.153.036l-2.685 1.557a.27.27 0 00.269.469l2.685-1.559a.27.27 0 00-.116-.504zm24.39 0a.267.267 0 00-.245.208.27.27 0 00.13.296l2.684 1.558a.268.268 0 00.393-.304.271.271 0 00-.125-.164l-2.684-1.558a.267.267 0 00-.153-.036zm-25.06 2.286a.267.267 0 00-.148.052L9.93 33a.27.27 0 00.316.438l1.056-.77a.27.27 0 00-.168-.49zm25.723.01a.267.267 0 00-.265.182.271.271 0 00.098.307l1.055.77a.267.267 0 00.419-.155.273.273 0 00-.103-.282l-1.055-.77a.267.267 0 00-.149-.052zm-23.332.093a.267.267 0 00-.194.07l-2.305 2.083a.27.27 0 00.359.402l2.305-2.084a.27.27 0 00-.165-.47zm20.942.007a.268.268 0 00-.24.18.271.271 0 00.074.291l2.304 2.086a.268.268 0 00.448-.215.273.273 0 00-.089-.187l-2.303-2.086a.27.27 0 00-.194-.068zm-18.755 1.98a.268.268 0 00-.227.111l-1.824 2.521a.27.27 0 00.06.377.267.267 0 00.375-.059l1.824-2.52a.271.271 0 00-.07-.387.267.267 0 00-.138-.043zm16.559.012a.267.267 0 00-.232.151.272.272 0 00.024.277l1.82 2.523a.269.269 0 00.479-.22.271.271 0 00-.044-.097l-1.82-2.523a.267.267 0 00-.227-.111zm-18.913.389a.268.268 0 00-.185.09l-.873.973a.27.27 0 00.213.45.268.268 0 00.186-.088l.873-.974a.27.27 0 00-.214-.451zm21.28 0a.267.267 0 00-.257.154.272.272 0 00.044.298l.872.974a.268.268 0 00.453-.27.27.27 0 00-.054-.091l-.872-.975a.268.268 0 00-.186-.09zm-16.38 1.082a.267.267 0 00-.25.16l-1.263 2.846a.272.272 0 00.136.358.268.268 0 00.355-.137l1.263-2.847a.272.272 0 00-.114-.346.268.268 0 00-.127-.034zm11.464.008a.267.267 0 00-.263.25.271.271 0 00.023.13l1.259 2.848a.27.27 0 00.252.16.267.267 0 00.244-.172.27.27 0 00-.005-.207l-1.259-2.849a.27.27 0 00-.25-.16zm-13.683.872a.266.266 0 00-.214.135l-.652 1.135a.273.273 0 00.099.37.27.27 0 00.298-.02.271.271 0 00.069-.08l.651-1.135a.271.271 0 00-.11-.376.266.266 0 00-.14-.029zm15.92 0a.267.267 0 00-.288.265.27.27 0 00.036.14l.652 1.136a.27.27 0 00.368.099.269.269 0 00.132-.27.275.275 0 00-.034-.1l-.652-1.136a.269.269 0 00-.214-.134zm-10.889.04a.268.268 0 00-.265.215l-.644 3.049a.271.271 0 00.207.32.268.268 0 00.32-.208l.643-3.05a.27.27 0 00-.261-.325zm5.849.003a.266.266 0 00-.26.207.27.27 0 00-.002.119l.642 3.05a.27.27 0 00.415.166.268.268 0 00.11-.28l-.642-3.049a.27.27 0 00-.264-.213zm-2.92.308a.265.265 0 00-.19.079.272.272 0 00-.079.19v3.117a.271.271 0 00.269.27.268.268 0 00.269-.27v-3.117a.271.271 0 00-.166-.249.265.265 0 00-.103-.02zm-4.933 1.006a.268.268 0 00-.233.187l-.403 1.246a.271.271 0 00.173.34.267.267 0 00.338-.173l.404-1.247a.27.27 0 00-.28-.353zm9.864 0a.268.268 0 00-.289.222.272.272 0 00.01.131l.403 1.248a.27.27 0 00.339.173.268.268 0 00.172-.34l-.402-1.247a.27.27 0 00-.233-.186zm-6.618.696a.267.267 0 00-.241.24l-.136 1.304a.271.271 0 00.239.297.269.269 0 00.295-.24l.137-1.304a.27.27 0 00-.176-.283.268.268 0 00-.118-.014zm3.363 0a.266.266 0 00-.28.18.271.271 0 00-.014.118l.136 1.303a.271.271 0 00.295.24.268.268 0 00.239-.296l-.135-1.303a.27.27 0 00-.241-.241z"
  />
  <g filter="url(#safari__d)" opacity=".409">
    <path d="M36.596 12.262l-14.704 8.59-9.296 14.716 13.6-10.13 10.4-13.176z" />
  </g>
  <path
    fill="#FF5150"
    d="M26.107 25.29l-4.214-4.438 14.95-10.113-10.736 14.55z"
  />
  <path
    fill="#F1F1F1"
    d="M26.107 25.29l-4.214-4.438-10.737 14.55 14.95-10.112z"
  />
  <path
    d="M11.156 35.402l14.95-10.112 10.738-14.55-25.688 24.662z"
    opacity=".243"
  />
  <defs>
    <filter
      id="safari__a"
      width="41.392"
      height="40.168"
      x="3.305"
      y="4.634"
      color-interpolation-filters="sRGB"
      filterUnits="userSpaceOnUse"
    >
      <feFlood flood-opacity="0" result="BackgroundImageFix" />
      <feBlend in="SourceGraphic" in2="BackgroundImageFix" result="shape" />
      <feGaussianBlur result="effect1_foregroundBlur" stdDeviation=".715" />
    </filter>
    <filter
      id="safari__d"
      width="24.813"
      height="24.119"
      x="12.189"
      y="11.856"
      color-interpolation-filters="sRGB"
      filterUnits="userSpaceOnUse"
    >
      <feFlood flood-opacity="0" result="BackgroundImageFix" />
      <feBlend in="SourceGraphic" in2="BackgroundImageFix" result="shape" />
      <feGaussianBlur result="effect1_foregroundBlur" stdDeviation=".203" />
    </filter>
    <radialGradient
      id="safari__c"
      cx="0"
      cy="0"
      r="1"
      gradientTransform="matrix(20 0 0 20.1101 24.083 20.368)"
      gradientUnits="userSpaceOnUse"
    >
      <stop stop-color="#06C2E7" />
      <stop offset=".25" stop-color="#0DB8EC" />
      <stop offset=".5" stop-color="#12AEF1" />
      <stop offset=".75" stop-color="#1F86F9" />
      <stop offset="1" stop-color="#107DDD" />
    </radialGradient>
    <linearGradient
      id="safari__b"
      x1="23.999"
      x2="23.999"
      y1="43.181"
      y2="2.96"
      gradientUnits="userSpaceOnUse"
    >
      <stop stop-color="#BDBDBD" />
      <stop offset="1" stop-color="#fff" />
    </linearGradient>
  </defs>
</svg>
