<svg
  width="48"
  height="48"
  fill="none"
  xmlns="http://www.w3.org/2000/svg"
  viewBox="0 0 48 48"
>
  <path
    d="M12.71 7.652L23.96 6.5l11.25 1.152L43.92 19 23.96 41.5 4 19l8.71-11.348z"
    fill="#FDB300"
  />
  <path d="M12.085 19L23.96 41.5 4 19h8.085z" fill="#EA6C00" />
  <path d="M35.835 19L23.959 41.5 43.919 19h-8.084z" fill="#EA6C00" />
  <path d="M12.085 19h23.75L23.96 41.5 12.085 19z" fill="#FDAD00" />
  <path d="M23.96 6.5L12.71 7.652 12.085 19 23.96 6.5z" fill="#FDD231" />
  <path d="M23.959 6.5l11.25 1.152L35.834 19 23.959 6.5z" fill="#FDD231" />
  <path
    d="M43.919 19l-8.71-11.347L35.835 19h8.084zM4 19l8.71-11.347L12.085 19H4z"
    fill="#FDAD00"
  />
  <path d="M23.96 6.5L12.085 19h23.75L23.96 6.5z" fill="#FEEEB7" />
</svg>
