<svg
  width="48"
  height="48"
  fill="none"
  xmlns="http://www.w3.org/2000/svg"
  viewBox="0 0 48 48"
>
  <path
    d="M12.164 6.713L24 5.5l11.837 1.213L45 18.65 24 42.324 3 18.65l9.164-11.938z"
    fill="#FDB300"
  />
  <path d="M11.506 18.651L24 42.324 3 18.65h8.506z" fill="#EA6C00" />
  <path d="M36.494 18.651L23.999 42.324l21-23.673h-8.505z" fill="#EA6C00" />
  <path d="M11.507 18.651h24.987L24 42.324 11.507 18.65z" fill="#FDAD00" />
  <path d="M24 5.5L12.164 6.713l-.657 11.938L24 5.5z" fill="#FDD231" />
  <path d="M23.999 5.5l11.836 1.213.657 11.938L24 5.5z" fill="#FDD231" />
  <path
    d="M44.999 18.651L35.835 6.713l.659 11.938h8.505zM3 18.651l9.164-11.938-.658 11.938H3z"
    fill="#FDAD00"
  />
  <path d="M24 5.5L11.507 18.651h24.987L24 5.5z" fill="#FEEEB7" />
</svg>
