<svg
  xmlns="http://www.w3.org/2000/svg"
  width="48"
  height="48"
  viewBox="0 0 48 48"
>
  <rect width="48" height="48" fill="#fff" rx="8" />
  <path
    fill="#FDB300"
    d="M12.485 7.18L24 6l11.515 1.18 8.915 11.614L24 41.824 3.57 18.794 12.485 7.18z"
  />
  <path
    fill="#EA6C00"
    d="M11.846 18.794L24 41.824 3.57 18.794h8.276zm24.308 0L24 41.824l20.43-23.03h-8.275z"
  />
  <path fill="#FDAD00" d="M11.846 18.794h24.308L24 41.824l-12.154-23.03z" />
  <path fill="#FDD231" d="M24 6L12.485 7.18l-.64 11.614L24 6z" />
  <path fill="#FDD231" d="M23.999 6l11.515 1.18.639 11.614L23.999 6z" />
  <path
    fill="#FDAD00"
    d="M44.428 18.794L35.514 7.18l.64 11.614h8.274zm-40.858 0L12.485 7.18l-.64 11.614H3.57z"
  />
  <path fill="#FEEEB7" d="M24 6L11.846 18.794h24.308L24 6z" />
</svg>
