<svg
  xmlns="http://www.w3.org/2000/svg"
  width="48"
  height="48"
  viewBox="0 0 48 48"
>
  <rect width="40" height="40" x="4" y="4" fill="#FFFC00" rx="9" />
  <path
    fill="#fff"
    d="M24.42 38.288a4.82 4.82 0 01-.226-.006 1.736 1.736 0 01-.149.006c-1.771 0-2.956-.838-4-1.577-.75-.53-1.457-1.029-2.284-1.167a7.364 7.364 0 00-1.202-.101c-.704 0-1.26.109-1.667.188-.25.049-.465.09-.632.09-.174 0-.386-.038-.474-.34-.07-.237-.12-.468-.17-.69-.12-.555-.208-.893-.416-.925-2.222-.343-3.535-.848-3.796-1.46a.567.567 0 01-.046-.193.357.357 0 01.298-.372c1.764-.29 3.333-1.223 4.663-2.772a10.455 10.455 0 001.599-2.49c.256-.52.307-.97.152-1.335-.287-.676-1.235-.976-1.862-1.175a6.7 6.7 0 01-.421-.143c-.556-.22-1.47-.684-1.349-1.325.089-.467.707-.792 1.206-.792.139 0 .261.024.365.073.564.264 1.072.398 1.508.398.543 0 .805-.206.869-.265-.016-.29-.035-.596-.054-.886v-.003c-.127-2.027-.286-4.55.359-5.997 1.931-4.33 6.027-4.667 7.236-4.667l.527-.005h.072c1.212 0 5.316.337 7.249 4.67.645 1.447.486 3.972.358 6.001l-.006.098a82.14 82.14 0 00-.047.789c.06.055.3.244.787.263.416-.016.895-.15 1.421-.396.163-.076.343-.092.466-.092.185 0 .373.036.53.101l.008.004c.447.158.74.475.746.808.006.31-.225.775-1.36 1.223-.116.046-.264.093-.42.143-.629.199-1.576.5-1.862 1.174-.156.366-.105.816.152 1.336l.008.017c.079.185 1.99 4.543 6.254 5.245.18.03.308.19.298.372a.572.572 0 01-.047.194c-.26.609-1.573 1.113-3.795 1.456-.209.032-.297.37-.417.921-.05.228-.1.452-.17.687-.064.22-.208.328-.439.328h-.035c-.15 0-.363-.027-.632-.08a8.322 8.322 0 00-1.666-.176c-.391 0-.795.034-1.202.102-.827.137-1.534.636-2.281 1.165-1.048.74-2.233 1.578-4.004 1.578z"
  />
  <path
    fill="#020202"
    d="M24.525 10.714c1.142 0 5.072.306 6.924 4.458.61 1.367.453 3.844.328 5.834-.02.315-.04.621-.055.913l-.007.126.084.094c.034.037.351.368 1.056.396h.023c.466-.018.991-.163 1.562-.43a.763.763 0 01.314-.058c.134 0 .278.025.396.075l.018.007c.299.105.51.302.513.481.002.101-.074.465-1.133.884a6.55 6.55 0 01-.398.134c-.69.22-1.732.55-2.083 1.376-.197.466-.143 1.015.16 1.633.126.291 2.095 4.726 6.525 5.456a.196.196 0 01-.019.071c-.075.177-.552.788-3.522 1.246-.465.071-.578.592-.71 1.198a9.582 9.582 0 01-.163.662c-.02.068-.024.072-.098.072h-.034a3.28 3.28 0 01-.564-.073 8.715 8.715 0 00-1.735-.183c-.412 0-.835.036-1.26.107-.91.15-1.648.674-2.431 1.227-1.051.743-2.138 1.511-3.795 1.511a4.19 4.19 0 01-.214-.006h-.037c-.041.004-.082.006-.124.006-1.657 0-2.744-.768-3.795-1.511-.783-.553-1.522-1.076-2.431-1.227a7.703 7.703 0 00-1.26-.107c-.737 0-1.314.113-1.735.195a3.536 3.536 0 01-.564.084c-.107 0-.11-.006-.132-.084-.067-.226-.116-.45-.163-.666-.132-.607-.246-1.13-.71-1.202-2.97-.458-3.448-1.07-3.523-1.247a.217.217 0 01-.018-.072c4.43-.73 6.398-5.164 6.523-5.457.305-.618.359-1.167.16-1.633-.35-.826-1.392-1.157-2.08-1.375a6.694 6.694 0 01-.4-.135c-.894-.354-1.17-.71-1.129-.926.048-.249.48-.502.856-.502.084 0 .159.014.213.04.612.286 1.17.431 1.66.431.77 0 1.113-.358 1.15-.399l.083-.093-.007-.125a86.88 86.88 0 00-.055-.913c-.125-1.99-.281-4.465.329-5.832 1.845-4.137 5.755-4.456 6.91-4.456l.53-.005h.067zm0-.714h-.075l-.524.005c-.676 0-2.03.096-3.483.738a7.762 7.762 0 00-2.222 1.473c-.767.728-1.391 1.626-1.856 2.668-.68 1.527-.52 4.098-.39 6.165l.001.003.042.677c-.1.046-.262.095-.5.095-.385 0-.841-.123-1.358-.365a1.212 1.212 0 00-.516-.107c-.308 0-.632.09-.913.256-.353.208-.582.501-.644.827-.04.215-.039.64.434 1.072.26.237.642.456 1.134.65.13.052.283.1.446.152.564.18 1.418.45 1.64.974.113.266.065.615-.144 1.038a.834.834 0 00-.015.035c-.053.121-.538 1.22-1.534 2.38a8.623 8.623 0 01-1.85 1.639 6.807 6.807 0 01-2.6 1.015.714.714 0 00-.597.744.94.94 0 00.074.31v.002c.146.34.484.63 1.032.885.67.311 1.673.573 2.979.778.066.125.134.44.182.657.05.23.101.466.175.716.08.272.287.597.817.597.201 0 .433-.046.7-.098a7.894 7.894 0 011.6-.182c.37 0 .755.033 1.142.098.747.124 1.39.578 2.135 1.105 1.09.77 2.323 1.642 4.208 1.642.052 0 .103-.001.154-.005.062.003.14.005.221.005 1.885 0 3.119-.872 4.207-1.642L28.63 37c.745-.525 1.388-.98 2.134-1.103a7.004 7.004 0 011.143-.098c.64 0 1.146.082 1.599.17.295.058.524.086.7.086h.035a.77.77 0 00.782-.585 9.94 9.94 0 00.175-.71c.045-.202.115-.527.181-.654 1.308-.205 2.31-.466 2.98-.778.547-.253.884-.542 1.03-.881a.914.914 0 00.076-.314.713.713 0 00-.597-.744c-4.073-.671-5.907-4.856-5.983-5.034a.544.544 0 00-.017-.035c-.208-.422-.256-.772-.143-1.038.222-.523 1.076-.794 1.64-.973.163-.052.318-.1.446-.152.555-.219.953-.457 1.215-.727.313-.323.374-.632.37-.834-.01-.489-.384-.923-.978-1.136a1.75 1.75 0 00-.663-.127c-.16 0-.394.022-.617.126-.476.223-.903.345-1.27.362a1.148 1.148 0 01-.42-.093l.037-.59.005-.088c.13-2.068.293-4.641-.389-6.169-.466-1.046-1.093-1.946-1.863-2.676a7.779 7.779 0 00-2.23-1.473A8.868 8.868 0 0024.525 10z"
  />
</svg>
