<svg
  xmlns="http://www.w3.org/2000/svg"
  width="48"
  height="48"
  viewBox="0 0 48 48"
>
  <rect width="48" height="48" fill="#FFFC00" rx="8" />
  <path
    fill="#fff"
    d="M24.504 41.145c-.101 0-.198-.004-.271-.007a2.1 2.1 0 01-.179.007c-2.125 0-3.547-1.005-4.801-1.892-.9-.635-1.747-1.235-2.74-1.4a8.847 8.847 0 00-1.442-.122c-.845 0-1.513.131-2 .227-.3.058-.559.108-.759.108-.209 0-.463-.046-.57-.408a12.26 12.26 0 01-.202-.829c-.145-.666-.25-1.072-.5-1.11-2.666-.412-4.242-1.018-4.555-1.752a.68.68 0 01-.056-.231.428.428 0 01.358-.446c2.117-.35 4-1.468 5.596-3.328 1.236-1.44 1.843-2.815 1.909-2.967a.273.273 0 01.01-.02c.307-.624.368-1.164.182-1.603-.344-.81-1.482-1.17-2.234-1.41a8.037 8.037 0 01-.506-.171c-.667-.264-1.764-.82-1.618-1.59.106-.56.848-.95 1.447-.95.166 0 .313.03.438.087.677.318 1.286.478 1.81.478.651 0 .966-.248 1.042-.318-.019-.348-.042-.715-.064-1.063v-.004c-.153-2.433-.344-5.46.43-7.196 2.318-5.196 7.233-5.6 8.683-5.6l.633-.006h.086c1.454 0 6.38.404 8.699 5.603.774 1.737.583 4.767.43 7.202l-.008.117c-.02.33-.04.643-.056.947.071.066.359.293.945.316.5-.02 1.073-.18 1.705-.475.195-.092.412-.11.559-.11.221 0 .447.042.636.12l.01.005c.536.19.887.57.895.97.006.373-.27.93-1.632 1.467-.14.055-.318.112-.505.171-.754.24-1.89.6-2.234 1.41-.187.44-.125.978.182 1.602l.01.021c.095.222 2.388 5.451 7.504 6.294.216.036.37.228.358.446a.688.688 0 01-.056.234c-.312.73-1.887 1.335-4.554 1.747-.25.038-.356.443-.5 1.105-.06.274-.12.542-.203.824-.078.265-.25.394-.528.394h-.041c-.181 0-.437-.033-.76-.096a9.985 9.985 0 00-2-.212c-.468 0-.953.042-1.441.122-.993.166-1.84.764-2.738 1.399-1.257.888-2.678 1.893-4.804 1.893z"
  />
  <path
    fill="#020202"
    d="M24.63 8.056c1.37 0 6.086.368 8.308 5.35.732 1.641.544 4.613.394 7-.023.38-.047.747-.066 1.097l-.008.151.1.112c.042.045.422.443 1.268.476h.028c.56-.021 1.19-.195 1.873-.515a.903.903 0 01.377-.07c.162 0 .334.03.476.09l.021.008c.359.126.612.363.616.577.002.121-.088.558-1.36 1.06a7.872 7.872 0 01-.478.162c-.827.263-2.078.66-2.498 1.65-.237.56-.173 1.219.192 1.96.15.35 2.513 5.672 7.829 6.548a.235.235 0 01-.022.085c-.09.212-.663.945-4.227 1.495-.557.086-.694.71-.852 1.438-.057.26-.116.522-.195.794-.025.081-.03.086-.117.086h-.042c-.158 0-.398-.033-.676-.087a10.454 10.454 0 00-2.083-.22c-.493 0-1.002.043-1.512.128-1.09.182-1.978.809-2.917 1.473-1.261.891-2.565 1.813-4.554 1.813-.087 0-.172-.002-.257-.007h-.022l-.023.001a1.68 1.68 0 01-.148.007c-1.989 0-3.293-.923-4.554-1.814-.94-.664-1.827-1.291-2.917-1.473a9.249 9.249 0 00-1.512-.128c-.884 0-1.577.135-2.082.234-.278.055-.52.101-.677.101-.129 0-.131-.007-.159-.1-.08-.272-.138-.54-.195-.8-.159-.728-.295-1.357-.853-1.442-3.563-.55-4.136-1.285-4.226-1.497a.26.26 0 01-.022-.087c5.316-.875 7.678-6.197 7.828-6.548.366-.74.43-1.4.193-1.96-.421-.99-1.671-1.387-2.498-1.65a8.062 8.062 0 01-.479-.161c-1.074-.425-1.404-.852-1.355-1.111.057-.299.575-.603 1.027-.603.101 0 .19.017.256.048.734.344 1.404.518 1.992.518.924 0 1.335-.43 1.38-.479l.1-.112-.009-.15a76.6 76.6 0 00-.066-1.096c-.15-2.388-.337-5.358.394-6.998 2.214-4.964 6.907-5.347 8.292-5.347l.637-.006h.08zm0-.856h-.091l-.628.007c-.812 0-2.435.114-4.18.884a9.31 9.31 0 00-2.666 1.768c-.92.874-1.67 1.95-2.227 3.202-.817 1.832-.623 4.918-.467 7.397v.004l.05.813c-.12.055-.314.113-.6.113-.461 0-1.009-.147-1.628-.437a1.456 1.456 0 00-.62-.128c-.37 0-.758.108-1.095.307-.425.249-.699.601-.773.992-.05.258-.047.768.52 1.286.312.285.77.548 1.361.781.156.061.34.12.535.182.677.215 1.701.54 1.968 1.169.136.319.078.738-.172 1.245l-.02.042c-.062.146-.644 1.465-1.839 2.856a10.347 10.347 0 01-2.221 1.966 8.168 8.168 0 01-3.12 1.218.856.856 0 00-.716.893 1.13 1.13 0 00.09.376c.174.408.58.755 1.237 1.061.805.374 2.007.688 3.575.934.08.15.162.529.219.788.06.276.121.559.21.86.095.326.343.715.98.715.242 0 .52-.054.84-.116.472-.093 1.115-.219 1.919-.219.445 0 .907.04 1.372.117.895.149 1.668.694 2.561 1.326 1.308.925 2.788 1.971 5.05 1.971.062 0 .124-.002.185-.006.075.003.167.006.265.006 2.262 0 3.742-1.047 5.049-1.97l.002-.002c.894-.631 1.665-1.176 2.56-1.325a8.411 8.411 0 011.372-.117c.768 0 1.376.098 1.918.204.355.07.63.103.84.103h.043c.466 0 .808-.255.939-.703.087-.294.149-.57.21-.85.053-.244.138-.633.217-.785 1.569-.247 2.771-.56 3.576-.934.656-.304 1.06-.651 1.236-1.058.053-.122.084-.248.09-.377a.856.856 0 00-.716-.892c-4.887-.806-7.089-5.828-7.18-6.041a.65.65 0 00-.019-.042c-.25-.507-.308-.926-.172-1.245.267-.629 1.29-.954 1.968-1.169.196-.061.38-.12.535-.18.667-.264 1.143-.55 1.458-.875.375-.386.448-.757.444-1-.012-.586-.46-1.108-1.174-1.363a2.098 2.098 0 00-.796-.152c-.19 0-.472.026-.74.15-.571.268-1.083.414-1.523.435a1.38 1.38 0 01-.504-.11l.043-.71.007-.105c.156-2.481.351-5.57-.466-7.403-.56-1.255-1.313-2.335-2.237-3.21a9.336 9.336 0 00-2.675-1.769A10.644 10.644 0 0024.63 7.2z"
  />
</svg>
