<svg
  xmlns="http://www.w3.org/2000/svg"
  width="48"
  height="48"
  viewBox="0 0 48 48"
>
  <rect width="48" height="48" fill="#3EB0FD" rx="8" />
  <g clip-path="url(#stackbit__a)">
    <path
      fill="#fff"
      fill-rule="evenodd"
      d="M38.885 25.937l-14.723 8.2-15.016-8.2c-.559-.323-1.293-.088-1.587.47-.324.559-.088 1.294.47 1.587l15.575 8.523a1.142 1.142 0 001.146 0l15.282-8.523a1.162 1.162 0 00.44-1.587c-.323-.587-1.028-.793-1.587-.47zm-27.917-5.436l13.194-7.465 14.694 8.493a1.197 1.197 0 001.616-.44 1.196 1.196 0 00-.44-1.617L24.75 10.656a1.195 1.195 0 00-1.175 0L8 19.472c-.794.44-.794 1.587 0 2.057l15.575 8.816a1.196 1.196 0 001.616-.44 1.196 1.196 0 00-.44-1.617L10.967 20.5zm-6.054 6.17v-5.876a3.609 3.609 0 011.851-3.498L22.34 8.481c1.146-.646 2.528-.646 3.644.03l15.282 8.816a3.67 3.67 0 011.822 3.468v5.877a3.656 3.656 0 01-1.881 3.497l-15.282 8.522a3.646 3.646 0 01-3.555 0L6.795 30.17c-1.293-.705-1.97-2.087-1.881-3.497z"
      clip-rule="evenodd"
    />
  </g>
  <defs>
    <clipPath id="stackbit__a">
      <path
        fill="#fff"
        d="M0 0h38.201v31.188H0z"
        transform="translate(4.9 8)"
      />
    </clipPath>
  </defs>
</svg>
