<svg
  xmlns="http://www.w3.org/2000/svg"
  width="48"
  height="48"
  viewBox="0 0 48 48"
>
  <rect width="48" height="48" fill="#fff" rx="8" />
  <path
    fill="#fff"
    d="M24 44c11.046 0 20-8.954 20-20S35.046 4 24 4 4 12.954 4 24s8.954 20 20 20z"
  />
  <path
    fill="#006341"
    d="M26.011 12.647A12.217 12.217 0 0024 12.473c-.99 0-1.836.142-2.011.174-.1.018-.14-.08-.063-.138L24 10.932l2.073 1.577c.078.057.04.156-.06.138zM22.55 22.55s-.106.038-.134.131c.42.323.71 1.057 1.585 1.057.876 0 1.165-.734 1.585-1.057-.028-.094-.134-.13-.134-.13s-.548.128-1.451.128-1.451-.129-1.451-.129zM24 21.315c-.243 0-.297-.092-.463-.091-.158 0-.464.126-.53.241a.257.257 0 00.068.159c.354.053.514.25.926.25.411 0 .57-.197.926-.25a.264.264 0 00.068-.159c-.066-.115-.373-.24-.532-.241-.166-.002-.22.09-.463.09zm19.97 3.782c-.026.478-.069.951-.127 1.42-2.264.375-3.073-1.642-5.393-1.541.139.492.252.993.338 1.505 1.913-.001 2.684 1.787 4.811 1.523a20.258 20.258 0 01-.402 1.618c-1.682.165-2.275-1.507-4.222-1.46a14.576 14.576 0 01.017 1.306c1.66-.019 2.2 1.515 3.78 1.443a20.08 20.08 0 01-.66 1.58c-1.137-.064-1.528-1.521-3.258-1.405-.052.373-.118.743-.196 1.108 1.502-.106 1.825 1.277 2.9 1.389-.273.5-.569.986-.882 1.46-.638-.341-1.19-1.371-2.399-1.434.124-.383.233-.77.325-1.166-1.072 0-2.298-.417-3.326-1.353.333-1.898-2.611-3.83-2.611-5.219 0-1.509.763-2.344.763-4.379 0-1.51-.733-3.148-1.84-4.267a3.695 3.695 0 00-.684-.551c1.015 1.257 1.795 2.748 1.795 4.474 0 1.916-.89 2.927-.89 4.696 0 1.768 2.586 3.298 2.586 5.12 0 .718-.23 1.419-.986 2.795 1.162 1.16 2.674 1.792 3.65 1.792.317 0 .487-.096.6-.345.097-.215.19-.432.277-.651 1.052.04 1.533.996 2.115 1.377-.32.428-.655.843-1.006 1.243-.39-.432-.914-1.158-1.681-1.36-.137.266-.283.53-.435.788.66.18 1.112.846 1.462 1.285-.377.39-.77.765-1.178 1.125-.256-.397-.653-.901-1.099-1.173-.164.222-.335.44-.512.651.379.257.713.719.93 1.095-.471.379-.96.738-1.465 1.074-.25-2.031-3.022-3.423-2.274-5.78-.246.416-.538.935-.538 1.56 0 1.706 1.817 3.06 1.962 4.756-.377.225-.762.437-1.155.638-.065-1.864-1.99-3.903-1.99-5.432 0-1.707 2.237-3.422 2.237-5.437 0-2.017-2.58-3.413-2.58-5.183s1.097-2.787 1.097-5.055c0-1.661-.79-3.343-2.008-4.416a3.31 3.31 0 00-.684-.475c1.15 1.38 1.816 2.63 1.816 4.529 0 2.132-1.257 3.316-1.257 5.404 0 2.089 2.532 3.25 2.532 5.197 0 1.946-2.357 3.587-2.357 5.587 0 1.819 2.078 3.635 2.108 5.793-.454.198-.916.379-1.387.543.264-2.18-2.074-4.43-2.074-6.21 0-1.944 2.444-3.616 2.444-5.714 0-2.098-2.485-3.073-2.485-5.227 0-2.153 1.525-3.345 1.525-5.723 0-1.854-.915-3.521-2.253-4.554l-.084-.064c-.126-.094-.23.019-.14.13.946 1.182 1.452 2.377 1.452 4.147 0 2.175-1.752 3.943-1.752 6.051 0 2.488 2.352 3.2 2.352 5.24 0 2.041-2.522 3.674-2.522 5.84 0 2.01 2.387 4.24 1.978 6.558-.479.124-.964.232-1.457.32.448-2.887-1.893-4.961-1.893-6.85 0-2.046 2.612-3.869 2.612-5.867 0-1.886-1.875-2.502-2.122-4.43-.034-.264-.245-.459-.536-.41-.38.07-.869.32-1.635.32-.767 0-1.255-.252-1.636-.32-.29-.048-.502.147-.536.41-.246 1.928-2.122 2.544-2.122 4.43 0 1.998 2.612 3.82 2.612 5.867 0 1.889-2.34 3.963-1.893 6.85a20.224 20.224 0 01-1.457-.32c-.41-2.319 1.978-4.549 1.978-6.558 0-2.166-2.523-3.799-2.523-5.84 0-2.04 2.353-2.752 2.353-5.24 0-2.108-1.752-3.875-1.752-6.051 0-1.77.506-2.965 1.453-4.147.089-.111-.014-.224-.141-.13-.028.02-.056.042-.084.064-1.336 1.03-2.25 2.697-2.25 4.551 0 2.379 1.524 3.57 1.524 5.723s-2.485 3.129-2.485 5.228c0 2.097 2.444 3.769 2.444 5.714 0 1.78-2.338 4.029-2.073 6.21a19.797 19.797 0 01-1.388-.544c.032-2.158 2.107-3.975 2.107-5.793 0-2-2.355-3.64-2.355-5.587 0-1.947 2.53-3.108 2.53-5.196 0-2.088-1.256-3.272-1.256-5.405 0-1.898.666-3.15 1.816-4.529a3.273 3.273 0 00-.683.475c-1.22 1.074-2.008 2.755-2.008 4.416 0 2.268 1.097 3.286 1.097 5.055 0 1.77-2.58 3.167-2.58 5.183 0 2.015 2.236 3.73 2.236 5.437 0 1.53-1.925 3.57-1.99 5.432a19.73 19.73 0 01-1.154-.638c.145-1.695 1.962-3.05 1.962-4.755 0-.626-.292-1.145-.538-1.56.747 2.356-2.026 3.748-2.275 5.78a20.183 20.183 0 01-1.465-1.074c.217-.376.551-.839.93-1.096a13.27 13.27 0 01-.512-.65c-.446.271-.844.775-1.099 1.172-.407-.359-.8-.734-1.178-1.125.35-.439.802-1.105 1.463-1.285-.153-.258-.298-.52-.435-.788-.768.202-1.292.928-1.682 1.36a20.249 20.249 0 01-1.006-1.243c.582-.381 1.064-1.337 2.114-1.377.088.219.18.436.278.651.114.249.284.346.6.346.976 0 2.488-.633 3.65-1.793-.756-1.376-.985-2.076-.985-2.794 0-1.822 2.586-3.352 2.586-5.12 0-1.77-.891-2.78-.891-4.697 0-1.726.78-3.217 1.796-4.474a3.687 3.687 0 00-.686.552c-1.105 1.12-1.839 2.757-1.839 4.267 0 2.034.764 2.87.764 4.379 0 1.389-2.945 3.32-2.612 5.218-1.028.936-2.253 1.354-3.326 1.354.093.394.202.782.325 1.165-1.208.064-1.76 1.094-2.399 1.435-.315-.474-.61-.961-.883-1.461 1.075-.112 1.4-1.494 2.902-1.39a15.209 15.209 0 01-.198-1.107c-1.729-.116-2.12 1.342-3.257 1.404a20.052 20.052 0 01-.661-1.579c1.582.073 2.121-1.462 3.782-1.442a15.2 15.2 0 01.016-1.307c-1.948-.046-2.54 1.625-4.223 1.46a20.17 20.17 0 01-.401-1.617c2.127.263 2.898-1.525 4.811-1.523.087-.512.2-1.014.337-1.506-2.319-.1-3.128 1.917-5.391 1.542-.06-.47-.102-.943-.127-1.421 2.631.294 3.618-1.87 6.014-1.605.226-.572.488-1.126.784-1.66-3.004-.527-4.024 1.984-6.82 1.598C4.312 12.647 13.146 4 24 4s19.69 8.647 19.991 19.43c-2.796.386-3.816-2.125-6.82-1.598.296.533.559 1.087.785 1.66 2.395-.265 3.381 1.899 6.013 1.605zm-28.567-8.389c-1.472-.601-3.255-.463-4.777.515-.236-1.416-1.005-2.675-2.1-3.434-.151-.105-.308-.006-.294.17.231 2.993-1.519 5.592-3.67 7.877 2.217.666 4.105-2.19 6.981-1.193a15.053 15.053 0 013.86-3.934zM24 14.899c-1.857 0-3.412 1.05-3.82 2.406-.03.104.012.172.132.118.334-.15.714-.222 1.127-.222.757 0 1.424.278 1.82.762.174.576.188 1.41-.009 1.886-.312-.07-.424-.312-.729-.312-.304 0-.54.214-1.057.214-.516 0-.576-.244-.916-.244-.4 0-.472.412-.472.876 0 2.068 1.9 4.915 3.923 4.915 2.022 0 3.923-2.847 3.923-4.915 0-.464-.095-.862-.512-.916-.208.15-.4.284-.875.284-.517 0-.66-.214-.964-.214-.367 0-.33.775-.766.818-.291-.698-.305-1.594-.064-2.392.396-.484 1.062-.762 1.82-.762.412 0 .795.073 1.125.222.121.054.163-.014.132-.118-.407-1.356-1.962-2.406-3.818-2.406zm2.956 2.968c-.445 0-.968.136-1.295.502a.503.503 0 00.014.346c.807-.277 1.519-.288 1.863.097.183-.167.242-.317.242-.49 0-.27-.274-.455-.824-.455zm-6.494.945c.39-.39 1.21-.373 2.063-.059.037-.424-.722-.887-1.48-.887-.552 0-.825.186-.825.455 0 .174.059.325.242.491zm12.795-7.002c-1.465.105-2.739.608-3.769 1.446a14.79 14.79 0 011.697-3.375c-1.867.198-3.427.88-4.566 2.047l-.891-2.337 1.978-1.747-2.649-.187L24 5.192l-1.058 2.464-2.65.187 1.98 1.747-.891 2.337c-1.14-1.167-2.7-1.85-4.565-2.047a14.868 14.868 0 011.695 3.375c-1.03-.839-2.302-1.342-3.768-1.446.879 1.13 1.658 2.336 2.236 3.632.065.146.205.194.356.118A14.931 14.931 0 0124 14c2.394 0 4.656.562 6.665 1.56.151.075.291.027.356-.12.578-1.295 1.357-2.5 2.237-3.631zm3.2 8.835c2.876-.996 4.764 1.859 6.982 1.193-2.151-2.285-3.9-4.884-3.67-7.877.015-.175-.143-.275-.294-.17-1.095.76-1.864 2.018-2.1 3.434-1.523-.977-3.304-1.117-4.777-.514a15.065 15.065 0 013.86 3.934z"
  />
</svg>
