<svg
  width="24"
  height="24"
  xmlns="http://www.w3.org/2000/svg"
  viewBox="0 0 24 24"
  fill="currentColor"
>
  <path d="M12 0a1 1 0 0 1 1 1v2a1 1 0 1 1-2 0V1a1 1 0 0 1 1-1zm0 8a4 4 0 1 0 0 8 4 4 0 0 0 0-8zm-6 4a6 6 0 1 1 12 0 6 6 0 0 1-12 0zm7 9a1 1 0 1 0-2 0v2a1 1 0 1 0 2 0v-2zm11-9a1 1 0 0 1-1 1h-2a1 1 0 1 1 0-2h2a1 1 0 0 1 1 1zM3 13a1 1 0 1 0 0-2H1a1 1 0 1 0 0 2h2zm17.485 7.485a1 1 0 0 1-1.414 0l-1.414-1.414a1 1 0 0 1 1.414-1.414l1.414 1.414a1 1 0 0 1 0 1.414zM4.93 6.343A1 1 0 0 0 6.343 4.93L4.93 3.515a1 1 0 1 0-1.414 1.414L4.93 6.343zM3.515 20.485a1 1 0 0 1 0-1.414l1.414-1.414a1 1 0 0 1 1.414 1.414L4.93 20.485a1 1 0 0 1-1.414 0zM17.657 4.93a1 1 0 0 0 1.414 1.414l1.414-1.414a1 1 0 0 0-1.414-1.414L17.657 4.93z" />
</svg>
