<svg
  width="24"
  height="24"
  xmlns="http://www.w3.org/2000/svg"
  viewBox="0 0 24 24"
  fill="currentColor"
>
  <path d="M12 0a1 1 0 0 1 1 1v2a1 1 0 1 1-2 0V1a1 1 0 0 1 1-1z" />
  <path d="M6 12a6 6 0 1 1 12 0 6 6 0 0 1-12 0z" />
  <path d="M13 21a1 1 0 1 0-2 0v2a1 1 0 1 0 2 0v-2z" />
  <path d="M24 12a1 1 0 0 1-1 1h-2a1 1 0 1 1 0-2h2a1 1 0 0 1 1 1z" />
  <path d="M3 13a1 1 0 1 0 0-2H1a1 1 0 1 0 0 2h2z" />
  <path d="M20.485 20.485a1 1 0 0 1-1.414 0l-1.414-1.414a1 1 0 0 1 1.414-1.414l1.414 1.414a1 1 0 0 1 0 1.414z" />
  <path d="M4.929 6.343A1 1 0 0 0 6.343 4.93L4.93 3.515a1 1 0 1 0-1.414 1.414L4.93 6.343z" />
  <path d="M3.515 20.485a1 1 0 0 1 0-1.414l1.414-1.414a1 1 0 0 1 1.414 1.414L4.93 20.485a1 1 0 0 1-1.414 0z" />
  <path d="M17.657 4.929a1 1 0 0 0 1.414 1.414l1.414-1.414a1 1 0 0 0-1.414-1.414l-1.414 1.414z" />
</svg>
