<svg
  xmlns="http://www.w3.org/2000/svg"
  width="48"
  height="48"
  viewBox="0 0 48 48"
>
  <rect width="48" height="48" fill="#fff" rx="8" />
  <path
    fill="#37C6D0"
    d="M43.281 8.634V32.24L29.96 33.643l-16.127-1.402V8.634A1.63 1.63 0 0115.468 7h26.18a1.631 1.631 0 011.634 1.634z"
  />
  <path
    fill="#1A9BA1"
    d="M43.281 22.327v5.602l-.498.708H27.155l9.851-9.85a1.928 1.928 0 012.734 0l3.541 3.54z"
  />
  <path
    fill="#038387"
    d="M43.281 27.929v4.312L29.96 33.643l-16.127-1.402v-.098l1.606-1.606 13.855-13.854a1.928 1.928 0 012.734 0l3.891 3.891 7.362 7.355z"
  />
  <path
    fill="#86F2F2"
    d="M38.373 14.011a2.103 2.103 0 100-4.207 2.103 2.103 0 000 4.207z"
  />
  <path
    fill="#036C70"
    d="M15.47 40.654h26.175a1.636 1.636 0 001.636-1.635V32.24H13.834v6.778a1.636 1.636 0 001.635 1.636z"
  />
  <path
    d="M25.052 15.645v18.468a1.23 1.23 0 01-.028.28 1.623 1.623 0 01-1.606 1.354h-9.584V14.01h9.584a1.63 1.63 0 011.634 1.634z"
    opacity=".2"
  />
  <path
    d="M25.753 15.645v17.066a2.357 2.357 0 01-2.335 2.334h-9.584V13.31h9.584a2.343 2.343 0 012.335 2.335z"
    opacity=".1"
  />
  <path
    d="M25.052 15.645v17.066a1.634 1.634 0 01-1.634 1.633h-9.584V14.011h9.584a1.63 1.63 0 011.634 1.634z"
    opacity=".2"
  />
  <path
    d="M24.35 15.645v17.066a1.63 1.63 0 01-1.633 1.633h-8.883V14.011h8.883a1.63 1.63 0 011.634 1.634z"
    opacity=".1"
  />
  <path
    fill="url(#sway__a)"
    d="M22.715 14.011H6.355c-.904 0-1.636.733-1.636 1.636v16.36c0 .904.732 1.636 1.635 1.636h16.36c.904 0 1.637-.732 1.637-1.636v-16.36c0-.903-.733-1.636-1.636-1.636z"
  />
  <path
    fill="#fff"
    d="M11.884 23.627a3.01 3.01 0 01-.936-.992 2.688 2.688 0 01-.326-1.354 2.603 2.603 0 01.606-1.753 3.569 3.569 0 011.613-1.052 6.796 6.796 0 012.201-.341 8.36 8.36 0 012.9.406v2.05a4.52 4.52 0 00-1.312-.538 6.33 6.33 0 00-1.534-.184 3.331 3.331 0 00-1.577.333 1.035 1.035 0 00-.625.948.96.96 0 00.265.671c.205.212.446.385.713.51.3.148.746.345 1.34.591.065.02.13.047.191.077.586.229 1.15.507 1.688.832.407.252.75.596.998 1.005.255.463.38.987.36 1.516a2.82 2.82 0 01-.568 1.823 3.18 3.18 0 01-1.523 1.027c-.7.22-1.43.325-2.163.314-.658.004-1.315-.05-1.964-.161a6.74 6.74 0 01-1.592-.46v-2.164a5.137 5.137 0 001.613.767c.574.18 1.17.275 1.772.284a3.043 3.043 0 001.607-.341 1.076 1.076 0 00.541-.963 1.03 1.03 0 00-.302-.737 3.075 3.075 0 00-.837-.582c-.355-.18-.88-.415-1.577-.706a8.98 8.98 0 01-1.572-.826z"
  />
  <defs>
    <linearGradient
      id="sway__a"
      x1="8.13"
      x2="20.939"
      y1="12.733"
      y2="34.921"
      gradientUnits="userSpaceOnUse"
    >
      <stop stop-color="#058F92" />
      <stop offset=".5" stop-color="#038489" />
      <stop offset="1" stop-color="#026D71" />
    </linearGradient>
  </defs>
</svg>
