<svg
  xmlns="http://www.w3.org/2000/svg"
  width="48"
  height="48"
  viewBox="0 0 48 48"
>
  <path
    fill="#37C6D0"
    d="M45 7.28v25.71l-14.51 1.528-17.563-1.527V7.279a1.776 1.776 0 011.78-1.779H43.22A1.777 1.777 0 0145 7.28z"
  />
  <path
    fill="#1A9BA1"
    d="M45 22.193v6.101l-.542.772H27.436l10.73-10.73a2.103 2.103 0 012.978 0L45 22.194z"
  />
  <path
    fill="#038387"
    d="M45 28.294v4.697l-14.51 1.527-17.563-1.527v-.107l1.749-1.749 15.09-15.09a2.102 2.102 0 012.978 0l4.238 4.239L45 28.294z"
  />
  <path
    fill="#86F2F2"
    d="M39.655 13.136a2.291 2.291 0 100-4.582 2.291 2.291 0 000 4.582z"
  />
  <path
    fill="#036C70"
    d="M14.709 42.154h28.51A1.782 1.782 0 0045 40.373v-7.382H12.927v7.382a1.782 1.782 0 001.782 1.782z"
  />
  <path
    fill="#000"
    d="M25.145 14.916V35.03a1.34 1.34 0 01-.03.305 1.767 1.767 0 01-1.749 1.474H12.927V13.136h10.44a1.775 1.775 0 011.778 1.78z"
    opacity=".2"
  />
  <path
    fill="#000"
    d="M25.91 14.916v18.587a2.567 2.567 0 01-2.544 2.542H12.927V12.373h10.44a2.552 2.552 0 012.542 2.543z"
    opacity=".1"
  />
  <path
    fill="#000"
    d="M25.145 14.916v18.587a1.776 1.776 0 01-1.779 1.779H12.927V13.136h10.44a1.775 1.775 0 011.778 1.78z"
    opacity=".2"
  />
  <path
    fill="#000"
    d="M24.382 14.916v18.587a1.777 1.777 0 01-1.78 1.779h-9.675V13.136h9.675a1.776 1.776 0 011.78 1.78z"
    opacity=".1"
  />
  <path
    fill="url(#sway__a)"
    d="M22.6 13.136H4.782c-.984 0-1.782.798-1.782 1.782v17.819c0 .983.798 1.781 1.782 1.781H22.6c.984 0 1.782-.797 1.782-1.781v-17.82c0-.983-.798-1.78-1.782-1.78z"
  />
  <path
    fill="#fff"
    d="M10.804 23.61a3.279 3.279 0 01-1.02-1.08 2.929 2.929 0 01-.355-1.476 2.835 2.835 0 01.66-1.91A3.888 3.888 0 0111.847 18a7.401 7.401 0 012.398-.372c1.07-.04 2.14.11 3.159.443v2.232a4.92 4.92 0 00-1.43-.585 6.892 6.892 0 00-1.67-.201 3.626 3.626 0 00-1.718.363 1.127 1.127 0 00-.681 1.032c-.003.272.1.534.289.731.223.232.486.42.776.556.326.161.812.376 1.459.643.072.023.141.051.209.084.637.25 1.252.553 1.838.907a3.3 3.3 0 011.087 1.094c.278.505.413 1.075.392 1.651a3.073 3.073 0 01-.618 1.986 3.463 3.463 0 01-1.66 1.118 7.49 7.49 0 01-2.356.342 12.374 12.374 0 01-2.138-.175 7.34 7.34 0 01-1.734-.501V26.99a5.592 5.592 0 001.756.836c.626.195 1.276.299 1.931.309a3.316 3.316 0 001.75-.372 1.172 1.172 0 00.59-1.048 1.12 1.12 0 00-.33-.803 3.35 3.35 0 00-.911-.635c-.387-.195-.96-.451-1.718-.769a9.773 9.773 0 01-1.712-.898z"
  />
  <defs>
    <linearGradient
      id="sway__a"
      x1="6.715"
      x2="20.667"
      y1="11.744"
      y2="35.91"
      gradientUnits="userSpaceOnUse"
    >
      <stop stop-color="#058F92" />
      <stop offset=".5" stop-color="#038489" />
      <stop offset="1" stop-color="#026D71" />
    </linearGradient>
  </defs>
</svg>
