<svg
  xmlns="http://www.w3.org/2000/svg"
  width="48"
  height="48"
  viewBox="0 0 48 48"
>
  <rect width="48" height="48" rx="6" />
  <path
    fill="#25F4EE"
    d="M20.177 20.178v-1.403c-.487-.077-.98-.12-1.472-.127a10.912 10.912 0 00-6.255 19.87 10.9 10.9 0 017.727-18.34z"
  />
  <path
    fill="#25F4EE"
    d="M20.441 36.069a4.99 4.99 0 004.979-4.772V7.507h4.346A8.144 8.144 0 0129.64 6h-5.945v23.767a4.99 4.99 0 01-4.979 4.807 5.06 5.06 0 01-2.3-.575 4.99 4.99 0 004.025 2.07zm17.443-20.491v-1.322a8.12 8.12 0 01-4.495-1.357 8.245 8.245 0 004.495 2.68z"
  />
  <path
    fill="#FE2C55"
    d="M33.389 12.9a8.187 8.187 0 01-2.036-5.405h-1.587a8.233 8.233 0 003.623 5.404zM18.705 24.593a4.99 4.99 0 00-2.3 9.406 4.979 4.979 0 014.036-7.9c.5.007.995.084 1.472.23v-6.048a10.45 10.45 0 00-1.472-.115h-.264v4.6a5.118 5.118 0 00-1.472-.173z"
  />
  <path
    fill="#FE2C55"
    d="M37.884 15.578v4.6a14.108 14.108 0 01-8.244-2.68v12.085c-.013 6.03-4.905 10.913-10.935 10.913a10.82 10.82 0 01-6.255-1.978 10.912 10.912 0 0018.903-7.428V19.04a14.13 14.13 0 008.256 2.644v-5.922a8.431 8.431 0 01-1.725-.184z"
  />
  <path
    fill="#fff"
    d="M29.64 29.584V17.498a14.109 14.109 0 008.256 2.644v-4.6a8.245 8.245 0 01-4.508-2.644 8.233 8.233 0 01-3.621-5.404H25.42v23.802a4.99 4.99 0 01-9.026 2.725 4.99 4.99 0 012.3-9.406c.499.005.995.082 1.471.23v-4.6a10.9 10.9 0 00-7.727 18.398 10.82 10.82 0 006.267 1.852c6.03 0 10.922-4.882 10.935-10.913z"
  />
</svg>
