<svg
  xmlns="http://www.w3.org/2000/svg"
  width="48"
  height="48"
  viewBox="0 0 48 48"
>
  <path
    fill="#25F4EE"
    d="M19.786 19.753v-1.559a11.513 11.513 0 00-1.635-.14 12.125 12.125 0 00-6.95 22.077 12.112 12.112 0 018.585-20.378z"
  />
  <path
    fill="#25F4EE"
    d="M20.08 37.41a5.545 5.545 0 005.532-5.302V5.674h4.83A9.055 9.055 0 0130.302 4h-6.606v26.408a5.545 5.545 0 01-5.532 5.34 5.621 5.621 0 01-2.555-.638 5.545 5.545 0 004.471 2.3zM39.462 14.643v-1.47a9.02 9.02 0 01-4.996-1.507 9.16 9.16 0 004.996 2.976z"
  />
  <path
    fill="#FE2C55"
    d="M34.466 11.666a9.097 9.097 0 01-2.261-6.005h-1.763a9.148 9.148 0 004.024 6.005zM18.151 24.66a5.545 5.545 0 00-2.555 10.45 5.532 5.532 0 014.484-8.777 5.829 5.829 0 011.636.255v-6.72a11.613 11.613 0 00-1.636-.128h-.293v5.11a5.683 5.683 0 00-1.636-.19z"
  />
  <path
    fill="#FE2C55"
    d="M39.462 14.643v5.11a15.676 15.676 0 01-9.16-2.977v13.428c-.015 6.7-5.45 12.124-12.15 12.124a12.021 12.021 0 01-6.951-2.197 12.125 12.125 0 0021.004-8.253v-13.39a15.703 15.703 0 009.173 2.939v-6.58a9.366 9.366 0 01-1.916-.204z"
  />
  <path
    fill="#000"
    d="M30.301 30.204V16.776a15.677 15.677 0 009.174 2.939v-5.11a9.16 9.16 0 01-5.009-2.94 9.148 9.148 0 01-4.024-6.004h-4.83v26.447a5.545 5.545 0 01-10.029 3.028 5.545 5.545 0 012.555-10.451 5.684 5.684 0 011.636.255v-5.11a12.112 12.112 0 00-8.586 20.442 12.022 12.022 0 006.963 2.056c6.7 0 12.136-5.424 12.15-12.124z"
  />
</svg>
