<svg
  xmlns="http://www.w3.org/2000/svg"
  width="48"
  height="48"
  viewBox="0 0 48 48"
>
  <path
    fill="#55ADEF"
    d="M46 10.243a18.077 18.077 0 01-5.184 1.42 9.05 9.05 0 003.969-4.995 18.022 18.022 0 01-5.732 2.19 9.03 9.03 0 00-15.382 8.235A25.635 25.635 0 015.064 7.66a9.023 9.023 0 00-1.221 4.538 9.03 9.03 0 004.015 7.515 9.005 9.005 0 01-4.089-1.13v.117a9.03 9.03 0 007.242 8.851 9.093 9.093 0 01-4.077.155 9.033 9.033 0 008.433 6.267A18.114 18.114 0 014.155 37.84c-.72 0-1.44-.042-2.155-.126a25.531 25.531 0 0013.836 4.056c16.607 0 25.686-13.754 25.686-25.684 0-.387-.01-.779-.027-1.166a18.35 18.35 0 004.501-4.67l.004-.006z"
  />
</svg>
