<svg
  xmlns="http://www.w3.org/2000/svg"
  width="48"
  height="48"
  viewBox="0 0 48 48"
>
  <rect width="48" height="48" fill="#55ADEF" rx="6" />
  <path
    fill="#fff"
    d="M42.31 12.531c-1.347.597-2.794 1-4.315 1.182a7.531 7.531 0 003.303-4.157 15 15 0 01-4.77 1.822 7.516 7.516 0 00-12.802 6.854 21.335 21.335 0 01-15.486-7.85 7.51 7.51 0 00-1.016 3.776 7.516 7.516 0 003.342 6.255 7.494 7.494 0 01-3.403-.94v.096a7.515 7.515 0 006.027 7.367 7.566 7.566 0 01-3.394.13 7.516 7.516 0 007.02 5.215 15.076 15.076 0 01-9.332 3.218c-.6 0-1.198-.035-1.794-.105a21.249 21.249 0 0011.515 3.375c13.822 0 21.378-11.447 21.378-21.375 0-.323-.008-.649-.023-.971a15.275 15.275 0 003.746-3.887l.004-.005z"
  />
</svg>
