<svg
  xmlns="http://www.w3.org/2000/svg"
  width="48"
  height="48"
  viewBox="0 0 48 48"
>
  <path fill="#007ACC" d="M4 24v20h40V4H4v20z" />
  <path
    fill="#fff"
    d="M12.845 24.133l-.013 1.637h5.207v14.795h3.682V25.77h5.206v-1.607c0-.888-.018-1.632-.043-1.65-.019-.026-3.188-.038-7.029-.032l-6.99.019-.02 1.631v.002zm23.43-1.678a4.979 4.979 0 012.503 1.441c.368.394.915 1.11.958 1.283.013.05-1.726 1.219-2.781 1.872-.038.025-.19-.14-.362-.393-.513-.75-1.053-1.073-1.88-1.13-1.212-.083-1.993.552-1.987 1.612 0 .311.045.495.173.75.266.551.762.883 2.317 1.555 2.863 1.231 4.088 2.044 4.85 3.2.85 1.289 1.041 3.346.464 4.875-.635 1.665-2.21 2.795-4.425 3.17-.686.12-2.313.1-3.047-.032-1.607-.287-3.132-1.08-4.07-2.12-.37-.407-1.087-1.468-1.042-1.544a3.04 3.04 0 01.368-.235c.177-.1.851-.488 1.486-.856l1.15-.668.24.356c.337.514 1.074 1.219 1.518 1.454 1.276.672 3.028.578 3.892-.196.369-.338.52-.688.52-1.2 0-.464-.056-.668-.297-1.017-.313-.444-.947-.818-2.75-1.6-2.063-.888-2.953-1.44-3.765-2.317a5.273 5.273 0 01-1.098-2c-.152-.565-.191-1.981-.07-2.552.425-1.994 1.93-3.384 4.1-3.797.706-.133 2.344-.084 3.036.088l-.001.001z"
  />
</svg>
