<svg
  xmlns="http://www.w3.org/2000/svg"
  width="48"
  height="48"
  viewBox="0 0 48 48"
>
  <rect width="48" height="48" fill="#007ACC" rx="6" />
  <path
    fill="#fff"
    d="M12.013 22.971L12 24.723h5.57v15.828h3.94V24.723h5.569v-1.72c0-.95-.02-1.745-.047-1.765-.02-.027-3.41-.04-7.52-.033l-7.477.02-.022 1.745v.001zm25.066-1.794a5.326 5.326 0 012.677 1.541c.395.422.979 1.188 1.026 1.372.013.054-1.847 1.304-2.976 2.004-.04.026-.203-.15-.387-.422-.549-.802-1.127-1.147-2.01-1.208-1.297-.089-2.133.59-2.127 1.725 0 .333.049.53.185.802.285.59.816.944 2.48 1.663 3.061 1.318 4.372 2.187 5.188 3.424.91 1.379 1.114 3.58.496 5.215-.68 1.781-2.364 2.99-4.734 3.392-.734.128-2.474.106-3.26-.035-1.719-.306-3.35-1.154-4.354-2.268-.395-.435-1.162-1.57-1.114-1.652.02-.026.196-.135.393-.251.19-.107.91-.522 1.59-.916l1.23-.714.257.38c.361.55 1.149 1.305 1.623 1.556 1.366.72 3.24.618 4.164-.21.395-.361.557-.735.557-1.284 0-.496-.06-.714-.318-1.087-.335-.476-1.013-.876-2.942-1.712-2.207-.95-3.159-1.541-4.028-2.479a5.642 5.642 0 01-1.174-2.14c-.163-.604-.205-2.119-.075-2.73.454-2.133 2.064-3.62 4.386-4.061.755-.143 2.507-.09 3.248.093l-.001.002z"
  />
</svg>
