<svg
  xmlns="http://www.w3.org/2000/svg"
  width="48"
  height="48"
  viewBox="0 0 48 48"
>
  <rect width="48" height="48" fill="#fff" rx="6" />
  <path
    fill="#fff"
    d="M9.381 8.502c3.77-3.455 10.509-3.97 13.643-4.007 1.042-.019 1.69.024 1.69.024 8.735.032 12.645 2.878 13.617 3.773h.02c3.224 2.796 5.01 8.975 3.808 18.783-1.17 9.497-8.334 10.412-9.606 10.818-.553.178-5.353 1.378-11.621.858l-2.277 2.572c-1.22 1.302-1.951 2.514-3.235 2.108-1.043-.323-.985-1.899-.985-1.899v-3.938c-9.16-2.585-9.046-12.08-8.951-17.137.115-5.075 1.094-9.179 3.897-11.955z"
  />
  <path
    fill="#6146BC"
    d="M23 4.006c-3.213.039-10.12.566-13.985 4.108-2.874 2.845-3.877 7.052-3.995 12.254-.097 5.183-.215 14.917 9.175 17.567v4.037s-.059 1.615 1.01 1.946c1.316.416 2.066-.826 3.317-2.161l2.333-2.637c6.425.534 11.346-.696 11.913-.879 1.304-.416 8.647-1.354 9.847-11.089 1.23-10.053-.6-16.388-3.904-19.253h-.02c-.997-.918-5.005-3.836-13.958-3.868 0 0-.665-.045-1.733-.026zm.11 2.826a21.22 21.22 0 011.466.033c7.579.02 11.196 2.299 12.05 3.067 2.782 2.382 4.216 8.093 3.166 16.487-.997 8.138-6.953 8.653-8.055 9.004-.47.15-4.803 1.218-10.264.867 0 0-4.066 4.903-5.337 6.166-.202.22-.437.286-.587.253-.215-.052-.28-.318-.268-.684l.04-6.7c-7.965-2.2-7.495-10.502-7.41-14.838.097-4.337.912-7.885 3.337-10.288 3.264-2.949 9.13-3.347 11.86-3.367h.002zm.6 4.336a.496.496 0 00-.501.495.5.5 0 00.502.501 9.403 9.403 0 016.725 2.65c1.818 1.765 2.703 4.135 2.737 7.234 0 .274.222.501.502.501v-.02a.5.5 0 00.502-.495 10.768 10.768 0 00-3.024-7.937c-1.981-1.934-4.49-2.93-7.442-2.93v.001zm-6.594 1.146a1.568 1.568 0 00-1.024.202h-.026a7.853 7.853 0 00-1.91 1.569c-.456.527-.704 1.06-.769 1.575-.039.306-.013.612.079.905l.032.02a22.523 22.523 0 002.007 4.33 25.476 25.476 0 003.871 5.287l.046.065.07.053.046.052.052.045a25.864 25.864 0 005.305 3.887c2.203 1.198 3.539 1.764 4.34 2v.012c.236.07.45.103.665.103a3.07 3.07 0 001.838-.787 7.581 7.581 0 001.552-1.914v-.013c.384-.722.254-1.406-.3-1.869a23.097 23.097 0 00-3.585-2.571c-.854-.463-1.72-.183-2.072.286l-.75.944c-.384.469-1.082.404-1.082.404l-.02.012c-5.206-1.329-6.595-6.596-6.595-6.596s-.065-.716.417-1.081l.938-.755c.45-.365.762-1.23.28-2.084a22.495 22.495 0 00-2.567-3.582 1.427 1.427 0 00-.84-.501l.002.002zm7.46 1.486c-.664 0-.664 1.002.007 1.002A6.291 6.291 0 0129 16.716 5.822 5.822 0 0130.498 21a.504.504 0 00.502.495l.02.027a.505.505 0 00.502-.502c.045-1.986-.573-3.652-1.785-4.988-1.22-1.335-2.92-2.084-5.09-2.232h-.072zm.822 2.695c-.684-.02-.71 1.002-.032 1.022 1.649.085 2.45.918 2.555 2.63a.497.497 0 00.495.49h.02a.504.504 0 00.482-.534c-.118-2.233-1.336-3.49-3.5-3.607h-.02v-.001z"
  />
</svg>
