<svg
  xmlns="http://www.w3.org/2000/svg"
  width="48"
  height="48"
  viewBox="0 0 48 48"
>
  <path fill="#fff" d="M7 8h34v31H7z" />
  <path
    fill="#1FB8EB"
    d="M44 11.535v24.93c0 2.047-.746 3.814-2.238 5.302C40.27 43.256 38.5 44 36.448 44H11.552c-2.05 0-3.822-.744-5.314-2.233C4.746 40.28 4 38.512 4 36.465v-24.93c0-2.047.746-3.814 2.238-5.302C7.73 4.744 9.5 4 11.552 4h24.896c2.05 0 3.822.744 5.314 2.233C43.254 7.72 44 9.488 44 11.535zm-6.34 5.767c.186-3.72-1.212-5.674-4.196-5.767-4.01-.093-6.713 2.14-8.112 6.79.746-.372 1.492-.465 2.145-.465 1.491 0 2.144.838 1.957 2.512-.093 1.023-.745 2.419-1.957 4.372-1.213 1.86-2.145 2.884-2.704 2.884-.746 0-1.492-1.488-2.145-4.372-.186-.93-.653-3.163-1.212-6.605-.56-3.256-1.865-4.837-4.196-4.558-1.025.093-2.424 1.023-4.289 2.605-.466.372-1.212 1.023-2.145 1.86-.932.837-1.678 1.489-2.144 1.86l1.399 1.768c1.305-.93 2.05-1.395 2.237-1.395 1.026 0 1.958 1.581 2.798 4.65.28.931.652 2.42 1.212 4.28.56 1.86.932 3.349 1.212 4.279 1.212 3.07 2.61 4.651 4.289 4.651 2.704 0 6.06-2.512 9.976-7.628 3.823-5.116 5.781-8.93 5.875-11.72z"
  />
</svg>
