<svg
  xmlns="http://www.w3.org/2000/svg"
  width="48"
  height="48"
  viewBox="0 0 48 48"
>
  <path fill="#fff" d="M3.6 4.8h40.8V42H3.6z" />
  <path
    fill="#1FB8EB"
    d="M48 9.042v29.916c0 2.456-.895 4.577-2.685 6.363C43.525 47.107 41.399 48 38.937 48H9.063c-2.462 0-4.587-.893-6.378-2.68C.895 43.536 0 41.415 0 38.959V9.042c0-2.456.895-4.577 2.685-6.363C4.475.893 6.601 0 9.063 0h29.874c2.462 0 4.588.893 6.378 2.68C47.105 4.464 48 6.585 48 9.041zm-7.608 6.92c.223-4.464-1.455-6.809-5.035-6.92-4.032-.094-6.964 1.773-8.796 5.664-.428.91.628 1.927 1.635 1.927 1.79 0 2.573 1.004 2.35 3.014-.112 1.227-.896 2.902-2.35 5.246-1.455 2.233-2.574 3.46-3.245 3.46-.895 0-1.79-1.786-2.573-5.246-.224-1.116-.784-3.795-1.455-7.926-.671-3.907-2.238-5.804-5.035-5.47-1.23.112-2.909 1.229-5.147 3.126-.56.447-1.454 1.228-2.573 2.233-.568.51-1.078.962-1.515 1.342-.578.501-.675 1.375-.2 1.975.46.58 1.291.696 1.904.28.902-.612 1.435-.918 1.601-.918 1.23 0 2.35 1.898 3.357 5.581.335 1.117.783 2.903 1.454 5.135.672 2.233 1.12 4.019 1.455 5.135 1.454 3.684 3.133 5.581 5.147 5.581 3.244 0 7.272-3.014 11.972-9.153 4.587-6.14 6.937-10.716 7.049-14.065z"
  />
</svg>
