<svg
  xmlns="http://www.w3.org/2000/svg"
  width="48"
  height="48"
  viewBox="0 0 48 48"
>
  <path
    fill="#2B7CD3"
    d="M25.83 14h17.34c1.01 0 1.83.82 1.83 1.83v16.34c0 1.01-.82 1.83-1.83 1.83H25.83A1.83 1.83 0 0124 32.17V15.83c0-1.01.82-1.83 1.83-1.83z"
  />
  <path
    fill="#41A5EE"
    d="M35 14c.002.485-.193.95-.54 1.29L27 22.75l-.71.71a3.466 3.466 0 01-.29.25c-.3.189-.646.29-1 .29a1.792 1.792 0 01-1.29-.54l-8.17-8.17a1.813 1.813 0 010-2.58l8.17-8.17a1.81 1.81 0 012.58 0l8.17 8.17c.347.34.542.805.54 1.29z"
  />
  <path
    fill="#103F91"
    d="M35 34a10 10 0 01-18.66 5 7.172 7.172 0 01-.5-1 8.583 8.583 0 01-.38-1c-1.657-5.268 1.271-10.883 6.54-12.54a10 10 0 014-.41c.336.029.67.079 1 .15a10.017 10.017 0 018 9.8z"
  />
  <path
    d="M27 14.83v21.34A1.841 1.841 0 0125.17 38h-9.33a8.563 8.563 0 01-.38-1c-1.657-5.268 1.271-10.883 6.54-12.54a10 10 0 013-.46 1.793 1.793 0 01-1.29-.54l-8.17-8.17A1.813 1.813 0 0115.3 13h9.87a1.83 1.83 0 011.62 1c.14.254.213.54.21.83z"
    opacity=".1"
  />
  <path
    d="M26 15.83v21.34A1.841 1.841 0 0124.17 39h-7.83a7.178 7.178 0 01-.5-1 8.599 8.599 0 01-.38-1c-1.657-5.27 1.271-10.883 6.54-12.54a10 10 0 013-.46 1.793 1.793 0 01-1.29-.54l-8.17-8.17A1.793 1.793 0 0115 14h9.17a1.78 1.78 0 011.33.59 1.8 1.8 0 01.5 1.24z"
    opacity=".2"
  />
  <path
    d="M26 15.83v19.34A1.844 1.844 0 0124.17 37h-8.71c-1.657-5.27 1.271-10.883 6.54-12.54a10 10 0 013-.46 1.793 1.793 0 01-1.29-.54l-8.17-8.17A1.793 1.793 0 0115 14h9.17a1.78 1.78 0 011.33.59 1.8 1.8 0 01.5 1.24z"
    opacity=".2"
  />
  <path
    d="M25 15.83V24a1.793 1.793 0 01-1.29-.54l-8.17-8.17A1.793 1.793 0 0115 14h8.17A1.837 1.837 0 0125 15.83z"
    opacity=".2"
  />
  <path
    d="M25 24v11.17A1.844 1.844 0 0123.17 37h-7.71c-1.657-5.268 1.271-10.883 6.54-12.54a10 10 0 013-.46z"
    opacity=".2"
  />
  <path
    fill="url(#visio__a)"
    d="M4.833 14h18.334c1.012 0 1.833.82 1.833 1.833v18.334C25 35.179 24.18 36 23.167 36H4.833A1.833 1.833 0 013 34.167V15.833C3 14.82 3.82 14 4.833 14z"
  />
  <path
    fill="#fff"
    d="M13.4 26.928c.337.992.537 1.618.6 1.878h.041c.06-.26.277-.93.649-2.011l2.667-7.754h2.452l-4.525 11.917h-2.626L8.2 19.041h2.522l2.678 7.887z"
  />
  <defs>
    <linearGradient
      id="visio__a"
      x1="6.822"
      x2="21.178"
      y1="12.568"
      y2="37.432"
      gradientUnits="userSpaceOnUse"
    >
      <stop stop-color="#2368C4" />
      <stop offset=".5" stop-color="#1A5DBE" />
      <stop offset="1" stop-color="#1146AC" />
    </linearGradient>
  </defs>
</svg>
