<svg
  xmlns="http://www.w3.org/2000/svg"
  width="48"
  height="48"
  viewBox="0 0 48 48"
>
  <rect width="48" height="48" fill="#fff" rx="8" />
  <path
    fill="#2B7CD3"
    d="M25.656 14.952h15.688c.915 0 1.656.742 1.656 1.656v14.784c0 .914-.741 1.656-1.656 1.656H25.656A1.656 1.656 0 0124 31.392V16.608c0-.914.741-1.656 1.656-1.656z"
  />
  <path
    fill="#41A5EE"
    d="M33.952 14.952c.002.44-.174.86-.488 1.167l-6.75 6.75-.642.642c-.083.08-.17.156-.262.227-.271.17-.585.262-.905.262-.44.002-.86-.174-1.167-.489l-7.392-7.392a1.64 1.64 0 010-2.334l7.392-7.392a1.639 1.639 0 012.334 0l7.392 7.392c.314.307.49.728.488 1.167z"
  />
  <path
    fill="#103F91"
    d="M33.952 33.048A9.048 9.048 0 0117.07 37.57a6.5 6.5 0 01-.453-.904 7.764 7.764 0 01-.344-.905 9.048 9.048 0 019.537-11.717c.304.026.606.072.904.136a9.063 9.063 0 017.238 8.867z"
  />
  <path
    d="M26.714 15.703v19.308a1.666 1.666 0 01-1.655 1.656h-8.442a7.751 7.751 0 01-.344-.905A9.048 9.048 0 0124.905 24c-.44.002-.86-.174-1.167-.489l-7.392-7.392a1.64 1.64 0 01-.217-2.072h8.93a1.656 1.656 0 011.465.905c.127.23.193.489.19.751z"
    opacity=".1"
  />
  <path
    d="M25.81 16.608v19.308a1.665 1.665 0 01-1.656 1.656H17.07a6.483 6.483 0 01-.453-.905 7.778 7.778 0 01-.344-.905A9.048 9.048 0 0124.905 24a1.62 1.62 0 01-1.167-.489l-7.392-7.392a1.622 1.622 0 01-.489-1.167h8.297a1.61 1.61 0 011.203.534c.29.302.451.704.453 1.122z"
    opacity=".2"
  />
  <path
    d="M25.81 16.608v17.498a1.668 1.668 0 01-1.656 1.656h-7.88A9.048 9.048 0 0124.903 24a1.616 1.616 0 01-1.166-.489l-7.392-7.392a1.622 1.622 0 01-.489-1.167h8.297a1.61 1.61 0 011.203.534c.29.302.451.704.453 1.122z"
    opacity=".2"
  />
  <path
    d="M24.905 16.608V24c-.44.002-.86-.174-1.167-.489l-7.392-7.392a1.623 1.623 0 01-.489-1.167h7.392a1.662 1.662 0 011.656 1.656z"
    opacity=".2"
  />
  <path
    d="M24.905 24v10.106a1.668 1.668 0 01-1.656 1.656h-6.976A9.048 9.048 0 0124.905 24z"
    opacity=".2"
  />
  <path
    fill="url(#visio__a)"
    d="M6.658 14.952h16.588a1.66 1.66 0 011.659 1.659v16.588c0 .916-.743 1.658-1.659 1.658H6.658A1.658 1.658 0 015 33.2V16.61c0-.916.742-1.659 1.658-1.659z"
  />
  <path
    fill="#fff"
    d="M14.41 26.65c.304.897.485 1.463.542 1.698h.037c.055-.235.251-.841.588-1.82l2.413-7.015h2.218l-4.094 10.782h-2.376L9.705 19.513h2.282l2.422 7.136z"
  />
  <defs>
    <linearGradient
      id="visio__a"
      x1="8.458"
      x2="21.447"
      y1="13.656"
      y2="36.153"
      gradientUnits="userSpaceOnUse"
    >
      <stop stop-color="#2368C4" />
      <stop offset=".5" stop-color="#1A5DBE" />
      <stop offset="1" stop-color="#1146AC" />
    </linearGradient>
  </defs>
</svg>
