<svg
  xmlns="http://www.w3.org/2000/svg"
  width="48"
  height="48"
  viewBox="0 0 48 48"
>
  <path
    fill="url(#wechat__a)"
    fill-rule="evenodd"
    d="M32.914 17.971a16.309 16.309 0 00-1.088-.036c-7.335 0-13.28 4.92-13.28 10.988 0 1.182.225 2.32.643 3.387a16.671 16.671 0 01-6.354-.981l-3.799 2.38a.316.316 0 01-.472-.352l1.012-3.675C6.18 27.41 4 23.878 4 19.912 4 13.056 10.512 7.5 18.546 7.5c7.26 0 13.277 4.538 14.368 10.471zm-19.112.122a2.055 2.055 0 100-4.11 2.055 2.055 0 000 4.11zm11.542-2.055a2.055 2.055 0 11-4.11 0 2.055 2.055 0 014.11 0z"
    clip-rule="evenodd"
  />
  <path
    fill="url(#wechat__b)"
    fill-rule="evenodd"
    d="M44 28.923c0 3.148-1.757 5.957-4.505 7.798l.515 3.247a.316.316 0 01-.493.31l-2.998-2.089c-1.444.498-3.03.773-4.693.773-6.723 0-12.174-4.494-12.174-10.04 0-5.544 5.45-10.039 12.174-10.039C38.55 18.883 44 23.378 44 28.923zM29.613 25.84a1.581 1.581 0 11-3.162 0 1.581 1.581 0 013.162 0zm6.324 1.58a1.581 1.581 0 100-3.161 1.581 1.581 0 000 3.162z"
    clip-rule="evenodd"
  />
  <defs>
    <linearGradient
      id="wechat__a"
      x1="24"
      x2="24"
      y1="7.5"
      y2="40.335"
      gradientUnits="userSpaceOnUse"
    >
      <stop stop-color="#24E073" />
      <stop offset="1" stop-color="#21C165" />
    </linearGradient>
    <linearGradient
      id="wechat__b"
      x1="24"
      x2="24"
      y1="7.5"
      y2="40.335"
      gradientUnits="userSpaceOnUse"
    >
      <stop stop-color="#24E073" />
      <stop offset="1" stop-color="#21C165" />
    </linearGradient>
  </defs>
</svg>
