<svg
  xmlns="http://www.w3.org/2000/svg"
  width="48"
  height="48"
  viewBox="0 0 48 48"
>
  <path
    fill="url(#wechat__a)"
    fill-rule="evenodd"
    d="M33.806 17.518c-.395-.026-.794-.04-1.197-.04C24.54 17.478 18 22.89 18 29.565c0 1.3.248 2.553.707 3.726a18.337 18.337 0 01-6.99-1.08L7.54 34.83a.348.348 0 01-.52-.387L8.133 30.4C4.4 27.9 2 24.016 2 19.652 2 12.112 9.163 6 18 6c7.986 0 14.605 4.992 15.806 11.518zm-21.023.134a2.261 2.261 0 100-4.522 2.261 2.261 0 000 4.522zm12.695-2.26a2.261 2.261 0 11-4.522 0 2.261 2.261 0 014.522 0z"
    clip-rule="evenodd"
  />
  <path
    fill="url(#wechat__b)"
    fill-rule="evenodd"
    d="M46 29.565c0 3.463-1.932 6.553-4.956 8.578l.567 3.572a.348.348 0 01-.542.34l-3.298-2.297c-1.589.548-3.333.85-5.162.85-7.396 0-13.392-4.944-13.392-11.043 0-6.099 5.996-11.043 13.392-11.043C40.004 18.522 46 23.466 46 29.565zm-15.826-3.391a1.74 1.74 0 11-3.478 0 1.74 1.74 0 013.478 0zm6.956 1.739a1.74 1.74 0 100-3.478 1.74 1.74 0 000 3.478z"
    clip-rule="evenodd"
  />
  <defs>
    <linearGradient
      id="wechat__a"
      x1="24"
      x2="24"
      y1="6"
      y2="42.118"
      gradientUnits="userSpaceOnUse"
    >
      <stop stop-color="#24E073" />
      <stop offset="1" stop-color="#21C165" />
    </linearGradient>
    <linearGradient
      id="wechat__b"
      x1="24"
      x2="24"
      y1="6"
      y2="42.118"
      gradientUnits="userSpaceOnUse"
    >
      <stop stop-color="#24E073" />
      <stop offset="1" stop-color="#21C165" />
    </linearGradient>
  </defs>
</svg>
