<svg
  xmlns="http://www.w3.org/2000/svg"
  width="48"
  height="48"
  viewBox="0 0 48 48"
>
  <rect width="48" height="48" fill="url(#wechat__a)" rx="8" />
  <path
    fill="#fff"
    fill-rule="evenodd"
    d="M32.914 18.113a16.241 16.241 0 00-1.088-.037c-7.335 0-13.28 4.92-13.28 10.989 0 1.182.225 2.32.643 3.387a16.671 16.671 0 01-6.354-.981l-3.799 2.38a.316.316 0 01-.472-.352l1.012-3.675C6.18 27.552 4 24.019 4 20.053c0-6.855 6.512-12.411 14.546-12.411 7.26 0 13.277 4.538 14.368 10.47zm-19.112.122a2.055 2.055 0 100-4.111 2.055 2.055 0 000 4.11zm11.542-2.056a2.055 2.055 0 11-4.11 0 2.055 2.055 0 014.11 0z"
    clip-rule="evenodd"
  />
  <path
    fill="#fff"
    fill-rule="evenodd"
    d="M44 29.065c0 3.147-1.757 5.957-4.505 7.797l.515 3.248a.316.316 0 01-.493.309L36.52 38.33c-1.444.498-3.03.773-4.693.773-6.723 0-12.174-4.495-12.174-10.04 0-5.544 5.45-10.039 12.174-10.039C38.55 19.025 44 23.52 44 29.065zm-14.387-3.083a1.581 1.581 0 11-3.162 0 1.581 1.581 0 013.162 0zm6.324 1.58a1.581 1.581 0 100-3.162 1.581 1.581 0 000 3.163z"
    clip-rule="evenodd"
  />
  <defs>
    <linearGradient
      id="wechat__a"
      x1="24"
      x2="24"
      y1="0"
      y2="48"
      gradientUnits="userSpaceOnUse"
    >
      <stop stop-color="#24E073" />
      <stop offset="1" stop-color="#21C165" />
    </linearGradient>
  </defs>
</svg>
