<svg
  xmlns="http://www.w3.org/2000/svg"
  width="48"
  height="48"
  viewBox="0 0 48 48"
>
  <rect width="40" height="40" x="4" y="4" fill="url(#wechat__a)" rx="10" />
  <path
    fill="#fff"
    fill-rule="evenodd"
    d="M30.24 20.33a11.349 11.349 0 00-.762-.026c-5.134 0-9.296 3.444-9.296 7.692 0 .827.158 1.624.45 2.371a11.668 11.668 0 01-4.448-.687l-2.659 1.666a.221.221 0 01-.33-.246l.708-2.573C11.527 26.937 10 24.464 10 21.687 10 16.89 14.559 13 20.182 13c5.082 0 9.294 3.177 10.058 7.33zm-13.378.085a1.439 1.439 0 100-2.877 1.439 1.439 0 000 2.877zm8.079-1.439a1.439 1.439 0 11-2.878 0 1.439 1.439 0 012.878 0z"
    clip-rule="evenodd"
  />
  <path
    fill="#fff"
    fill-rule="evenodd"
    d="M38 27.996c0 2.203-1.23 4.17-3.154 5.459l.361 2.273a.221.221 0 01-.345.216l-2.099-1.462c-1.01.35-2.12.542-3.285.542-4.706 0-8.522-3.147-8.522-7.028s3.816-7.028 8.522-7.028c4.707 0 8.522 3.147 8.522 7.028zm-10.071-2.158a1.107 1.107 0 11-2.214 0 1.107 1.107 0 012.214 0zm4.427 1.107a1.107 1.107 0 100-2.214 1.107 1.107 0 000 2.214z"
    clip-rule="evenodd"
  />
  <defs>
    <linearGradient
      id="wechat__a"
      x1="24"
      x2="24"
      y1="4"
      y2="44"
      gradientUnits="userSpaceOnUse"
    >
      <stop stop-color="#24E073" />
      <stop offset="1" stop-color="#21C165" />
    </linearGradient>
  </defs>
</svg>
