<svg
  xmlns="http://www.w3.org/2000/svg"
  width="48"
  height="48"
  viewBox="0 0 48 48"
>
  <path
    fill="url(#whatsapp__a)"
    d="M0 12.8c0-4.48 0-6.72.872-8.432A8 8 0 014.368.872C6.08 0 8.32 0 12.8 0h22.4c4.48 0 6.72 0 8.432.872a8 8 0 013.496 3.496C48 6.08 48 8.32 48 12.8v22.4c0 4.48 0 6.72-.872 8.432a8 8 0 01-3.496 3.496C41.92 48 39.68 48 35.2 48H12.8c-4.48 0-6.72 0-8.432-.872a8 8 0 01-3.496-3.496C0 41.92 0 39.68 0 35.2V12.8z"
  />
  <path
    fill="#fff"
    d="M16.943 35.287l.544.32a14.931 14.931 0 007.583 2.068h.006c8.21 0 14.894-6.651 14.897-14.826a14.703 14.703 0 00-4.36-10.489 14.835 14.835 0 00-10.532-4.348c-8.218 0-14.9 6.65-14.904 14.825a14.734 14.734 0 002.278 7.89l.354.56-1.505 5.471 5.639-1.471zM7 40.997l2.542-9.244a17.74 17.74 0 01-2.392-8.917C7.155 13.001 15.195 5 25.076 5c4.794.002 9.295 1.86 12.679 5.231A17.69 17.69 0 0143 22.851c-.004 9.834-8.046 17.837-17.924 17.837h-.008c-3-.002-5.947-.75-8.565-2.172L7 40.996z"
  />
  <path
    fill="url(#whatsapp__b)"
    d="M7.769 22.845a17.126 17.126 0 002.31 8.609l-2.455 8.923 9.173-2.394a17.364 17.364 0 008.268 2.095h.008c9.536 0 17.299-7.725 17.303-17.22a17.074 17.074 0 00-5.063-12.181c-3.267-3.255-7.612-5.048-12.24-5.05-9.538 0-17.3 7.724-17.305 17.218zm17.304 17.233z"
  />
  <path
    fill="url(#whatsapp__c)"
    d="M7.15 22.84a17.741 17.741 0 002.393 8.918L7 41l9.502-2.48a17.978 17.978 0 008.566 2.172h.007c9.878 0 17.92-8.003 17.924-17.837a17.683 17.683 0 00-5.245-12.62c-3.384-3.37-7.884-5.229-12.679-5.23-9.88 0-17.92 8-17.924 17.835zm5.66 8.452l-.356-.56a14.736 14.736 0 01-2.277-7.89c.003-8.174 6.686-14.825 14.904-14.825a14.83 14.83 0 0110.532 4.348 14.701 14.701 0 014.36 10.488c-.004 8.175-6.687 14.826-14.898 14.826h-.006a14.931 14.931 0 01-7.582-2.067l-.545-.32-5.639 1.47 1.506-5.47zm12.265 9.4z"
  />
  <path
    fill="#fff"
    fill-rule="evenodd"
    d="M20.596 15.383c-.336-.743-.69-.758-1.008-.77-.261-.012-.56-.011-.858-.011-.3 0-.785.111-1.195.557-.41.447-1.567 1.525-1.567 3.719 0 2.193 1.605 4.313 1.828 4.61.224.298 3.099 4.943 7.65 6.73 3.784 1.485 4.554 1.19 5.375 1.115.821-.074 2.65-1.078 3.023-2.119.373-1.041.373-1.933.261-2.12-.112-.185-.41-.297-.858-.52-.448-.223-2.65-1.301-3.06-1.45-.411-.149-.71-.223-1.009.223-.298.446-1.156 1.45-1.417 1.747-.261.298-.523.335-.97.112-.449-.223-1.891-.694-3.602-2.212-1.332-1.182-2.23-2.641-2.492-3.087-.261-.446-.028-.688.197-.91.201-.2.448-.52.672-.78.223-.261.298-.447.447-.744.15-.298.075-.558-.037-.781-.112-.223-.982-2.428-1.38-3.31"
    clip-rule="evenodd"
  />
  <defs>
    <linearGradient
      id="whatsapp__a"
      x1="24"
      x2="24"
      y1="47.995"
      y2="-.005"
      gradientUnits="userSpaceOnUse"
    >
      <stop stop-color="#20B038" />
      <stop offset="1" stop-color="#60D66A" />
    </linearGradient>
    <linearGradient
      id="whatsapp__b"
      x1="25"
      x2="25"
      y1="40.373"
      y2="5.623"
      gradientUnits="userSpaceOnUse"
    >
      <stop stop-color="#20B038" />
      <stop offset="1" stop-color="#60D66A" />
    </linearGradient>
    <linearGradient
      id="whatsapp__c"
      x1="25"
      x2="25"
      y1="41.002"
      y2="5.005"
      gradientUnits="userSpaceOnUse"
    >
      <stop stop-color="#F9F9F9" />
      <stop offset="1" stop-color="#fff" />
    </linearGradient>
  </defs>
</svg>
