<svg
  width="48"
  height="48"
  fill="none"
  xmlns="http://www.w3.org/2000/svg"
  viewBox="0 0 48 48"
>
  <path
    d="M15.047 37.652l.605.357a16.588 16.588 0 008.425 2.297h.007c9.124 0 16.55-7.39 16.553-16.474a16.336 16.336 0 00-4.844-11.654A16.484 16.484 0 0024.09 7.347c-9.131 0-16.557 7.389-16.56 16.472a16.371 16.371 0 002.53 8.766l.394.624-1.672 6.078 6.265-1.635zM4 43.996l2.826-10.27a19.711 19.711 0 01-2.658-9.908C4.172 12.89 13.105 4 24.084 4c5.327.002 10.328 2.066 14.088 5.812 3.76 3.747 5.83 8.726 5.828 14.022-.005 10.927-8.94 19.82-19.916 19.82h-.008a19.97 19.97 0 01-9.518-2.414L4 43.996z"
    fill="#fff"
  />
  <path
    d="M4.854 23.828a19.03 19.03 0 002.567 9.566l-2.728 9.914 10.192-2.66a19.293 19.293 0 009.188 2.328h.008c10.596 0 19.221-8.583 19.226-19.133.002-5.112-1.996-9.919-5.627-13.536-3.63-3.616-8.456-5.608-13.6-5.61-10.597 0-19.222 8.581-19.227 19.131h.001zm19.227 19.148z"
    fill="url(#whatsapp_svg__paint0_linear)"
  />
  <path
    d="M4.167 23.823a19.713 19.713 0 002.659 9.908L4 44.001l10.558-2.756a19.975 19.975 0 009.517 2.412h.009c10.975 0 19.91-8.892 19.915-19.819.002-5.296-2.068-10.275-5.828-14.021-3.76-3.746-8.76-5.81-14.087-5.813-10.979 0-19.912 8.89-19.917 19.818zm6.287 9.39l-.394-.623a16.373 16.373 0 01-2.53-8.766c.003-9.083 7.429-16.472 16.56-16.472a16.485 16.485 0 0111.702 4.83 16.335 16.335 0 014.845 11.655c-.004 9.083-7.43 16.473-16.554 16.473h-.006a16.592 16.592 0 01-8.426-2.297l-.604-.356-6.266 1.635 1.673-6.079zm13.63 10.444z"
    fill="url(#whatsapp_svg__paint1_linear)"
  />
  <path
    fill-rule="evenodd"
    clip-rule="evenodd"
    d="M19.106 15.536c-.373-.825-.765-.841-1.12-.856-.29-.012-.622-.011-.954-.011-.331 0-.87.124-1.326.62-.457.495-1.742 1.694-1.742 4.13 0 2.438 1.783 4.793 2.032 5.124.248.33 3.442 5.492 8.5 7.477 4.204 1.65 5.06 1.322 5.972 1.24.912-.083 2.944-1.199 3.358-2.355.415-1.157.415-2.148.29-2.356-.123-.206-.456-.33-.953-.578-.498-.247-2.944-1.446-3.4-1.611-.457-.165-.788-.248-1.12.248-.332.496-1.285 1.611-1.576 1.941-.29.332-.58.373-1.078.125-.498-.248-2.1-.771-4.002-2.458-1.48-1.313-2.478-2.935-2.768-3.43-.29-.496-.031-.765.218-1.012.224-.222.498-.578.747-.867.248-.29.331-.496.497-.826.166-.33.083-.62-.041-.868-.125-.248-1.092-2.697-1.534-3.677"
    fill="#fff"
  />
  <defs>
    <linearGradient
      id="whatsapp_svg__paint0_linear"
      x1="24"
      y1="43.304"
      x2="24"
      y2="4.692"
      gradientUnits="userSpaceOnUse"
    >
      <stop stop-color="#20B038" />
      <stop offset="1" stop-color="#60D66A" />
    </linearGradient>
    <linearGradient
      id="whatsapp_svg__paint1_linear"
      x1="24"
      y1="44.002"
      x2="24"
      y2="4.005"
      gradientUnits="userSpaceOnUse"
    >
      <stop stop-color="#F9F9F9" />
      <stop offset="1" stop-color="#fff" />
    </linearGradient>
  </defs>
</svg>
