<svg
  xmlns="http://www.w3.org/2000/svg"
  width="48"
  height="48"
  viewBox="0 0 48 48"
>
  <rect width="48" height="48" fill="#fff" rx="8" />
  <path
    fill="#41A5EE"
    d="M41.38 6.357H15.457c-.894 0-1.62.724-1.62 1.617v7.205l15.023 4.41L43 15.18V7.974c0-.893-.725-1.617-1.62-1.617z"
  />
  <path fill="#2B7CD3" d="M43 15.179H13.837V24l15.023 2.646L43 24v-8.821z" />
  <path fill="#185ABD" d="M13.837 24v8.821l14.14 1.765L43 32.82V24H13.837z" />
  <path
    fill="#103F91"
    d="M15.457 41.643H41.38c.895 0 1.62-.724 1.62-1.617V32.82H13.837v7.205c0 .893.726 1.617 1.62 1.617z"
  />
  <path
    d="M24.59 13.414H13.837v22.054H24.59a1.624 1.624 0 001.62-1.617V15.03a1.624 1.624 0 00-1.62-1.617z"
    opacity=".1"
  />
  <path
    d="M23.706 14.296h-9.869V36.35h9.869a1.624 1.624 0 001.62-1.617v-18.82a1.624 1.624 0 00-1.62-1.617z"
    opacity=".2"
  />
  <path
    d="M23.706 14.296h-9.869v20.29h9.869a1.624 1.624 0 001.62-1.617V15.913a1.624 1.624 0 00-1.62-1.617z"
    opacity=".2"
  />
  <path
    d="M22.822 14.296h-8.985v20.29h8.985a1.624 1.624 0 001.62-1.617V15.913a1.624 1.624 0 00-1.62-1.617z"
    opacity=".2"
  />
  <path
    fill="url(#word__a)"
    d="M6.62 14.296h16.202c.895 0 1.62.724 1.62 1.618v16.173c0 .893-.725 1.616-1.62 1.616H6.62c-.895 0-1.62-.723-1.62-1.616V15.913c0-.893.725-1.617 1.62-1.617z"
  />
  <path
    fill="#fff"
    d="M11.648 26.698c.031.25.053.466.062.652h.037c.014-.176.044-.389.089-.637.044-.25.085-.46.12-.631l1.705-7.338h2.203l1.767 7.228c.103.449.176.904.22 1.363h.03c.032-.444.094-.886.183-1.323l1.41-7.271h2.005l-2.476 10.515H16.66l-1.68-6.964a16.272 16.272 0 01-.278-1.49h-.03c-.019.171-.057.425-.114.762-.056.337-.101.587-.136.748l-1.578 6.942h-2.383l-2.489-10.51h2.042l1.535 7.353c.034.15.067.352.099.6z"
  />
  <defs>
    <linearGradient
      id="word__a"
      x1="8.378"
      x2="21.03"
      y1="13.033"
      y2="34.987"
      gradientUnits="userSpaceOnUse"
    >
      <stop stop-color="#2368C4" />
      <stop offset=".5" stop-color="#1A5DBE" />
      <stop offset="1" stop-color="#1146AC" />
    </linearGradient>
  </defs>
</svg>
