<svg
  xmlns="http://www.w3.org/2000/svg"
  width="48"
  height="48"
  viewBox="0 0 48 48"
>
  <path
    fill="#016087"
    d="M6.646 24c0 6.877 4 12.8 9.785 15.615L8.154 16.938A17.292 17.292 0 006.646 24zM24 41.354a17.54 17.54 0 005.77-.985l-.124-.23-5.338-14.616-5.2 15.123c1.538.462 3.184.708 4.892.708zm2.385-25.492l6.276 18.661 1.739-5.785c.739-2.4 1.308-4.123 1.308-5.615 0-2.154-.77-3.63-1.416-4.77-.892-1.445-1.707-2.66-1.707-4.076 0-1.6 1.2-3.077 2.923-3.077h.215A17.293 17.293 0 0024 6.646a17.339 17.339 0 00-14.492 7.815l1.107.031c1.816 0 4.616-.23 4.616-.23.954-.047 1.061 1.323.123 1.43 0 0-.939.123-2 .17l6.338 18.8 3.8-11.385-2.707-7.416a30.89 30.89 0 01-1.816-.153c-.938-.062-.83-1.493.108-1.447 0 0 2.861.231 4.57.231 1.815 0 4.615-.23 4.615-.23.938-.047 1.061 1.323.123 1.43 0 0-.939.108-2 .17zM32.723 39a17.355 17.355 0 008.63-15c0-3.015-.768-5.846-2.122-8.323a16.386 16.386 0 01-1.2 8L32.723 39zM24 44a20 20 0 110-40 20 20 0 010 40z"
  />
</svg>
