<svg
  xmlns="http://www.w3.org/2000/svg"
  width="48"
  height="48"
  viewBox="0 0 48 48"
>
  <path
    fill="#41A5EE"
    d="M43.21 4.5H14.558c-.989 0-1.79.8-1.79 1.787v7.963l16.604 4.875L45 14.25V6.287C45 5.3 44.198 4.5 43.21 4.5z"
  />
  <path fill="#2B7CD3" d="M45 14.25H12.767V24l16.605 2.925L45 24v-9.75z" />
  <path fill="#185ABD" d="M12.768 24v9.75l15.627 1.95L45 33.75V24H12.767z" />
  <path
    fill="#103F91"
    d="M14.558 43.5H43.21c.989 0 1.79-.8 1.79-1.787V33.75H12.767v7.963c0 .987.802 1.787 1.79 1.787z"
  />
  <path
    fill="#000"
    d="M24.651 12.3H12.768v24.375H24.65a1.795 1.795 0 001.79-1.787v-20.8a1.795 1.795 0 00-1.79-1.788z"
    opacity=".1"
  />
  <path
    fill="#000"
    d="M23.675 13.275H12.767V37.65h10.908a1.795 1.795 0 001.79-1.787v-20.8a1.795 1.795 0 00-1.79-1.788z"
    opacity=".2"
  />
  <path
    fill="#000"
    d="M23.675 13.275H12.767V35.7h10.908a1.795 1.795 0 001.79-1.787v-18.85a1.795 1.795 0 00-1.79-1.788z"
    opacity=".2"
  />
  <path
    fill="#000"
    d="M22.698 13.275h-9.93V35.7h9.93a1.795 1.795 0 001.79-1.787v-18.85a1.795 1.795 0 00-1.79-1.788z"
    opacity=".2"
  />
  <path
    fill="url(#word__a)"
    d="M4.79 13.275h17.908c.989 0 1.79.8 1.79 1.787v17.876c0 .987-.801 1.787-1.79 1.787H4.79c-.988 0-1.79-.8-1.79-1.787V15.062c0-.987.802-1.787 1.79-1.787z"
  />
  <path
    fill="#fff"
    d="M10.347 26.982c.035.276.059.515.07.721h.04c.016-.195.049-.43.098-.705.05-.275.094-.507.134-.697l1.883-8.11h2.435l1.954 7.988c.113.497.194 1 .243 1.508h.032c.037-.492.104-.98.203-1.463l1.558-8.037h2.216L18.477 29.81h-2.59l-1.856-7.697c-.053-.22-.115-.51-.182-.866-.068-.356-.11-.617-.126-.78h-.033c-.021.189-.063.47-.125.842a21.94 21.94 0 01-.151.827l-1.744 7.672H9.036L6.285 18.191H8.54l1.697 8.127c.038.166.074.389.11.664z"
  />
  <defs>
    <linearGradient
      id="word__a"
      x1="6.733"
      x2="20.718"
      y1="11.879"
      y2="36.143"
      gradientUnits="userSpaceOnUse"
    >
      <stop stop-color="#2368C4" />
      <stop offset=".5" stop-color="#1A5DBE" />
      <stop offset="1" stop-color="#1146AC" />
    </linearGradient>
  </defs>
</svg>
