<svg
  xmlns="http://www.w3.org/2000/svg"
  width="48"
  height="48"
  viewBox="0 0 48 48"
>
  <circle cx="24" cy="24" r="20" fill="#FCFCFC" />
  <path
    fill="#016087"
    d="M7.514 24c0 6.533 3.8 12.16 9.295 14.835L8.946 17.29A16.428 16.428 0 007.514 24zM24 40.486a16.66 16.66 0 005.48-.935l-.116-.22-5.072-13.884-4.94 14.367a16.19 16.19 0 004.648.672zm2.265-24.217l5.963 17.728 1.652-5.495c.701-2.28 1.242-3.917 1.242-5.335 0-2.046-.73-3.45-1.344-4.53-.848-1.375-1.623-2.53-1.623-3.874 0-1.52 1.14-2.923 2.777-2.923h.205A16.428 16.428 0 0024 7.514a16.471 16.471 0 00-13.768 7.424l1.053.03c1.724 0 4.384-.22 4.384-.22.906-.043 1.009 1.257.117 1.36 0 0-.891.117-1.9.16l6.022 17.86 3.61-10.815-2.573-7.044a29.44 29.44 0 01-1.724-.147c-.892-.058-.79-1.417.102-1.373 0 0 2.718.219 4.34.219 1.726 0 4.386-.22 4.386-.22.891-.043 1.008 1.257.116 1.36 0 0-.891.102-1.9.16zm6.022 21.981a16.486 16.486 0 008.2-14.25c0-2.865-.732-5.554-2.018-7.907a15.565 15.565 0 01-1.14 7.6L32.287 38.25zM24 43a19 19 0 110-38 19 19 0 010 38z"
  />
</svg>
