<svg
  xmlns="http://www.w3.org/2000/svg"
  width="48"
  height="48"
  viewBox="0 0 48 48"
>
  <g clip-path="url(#xcel__a)">
    <path
      fill="#185C37"
      d="M29.372 23.025L12.768 20.1v21.613c0 .987.801 1.787 1.79 1.787H43.21c.988 0 1.79-.8 1.79-1.787V33.75L29.372 23.025z"
    />
    <path
      fill="#21A366"
      d="M29.372 4.5H14.558c-.989 0-1.79.8-1.79 1.787v7.963L29.371 24l8.79 2.925L45 24v-9.75L29.372 4.5z"
    />
    <path fill="#107C41" d="M12.768 14.25h16.604V24H12.767v-9.75z" />
    <path
      fill="#000"
      d="M24.651 12.3H12.768v24.375H24.65a1.795 1.795 0 001.79-1.787v-20.8a1.795 1.795 0 00-1.79-1.788z"
      opacity=".1"
    />
    <path
      fill="#000"
      d="M23.675 13.275H12.767V37.65h10.908a1.795 1.795 0 001.79-1.787v-20.8a1.795 1.795 0 00-1.79-1.788z"
      opacity=".2"
    />
    <path
      fill="#000"
      d="M23.675 13.275H12.767V35.7h10.908a1.795 1.795 0 001.79-1.787v-18.85a1.795 1.795 0 00-1.79-1.788z"
      opacity=".2"
    />
    <path
      fill="#000"
      d="M22.698 13.275h-9.93V35.7h9.93a1.795 1.795 0 001.79-1.787v-18.85a1.795 1.795 0 00-1.79-1.788z"
      opacity=".2"
    />
    <path
      fill="url(#xcel__b)"
      d="M4.79 13.275h17.908c.989 0 1.79.8 1.79 1.787v17.876c0 .987-.801 1.787-1.79 1.787H4.79c-.988 0-1.79-.8-1.79-1.787V15.062c0-.987.802-1.787 1.79-1.787z"
    />
    <path
      fill="#fff"
      d="M8.545 29.809l3.766-5.826-3.45-5.793h2.775l1.884 3.705c.173.352.293.613.357.786h.024c.124-.281.254-.554.391-.818l2.013-3.671h2.549l-3.54 5.76 3.63 5.857h-2.712l-2.175-4.067a3.405 3.405 0 01-.26-.543h-.032a2.565 2.565 0 01-.252.527l-2.24 4.083H8.545z"
    />
    <path
      fill="#33C481"
      d="M43.21 4.5H29.372v9.75H45V6.287C45 5.3 44.198 4.5 43.21 4.5z"
    />
    <path fill="#107C41" d="M29.372 24H45v9.75H29.372V24z" />
  </g>
  <defs>
    <linearGradient
      id="xcel__b"
      x1="6.733"
      x2="20.718"
      y1="11.879"
      y2="36.143"
      gradientUnits="userSpaceOnUse"
    >
      <stop stop-color="#18884F" />
      <stop offset=".5" stop-color="#117E43" />
      <stop offset="1" stop-color="#0B6631" />
    </linearGradient>
    <clipPath id="xcel__a">
      <path fill="#fff" d="M0 0h42v39H0z" transform="translate(3 4.5)" />
    </clipPath>
  </defs>
</svg>
