<svg
  xmlns="http://www.w3.org/2000/svg"
  width="48"
  height="48"
  viewBox="0 0 48 48"
>
  <rect width="48" height="48" fill="#fff" rx="8" />
  <path
    fill="#185C37"
    d="M28.959 23.1l-15.327-2.7v19.95c0 .911.74 1.65 1.652 1.65h26.448c.913 0 1.653-.739 1.653-1.65V33l-14.426-9.9z"
  />
  <path
    fill="#21A366"
    d="M28.959 6H15.284a1.65 1.65 0 00-1.652 1.65V15l15.327 9 8.114 2.7 6.312-2.7v-9L28.959 6z"
  />
  <path fill="#107C41" d="M13.632 15h15.327v9H13.632v-9z" />
  <path
    d="M24.601 13.2h-10.97v22.5h10.97a1.656 1.656 0 001.653-1.65v-19.2A1.657 1.657 0 0024.6 13.2z"
    opacity=".1"
  />
  <path
    d="M23.7 14.1H13.632v22.5H23.7a1.656 1.656 0 001.652-1.65v-19.2A1.657 1.657 0 0023.7 14.1z"
    opacity=".2"
  />
  <path
    d="M23.7 14.1H13.632v20.7H23.7a1.656 1.656 0 001.652-1.65v-17.4A1.657 1.657 0 0023.7 14.1z"
    opacity=".2"
  />
  <path
    d="M22.798 14.1h-9.166v20.7h9.166a1.656 1.656 0 001.653-1.65v-17.4a1.657 1.657 0 00-1.653-1.65z"
    opacity=".2"
  />
  <path
    fill="url(#xcel__a)"
    d="M6.268 14.1h16.53c.913 0 1.653.739 1.653 1.65v16.5c0 .911-.74 1.65-1.653 1.65H6.268a1.651 1.651 0 01-1.653-1.65v-16.5c0-.911.74-1.65 1.653-1.65z"
  />
  <path
    fill="#fff"
    d="M9.734 29.362l3.476-5.377-3.185-5.348h2.562l1.739 3.42c.16.325.27.566.33.725h.022c.114-.259.235-.51.36-.755l1.86-3.388h2.351l-3.266 5.316 3.35 5.407H16.83l-2.008-3.754a3.15 3.15 0 01-.24-.501h-.03c-.059.17-.137.333-.233.486l-2.067 3.77H9.734z"
  />
  <path
    fill="#33C481"
    d="M41.732 6H28.959v9h14.426V7.65c0-.911-.74-1.65-1.653-1.65z"
  />
  <path fill="#107C41" d="M28.959 24h14.426v9H28.959v-9z" />
  <defs>
    <linearGradient
      id="xcel__a"
      x1="8.061"
      x2="20.97"
      y1="12.811"
      y2="35.209"
      gradientUnits="userSpaceOnUse"
    >
      <stop stop-color="#18884F" />
      <stop offset=".5" stop-color="#117E43" />
      <stop offset="1" stop-color="#0B6631" />
    </linearGradient>
  </defs>
</svg>
