<svg
  xmlns="http://www.w3.org/2000/svg"
  width="48"
  height="48"
  viewBox="0 0 48 48"
>
  <path
    fill="#470137"
    d="M11.083 4.5h25.834A7.077 7.077 0 0144 11.583v24.834a7.077 7.077 0 01-7.083 7.083H11.083A7.077 7.077 0 014 36.417V11.583A7.077 7.077 0 0111.083 4.5z"
  />
  <path
    fill="#FF61F6"
    d="M25.033 14.75l-5 8.25 5.334 8.75c.033.067.05.133.033.2s-.083.017-.183.033H21.4c-.267 0-.45-.016-.567-.183-.35-.7-.716-1.383-1.066-2.083a67.215 67.215 0 00-1.134-2.1c-.4-.717-.8-1.434-1.2-2.167H17.4c-.35.717-.733 1.433-1.117 2.15-.383.717-.766 1.433-1.133 2.133-.383.7-.767 1.417-1.15 2.1-.067.167-.2.184-.383.184H9.95c-.067 0-.117.033-.117-.05a.232.232 0 01.034-.184l5.183-8.5-5.05-8.55c-.05-.066-.067-.133-.033-.166.033-.05.1-.067.166-.067h3.784c.083 0 .166.017.233.033a.474.474 0 01.167.15 32.12 32.12 0 001.066 2.15c.4.717.784 1.417 1.2 2.117.4.7.767 1.4 1.117 2.117h.033c.35-.734.717-1.45 1.084-2.15.366-.7.75-1.4 1.133-2.1.383-.7.75-1.417 1.117-2.1.016-.067.05-.134.1-.167.066-.033.133-.05.216-.033H24.9a.154.154 0 01.183.116c.017.017-.016.084-.05.117z"
  />
  <path
    fill="#FF61F6"
    d="M31.97 32.347a8.285 8.285 0 01-3.584-.75 5.81 5.81 0 01-2.516-2.267c-.617-1.016-.917-2.283-.917-3.8-.017-1.233.3-2.45.917-3.516a6.92 6.92 0 012.65-2.584c1.166-.65 2.566-.966 4.216-.966.084 0 .2 0 .35.016.15.017.317.017.517.034v-5.267c0-.117.05-.183.167-.183h3.383c.083-.017.15.05.167.116v15.9c0 .3.016.634.033 1 .033.35.05.684.067.967 0 .117-.05.217-.167.267-.867.366-1.783.633-2.717.8-.85.15-1.7.233-2.566.233zm1.633-3.333V21.68a4.28 4.28 0 00-.45-.083 6.072 6.072 0 00-.55-.033c-.65 0-1.3.133-1.883.433-.567.283-1.05.7-1.417 1.233-.367.534-.55 1.25-.55 2.117a4.646 4.646 0 00.283 1.717c.167.45.417.85.75 1.183.317.3.7.533 1.134.667.45.15.916.216 1.383.216.25 0 .483-.016.7-.033.217.017.4-.017.6-.083z"
  />
</svg>
