<svg
  xmlns="http://www.w3.org/2000/svg"
  width="48"
  height="48"
  viewBox="0 0 48 48"
>
  <path
    fill="#470137"
    d="M8.5 0h31C44.2 0 48 3.897 48 8.718v30.564C48 44.102 44.2 48 39.5 48h-31C3.8 48 0 44.103 0 39.282V8.718C0 3.898 3.8 0 8.5 0z"
  />
  <path
    fill="#FF61F6"
    d="M25.24 14.027l-6 9.9 6.4 10.5c.04.08.06.16.04.24-.02.08-.1.02-.22.04h-4.58c-.32 0-.54-.02-.68-.22-.42-.84-.86-1.66-1.28-2.5-.42-.82-.88-1.66-1.36-2.52-.48-.86-.96-1.72-1.44-2.6h-.04c-.42.86-.88 1.72-1.34 2.58-.46.86-.92 1.72-1.36 2.56-.46.84-.92 1.7-1.38 2.52-.08.2-.24.22-.46.22h-4.4c-.08 0-.14.04-.14-.06-.02-.08 0-.16.04-.22l6.22-10.2-6.06-10.26c-.06-.08-.08-.16-.04-.2.04-.06.12-.08.2-.08h4.54c.1 0 .2.02.28.04.08.04.14.1.2.18.38.86.82 1.72 1.28 2.58.48.86.94 1.7 1.44 2.54.48.84.92 1.68 1.34 2.54h.04c.42-.88.86-1.74 1.3-2.58.44-.84.9-1.68 1.36-2.52.46-.84.9-1.7 1.34-2.52.02-.08.06-.16.12-.2.08-.04.16-.06.26-.04h4.22c.1-.02.2.04.22.14.02.02-.02.1-.06.14z"
  />
  <path
    fill="#FF61F6"
    d="M33.564 35.143c-1.48.02-2.96-.28-4.3-.9a6.973 6.973 0 01-3.02-2.72c-.74-1.22-1.1-2.74-1.1-4.56-.02-1.48.36-2.94 1.1-4.22.76-1.3 1.86-2.38 3.18-3.1 1.4-.78 3.08-1.16 5.06-1.16.1 0 .24 0 .42.02s.38.02.62.04v-6.32c0-.14.06-.22.2-.22h4.06c.1-.02.18.06.2.14v19.08c0 .36.02.76.04 1.2.04.42.06.82.08 1.16 0 .14-.06.26-.2.32-1.04.44-2.14.76-3.26.96-1.02.18-2.04.28-3.08.28zm1.96-4v-8.8c-.18-.04-.36-.08-.54-.1-.22-.02-.44-.04-.66-.04-.78 0-1.56.16-2.26.52-.68.34-1.26.84-1.7 1.48-.44.64-.66 1.5-.66 2.54-.02.7.1 1.4.34 2.06.2.54.5 1.02.9 1.42.38.36.84.64 1.36.8.54.18 1.1.26 1.66.26.3 0 .58-.02.84-.04.26.02.48-.02.72-.1z"
  />
</svg>
