<svg
  xmlns="http://www.w3.org/2000/svg"
  width="48"
  height="48"
  viewBox="0 0 48 48"
>
  <path
    fill="#470137"
    d="M10.438 3.5h27.124A7.436 7.436 0 0145 10.947v26.106a7.436 7.436 0 01-7.438 7.447H10.439A7.436 7.436 0 013 37.053V10.947A7.436 7.436 0 0110.438 3.5z"
  />
  <path
    fill="#FF61F6"
    d="M25.085 14.276l-5.25 8.673 5.6 9.198c.035.07.052.14.035.21-.018.07-.088.018-.193.036H21.27c-.28 0-.473-.018-.595-.193-.368-.736-.753-1.454-1.12-2.19a71.03 71.03 0 00-1.19-2.208c-.42-.753-.84-1.507-1.26-2.278h-.035c-.368.754-.77 1.507-1.173 2.26a298.02 298.02 0 00-1.19 2.243c-.402.736-.805 1.49-1.207 2.208-.07.175-.21.193-.403.193h-3.85c-.07 0-.122.035-.122-.053-.018-.07 0-.14.035-.193l5.442-8.935L9.3 14.258c-.053-.07-.07-.14-.035-.175.035-.053.105-.07.175-.07h3.972c.088 0 .175.017.245.035.07.035.123.088.175.158.333.753.718 1.506 1.12 2.26.42.753.823 1.49 1.26 2.225.42.736.805 1.472 1.173 2.225h.035c.367-.77.752-1.524 1.137-2.26.385-.736.788-1.472 1.19-2.208.403-.736.788-1.489 1.173-2.207a.298.298 0 01.105-.176.333.333 0 01.227-.035h3.693a.161.161 0 01.192.123c.018.018-.017.088-.052.123z"
  />
  <path
    fill="#FF61F6"
    d="M32.368 32.775a8.69 8.69 0 01-3.762-.788 6.104 6.104 0 01-2.643-2.383c-.647-1.07-.962-2.4-.962-3.995a7.203 7.203 0 01.962-3.697 7.272 7.272 0 012.783-2.716c1.225-.683 2.695-1.016 4.427-1.016.088 0 .21 0 .368.017.157.018.332.018.542.035v-5.537c0-.122.053-.192.175-.192h3.553c.087-.018.157.052.175.122V29.34c0 .316.017.667.035 1.052.035.368.052.718.07 1.016 0 .123-.053.228-.175.28a13.35 13.35 0 01-2.853.842 15.48 15.48 0 01-2.695.245zm1.715-3.504v-7.71a4.451 4.451 0 00-.472-.087 6.355 6.355 0 00-.578-.035 4.31 4.31 0 00-1.977.455 3.924 3.924 0 00-1.488 1.297c-.385.56-.577 1.314-.577 2.225a4.888 4.888 0 00.297 1.805c.175.473.438.893.788 1.244.332.315.735.56 1.19.7.472.158.962.228 1.452.228.263 0 .508-.017.735-.035.228.018.42-.017.63-.087z"
  />
</svg>
