<svg
  xmlns="http://www.w3.org/2000/svg"
  width="48"
  height="48"
  viewBox="0 0 48 48"
>
  <rect width="48" height="48" fill="#fff" rx="8" />
  <path
    fill="red"
    d="M43.164 14.372a5.01 5.01 0 00-3.537-3.536C36.508 10 24 10 24 10s-12.508 0-15.628.836a5.01 5.01 0 00-3.536 3.536C4 17.492 4 24 4 24s0 6.509.836 9.628a5.01 5.01 0 003.536 3.536C11.492 38 24 38 24 38s12.508 0 15.627-.836a5.01 5.01 0 003.537-3.536C44 30.508 44 24 44 24s0-6.508-.836-9.628"
  />
  <path fill="#fff" d="M20 30l10.392-6L20 18v12z" />
</svg>
