<svg
  width="48"
  height="48"
  fill="none"
  xmlns="http://www.w3.org/2000/svg"
  viewBox="0 0 48 48"
>
  <rect width="40" height="40" x="4" y="4" fill="url(#zoom__a)" rx="13.333" />
  <path
    fill="#fff"
    fill-rule="evenodd"
    d="M13.185 16.889c-.9 0-1.63.73-1.63 1.63v8.148A4.444 4.444 0 0016 31.11h11.852c.9 0 1.63-.73 1.63-1.63v-8.74a3.852 3.852 0 00-3.852-3.852H13.185zm23.26.987a.889.889 0 00-1.453-.687l-3.713 3.04c-.481.394-.76.983-.76 1.605v4.146c0 .607.265 1.183.726 1.577l3.733 3.19a.889.889 0 001.466-.676V17.876z"
    clip-rule="evenodd"
  />
  <defs>
    <linearGradient
      id="zoom__a"
      x1="24"
      x2="24"
      y1="4"
      y2="44"
      gradientUnits="userSpaceOnUse"
    >
      <stop stop-color="#56A2FF" />
      <stop offset="1" stop-color="#3E84FC" />
    </linearGradient>
  </defs>
</svg>
