<svg
  xmlns="http://www.w3.org/2000/svg"
  width="48"
  height="48"
  viewBox="0 0 48 48"
>
  <rect width="48" height="48" fill="url(#zoom__a)" rx="8" />
  <path
    fill="#fff"
    fill-rule="evenodd"
    d="M11.022 15.467c-1.08 0-1.955.875-1.955 1.955V27.2a5.333 5.333 0 005.333 5.333h14.222c1.08 0 1.956-.875 1.956-1.955v-10.49a4.622 4.622 0 00-4.622-4.621H11.022zm27.911 1.185c0-.9-1.046-1.396-1.742-.826l-4.457 3.648a2.489 2.489 0 00-.912 1.926v4.976c0 .728.319 1.42.872 1.892l4.48 3.828c.692.592 1.76.1 1.76-.81V16.651z"
    clip-rule="evenodd"
  />
  <defs>
    <linearGradient
      id="zoom__a"
      x1="24"
      x2="24"
      y1="0"
      y2="48"
      gradientUnits="userSpaceOnUse"
    >
      <stop stop-color="#56A2FF" />
      <stop offset="1" stop-color="#3E84FC" />
    </linearGradient>
  </defs>
</svg>
